<svg xmlns="http://www.w3.org/2000/svg" width="563" height="254" fill="none"><path fill="#000" d="M6.068 164.934a5.8 5.8 0 0 1-1.57-.211.48.48 0 0 1-.358-.404.5.5 0 0 1 .015-.19.48.48 0 0 1 .402-.37.5.5 0 0 1 .192.014c.431.11.874.167 1.32.172a5.1 5.1 0 0 0 2.203-.502.503.503 0 0 1 .66.225.48.48 0 0 1 .02.38.5.5 0 0 1-.258.279 6 6 0 0 1-2.626.607m-4.605-2.428a.5.5 0 0 1-.409-.211 6.094 6.094 0 0 1 .41-7.389.515.515 0 0 1 .699 0 .5.5 0 0 1 .147.35.5.5 0 0 1-.147.35 5.1 5.1 0 0 0-1.227 3.311 5.03 5.03 0 0 0 .884 2.864.48.48 0 0 1 .078.371.5.5 0 0 1-.21.315.43.43 0 0 1-.225.079zm9.712-.923a.6.6 0 0 1-.198 0 .5.5 0 0 1-.268-.268.5.5 0 0 1 .004-.379 4.9 4.9 0 0 0 .422-2.032 4.7 4.7 0 0 0-.224-1.491.5.5 0 0 1 .338-.579.5.5 0 0 1 .612.276c.173.582.262 1.187.264 1.794a6.1 6.1 0 0 1-.502 2.428.49.49 0 0 1-.448.29zm-2.151-6.941a.47.47 0 0 1-.264-.079 5.1 5.1 0 0 0-2.639-.765q-.383-.03-.765 0a.48.48 0 0 1-.366-.095.5.5 0 0 1-.188-.327.48.48 0 0 1 .228-.493.5.5 0 0 1 .18-.062q.456-.039.911 0a6.05 6.05 0 0 1 3.22.924.488.488 0 0 1-.264.911z"/><path fill="#FFEFDC" d="M277.419 91.163a65.7 65.7 0 0 1 1.24 14.514l-5.898 2.296s-3.616 14.844 19.159 10.292c4.42-.884 17.153-10.556 17.153-10.556l-10.121-2.889s-.976-14.726-1.319-22.036a186 186 0 0 1-20.214 8.379"/><path fill="#000" d="M284.153 119.637c-4.42 0-7.679-1.069-9.738-3.206a9.81 9.81 0 0 1-2.124-8.564.48.48 0 0 1 .303-.343l5.582-2.177a64.7 64.7 0 0 0-1.241-14.079.5.5 0 0 1 .344-.58 189 189 0 0 0 20.174-8.392.52.52 0 0 1 .462 0 .47.47 0 0 1 .238.396c.356 6.597 1.187 19.409 1.319 21.679l9.778 2.797a.503.503 0 0 1 .171.871c-.528.396-12.944 9.804-17.43 10.701a41 41 0 0 1-7.838.897m-10.952-11.295a8.81 8.81 0 0 0 1.94 7.403c2.876 2.995 8.497 3.681 16.678 2.045 3.642-.726 13.38-7.798 16.23-9.923l-9.157-2.639a.49.49 0 0 1-.37-.448c0-.145-.91-13.855-1.319-21.296a193 193 0 0 1-19.212 7.982 68 68 0 0 1 1.148 14.211.49.49 0 0 1-.317.449z"/><path fill="#F4825A" d="M263.469 50.207c-2.085.502-4.157-1.61-4.196-3.84a6.03 6.03 0 0 1 3.444-5.211 19.6 19.6 0 0 1 6.28-1.399 5.61 5.61 0 0 1 2.006-6.136 8.6 8.6 0 0 1 6.36-1.438 7.7 7.7 0 0 1 4.064 1.557 5.11 5.11 0 0 1 1.847 4.077c1.94-2.428 5.041-4.064 7.983-3.351 2.943.712 5.146 4.288 5.37 6.756a6.94 6.94 0 0 1 5.529-3.075c4.368.238 5.357 3.959 3.391 8.722a5.027 5.027 0 0 1 6.848 3.272 10 10 0 0 1-1.847 8.485 4.9 4.9 0 0 1-1.32.976c-.686 3.734-1.53 7.64-2.81 12.575a45 45 0 0 1-4.434 10.74 6.37 6.37 0 0 1-3.364 3.101c-.093-1.544-1.702-2.31-1.953-3.84-.317-1.9.91-3.562-.238-5.278a27.8 27.8 0 0 1-4.341-10.278 13.42 13.42 0 0 1 .805-8.762 9.4 9.4 0 0 1 2.059-2.639 15.3 15.3 0 0 1-.924-2.309c-1.319 2.19-2.217 3.708-5.423 4.764a4.66 4.66 0 0 1-5.898-2.402c-.502 2.256-3.959 5.423-6.188 5.647-2.23.225-3.022-.791-3.959-2.902-1.953 1.728-3.417 3.496-5.41 4.248a6.214 6.214 0 0 1-7.811-3.958 6.69 6.69 0 0 1 4.13-8.102"/><path fill="#000" d="M298.661 86.464a.6.6 0 0 1-.251 0 .52.52 0 0 1-.237-.396 3.33 3.33 0 0 0-.871-1.728 4.46 4.46 0 0 1-1.082-2.072 6.8 6.8 0 0 1 .106-2.335 3.38 3.38 0 0 0-.264-2.705 28.1 28.1 0 0 1-4.46-10.516 13.76 13.76 0 0 1 .844-9.092 10.3 10.3 0 0 1 1.9-2.546 20 20 0 0 1-.435-1.03 8.37 8.37 0 0 1-5.146 4.051 5.28 5.28 0 0 1-5.977-1.662c-1.148 2.256-4.13 4.723-6.215 4.935-2.085.21-3.259-.713-4.13-2.56l-.871.818a13.1 13.1 0 0 1-4.183 3.061 6.28 6.28 0 0 1-4.961-.303 6.7 6.7 0 0 1-3.496-3.959 7.27 7.27 0 0 1 2.638-7.917 4.3 4.3 0 0 1-1.068-.607 4.72 4.72 0 0 1-1.834-3.576 6.5 6.5 0 0 1 3.721-5.66 15.4 15.4 0 0 1 5.277-1.32l.621-.079a6.27 6.27 0 0 1 2.348-6.122 9.12 9.12 0 0 1 6.73-1.544 8.26 8.26 0 0 1 4.301 1.676 5.6 5.6 0 0 1 2.019 3.338 8.33 8.33 0 0 1 7.693-2.639c2.638.647 4.895 3.536 5.555 6.136a6.75 6.75 0 0 1 5.277-2.468 4.87 4.87 0 0 1 4.064 2.085c.95 1.517.99 3.734.119 6.32a5.4 5.4 0 0 1 3.312.304 5.67 5.67 0 0 1 3.22 3.589 10.56 10.56 0 0 1-1.953 8.96c-.35.379-.754.704-1.201.962-.726 3.959-1.61 7.917-2.784 12.377a45 45 0 0 1-4.526 10.886 6.9 6.9 0 0 1-3.589 3.298.4.4 0 0 1-.211.04m-4.592-34.082a.5.5 0 0 1 .423.343q.355 1.152.897 2.23a.5.5 0 0 1-.119.594 8.8 8.8 0 0 0-1.9 2.507 12.8 12.8 0 0 0-.752 8.444 26.9 26.9 0 0 0 4.262 10.108 4.26 4.26 0 0 1 .422 3.43 5.7 5.7 0 0 0-.106 2.006c.148.609.453 1.168.884 1.623.402.465.719.996.937 1.57a5.77 5.77 0 0 0 2.639-2.639 44 44 0 0 0 4.368-10.635c1.187-4.539 2.085-8.524 2.81-12.535a.5.5 0 0 1 .251-.343 4.1 4.1 0 0 0 1.148-.871 9.54 9.54 0 0 0 1.755-7.996 4.73 4.73 0 0 0-2.639-2.982 4.34 4.34 0 0 0-3.536 0 .5.5 0 0 1-.568-.08.5.5 0 0 1-.118-.553c1.121-2.64 1.24-4.988.343-6.413a3.96 3.96 0 0 0-3.299-1.623c-1.729-.092-3.444.884-5.08 2.89a.5.5 0 0 1-.528.171.48.48 0 0 1-.343-.435c-.198-2.19-2.19-5.648-5.001-6.32a7.65 7.65 0 0 0-7.534 3.259.53.53 0 0 1-.567.158.5.5 0 0 1-.317-.488 4.68 4.68 0 0 0-1.676-3.682 7.35 7.35 0 0 0-3.8-1.451 8.12 8.12 0 0 0-6.004 1.32 5.13 5.13 0 0 0-1.847 5.568.47.47 0 0 1 0 .422.52.52 0 0 1-.356.237l-1.214.159a14.8 14.8 0 0 0-4.908 1.187 5.57 5.57 0 0 0-3.18 4.777 3.77 3.77 0 0 0 1.451 2.81 2.48 2.48 0 0 0 2.138.541.5.5 0 0 1 .488.449.487.487 0 0 1-.33.607 6.2 6.2 0 0 0-3.629 7.376 5.7 5.7 0 0 0 2.982 3.364 5.28 5.28 0 0 0 4.183.277 12.3 12.3 0 0 0 3.866-2.863c.436-.422.897-.858 1.32-1.32a.47.47 0 0 1 .435-.105.52.52 0 0 1 .356.29c.832 1.993 1.478 2.798 3.391 2.64 1.914-.159 5.278-3.247 5.767-5.279a.47.47 0 0 1 .448-.382.5.5 0 0 1 .502.33c.712 2.045 3.311 2.731 5.277 2.084a8.1 8.1 0 0 0 5.146-4.539.49.49 0 0 1 .462-.237"/><path fill="#FFEFDC" d="M266.849 62.702v-.343l.396-.132c1.993-.752 3.457-2.52 5.41-4.248.884 2.11 1.702 3.127 3.958 2.902s5.687-3.39 6.189-5.647a4.656 4.656 0 0 0 5.898 2.401c3.206-1.055 4.143-2.639 5.423-4.763a11.6 11.6 0 0 0 4.235 6.254 9 9 0 0 0 2.811 1.32c0 .435.079.844.119 1.32a36.5 36.5 0 0 1 .211 7.916c2.494-2.071 4.552-1.728 6.109-.158a3.96 3.96 0 0 1-.171 5.555 7.3 7.3 0 0 1-6.519 1.623c-.607 3.958-1.504 11.875-4.235 15.306a17.67 17.67 0 0 1-13.38 6.175 18.73 18.73 0 0 1-13.92-5.727c-3.682-4.09-4.5-9.5-4.196-14.514.303-5.014 1.649-10.147 1.662-15.24"/><path fill="#000" d="M283.025 98.671a19.18 19.18 0 0 1-13.986-5.871c-3.246-3.616-4.698-8.643-4.315-14.95.132-2.23.462-4.486.792-6.597.482-2.81.759-5.65.831-8.498a3 3 0 0 1 0-.343.486.486 0 0 1 .356-.475l.356-.119a12.3 12.3 0 0 0 3.867-2.863c.435-.422.897-.858 1.319-1.32a.48.48 0 0 1 .435-.105.53.53 0 0 1 .357.29c.831 1.993 1.478 2.797 3.391 2.64 1.913-.16 5.278-3.247 5.766-5.279a.474.474 0 0 1 .449-.382.5.5 0 0 1 .501.33c.712 2.045 3.312 2.73 5.278 2.084a8.1 8.1 0 0 0 5.146-4.539.46.46 0 0 1 .475-.237.5.5 0 0 1 .422.343 11.2 11.2 0 0 0 4.051 6.003 8.6 8.6 0 0 0 2.639 1.32.52.52 0 0 1 .369.435q0 .634.119 1.228v.105a39 39 0 0 1 .29 6.861 4.33 4.33 0 0 1 5.872.541 4.4 4.4 0 0 1 .897 4.846 4.4 4.4 0 0 1-.989 1.422 7.66 7.66 0 0 1-6.439 1.86c0 .264-.08.541-.132.832-.634 4.367-1.61 10.978-4.144 14.197a18.05 18.05 0 0 1-13.749 6.36zM267.337 62.73a60 60 0 0 1-.845 8.616c-.317 2.15-.646 4.367-.778 6.597-.37 6.03 1.002 10.82 4.064 14.224a18.17 18.17 0 0 0 13.537 5.476 17.04 17.04 0 0 0 12.997-5.977c2.375-3.022 3.352-9.725 3.959-13.736a38 38 0 0 1 .198-1.32.47.47 0 0 1 .211-.33.5.5 0 0 1 .382-.078 6.8 6.8 0 0 0 6.057-1.491 3.47 3.47 0 0 0 .092-4.895c-1.557-1.57-3.391-1.505-5.436.197a.53.53 0 0 1-.554 0 .49.49 0 0 1-.251-.488 36 36 0 0 0-.198-7.745v-.093c0-.303-.066-.607-.092-.923a9.7 9.7 0 0 1-2.639-1.32 11.64 11.64 0 0 1-4.091-5.344 8.35 8.35 0 0 1-5.145 4.051 5.28 5.28 0 0 1-5.978-1.662c-1.148 2.256-4.13 4.723-6.215 4.934s-3.259-.712-4.129-2.56l-.871.819a13.1 13.1 0 0 1-4.183 3.06z"/><path fill="#000" d="M271.572 70.079a1.15 1.15 0 0 1 1.055-1.32 1.19 1.19 0 0 1 1.32.99 1.2 1.2 0 0 1-1.941 1.08 1.2 1.2 0 0 1-.447-.803zm16.771.897a1.203 1.203 0 0 1 1.252-1.39 1.2 1.2 0 0 1 .068 2.393 1.163 1.163 0 0 1-1.32-1.003M283.36 90.74a6.3 6.3 0 0 1-1.571-.197.501.501 0 0 1 .251-.963 5.46 5.46 0 0 0 5.436-1.69.5.5 0 0 1 .35-.147.49.49 0 0 1 .492.497c0 .13-.051.256-.142.35a6.5 6.5 0 0 1-4.816 2.15m-2.866-6.292a7.4 7.4 0 0 1-2.559-.488 3.3 3.3 0 0 1-1.412-.858 2.63 2.63 0 0 1-.502-2.375 8 8 0 0 1 .686-1.768l.132-.238a21.5 21.5 0 0 0 2.164-9.526.5.5 0 0 1 .502-.502.49.49 0 0 1 .488.489 22.4 22.4 0 0 1-2.27 9.988l-.118.25c-.27.483-.479.997-.62 1.531a1.86 1.86 0 0 0 .277 1.518c.288.27.636.47 1.016.58a6 6 0 0 0 2.929.37 3.47 3.47 0 0 0 2.362-1.399.5.5 0 0 1 .878.194.5.5 0 0 1-.047.36 4.44 4.44 0 0 1-3.035 1.821q-.434.057-.871.053m20.687-11.718a.5.5 0 0 1-.327-.188.48.48 0 0 1-.095-.366 85 85 0 0 0 .369-3.457.49.49 0 0 1 .541-.448.5.5 0 0 1 .449.54c-.132 1.32-.198 2.098-.383 3.497a.49.49 0 0 1-.361.412.5.5 0 0 1-.193.01m-38.603-13.353a.13.13 0 0 1-.119 0 4.59 4.59 0 0 1-1.042-4.565.2.2 0 0 1 .029-.054.15.15 0 0 1 .169-.038q.03.008.054.029.024.02.04.047a.2.2 0 0 1 .018.06.2.2 0 0 1-.007.061 4.3 4.3 0 0 0 .964 4.236.174.174 0 0 1 0 .237.15.15 0 0 1-.106-.013m44.355-1.597a.17.17 0 0 1-.132 0 .184.184 0 0 1 0-.237 6.6 6.6 0 0 0 1.937-3.201 6.6 6.6 0 0 0-.116-3.74q-.009-.03-.006-.061a.2.2 0 0 1 .018-.06.2.2 0 0 1 .039-.047.173.173 0 0 1 .266.063 6.93 6.93 0 0 1-1.914 7.296.14.14 0 0 1-.092-.013"/><path fill="#FFEFDC" d="M201.877 141.502c-2.494-12.364-3.787-34.412-7.257-46.723a32.7 32.7 0 0 1-7.917-13.01c-.528-1.9-.515-2.64.765-3.959a3.01 3.01 0 0 1 3.576 0c-.475-1.2-1.61-2.282-.119-3.496a2.05 2.05 0 0 1 2.335-.37c-.369-2.414 2.323-3.826 3.827-1.504-1.135-2.982-2.19-5.647-3.378-8.405-.726-1.715-1.438-3.747-.369-4.447 1.319-.884 2.757 1.03 4.275 3.959a112 112 0 0 0 6.307 10.978c2.639 4.17 4.882 11.875 2.784 14.646.132 4.988 11.572 36.273 16.045 43.187 1.623 2.52-.502 4.156-1.61 6.953-1.319 3.365-6.597 15.148-14.514 9.237a18.7 18.7 0 0 1-4.75-7.046"/><path fill="#000" d="M210.946 150.631a7.9 7.9 0 0 1-4.671-1.728 18.9 18.9 0 0 1-4.882-7.297c-1.029-5.159-1.861-11.875-2.731-19.04-1.214-10.015-2.481-20.373-4.474-27.538a33.4 33.4 0 0 1-7.916-13.128c-.568-2.046-.528-3.022.884-4.434a2.99 2.99 0 0 1 2.916-.594 2.137 2.137 0 0 1 .58-2.916 2.77 2.77 0 0 1 2.138-.686 2.64 2.64 0 0 1 1.649-2.322 2.27 2.27 0 0 1 1.57 0 375 375 0 0 0-2.639-6.597c-.857-2.006-1.557-4.17-.184-5.054a1.66 1.66 0 0 1 1.398-.238c1.069.278 2.098 1.531 3.576 4.315v.119a107 107 0 0 0 6.228 10.806c2.639 4.064 5.001 11.876 2.863 15.069.357 5.146 11.414 35.745 15.953 42.764 1.319 2.072.435 3.655-.515 5.344a16 16 0 0 0-1.042 2.072c-1.399 3.523-4.434 9.645-8.946 10.938a6.3 6.3 0 0 1-1.755.145m-8.577-9.236c.132.66 2.323 5.106 4.486 6.69a6.2 6.2 0 0 0 5.529 1.319c4.104-1.174 6.954-6.98 8.286-10.344q.479-1.134 1.109-2.191c.937-1.662 1.557-2.744.541-4.315-4.381-6.782-15.979-38.04-16.111-43.45a.43.43 0 0 1 .092-.303c1.821-2.442 0-9.778-2.797-14.08a112 112 0 0 1-6.281-10.885v-.119c-.805-1.517-1.992-3.576-2.955-3.826a.73.73 0 0 0-.607.119c-.858.554.198 3.021.554 3.826 1.253 2.916 2.362 5.78 3.378 8.431a.493.493 0 0 1-.585.69.5.5 0 0 1-.286-.24 1.625 1.625 0 0 0-1.94-.872 1.794 1.794 0 0 0-.989 2.032.49.49 0 0 1-.211.488.5.5 0 0 1-.541 0 1.61 1.61 0 0 0-1.769.33c-.818.673-.62 1.135-.105 2.138q.215.384.383.791a.48.48 0 0 1-.146.555.5.5 0 0 1-.58 0 2.56 2.56 0 0 0-2.969-.093c-1.122 1.135-1.122 1.703-.62 3.47a32 32 0 0 0 7.798 12.786.6.6 0 0 1 .132.225c2.032 7.23 3.299 17.681 4.539 27.801.871 7.112 1.689 13.855 2.718 18.961z"/><path fill="#000" d="M193.022 85.146a2.14 2.14 0 0 1-1.161-.356 4.8 4.8 0 0 1-1.135-1.188l-1.398-1.873a.498.498 0 0 1 .47-.79.5.5 0 0 1 .321.196l1.399 1.874c.238.364.537.686.884.95a.793.793 0 0 0 1.266-.248.8.8 0 0 0 .053-.491 3.6 3.6 0 0 0-.435-1.32 10.8 10.8 0 0 0-1.676-2.639l-.976-1.2a.514.514 0 0 1 .092-.7.5.5 0 0 1 .37-.103.5.5 0 0 1 .33.196c.409.514.699.884.95 1.174a11.7 11.7 0 0 1 1.781 2.784c.301.517.486 1.093.541 1.689a1.83 1.83 0 0 1-.924 1.781 1.5 1.5 0 0 1-.752.264"/><path fill="#000" d="M196.405 84.314a2.64 2.64 0 0 1-1.438-.554 26 26 0 0 1-1.161-.831.501.501 0 1 1 .594-.792c.356.277.739.541 1.121.805.383.264.713.449 1.003.37s.554-.634.554-1.122c0-.778-.725-2.77-4.13-7.798l-.105-.145a.49.49 0 0 1 .132-.686.493.493 0 0 1 .686.132l.105.145c1.848 2.718 4.302 6.531 4.302 8.352a2.035 2.035 0 0 1-1.319 2.072q-.168.048-.344.052"/><path fill="#000" d="M198.633 87.891a.49.49 0 0 1-.475-.356c-.621-2.217.686-4.051 1.636-5.384.33-.462.831-1.16.778-1.32-.343-.58-2.401-1.2-3.285-1.477a4.4 4.4 0 0 1-.937-.33 2.73 2.73 0 0 1-1.491-1.794 1.48 1.48 0 0 1 .185-1.162 3.5 3.5 0 0 1 1.821-1.213 22.8 22.8 0 0 1 5.752 1.055l.713.185c.844.21 3.14 1.65 3.22 2.731a.5.5 0 0 1-.462.528.5.5 0 0 1-.528-.462 5.5 5.5 0 0 0-2.468-1.834l-.725-.198a25 25 0 0 0-5.397-1.016 2.75 2.75 0 0 0-1.121.805.64.64 0 0 0 0 .383 1.84 1.84 0 0 0 1.016 1.134l.738.251c1.742.528 3.352 1.069 3.853 1.9s-.132 1.465-.831 2.441c-.884 1.227-1.992 2.771-1.491 4.526a.5.5 0 0 1-.044.375.5.5 0 0 1-.299.232z"/><path fill="#000" d="M198.766 75.975a.48.48 0 0 1-.462-.343 15.4 15.4 0 0 0-1.148-2.11c-.224-.397-.448-.766-.593-1.056a.47.47 0 0 1 .048-.541.5.5 0 0 1 .823.079c.132.264.356.62.58 1.002.478.736.889 1.513 1.227 2.323a.5.5 0 0 1-.316.62zm-.511 7.283a1.5 1.5 0 0 1-.647-.145.498.498 0 0 1 .436-.897.78.78 0 0 0 .791-.185 1.78 1.78 0 0 0 .185-1.953.491.491 0 0 1 .823-.507.5.5 0 0 1 .101.164 2.64 2.64 0 0 1-.449 3.035c-.34.308-.781.482-1.24.488m151.222 75.949c-3.167-16.638-3.18-34.478-16.586-45.667-6.426-5.37-21.666-7.679-30.599-8.26-.554 8.656-9.012 10.714-14.422 10.371-9.038-.58-10.648-2.361-12.944-9.236-2.032.805-14.237 1.412-22.167 8.497-14.726 13.195-32.723 11.942-31.483 12.747s-2.89 19.079-14.118 21.322c-5.899 1.188 26.957 6.057 49.493.093-.844 11.796 3.391 46.182 5.846 59.442 23.499 16.388 71.845-2.15 71.845-2.15s-3.694-10.873-3.694-19.08c0-4.077 9.553 4.935 11.44 5.278a5.06 5.06 0 0 0 2.85-1.887c1.583-3.695 7.455-16.177 4.539-31.47"/><path fill="#000" d="M289.12 215.774c-9.672 0-19.515-1.689-26.918-6.835a.54.54 0 0 1-.197-.316c-2.455-13.195-6.519-46.657-5.885-58.889-20.281 5.146-48.241 1.887-49.956.079a.61.61 0 0 1-.171-.646c.118-.409.607-.568 1.055-.647 5.278-1.068 8.735-5.819 10.701-9.632 2.639-5.278 3.418-10.107 3.18-10.859a.57.57 0 0 1-.198-.554c.106-.462.449-.502 2.283-.713 4.948-.58 18.09-2.098 29.411-12.205 6.294-5.621 15.055-7.204 19.792-8.049a18.4 18.4 0 0 0 2.547-.541.486.486 0 0 1 .646.304c2.244 6.689 3.669 8.312 12.509 8.88a17.05 17.05 0 0 0 8.748-1.676 9.39 9.39 0 0 0 5.12-8.154.5.5 0 0 1 .338-.439.5.5 0 0 1 .19-.023c10.424.673 24.779 3.259 30.889 8.365 11.031 9.237 13.194 23.091 15.2 36.523.475 3.101.963 6.321 1.557 9.435 2.811 14.752-2.375 26.706-4.328 31.219l-.237.554a5.28 5.28 0 0 1-3.391 2.177 15.5 15.5 0 0 1-4.051-2.547c-2.164-1.57-5.766-4.196-6.598-3.747-.145 0-.158.356-.158.528 0 8.022 3.629 18.816 3.668 18.921a.504.504 0 0 1-.29.62 162 162 0 0 1-27.208 7.257 109.7 109.7 0 0 1-18.248 1.61m-26.179-7.534c12.008 8.247 30.639 7.204 44.19 4.882a162.6 162.6 0 0 0 26.587-7.033c-.686-2.164-3.562-11.558-3.562-18.789a1.43 1.43 0 0 1 .699-1.412c1.319-.673 3.892 1.082 7.679 3.84a20 20 0 0 0 3.642 2.362 5.6 5.6 0 0 0 2.296-1.584l.238-.567c1.913-4.434 7.019-16.19 4.261-30.639-.593-3.14-1.082-6.359-1.557-9.473-2.111-13.855-4.116-26.944-14.857-35.903-5.845-4.883-19.607-7.403-29.833-8.115a10.44 10.44 0 0 1-5.608 8.471 17.94 17.94 0 0 1-9.236 1.86c-8.986-.58-10.926-2.375-13.195-9.104-.528.145-1.32.277-2.243.448-4.605.832-13.195 2.376-19.278 7.812-11.545 10.318-24.912 11.875-29.952 12.443l-1.227.158a8.4 8.4 0 0 1-.317 2.731c-1.082 5.687-5.436 16.85-14.198 18.803 4.473 1.517 29.966 4.222 49.032-.818a.43.43 0 0 1 .436.092.48.48 0 0 1 .184.422c-.804 11.48 3.326 45.509 5.819 59.113"/><path fill="#000" d="M325.225 174.171a.505.505 0 0 1-.475-.33c-4.803-14.515-7.508-23.751-7.508-43.662a.5.5 0 0 1 .139-.354.5.5 0 0 1 .35-.147.5.5 0 0 1 .501.501c0 19.792 2.639 28.91 7.455 43.345a.474.474 0 0 1-.303.62.34.34 0 0 1-.159.027m-68.573-24.595a.53.53 0 0 1-.33-.119c-.264-.251-.264-.488-.317-3.444 0-2.19-.079-5.832-.29-11.374a.51.51 0 0 1 .475-.514.47.47 0 0 1 .514.475c.212 5.555.264 9.236.291 11.4 0 1.478 0 2.573.092 2.837a.5.5 0 0 1-.233.701.5.5 0 0 1-.202.038"/><path fill="#FFEFDC" d="M281.986 141.408c-9.025 0-17.233-.805-21.561-3.009a.17.17 0 0 1-.111-.249.17.17 0 0 1 .125-.087.17.17 0 0 1 .145.046c8.919 4.539 34.544 3.048 49.586.95a.2.2 0 0 1 .063.001q.03.008.057.026a.16.16 0 0 1 .065.105.174.174 0 0 1-.146.198 217 217 0 0 1-28.223 2.019m9.618 12.668a133.2 133.2 0 0 1-31.153-3.958.174.174 0 0 1-.103-.199.18.18 0 0 1 .067-.099.16.16 0 0 1 .115-.032c12.601 3.087 31.668 5.924 50.958 1.979a.17.17 0 0 1 .198.132.184.184 0 0 1-.132.198 100.6 100.6 0 0 1-19.95 1.979m56.632 27.18a.14.14 0 0 1-.145-.079c-4.315-7.257-11.334-10.912-17.879-9.315a.17.17 0 0 1-.122-.021.18.18 0 0 1-.076-.098.14.14 0 0 1 .011-.128.14.14 0 0 1 .108-.07c6.69-1.636 13.854 2.085 18.235 9.474a.2.2 0 0 1 .035.051.16.16 0 0 1 0 .122.2.2 0 0 1-.035.051zm-1.703 2.982a.15.15 0 0 1-.105 0 8.6 8.6 0 0 1-1.9-2.296c-.185-.29-.383-.593-.581-.871a11.6 11.6 0 0 0-4.829-3.958.17.17 0 0 1-.043-.275.16.16 0 0 1 .175-.028 12.07 12.07 0 0 1 4.974 4.037l.581.884a8.8 8.8 0 0 0 1.821 2.217.17.17 0 0 1 0 .237.2.2 0 0 1-.093.053M221.278 140.42a.15.15 0 0 1-.098-.083.14.14 0 0 1 .006-.128 28.7 28.7 0 0 0 2.098-11.519.158.158 0 0 1 .27-.112.15.15 0 0 1 .047.112 29 29 0 0 1-2.125 11.637.17.17 0 0 1-.198.093m5.062-7.312a.184.184 0 0 1-.132-.198c.318-1.388.407-2.819.264-4.235a.2.2 0 0 1 .039-.119.2.2 0 0 1 .106-.066.17.17 0 0 1 .185.145 13.7 13.7 0 0 1-.264 4.341.184.184 0 0 1-.198.132m100.074 41.987a.47.47 0 0 1-.475-.37 215 215 0 0 1-6.597-36.496.5.5 0 0 1 .936-.28.5.5 0 0 1 .053.187 213 213 0 0 0 6.598 36.326.5.5 0 0 1 .015.192.47.47 0 0 1-.186.329.5.5 0 0 1-.172.085zm-70.727-23.289a.506.506 0 0 1-.488-.502l.211-13.564a.5.5 0 0 1 .502-.488.503.503 0 0 1 .488.501l-.211 13.565a.48.48 0 0 1-.148.35.5.5 0 0 1-.354.138m72.624 26.322c1.742-1.688 5.067-1.055 7.27 0 1.069.515 9.751 8.538 6.598 15.254-2.732 5.779-4.539 7.917-18.988 29.319a6.8 6.8 0 0 1-1.9 2.111c-2.639 1.609-5.977-.871-7.099-3.708-2.375-6.004.792-12.641 3.695-18.473s8.669-22.814 10.424-24.503"/><path fill="#000" d="M319.496 225.828a4.7 4.7 0 0 1-1.438-.238 7.6 7.6 0 0 1-4.341-4.288c-2.547-6.426 1.082-13.577 3.721-18.816 1.32-2.559 3.154-7.349 4.948-11.981 2.811-7.283 4.592-11.783 5.581-12.719 1.835-1.768 5.278-1.32 7.825-.093 1.319.647 10.134 8.894 6.822 15.913-2.191 4.605-3.774 6.954-11.427 18.262-2.045 2.995-4.526 6.597-7.547 11.123a7.3 7.3 0 0 1-2.072 2.256 3.83 3.83 0 0 1-2.072.581m11.876-48.227a3.8 3.8 0 0 0-2.639.897c-.897.858-3.259 6.967-5.344 12.364-1.808 4.657-3.668 9.474-4.988 12.073-2.56 5.067-6.056 11.994-3.681 17.998a6.6 6.6 0 0 0 3.734 3.721 3.05 3.05 0 0 0 2.639-.251 6.3 6.3 0 0 0 1.755-1.966c3.035-4.486 5.515-8.128 7.561-11.137 7.653-11.242 9.236-13.59 11.387-18.116 3.087-6.597-5.674-14.277-6.36-14.593a9.8 9.8 0 0 0-4.091-.99zm95.68-41.695c-.172 7.336 4.314 14.831 11.242 17.246 3.773 1.319 7.916 1.121 11.769 2.137s7.812 3.959 7.838 7.917c0 2.639-1.491 8.669 6.452 12.205 6.598 2.903 4.988 18.631-15.306 25.255-6.214 2.019-2.216-3.074-8.682-4.077a29.34 29.34 0 0 1-16.573-9.302 53.4 53.4 0 0 1-9.935-16.507c-2.798-6.888-4.75-14.514-3.022-21.732 1.729-7.217 8.102-13.802 16.217-13.142"/><path fill="#000" d="M446.723 201.589c-1.398 0-1.926-.765-2.454-1.821a4.38 4.38 0 0 0-3.958-2.718 29.77 29.77 0 0 1-16.863-9.474 53.2 53.2 0 0 1-10.041-16.652c-3.576-8.788-4.539-15.834-3.048-22.035 1.689-7.046 8.128-14.185 16.744-13.498a.484.484 0 0 1 .448.501c-.158 7.455 4.421 14.514 10.926 16.757a30.2 30.2 0 0 0 6.426 1.241c1.776.18 3.539.475 5.278.884 3.958 1.029 8.167 4.09 8.194 8.392v1.174c-.172 3.035-.436 7.627 6.201 10.556 2.481 1.108 3.959 3.958 3.734 7.362-.303 5.912-5.489 14.383-19.093 18.816a8.3 8.3 0 0 1-2.494.515m-20.768-65.248c-7.534 0-13.129 6.425-14.646 12.785-1.439 6.03-.489 12.839 2.995 21.429a52.5 52.5 0 0 0 9.856 16.348 28.7 28.7 0 0 0 16.283 9.157 5.36 5.36 0 0 1 4.71 3.273c.568 1.121.884 1.741 3.734.818 13.129-4.275 18.117-12.337 18.407-17.932.159-3.022-1.055-5.476-3.14-6.4-7.271-3.219-6.967-8.629-6.796-11.532v-1.121c0-3.774-3.879-6.492-7.455-7.429a38 38 0 0 0-5.172-.858 31.2 31.2 0 0 1-6.597-1.319c-6.756-2.349-11.559-9.553-11.585-17.233z"/><path fill="#000" d="M387.37 119.135c2.138 10.424 4.21 21.639 0 31.377-1.398 3.167-3.404 6.043-4.552 9.316-1.2 3.945-1.55 8.1-1.029 12.192.713 7.732 3.035 15.675 8.471 21.217s14.514 7.917 21.257 4.051c5.885-3.431 8.577-10.807 8.207-17.615-.369-6.809-3.272-13.195-6.347-19.278a239 239 0 0 0-26.007-41.26"/><path fill="#FFEFDC" d="M402.439 169.961c.198-5.555-.488-8.669-.712-12.825a24.7 24.7 0 0 1 7.138-2.296 4.14 4.14 0 0 1 3.22.422c.541.422 3.074-1.821 3.338-1.214 1.808 4.249 1.966 10.292 3.774 14.515.145.329 6.478-.251 6.597 0 .581 1.385.092 12.878-.343 13.194-23.196 15.425-34.306-6.597-34.306-6.597a70.5 70.5 0 0 1 11.294-5.199"/><path fill="#000" d="M409.87 187.788a19.4 19.4 0 0 1-4.948-.633c-9.461-2.494-14.053-11.374-14.238-11.743a.5.5 0 0 1-.036-.36.5.5 0 0 1 .221-.287 71.4 71.4 0 0 1 11.097-5.159 63 63 0 0 0-.396-8.458c-.132-1.319-.264-2.573-.33-3.958a.48.48 0 0 1 .264-.462 25.3 25.3 0 0 1 7.284-2.349 4.7 4.7 0 0 1 3.536.462 7.6 7.6 0 0 0 1.319-.647c.911-.527 1.452-.831 1.887-.673a.64.64 0 0 1 .409.37 37 37 0 0 1 1.913 7.363 38 38 0 0 0 1.769 6.94 29 29 0 0 0 2.916 0c3.312-.132 3.602-.105 3.787.343.422.977.316 5.357.25 7.205-.211 6.188-.58 6.439-.778 6.597-5.608 3.589-10.926 5.449-15.926 5.449m-18.077-12.416c1.016 1.755 5.489 8.748 13.392 10.82 6.057 1.596 12.76 0 19.898-4.711.498-4.123.613-8.284.343-12.429h-2.903c-3.311.132-3.589.105-3.773-.33a37 37 0 0 1-1.927-7.363 37.6 37.6 0 0 0-1.741-6.914q-.514.23-.99.528c-.99.58-1.781 1.042-2.309.62a3.8 3.8 0 0 0-2.837-.317 23.9 23.9 0 0 0-6.703 2.112c.079 1.319.185 2.401.303 3.615a59 59 0 0 1 .396 8.92.5.5 0 0 1-.316.448 75 75 0 0 0-10.833 5.001"/><path fill="#FFEFDC" d="M384.981 121.696c.673 5.146 1.715 10.555.383 15.662-.726 2.784-.66 16.995 10.74 21.032a22.1 22.1 0 0 0 19.04-2.058c4.196-2.547 9.237-10.437 8.274-18.275 3.47.963 6.887-1.319 6.94-4.499a4.3 4.3 0 0 0-4.064-3.959 3.83 3.83 0 0 0-3.048 1.043 47.6 47.6 0 0 1-1.319-11.651c-3.959-4.341-10.266-6.598-16.586-7.508a23.2 23.2 0 0 0-6.347-.238c-6.03.766-14.712 5.16-14.013 10.451"/><path fill="#000" d="M403.484 160.171a22.4 22.4 0 0 1-7.548-1.32c-11.44-4.051-11.967-18.195-11.044-21.626 1.148-4.394.488-9.065-.145-13.577-.092-.634-.171-1.32-.264-1.887a5.94 5.94 0 0 1 1.399-4.46c2.718-3.523 8.774-6.004 13.089-6.598a24.5 24.5 0 0 1 6.492.251c5.278.779 12.416 2.745 16.876 7.666a.44.44 0 0 1 .119.33 47.3 47.3 0 0 0 1.108 10.807 4.1 4.1 0 0 1 2.705-.686 4.26 4.26 0 0 1 3.088 1.319 4.6 4.6 0 0 1 1.491 3.167 5.1 5.1 0 0 1-2.111 3.958 6.33 6.33 0 0 1-4.751 1.148c.687 7.917-4.446 15.557-8.576 18.064a22.9 22.9 0 0 1-11.928 3.444m-2.362-48.544a15 15 0 0 0-2.045.119c-4.117.514-9.87 2.85-12.43 6.162a4.96 4.96 0 0 0-1.187 3.721c.079.62.171 1.253.25 1.873.647 4.619 1.32 9.382.132 13.974-.501 1.913-1.121 16.348 10.411 20.452a21.5 21.5 0 0 0 18.631-2.019c3.958-2.375 9.025-10.081 8.036-17.787a.47.47 0 0 1 .158-.435.46.46 0 0 1 .462-.106 5.28 5.28 0 0 0 4.592-.831 4.09 4.09 0 0 0 1.715-3.193 3.6 3.6 0 0 0-1.188-2.441 3.37 3.37 0 0 0-2.348-1.016 3.46 3.46 0 0 0-2.771.937.5.5 0 0 1-.462.079.5.5 0 0 1-.317-.356 48 48 0 0 1-1.319-11.572c-4.275-4.592-11.123-6.453-16.151-7.205a28 28 0 0 0-4.169-.356"/><path fill="#000" d="M409.857 142.571a7.17 7.17 0 0 1-4.67-1.782 8.6 8.6 0 0 1-2.89-5.462 7.492 7.492 0 0 1 8.449-7.676 7.5 7.5 0 0 1 3.901 1.727 7.5 7.5 0 0 1 2.325 7.841 7.49 7.49 0 0 1-6.23 5.299 7 7 0 0 1-.885.053m-.343-15.412a7 7 0 0 0-.752 0 6.89 6.89 0 0 0-5.489 7.996 7.65 7.65 0 0 0 2.56 4.843 6.16 6.16 0 0 0 4.79 1.504 6.887 6.887 0 0 0 5.489-7.996 6.99 6.99 0 0 0-6.598-6.347m-20.272 16.36a7.18 7.18 0 0 1-4.671-1.782 8.6 8.6 0 0 1-2.889-5.475 7.92 7.92 0 0 1 6.346-9.105 7.12 7.12 0 0 1 5.569 1.729 8.6 8.6 0 0 1 2.889 5.476 7.917 7.917 0 0 1-6.346 9.091 7 7 0 0 1-.898.066m-.33-15.425a5 5 0 0 0-.752 0c-3.549.449-6.003 4.038-5.502 7.996a7.64 7.64 0 0 0 2.56 4.843 6.15 6.15 0 0 0 4.79 1.491 6.89 6.89 0 0 0 5.489-7.997 7.56 7.56 0 0 0-2.547-4.842 6.23 6.23 0 0 0-4.024-1.491zm39.059-37.828a13.1 13.1 0 0 0-11.256-9.23 13.105 13.105 0 0 0-14.32 14.324 13.1 13.1 0 0 0 9.235 11.253c2.479.752 5.126.753 7.606.001a13.12 13.12 0 0 0 8.735-16.348"/><path fill="#000" d="M422.801 131.183c-3.325-5.159-5.357-8.867-6.452-15.148-12.271 7.271-23.935 8.405-35.692 7.917a21.8 21.8 0 0 1 1.003-8.326 20.5 20.5 0 0 1 11.677-11.875c4.975-2.151 11.744-3.629 17.022-2.85a25.76 25.76 0 0 1 13.683 7.138 22.94 22.94 0 0 1 6.386 11.77c.752 3.84-.185 6.597-1.9 10.556a4.34 4.34 0 0 0-2.995-.831 5.5 5.5 0 0 0-2.732 1.649m-17.816 19.751a3.66 3.66 0 0 1-2.388-.831.502.502 0 1 1 .633-.765 3.19 3.19 0 0 0 3.299.277 6.32 6.32 0 0 0 3.233-3.18.5.5 0 0 1 .874.074.5.5 0 0 1 .023.348 7.3 7.3 0 0 1-3.747 3.668 4.9 4.9 0 0 1-1.927.409m4.356-16.215a1.25 1.25 0 0 0-.265-.68 1.244 1.244 0 0 0-1.936-.01 1.237 1.237 0 0 0 1.132 2.009 1.2 1.2 0 0 0 1.069-1.319m-18.34.964a1.24 1.24 0 0 0-.866-1.093 1.24 1.24 0 0 0-1.335.403 1.24 1.24 0 0 0-.117 1.389 1.24 1.24 0 0 0 1.249.62 1.2 1.2 0 0 0 1.069-1.319m6.886 7.56a.4.4 0 0 1-.171 0l-1.676-.633a1.32 1.32 0 0 1-.765-.633 1.19 1.19 0 0 1 .29-1.148 6.78 6.78 0 0 0 1.122-5.819.48.48 0 0 1 .044-.376.5.5 0 0 1 .299-.231.5.5 0 0 1 .375.044.5.5 0 0 1 .232.299 7.75 7.75 0 0 1-1.32 6.677q-.077.09-.132.197h.172l1.662.634a.5.5 0 0 1 .291.646.52.52 0 0 1-.423.343m-2.175-9.975a.504.504 0 0 1-.501-.488c0-1.188 1.122-2.006 2.256-2.296a6.03 6.03 0 0 1 5.278 1.227.48.48 0 0 1 .167.337.49.49 0 0 1-.813.402 4.98 4.98 0 0 0-4.407-1.003c-.766.185-1.518.699-1.518 1.319a.5.5 0 0 1-.475.515z"/><path fill="#000" d="M416.16 131.314a.5.5 0 0 1-.488-.501.49.49 0 0 1 .488-.489h6.07a.5.5 0 0 1 .353.139.5.5 0 0 1 .148.35.51.51 0 0 1-.501.501z"/><path fill="#000" d="M423.344 135.51a.5.5 0 0 1-.35-.147.5.5 0 0 1-.138-.354 11 11 0 0 0-.858-4.315.51.51 0 0 1 .102-.549.5.5 0 0 1 .351-.151.5.5 0 0 1 .351.143.5.5 0 0 1 .106.161c.627 1.496.945 3.103.937 4.724a.5.5 0 0 1-.501.488"/><path fill="#F4825A" d="M467.807 217.385c-5.37-14.66-8.339-29.134-20.993-39.703a37.75 37.75 0 0 0-21.85-9.237c-.515 8.168-10.015 13.565-15.108 14.172-2.771.329-13.063 1.702-13.063-10.438-3.352 1.32-14.514 2.705-19.001 16.481-1.834 5.621-5.119 27.181-15.939 39.663-2.56 2.956-4.908-16.678-8.59-15.372s-7.772 3.431-8.035 7.244c-.212 2.982 2.243 5.569 4.987 6.756 5.885 2.533 8.089 14.791 14.435 15.689 6.598.923 17.154 3.364 25.07-21.587 4.078 4.077 6.717 8.458 11.282 10.925 13.195 7.112 57.054 15.095 64.193 16.362a2.65 2.65 0 0 0 2.177-.937 43.54 43.54 0 0 0 .435-30.018"/><path fill="#000" d="M465.421 248.868h-.251c-8.445-1.504-51.209-9.329-64.351-16.414a28.6 28.6 0 0 1-7.811-7.073c-.964-1.108-1.94-2.243-3.009-3.351-3.404 10.305-7.521 16.77-12.601 19.792-4.473 2.639-8.722 1.992-12.139 1.491l-.673-.092c-3.629-.515-5.951-4.421-8.194-8.208-1.86-3.153-3.787-6.399-6.373-7.521-2.797-1.2-5.515-3.958-5.278-7.23s2.956-5.766 8.352-7.68a1.57 1.57 0 0 1 1.241.079c1.728.858 2.969 4.843 4.288 9.065.752 2.428 2.019 6.492 2.639 6.492l.158-.132c8.603-9.922 12.456-25.875 14.515-34.451.527-2.178.936-3.959 1.319-5.041 3.959-12.099 13.116-14.87 17.523-16.203.712-.211 1.319-.396 1.781-.581a.53.53 0 0 1 .462 0 .51.51 0 0 1 .211.409c0 3.655.963 6.36 2.85 8.036 3.048 2.705 7.785 2.138 9.566 1.913h.093c4.855-.567 14.171-5.792 14.672-13.709a.44.44 0 0 1 .159-.33.54.54 0 0 1 .356-.132 38.04 38.04 0 0 1 22.141 9.329c10.556 8.814 14.395 20.201 18.473 32.261a484 484 0 0 0 2.638 7.653 44.24 44.24 0 0 1-.382 30.348 3.06 3.06 0 0 1-2.375 1.28m-75.646-28.276a.5.5 0 0 1 .356.145c1.32 1.319 2.494 2.639 3.616 3.958 2.335 2.639 4.525 5.278 7.547 6.848 12.997 7.007 55.629 14.818 64.048 16.309a2.4 2.4 0 0 0 1.636-.647 43.4 43.4 0 0 0 .356-29.675c-.937-2.573-1.808-5.172-2.639-7.679-4.024-11.875-7.838-23.183-18.169-31.813a37.08 37.08 0 0 0-21.112-9.065c-.871 8.168-10.45 13.525-15.491 14.132h-.092c-1.9.224-6.954.831-10.331-2.164-1.993-1.768-3.062-4.473-3.18-8.075l-1.188.369c-4.579 1.386-13.089 3.959-16.876 15.557-.356 1.095-.765 2.811-1.32 4.975-2.084 8.655-5.977 24.753-14.738 34.873a1.14 1.14 0 0 1-1.109.449c-1.227-.264-2.071-2.758-3.443-7.178-1.082-3.47-2.441-7.798-3.787-8.471a.58.58 0 0 0-.462 0c-4.988 1.781-7.508 3.958-7.706 6.822s2.296 5.278 4.684 6.254c2.89 1.24 4.909 4.645 6.848 7.917 2.217 3.747 4.315 7.283 7.482 7.732l.673.092c6.492.95 16.322 2.375 23.896-21.336a.53.53 0 0 1 .356-.329z"/><path fill="#FFEFDC" d="M452.069 231.529c-12.047-.673-24.16-1.491-36.273-2.322-1.082-.185-6.465-.95-7.798-1.148a12 12 0 0 1-3.233-1.056c-3.615-1.662-11.334-4.935-13.063-3.958a21.36 21.36 0 0 0-10.397 7.679c-1.57 2.032-2.863 5.41-2.217 5.99a1.134 1.134 0 0 0 1.504.132 18.98 18.98 0 0 1 9.237-9.157 27 27 0 0 0-5.199 3.827 10.1 10.1 0 0 0-3.404 5.449.8.8 0 0 0 0 .488c.224.357.765.146 1.095-.105.647-.502 8.933-7.231 10.477-7.046-2.059.765-9.395 6.729-9.421 7.363a1.3 1.3 0 0 0 .224.857 1.22 1.22 0 0 0 1.135.356 3.1 3.1 0 0 0 1.134-.501 55 55 0 0 1 7.099-4.301 4.23 4.23 0 0 1 3.959 0 19.4 19.4 0 0 0-6.215 3.773 3.7 3.7 0 0 0-.713.911c-.277.501-.593 1.227-.211 1.649.647.673 1.188.33 1.729 0a38 38 0 0 1 6.782-3.576 2.57 2.57 0 0 1 2.269-.119c.568.37 3.326 2.085 9.012 2.376 2.118.213 4.206.655 6.228 1.319 31.919 8.788 41.459 12.298 49.191 8.972 1.517-.646 2.032-1.438 1.517-4.037-1.28-7.033-2.599-10.978-14.448-13.815"/><path fill="#000" d="M458.583 251.044c-6.122 0-14.83-2.441-31.218-7.019-3.457-.977-7.376-2.059-11.625-3.233a29.8 29.8 0 0 0-6.122-1.319 19.2 19.2 0 0 1-9.237-2.441c-.475-.317-1.214-.08-1.807.158a36.6 36.6 0 0 0-6.69 3.523h-.066a1.626 1.626 0 0 1-2.296-.119c-.462-.501-.409-1.253.132-2.23.22-.385.496-.737.818-1.042a19.5 19.5 0 0 1 5.185-3.378 5.2 5.2 0 0 0-2.427.488 27.3 27.3 0 0 0-4.685 2.732c-.765.514-1.543 1.055-2.348 1.53a3.6 3.6 0 0 1-1.32.567 1.68 1.68 0 0 1-1.596-.541 1.8 1.8 0 0 1-.343-1.187.3.3 0 0 1 0-.106l-.264.212a1.76 1.76 0 0 1-1.214.382.9.9 0 0 1-.607-.409 1 1 0 0 1-.119-.356 1.69 1.69 0 0 1-1.979-.277c-1.082-.963.805-4.922 2.164-6.598a21.54 21.54 0 0 1 10.556-7.837c2.111-1.03 10.094 2.428 13.445 3.958.978.492 2.023.839 3.101 1.029l1.808.251 5.977.884c11.875.818 24.067 1.649 36.246 2.336h.079c12.166 2.902 13.525 7.032 14.897 14.105.515 2.639 0 3.787-1.808 4.592a16.5 16.5 0 0 1-6.637 1.345m-58.782-15.108c.386-.004.766.101 1.095.304a18 18 0 0 0 8.774 2.309 30 30 0 0 1 6.334 1.319l11.624 3.233c22.959 6.426 30.705 8.59 37.236 5.779 1.227-.527 1.716-1.016 1.241-3.496-1.32-6.848-2.573-10.556-14.119-13.314-12.166-.686-24.397-1.53-36.22-2.335-.791-.132-3.958-.594-5.99-.884l-1.808-.264a13 13 0 0 1-3.364-1.095c-6.36-2.943-11.546-4.579-12.615-3.959h-.092a20.97 20.97 0 0 0-10.147 7.508c-1.583 2.032-2.494 4.843-2.269 5.278a.74.74 0 0 0 .765.172 19.6 19.6 0 0 1 9.434-9.237.502.502 0 0 1 .449.884 26 26 0 0 0-5.093 3.748 9.4 9.4 0 0 0-3.259 5.172.3.3 0 0 0 0 .092.8.8 0 0 0 .356-.184q.145-.096.277-.212c8.92-7.125 10.107-6.993 10.556-6.94a.502.502 0 0 1 .118.963c-1.86.7-8.484 6.043-9.104 6.993a.7.7 0 0 0 .132.449.71.71 0 0 0 .66.185c.341-.084.663-.232.95-.436.778-.461 1.557-.989 2.309-1.504a29 29 0 0 1 4.856-2.837 4.56 4.56 0 0 1 4.446 0 .46.46 0 0 1 .211.462.48.48 0 0 1-.316.396 18.6 18.6 0 0 0-6.044 3.681c-.251.22-.461.484-.62.779-.356.633-.369.976-.277 1.069.317.343.475.303 1.069 0a37.7 37.7 0 0 1 6.861-3.616 4.7 4.7 0 0 1 1.584-.462"/><path fill="#000" d="m372.372 247.085 29.978.633v-5.093l-33.37-.805z"/><path fill="#FFEFDC" d="m287.184 200.587 65.169.356 22.457 46.129-64.549-.158z"/><path fill="#000" d="m374.809 247.575-64.549-.159a.52.52 0 0 1-.448-.277l-23.065-46.327a.53.53 0 0 1 0-.488.5.5 0 0 1 .423-.224l65.156.356a.5.5 0 0 1 .448.277l22.431 46.182a.47.47 0 0 1 0 .475.5.5 0 0 1-.396.185m-64.245-1.148 63.454.158-21.97-45.139-64.06-.357z"/><path fill="#FFEFDC" d="M328.404 219.39c-1.848-.185-3.866.316-4.618 2.005a4.58 4.58 0 0 0 1.187 5.08 5.9 5.9 0 0 0 5.278 1.32 4.07 4.07 0 0 0 2.507-1.531c.379-.59.576-1.278.567-1.979-.039-2.349-1.082-4.526-4.921-4.895"/><path fill="#000" d="M328.813 228.375a6.2 6.2 0 0 1-4.17-1.53 5.12 5.12 0 0 1-1.319-5.648c.752-1.689 2.639-2.546 5.133-2.296 4.407.423 5.278 3.128 5.278 5.278a3.96 3.96 0 0 1-.647 2.243 4.5 4.5 0 0 1-2.81 1.742 7.3 7.3 0 0 1-1.465.211m-1.108-8.524a3.58 3.58 0 0 0-3.471 1.755 4.06 4.06 0 0 0 1.082 4.513 5.4 5.4 0 0 0 2.246 1.139c.828.197 1.69.195 2.518-.004a3.58 3.58 0 0 0 2.216-1.32c.326-.507.492-1.1.475-1.702 0-2.639-1.425-4.051-4.42-4.341zm117.168 11.758a.47.47 0 0 1-.461-.344c-4.539-13.735-7.112-22.431-7.112-41.26a.5.5 0 0 1 .112-.405.502.502 0 0 1 .877.405c0 18.684 2.547 27.314 7.059 40.904a.48.48 0 0 1-.028.377.5.5 0 0 1-.288.243.33.33 0 0 1-.159.08m-55.096-10.03a.54.54 0 0 1-.409-.212c-5.859-8.444-4.275-14.619-2.745-20.597a32 32 0 0 0 1.425-9.408.51.51 0 0 1 .489-.514.48.48 0 0 1 .349.133.5.5 0 0 1 .152.342 33.2 33.2 0 0 1-1.452 9.698c-1.543 6.017-3.008 11.717 2.639 19.792a.5.5 0 0 1 .015.548.48.48 0 0 1-.463.218m19.046-20.729a72.2 72.2 0 0 1-17.588-1.979.184.184 0 0 1-.132-.198.173.173 0 0 1 .211-.119c14.58 3.655 30.348 1.452 44.189-.501a.17.17 0 0 1 .13.031.2.2 0 0 1 .046.05.2.2 0 0 1 .02.13.2.2 0 0 1-.029.059.16.16 0 0 1-.114.06 193 193 0 0 1-26.733 2.467"/><path fill="#000" d="M414.161 212.226a108.8 108.8 0 0 1-25.809-3.1.2.2 0 0 1-.063-.022.2.2 0 0 1-.046-.048.15.15 0 0 1-.01-.128.17.17 0 0 1 .076-.098.17.17 0 0 1 .122-.021 108.9 108.9 0 0 0 47.409.897.2.2 0 0 1 .063.002.15.15 0 0 1 .1.071.2.2 0 0 1 .022.059.16.16 0 0 1-.017.125.16.16 0 0 1-.102.073 109.2 109.2 0 0 1-21.745 2.19m54.638 23.091a.14.14 0 0 1-.066-.02.14.14 0 0 1-.052-.046 24.82 24.82 0 0 0-22.695-8.233.18.18 0 0 1-.126-.027.17.17 0 0 1-.072-.105.16.16 0 0 1 .132-.185 25.07 25.07 0 0 1 22.959 8.339.18.18 0 0 1 0 .237.14.14 0 0 1-.08.04m-.993-5.939h-.066a8 8 0 0 1-2.309-1.623l-.739-.647a11 11 0 0 0-5.384-2.375.2.2 0 0 1-.078.004.17.17 0 0 1-.122-.092.17.17 0 0 1 0-.153.18.18 0 0 1 .122-.093.2.2 0 0 1 .078.004 11.4 11.4 0 0 1 5.542 2.454l.752.66a7.9 7.9 0 0 0 2.204 1.557.2.2 0 0 1 .059.034.15.15 0 0 1 .039.057.15.15 0 0 1-.006.133.16.16 0 0 1-.092.08m.028 18.012a.504.504 0 0 1-.42-.495.5.5 0 0 1 .42-.495c15.834-.079 31.378-.079 47.383 0a.504.504 0 0 1 .42.495.5.5 0 0 1-.42.495 4731 4731 0 0 0-47.356 0zm-28.329.157a358353 358353 0 0 0-412.14 0 .5.5 0 0 1-.42-.495.5.5 0 0 1 .42-.495c136.738-.079 275.389-.079 412.14 0a.503.503 0 0 1 0 .99"/><path fill="#000" d="M266.453 247.364a.5.5 0 0 1-.343-.166.48.48 0 0 1-.119-.362c.528-6.782-.304-17.246-1.109-27.353-.382-4.671-.725-9.091-.95-13.115a.506.506 0 0 1 .495-.583.5.5 0 0 1 .382.177.5.5 0 0 1 .113.406c.211 3.958.567 8.418.937 13.089.818 10.147 1.649 20.65 1.121 27.511a.49.49 0 0 1-.527.396"/><path fill="#FFEFDC" d="M151.516 138.914a84 84 0 0 0-1.531 15.556l3.813 1.557s3.616 14.858-19.145 10.305c-4.42-.884-17.219-10.635-17.219-10.635l10.133-2.889s.963-14.726 1.32-22.036a234 234 0 0 0 22.629 8.142"/><path fill="#000" d="M142.411 167.691a41 41 0 0 1-7.917-.871c-4.487-.897-16.903-10.305-17.431-10.701a.47.47 0 0 1-.184-.488.46.46 0 0 1 .343-.382l9.79-2.798c.145-2.269.99-15.081 1.32-21.679a.52.52 0 0 1 .237-.396.48.48 0 0 1 .462 0 231 231 0 0 0 22.55 8.089.5.5 0 0 1 .343.58 81 81 0 0 0-1.517 15.122l3.496 1.438a.47.47 0 0 1 .304.33c0 .211 1.187 5.106-2.138 8.563-1.966 2.124-5.238 3.193-9.658 3.193m-23.896-11.77c2.863 2.125 12.601 9.237 16.229 9.923 8.194 1.636 13.802.95 16.692-2.045a8.78 8.78 0 0 0 1.926-7.416l-3.562-1.451a.5.5 0 0 1-.317-.462 89.3 89.3 0 0 1 1.451-15.227c-6.94-2.177-16.348-5.383-21.626-7.692-.409 7.442-1.319 21.111-1.319 21.309a.51.51 0 0 1-.357.449z"/><path fill="#000" d="M140.377 84.314c-10.186-.396-20.109 6.162-19.33 11.506-4.869-1.425-10.451 7.917-10.253 12.271.251 5.621 11.189 24.133 13.525 27.076a6.43 6.43 0 0 0 3.774 2.639c-.119-1.544 1.319-2.534 1.319-4.091 0-1.913-2.547-5.278-.515-5.278 9.633.238 8.406 2.428 26.707-15.385 2.322-2.269 3.853-7.758 4.367-11.875.515-4.117-2.322-16.177-19.594-16.863"/><path fill="#000" d="M128.092 138.255h-.146a6.83 6.83 0 0 1-3.958-2.758c-2.428-3.048-13.38-21.692-13.63-27.352-.159-3.352 2.744-8.907 5.951-11.427a5.87 5.87 0 0 1 4.248-1.478c.103-1.8.87-3.496 2.151-4.763 3.074-3.418 9.949-6.954 17.734-6.598 7.191.277 12.878 2.64 16.427 6.809a15.05 15.05 0 0 1 3.695 10.556c-.541 4.407-2.151 9.896-4.513 12.192-16.506 16.058-17.39 16.005-24.318 15.649-.805 0-1.715-.093-2.744-.119h-.251c-.145.211.29 1.319.528 1.913a7.8 7.8 0 0 1 .752 2.771 4.55 4.55 0 0 1-.778 2.204 3.2 3.2 0 0 0-.607 1.834.5.5 0 0 1-.185.422.48.48 0 0 1-.356.145m-8.023-42.078a5.28 5.28 0 0 0-3.14 1.32c-3.246 2.533-5.714 7.916-5.595 10.555.251 5.357 11.11 23.87 13.419 26.786a5.78 5.78 0 0 0 2.93 2.216 5.7 5.7 0 0 1 .712-1.689 3.66 3.66 0 0 0 .647-1.728 7.3 7.3 0 0 0-.687-2.388c-.461-1.188-.87-2.217-.409-2.864a1.2 1.2 0 0 1 .482-.367c.19-.078.397-.106.6-.081 1.03 0 1.953.079 2.771.119 6.677.343 7.376.382 23.566-15.372 2.191-2.125 3.708-7.363 4.236-11.599a13.97 13.97 0 0 0-3.484-9.83c-3.404-4.024-8.695-6.188-15.701-6.465-7.469-.304-14.027 3.074-16.956 6.333a5.82 5.82 0 0 0-1.873 4.605.494.494 0 0 1-.391.555.5.5 0 0 1-.243-.014q-.435-.104-.884-.092"/><path fill="#FFEFDC" d="M156.249 110.178a8.02 8.02 0 0 1-6.426-3.84c-.567 2.203-.871 4.526-5.41 4.301-2.203-.092-5.436-3.694-6.254-5.845 0 0 4.816-1.161-16.151 8.062v1.32a36.3 36.3 0 0 0 .924 7.916c-2.758-1.688-4.75-1.042-6.056.726a3.957 3.957 0 0 0 .884 5.516 7.29 7.29 0 0 0 6.676.673c1.174 3.813 3.193 11.479 6.4 14.514a17.62 17.62 0 0 0 14.118 4.183 18.77 18.77 0 0 0 12.957-7.64c3.048-4.579 3.088-10.068 2.059-15.042s-2.956-9.817-3.721-14.844"/><path fill="#000" d="M142.618 148.284a17.66 17.66 0 0 1-11.994-4.46c-2.969-2.837-4.882-9.237-6.135-13.459a16 16 0 0 1-.238-.805 7.67 7.67 0 0 1-6.597-.923 4.41 4.41 0 0 1-1.725-4.616 4.4 4.4 0 0 1 .722-1.573 4.344 4.344 0 0 1 5.74-1.319 39 39 0 0 1-.7-6.835v-1.333a.474.474 0 0 1 .291-.488c11.096-4.882 14.712-6.743 15.833-7.455a.5.5 0 0 1 0-.383.47.47 0 0 1 .317-.25q.871-.212 1.069.316a.54.54 0 0 1-.185.634c1.082 2.032 3.761 4.802 5.516 4.882 3.866.184 4.288-1.465 4.816-3.563l.092-.383a.503.503 0 0 1 .884-.158 7.66 7.66 0 0 0 5.845 3.602c.212 0 .607 0 .66.449a63 63 0 0 0 2.045 8.286c.634 2.111 1.32 4.275 1.742 6.466 1.32 6.188.554 11.374-2.138 15.411a19.2 19.2 0 0 1-13.313 7.917q-1.272.094-2.547.04m-18.116-19.793a.45.45 0 0 1 .224 0 .47.47 0 0 1 .251.291l.396 1.319c1.148 3.879 3.087 10.385 5.871 13.037a17.07 17.07 0 0 0 13.71 4.05 18.17 18.17 0 0 0 12.601-7.428c2.546-3.813 3.219-8.748 1.992-14.66-.448-2.15-1.082-4.301-1.702-6.386a65 65 0 0 1-2.032-8.049 8.38 8.38 0 0 1-5.766-3.18c-.528 1.94-1.412 3.893-5.661 3.695-2.164-.106-5.027-2.995-6.28-5.278-.462.277-1.122.633-2.045 1.095-2.705 1.32-7.258 3.457-13.538 6.228v1.029c.035 2.585.34 5.159.91 7.68a.49.49 0 0 1-.185.527.47.47 0 0 1-.541 0c-2.282-1.319-4.103-1.187-5.409.594a3.47 3.47 0 0 0 .791 4.829 6.77 6.77 0 0 0 6.202.607.4.4 0 0 1 .211-.066z"/><path fill="#000" d="M152.636 118.144a1.2 1.2 0 0 0-1.434-1.203 1.2 1.2 0 0 0 .272 2.378 1.174 1.174 0 0 0 1.162-1.175m-16.467 3.249a1.2 1.2 0 0 0-.188-.689 1.218 1.218 0 0 0-1.883-.209 1.21 1.21 0 0 0-.256 1.341 1.22 1.22 0 0 0 1.153.731 1.19 1.19 0 0 0 1.174-1.174m6.837 18.959a6.44 6.44 0 0 1-4.209-1.557.48.48 0 0 1-.167-.337.49.49 0 0 1 .813-.402 5.45 5.45 0 0 0 5.621.884.495.495 0 0 1 .383.911 6.2 6.2 0 0 1-2.441.501m2.029-6.662a4.4 4.4 0 0 1-3.272-1.32.5.5 0 0 1 0-.699.515.515 0 0 1 .699 0 3.44 3.44 0 0 0 2.534 1.043 5.84 5.84 0 0 0 2.863-.792c.357-.16.669-.405.911-.713a1.78 1.78 0 0 0 0-1.544 6.6 6.6 0 0 0-.819-1.425l-.158-.237a22.5 22.5 0 0 1-3.681-9.527.494.494 0 0 1 .976-.145 21.6 21.6 0 0 0 3.523 9.118l.145.224a8 8 0 0 1 1.003 1.636 2.74 2.74 0 0 1-.158 2.415 3.27 3.27 0 0 1-1.32 1.069 7.1 7.1 0 0 1-3.246.897m-21.401-8.668a.5.5 0 0 1-.475-.357c-.383-1.319-.554-2.084-.871-3.404a.5.5 0 0 1 .369-.607.5.5 0 0 1 .594.37c.317 1.319.488 2.032.858 3.364a.5.5 0 0 1-.33.62z"/><path fill="#F4825A" d="M123.621 211.763c2.639-22.841 2.534-45.43.66-58.427-8.933.581-24.186 2.89-30.612 8.26-13.393 11.176-13.42 29.028-16.586 45.654-2.903 15.306-4.235 30.348-.145 35.626.396.501 3.404 2.494 4.038 2.388 1.886-.33 14.936-14 14.936-9.936 0 8.208-1.03 11.52-1.03 11.52h22.551s5.278-27.301 6.188-35.085"/><path fill="#000" d="M117.433 247.362h-22.55a.5.5 0 0 1-.396-.211.52.52 0 0 1-.079-.436s1.016-3.364 1.016-11.373a.5.5 0 0 0 0-.251s-.554-.224-3.206 1.768c-1.716 1.319-3.774 3.074-5.595 4.658-3.008 2.639-4.75 4.103-5.529 4.248s-4.116-2.071-4.499-2.573c-4.526-5.805-2.467-22.8 0-36.035.594-3.114 1.082-6.32 1.557-9.421 2.058-13.432 4.183-27.326 15.2-36.523 6.123-5.106 20.466-7.706 30.903-8.365a.473.473 0 0 1 .514.422c2.045 14.171 1.795 37.156-.66 58.545-.87 7.719-6.109 34.861-6.161 35.138a.49.49 0 0 1-.515.409m-21.956-.99h21.586c.647-3.417 5.278-27.511 6.07-34.662 2.402-21.112 2.639-43.715.726-57.846-10.239.699-24.028 3.232-29.873 8.114-10.74 8.96-12.733 22.049-14.818 35.943-.475 3.114-.976 6.334-1.57 9.461-3.55 18.697-3.642 30.876-.238 35.243a13 13 0 0 0 3.59 2.204 36 36 0 0 0 5.013-3.959c5.2-4.526 8.458-7.231 9.857-6.597a1.115 1.115 0 0 1 .62 1.148 51.7 51.7 0 0 1-.924 10.951z"/><path fill="#F4825A" d="M191.812 235c6.98-.858 13.194-26.865 2.639-28.673-1.465-.25-7.64-25.07-20.057-40.679-6.597-8.326-20.729-10.358-22.761-11.176 9.118 15.833-5.278 92.363-5.278 92.363h18.869s4.275-28.223 5.08-34.728c.607 3.681 5.357 12.033 10.741 18.472 2.005 2.389 3.8 1.914 5.04 3.167 1.451 1.465 4.117 1.452 5.727 1.254"/><path fill="#000" d="M165.224 247.402h-18.869a.49.49 0 0 1-.383-.185.52.52 0 0 1-.105-.409c.145-.765 14.263-76.609 5.278-92.047a.49.49 0 0 1 0-.567.51.51 0 0 1 .567-.132c.317.119 1.082.316 2.032.541 4.605 1.135 15.372 3.787 20.927 10.78 8.59 10.806 14.277 26.165 17.338 34.412a43 43 0 0 0 2.507 6.096c3.959.726 6.136 4.776 5.977 11.123-.184 7.917-4.13 17.945-8.748 18.473-1.583.185-4.473.264-6.122-1.386a4.2 4.2 0 0 0-1.61-.857 7.46 7.46 0 0 1-3.47-2.336 65.7 65.7 0 0 1-10.173-16.335c-1.32 9.118-4.737 32.143-4.777 32.407a.51.51 0 0 1-.369.422m-18.275-1.029h17.852c.528-3.537 4.275-28.303 5.014-34.307a.505.505 0 0 1 .475-.435.49.49 0 0 1 .502.422c.62 3.747 5.489 12.073 10.635 18.182a6.26 6.26 0 0 0 3.048 2.032 5.1 5.1 0 0 1 1.966 1.096c1.399 1.411 4.183 1.24 5.278 1.095 3.708-.449 7.679-9.303 7.917-17.549.066-2.771-.304-9.237-5.278-10.134-.686-.119-1.135-1.214-3.18-6.716-3.035-8.194-8.696-23.46-17.153-34.148-5.278-6.716-15.834-9.316-20.386-10.424l-1.016-.251c7.705 17.114-4.289 83.589-5.674 91.137M100 230.21h-.132a.5.5 0 0 1-.357-.607 245 245 0 0 0 4.539-24.766c1.056-6.967 2.375-15.636 4.289-26.627a.51.51 0 0 1 .58-.409.497.497 0 0 1 .396.58c-1.913 10.978-3.233 19.647-4.288 26.601a249 249 0 0 1-4.552 24.872.49.49 0 0 1-.475.356"/><path fill="#000" d="M170.305 212.66a.5.5 0 0 1-.37-.158.52.52 0 0 1-.079-.541c.158-.712.739-7.693 1.32-14.435.369-4.394.778-9.382 1.161-13.67a.503.503 0 0 1 .847-.241c.084.086.135.2.142.32a1647 1647 0 0 0-1.161 13.67c-1.227 14.673-1.319 14.699-1.517 14.937a.5.5 0 0 1-.343.118m-93.947 17.22a.14.14 0 0 1-.119 0 .17.17 0 0 1 0-.238c5.16-5.133 13.59-7.719 21.455-6.597a.157.157 0 0 1 .158.158.16.16 0 0 1-.158.158c-7.759-1.121-16.071 1.439-21.112 6.505a.12.12 0 0 1-.107.087.1.1 0 0 1-.07-.018.1.1 0 0 1-.047-.055"/><path fill="#000" d="M76.992 232.347a.17.17 0 0 1-.122-.023.16.16 0 0 1-.07-.103.163.163 0 0 1 .125-.191 8.3 8.3 0 0 0 2.35-1.662c.25-.238.527-.476.791-.7a12.07 12.07 0 0 1 5.872-2.639.173.173 0 0 1 .185.132.173.173 0 0 1-.146.198 11.63 11.63 0 0 0-5.7 2.52c-.264.211-.528.449-.778.686a8.8 8.8 0 0 1-2.441 1.716zm65.046-59.851a27.3 27.3 0 0 1-12.034-2.784.2.2 0 0 1-.067-.034.173.173 0 0 1 .069-.299.17.17 0 0 1 .143.03 26.8 26.8 0 0 0 16.125 2.414 10.06 10.06 0 0 0 6.188-2.85.2.2 0 0 1 .051-.055.18.18 0 0 1 .145-.022.171.171 0 0 1 .055.301 10.4 10.4 0 0 1-6.387 2.956 26 26 0 0 1-4.288.343"/><path fill="#FFEFDC" d="M222.05 185.519c4.447-4.46 2.639-7.535 7.574-13.419 2.085-2.455 4.077-4.579 5.924-6.519.963-1.029 1.834-2.335 2.824-1.491 1.187.99-.119 3.695-.699 4.566-2.296 3.364-2.125 4.473-2.019 5.713 3.958-3.022 10.028-7.059 14.752-8.59a1.82 1.82 0 0 1 1.491.251c.316.435 0 1.531-.673 2.032-2.811 1.992-6.954 4.882-9.765 6.874 5.094-3.219 11.77-7.309 12.839-5.977a1.75 1.75 0 0 1-.567 2.085c-3.048 2.204-7.06 4.961-10.121 7.165 2.639-2.23 10.714-6.993 11.348-5.278.633 1.715-6.835 6.426-9.989 8.339 2.56-1.583 8.537-5.278 9.237-3.747.514 1.2-1.32 2.282-1.887 2.757-4.764 3.695-10.384 8.762-15.596 10.556a17.3 17.3 0 0 0-4.196 1.425 16.4 16.4 0 0 0-2.639 2.837c-25.611 29.174-33.726 39.083-38.344 38.094-3.867-.819-.99-16.613 2.955-26.918 2.098.132 18.103-11.321 27.551-20.755"/><path fill="#000" d="M192.131 233.811a3.4 3.4 0 0 1-.726-.079 2.2 2.2 0 0 1-1.464-1.201c-2.085-3.84.475-16.982 4.064-26.39a.5.5 0 0 1 .488-.316c1.86 0 17.707-11.176 27.194-20.663a13.45 13.45 0 0 0 3.471-5.965 20.5 20.5 0 0 1 4.077-7.428c2.019-2.375 3.958-4.447 5.951-6.598l.409-.461c.791-.884 1.873-2.098 3.087-1.069 1.531 1.319 0 4.275-.607 5.278-1.623 2.388-1.953 3.562-1.979 4.486 4.117-3.101 9.791-6.703 14.145-8.115a2.2 2.2 0 0 1 2.045.436c.207.32.278.709.198 1.082a2.52 2.52 0 0 1-.99 1.636l-.897.646c2.309-1.042 3.536-1.134 4.077-.448a1.54 1.54 0 0 1 .251 1.187 2.38 2.38 0 0 1-.91 1.597l-1.32.937a3.94 3.94 0 0 1 1.966-.264 1.03 1.03 0 0 1 .739.633c.158.422.488 1.32-2.903 4.024a2.5 2.5 0 0 1 1.412-.066 1.11 1.11 0 0 1 .699.607c.594 1.412-1.016 2.639-1.794 3.154-.092.079-.185.132-.251.198-.91.699-1.834 1.438-2.81 2.23-4.051 3.246-8.63 6.927-12.918 8.458-.449.158-.95.277-1.478.409a8.2 8.2 0 0 0-2.639.95 10 10 0 0 0-1.834 1.887c-.237.277-.475.58-.739.87l-6.676 7.746c-19.555 22.312-26.865 30.612-31.338 30.612m2.639-27.036c-3.378 8.972-5.859 21.877-3.958 25.281a1.3 1.3 0 0 0 .804.712c3.893.818 11.308-7.626 31.114-30.242l6.755-7.706.713-.844a10.7 10.7 0 0 1 2.019-2.072 8.3 8.3 0 0 1 2.942-1.095c.502-.132.99-.251 1.386-.396 4.13-1.465 8.642-5.093 12.627-8.299l2.824-2.244.277-.198c.607-.448 1.755-1.319 1.465-1.966h-.08c-1.029-.329-4.605 1.703-6.901 3.088-.488.304-.989.62-1.53.937a.48.48 0 0 1-.369.06.49.49 0 0 1-.366-.594.5.5 0 0 1 .22-.311l1.32-.831c6.967-4.354 8.55-6.399 8.365-6.874-.145-.119-1.319-.106-4.592 1.623a55 55 0 0 0-2.916 1.702l-3.087 2.203a.49.49 0 0 1-.693-.085.494.494 0 0 1 .086-.693 29 29 0 0 1 3.008-2.151l2.072-1.465a354 354 0 0 0 5.067-3.589 1.32 1.32 0 0 0 .514-.923.77.77 0 0 0 0-.436s-.501-.554-4.301 1.399c-2.415 1.319-5.344 3.074-7.917 4.684a.504.504 0 0 1-.686-.145.487.487 0 0 1 .132-.673c1.398-1.003 3.14-2.23 4.869-3.444l4.882-3.444a1.465 1.465 0 0 0 .567-1.319 1.95 1.95 0 0 0-.937-.079c-4.526 1.464-10.556 5.37-14.606 8.524a.5.5 0 0 1-.242.103.5.5 0 0 1-.26-.037.53.53 0 0 1-.29-.409v-.119c-.106-1.32-.211-2.52 2.111-5.925.686-1.016 1.57-3.259.792-3.958-.396-.33-.713-.145-1.716.976-.145.159-.29.33-.435.475-1.966 2.085-3.958 4.143-5.898 6.505a19.3 19.3 0 0 0-3.959 7.112 14.4 14.4 0 0 1-3.707 6.334c-8.63 8.708-23.975 20.003-27.432 20.848z"/><path fill="#000" d="M235.408 185.017a.5.5 0 0 1-.383-.171.503.503 0 0 1 0-.7 5.76 5.76 0 0 0 1.57-6.333 12 12 0 0 0-.607-1.227 9.3 9.3 0 0 1-.858-1.861.5.5 0 0 1 .536-.636.5.5 0 0 1 .329.186q.06.078.085.173.301.869.766 1.663.375.64.673 1.319a6.72 6.72 0 0 1-1.861 7.468.56.56 0 0 1-.25.119m-50.3 45.892a.15.15 0 0 1-.104-.037.16.16 0 0 1-.055-.095 37.46 37.46 0 0 1 2.718-20.689.173.173 0 0 1 .225-.079q.029.012.051.036a.2.2 0 0 1 .033.053q.01.029.01.061a.2.2 0 0 1-.015.061 37.17 37.17 0 0 0-2.705 20.504.14.14 0 0 1 .003.065.2.2 0 0 1-.024.06.15.15 0 0 1-.111.06zm-3.13-1.135a.175.175 0 0 1-.158-.119 14.9 14.9 0 0 1-.225-7.574.18.18 0 0 1 .073-.106.17.17 0 0 1 .125-.026.16.16 0 0 1 .119.198 14.5 14.5 0 0 0 .172 7.442.17.17 0 0 1-.119.211z"/><path fill="#FFEFDC" d="M95.82 229.59c12.574 2.124 25.267 4.103 37.974 6.069l8.313.647a12.6 12.6 0 0 0 3.588-.33c4.104-.871 12.852-2.441 14.409-1.042a22.5 22.5 0 0 1 8.92 10.358c1.161 2.467 1.702 6.254.897 6.703a1.214 1.214 0 0 1-1.583-.211 20.12 20.12 0 0 0-7.363-11.638 28 28 0 0 1 4.46 5.146 10.76 10.76 0 0 1 2.243 6.426.74.74 0 0 1-.158.501c-.304.317-.832 0-1.109-.37-.541-.659-7.521-9.539-9.157-9.724 1.94 1.319 8.128 9.144 8.009 9.804a1.3 1.3 0 0 1-.448.831 1.23 1.23 0 0 1-1.241.105 3.6 3.6 0 0 1-1.055-.778 58.6 58.6 0 0 0-6.32-6.096 4.48 4.48 0 0 0-4.091-.99 20.7 20.7 0 0 1 5.529 5.344c.232.34.41.714.528 1.109.171.593.329 1.411-.172 1.755-.818.554-1.319.066-1.794-.396a40 40 0 0 0-6.162-5.278 2.7 2.7 0 0 0-2.296-.647c-.673.238-3.959 1.32-9.87.343a31 31 0 0 0-6.729-.145c-34.993 1.61-45.654 2.995-52.859-2.243-1.412-1.029-1.755-1.966-.62-4.526 2.969-6.769 5.252-10.556 18.156-10.727"/><path fill="#000" d="M157.267 253.998a2.14 2.14 0 0 1-1.412-.739 39.8 39.8 0 0 0-6.109-5.278c-.568-.382-1.32-.805-1.861-.593a20 20 0 0 1-10.107.369 31 31 0 0 0-6.597-.145l-12.746.62c-25.466 1.32-34.056 1.689-40.43-2.956-1.728-1.319-1.926-2.546-.791-5.132 3.061-6.954 5.436-10.899 18.644-11.044h.093c12.733 2.15 25.545 4.143 37.948 6.069.871 0 4.037.304 6.347.488l1.952.159a12.6 12.6 0 0 0 3.444-.33c3.827-.805 12.878-2.52 14.792-.95a22.73 22.73 0 0 1 9.091 10.556c.989 2.111 2.019 6.597.686 7.349a1.73 1.73 0 0 1-2.098-.211 1.1 1.1 0 0 1-.224.37.9.9 0 0 1-.7.277 1.73 1.73 0 0 1-1.148-.673l-.237-.304a.7.7 0 0 1 0 .225 1.8 1.8 0 0 1-.62 1.121 1.75 1.75 0 0 1-1.755.185 3.9 3.9 0 0 1-1.201-.884 51 51 0 0 1-2.058-2.125 29.7 29.7 0 0 0-4.209-3.958 5.45 5.45 0 0 0-2.494-1.069 20.5 20.5 0 0 1 4.631 4.75c.263.384.464.807.594 1.254.33 1.135.211 1.9-.37 2.296-.309.214-.68.32-1.055.303m-9.078-7.64a3.83 3.83 0 0 1 2.085.832 39 39 0 0 1 6.241 5.278c.501.461.686.607 1.135.303.131-.092.184-.462 0-1.201a3.5 3.5 0 0 0-.462-.976 19.8 19.8 0 0 0-5.45-5.172.5.5 0 0 1-.211-.462.47.47 0 0 1 .304-.409 4.95 4.95 0 0 1 4.565 1.029 30.4 30.4 0 0 1 4.354 4.064c.647.699 1.32 1.425 2.019 2.085.251.282.556.511.897.673a.84.84 0 0 0 .752 0 .8.8 0 0 0 .251-.462c-.396-1.109-6.003-8.207-7.772-9.382a.48.48 0 0 1-.198-.58.49.49 0 0 1 .515-.317c.475 0 1.715.185 9.236 9.619l.225.29c.1.129.232.229.382.291a.7.7 0 0 1 0-.145 10 10 0 0 0-2.164-6.123 28.7 28.7 0 0 0-4.38-5.067.48.48 0 0 1-.104-.518.5.5 0 0 1 .104-.155.5.5 0 0 1 .686-.079 20.74 20.74 0 0 1 7.547 11.783.79.79 0 0 0 .898 0c.343-.382.079-3.523-1.109-6.056a22.1 22.1 0 0 0-8.722-10.134l-.092-.066c-.95-.857-6.703-.382-13.96 1.148a13 13 0 0 1-3.734.356l-1.953-.158-6.36-.488a3858 3858 0 0 1-37.935-6.07c-12.588.145-14.725 3.695-17.707 10.464-1.082 2.454-.673 3.1.462 3.958 6.095 4.434 14.593 3.959 39.795 2.758l12.759-.62a32.2 32.2 0 0 1 6.835.158c3.178.708 6.482.599 9.606-.317.209-.087.433-.132.66-.132"/><path fill="#FFEFDC" d="M516.115 217.86a16.745 16.745 0 1 1 12.39-29.86l5.555-5.542a24.54 24.54 0 0 0-21.599-5.032 24.54 24.54 0 0 0-15.164 36.549 24.54 24.54 0 0 0 18.818 11.736z"/><path fill="#000" d="M516.114 226.198a25.076 25.076 0 0 1-22.929-23.044 25.069 25.069 0 0 1 41.204-21.067.48.48 0 0 1 .171.357.44.44 0 0 1-.145.369l-5.542 5.555a.5.5 0 0 1-.66 0 16.24 16.24 0 0 0-22.153 2.116 16.244 16.244 0 0 0 .751 22.242 16.07 16.07 0 0 0 9.382 4.618.48.48 0 0 1 .422.488v7.851a.48.48 0 0 1-.158.369.5.5 0 0 1-.343.146m2.203-48.927a24.03 24.03 0 0 0-18.332 39.503 24.02 24.02 0 0 0 15.627 8.394v-6.874a17.24 17.24 0 0 1-12.361-8.602 17.23 17.23 0 0 1 10.396-25.018 17.22 17.22 0 0 1 14.817 2.691l4.856-4.855a23.95 23.95 0 0 0-15.003-5.239m13.234 13.777a16.7 16.7 0 0 1 3.483 10.278l7.772.898a24.4 24.4 0 0 0-5.7-16.718z"/><path fill="#000" d="m542.806 202.723-7.785-.884a.5.5 0 0 1-.435-.501 16.33 16.33 0 0 0-3.378-9.976.5.5 0 0 1 0-.646l5.555-5.555a.5.5 0 0 1 .369-.145.53.53 0 0 1 .357.184 25 25 0 0 1 5.832 17.061.54.54 0 0 1-.172.357.6.6 0 0 1-.343.105m-7.283-1.834 6.808.779a23.98 23.98 0 0 0-5.278-15.438l-4.869 4.869a17.15 17.15 0 0 1 3.339 9.79"/><path fill="#F4825A" d="M534.452 205.602a16.72 16.72 0 0 1-14.026 12.271v7.837a24.52 24.52 0 0 0 21.877-19.211z"/><path fill="#000" d="M520.427 226.211a.53.53 0 0 1-.343-.131.48.48 0 0 1-.158-.37v-7.838a.515.515 0 0 1 .435-.501 16.1 16.1 0 0 0 9.422-4.618 16.3 16.3 0 0 0 4.195-7.284.5.5 0 0 1 .541-.356l7.812.897a.52.52 0 0 1 .343.198.53.53 0 0 1 .079.396 25.07 25.07 0 0 1-22.286 19.607zm.489-7.916v6.874a24 24 0 0 0 13.252-5.84 24 24 0 0 0 7.49-12.395l-6.835-.792a17.3 17.3 0 0 1-4.341 7.31 17.05 17.05 0 0 1-9.566 4.843M163.606 63.782l-7.016 1.638.762 3.264 7.015-1.638z"/><path fill="#000" d="M157.358 69.166a.49.49 0 0 1-.488-.383l-.765-3.259a.5.5 0 0 1 0-.37.47.47 0 0 1 .303-.224l7.086-1.596a.45.45 0 0 1 .369 0 .48.48 0 0 1 .224.316l.766 3.26a.5.5 0 0 1-.37.593l-7.019 1.636zm-.171-3.391.541 2.309 6.043-1.412-.528-2.31z"/><path fill="#FFEFDC" d="M170.492 28.328a18.36 18.36 0 0 0-20.284-13.983 18.355 18.355 0 0 0-7.28 33.775c4.552 2.81 7.917 4.566 9.104 9.764l12.338-2.876c-1.201-5.133.897-8.18 3.734-12.64a18.32 18.32 0 0 0 2.388-14.04"/><path fill="#000" d="M152.027 58.373a.43.43 0 0 1-.25-.079.44.44 0 0 1-.225-.303c-1.095-4.671-3.958-6.466-8.022-8.933l-.858-.541a18.857 18.857 0 0 1-1.07-31.35 18.86 18.86 0 0 1 25.173 2.887 18.9 18.9 0 0 1 4.187 8.156 18.75 18.75 0 0 1-2.454 14.422l-.277.435c-2.719 4.25-4.5 7.06-3.392 11.876a.48.48 0 0 1-.065.37.53.53 0 0 1-.304.223l-12.324 2.877zm.62-43.74a17.879 17.879 0 0 0-9.46 33.053l.857.527c3.959 2.428 7.073 4.355 8.353 9.065l11.374-2.639c-.977-4.882.963-7.917 3.615-12.086l.29-.449a17.86 17.86 0 0 0 .6-18.17 17.86 17.86 0 0 0-15.629-9.288z"/><path fill="#F4825A" d="m151.476 60.696-1.32-5.753 14.581-3.483 1.319 5.753a7.495 7.495 0 0 1-5.595 8.999 7.506 7.506 0 0 1-8.985-5.516"/><path fill="#000" d="M158.179 67.082a7.214 7.214 0 0 1-6.993-5.568l-1.531-6.519a.56.56 0 0 1 0-.382c.07-.11.178-.19.304-.224l14.593-3.405a.5.5 0 0 1 .594.37l1.53 6.531a7.2 7.2 0 0 1-5.37 8.643l-1.544.356a7 7 0 0 1-1.583.198m-7.442-11.875 1.412 6.043a6.18 6.18 0 0 0 5.052 4.82c.817.133 1.652.1 2.456-.096l1.544-.357a6.23 6.23 0 0 0 3.863-2.827 6.22 6.22 0 0 0 .715-4.733l-1.412-6.044z"/><path fill="#000" d="M152.423 57.292a.16.16 0 0 1-.159-.132.14.14 0 0 1 .011-.128.14.14 0 0 1 .046-.047.14.14 0 0 1 .062-.023l11.255-2.639a.16.16 0 0 1 .198.12.15.15 0 0 1-.017.124.2.2 0 0 1-.043.047.2.2 0 0 1-.059.026l-11.255 2.639zm-4.036-17.3a.144.144 0 0 1-.158-.119.15.15 0 0 1 .01-.128.2.2 0 0 1 .046-.048.2.2 0 0 1 .063-.022l11.255-2.639a.16.16 0 0 1 .198.119.17.17 0 0 1-.119.198l-11.255 2.639zm-1.632-32.075a.486.486 0 0 1-.488-.383l-1.61-6.927a.494.494 0 1 1 .964-.224l1.609 6.913a.474.474 0 0 1-.369.594zm20.999 2.188a.6.6 0 0 1-.263 0 .5.5 0 0 1-.159-.686l3.748-6.03a.48.48 0 0 1 .309-.225.5.5 0 0 1 .377.067.48.48 0 0 1 .229.494.5.5 0 0 1-.071.179l-3.747 6.043a.52.52 0 0 1-.423.158m11.22 15.415a.49.49 0 1 1-.106-.977l6.914-1.623a.5.5 0 0 1 .602.563.5.5 0 0 1-.068.181.48.48 0 0 1-.31.219l-6.914 1.623zm-49.008-6.585a.46.46 0 0 1-.251-.08l-6.043-3.747a.503.503 0 0 1-.111-.657.5.5 0 0 1 .639-.187l6.03 3.76a.47.47 0 0 1 .224.302.5.5 0 0 1 .005.193.5.5 0 0 1-.071.178.47.47 0 0 1-.422.238M119.82 39.333a.5.5 0 0 1-.488-.383.5.5 0 0 1 .369-.594l6.967-1.623a.5.5 0 0 1 .594.37.5.5 0 0 1-.37.593l-6.966 1.623z"/><path fill="#000" d="M154.761 53.94a.52.52 0 0 1-.488-.356c0-.132-3.576-12.627-10.635-16.586a.48.48 0 0 1-.247-.49.5.5 0 0 1 .062-.183.5.5 0 0 1 .298-.233.5.5 0 0 1 .375.049c7.416 4.156 10.965 16.652 11.11 17.153a.5.5 0 0 1-.343.607zm5.199-1.16a.49.49 0 0 1-.488-.397c-.105-.54-2.441-13.313 2.362-20.333a.486.486 0 0 1 .686-.118.5.5 0 0 1 .132.686c-4.578 6.676-2.23 19.449-2.203 19.58a.49.49 0 0 1-.396.568z"/><path fill="#000" d="M143.889 37.09a.5.5 0 0 1-.429-.757.5.5 0 0 1 .31-.22c.515-.118.686-.46.977-1.055a2.39 2.39 0 0 1 1.636-1.596 2.47 2.47 0 0 1 2.177.7c.515.408.831.633 1.32.514.488-.119.686-.462.976-1.043a2.38 2.38 0 0 1 1.636-1.596 2.43 2.43 0 0 1 2.177.7c.515.408.818.632 1.32.514.501-.12.686-.462.963-1.056a2.4 2.4 0 0 1 1.649-1.583 2.36 2.36 0 0 1 2.164.699c.515.41.832.633 1.32.515a.49.49 0 0 1 .607.37.5.5 0 0 1-.37.593 2.44 2.44 0 0 1-2.177-.7c-.514-.409-.831-.633-1.319-.514-.489.119-.7.462-.977 1.042a2.22 2.22 0 0 1-2.822 1.55 2.2 2.2 0 0 1-.991-.652c-.515-.41-.818-.634-1.32-.515-.501.119-.686.462-.976 1.056a2.22 2.22 0 0 1-2.825 1.537 2.2 2.2 0 0 1-.988-.653c-.515-.41-.818-.634-1.32-.515-.501.119-.686.462-.976 1.056a2.4 2.4 0 0 1-1.636 1.596z"/><path fill="#FFEFDC" d="m378.822 87.086-2.454-1.32-4.209 1.227-1.32 2.494-5.752-1.32v-2.823l-3.167-3.022-2.824.106c-.897-3.035-.778-2.639-1.662-5.687l2.414-1.438 1.043-4.249-1.505-2.388 4.091-4.302 2.454 1.386 4.196-1.24 1.319-2.494 5.767 1.398v2.824l3.18 3.022 2.81-.106 1.676 5.687-2.428 1.438c-.409 1.663-.62 2.64-1.029 4.249l1.504 2.388z"/><path fill="#000" d="M370.838 89.882h-.066l-5.753-1.399a.485.485 0 0 1-.382-.475V85.37l-2.864-2.731-2.639.105a.53.53 0 0 1-.501-.356L356.97 76.7a.505.505 0 0 1 .212-.567l2.256-1.32.923-3.853-1.464-2.203a.5.5 0 0 1 .066-.607l4.077-4.302a.5.5 0 0 1 .607-.079l2.27 1.32 3.813-1.122 1.214-2.309a.5.5 0 0 1 .554-.25l5.766 1.398a.5.5 0 0 1 .369.475v2.639l2.93 2.692 2.639-.106a.52.52 0 0 1 .488.356l1.596 5.661a.484.484 0 0 1-.224.567l-2.243 1.32-.937 3.853 1.386 2.203a.48.48 0 0 1 0 .607l-4.091 4.289a.46.46 0 0 1-.593.092l-2.283-1.32-3.8 1.122-1.227 2.31a.49.49 0 0 1-.436.316m-5.278-2.283 5.014 1.214 1.135-2.15a.52.52 0 0 1 .303-.251l4.196-1.228a.5.5 0 0 1 .383 0l2.124 1.201 3.55-3.734-1.32-2.072a.55.55 0 0 1-.066-.382l1.043-4.249a.46.46 0 0 1 .224-.317l2.098-1.24-1.465-4.948-2.427.092a.5.5 0 0 1-.357-.132l-3.18-3.021a.52.52 0 0 1-.145-.356v-2.428l-5.014-1.214-1.135 2.15a.46.46 0 0 1-.303.238l-4.209 1.24a.5.5 0 0 1-.383 0l-2.111-1.2-3.549 3.8 1.319 2.071a.45.45 0 0 1 0 .37l-.989 4.156a.54.54 0 0 1-.225.317l-2.098 1.24 1.452 5.04 2.441-.092a.5.5 0 0 1 .356.132l3.167 3.022a.46.46 0 0 1 .158.356z"/><path fill="#FFEFDC" d="M376.672 75.619a5.554 5.554 0 1 1-5.541-5.542 5.54 5.54 0 0 1 5.541 5.542"/><path fill="#000" d="M371.125 81.664a6.042 6.042 0 1 1 6.043-6.044 6.056 6.056 0 0 1-6.043 6.044m0-11.097a5.053 5.053 0 1 0 5.054 5.053 5.07 5.07 0 0 0-5.054-5.053"/><path fill="#F4825A" d="m38.265 201.248 2.428-1.438-1.675-5.674-2.81.106-3.18-3.022v-2.823l-5.767-1.399-1.32 2.494-4.209 1.24-2.454-1.385-4.09 4.288 1.504 2.388c-.41 1.676-.633 2.639-1.03 4.262l-2.467 1.438 1.676 5.687 2.81-.105 3.18 3.021v2.824l5.767 1.386 1.32-2.494 4.208-1.241 2.455 1.386 4.09-4.288-1.504-2.389a63 63 0 0 0 1.068-4.262m-11.308 5.067a5.555 5.555 0 1 1 5.542-5.542 5.543 5.543 0 0 1-5.515 5.542z"/><path fill="#000" d="M26.705 215.075h-.118l-5.767-1.399a.496.496 0 0 1-.369-.475v-2.639l-2.863-2.731-2.64.092a.47.47 0 0 1-.488-.356l-1.688-5.687a.49.49 0 0 1 .224-.567l2.243-1.32.937-3.853-1.399-2.177a.476.476 0 0 1 .066-.594l4.09-4.301a.5.5 0 0 1 .594-.093l2.283 1.32 3.8-1.122 1.214-2.309a.49.49 0 0 1 .554-.25l5.766 1.319a.5.5 0 0 1 .383.475v2.639l2.863 2.745 2.64-.106a.47.47 0 0 1 .553.277l1.676 5.687a.5.5 0 0 1-.224.567l-2.243 1.32-.937 3.84 1.399 2.216a.5.5 0 0 1-.066.607l-4.09 4.289a.48.48 0 0 1-.595.092l-2.282-1.32-3.8 1.122-1.214 2.309a.53.53 0 0 1-.502.383m-5.278-2.283 5.014 1.214 1.135-2.151a.52.52 0 0 1 .304-.251l4.196-1.24a.55.55 0 0 1 .382 0l2.125 1.188 3.562-3.734-1.32-2.059a.48.48 0 0 1 0-.382l1.03-4.249a.46.46 0 0 1 .224-.317l2.098-1.24-1.451-4.948-2.441.092a.44.44 0 0 1-.356-.132l-3.167-3.021a.48.48 0 0 1-.159-.357v-2.441l-5.014-1.2-1.2 2.164a.5.5 0 0 1-.304.237l-4.196 1.24a.48.48 0 0 1-.383 0l-2.124-1.2-3.55 3.694 1.32 2.059a.5.5 0 0 1 0 .382l-1.029 4.262a.43.43 0 0 1-.224.304l-2.098 1.24 1.451 4.948 2.441-.092a.5.5 0 0 1 .356.145l3.18 3.021a.48.48 0 0 1 .146.343zm5.555-5.938a6.045 6.045 0 0 1-5.607-3.694 6.042 6.042 0 1 1 11.611-2.388 6.056 6.056 0 0 1-6.004 6.043zm0-11.096a5.055 5.055 0 0 0-4.956 6.039 5.06 5.06 0 0 0 3.97 3.971 5.05 5.05 0 0 0 5.188-2.149 5.05 5.05 0 0 0 .852-2.808 5.07 5.07 0 0 0-5.054-5.093zM342.851 94.712a2.441 2.441 0 1 0 0-4.882 2.441 2.441 0 0 0 0 4.882"/><path fill="#000" d="M342.854 95.2a2.929 2.929 0 1 1 .026-5.859 2.929 2.929 0 0 1-.026 5.858m0-4.87a1.94 1.94 0 0 0-1.783 1.207 1.94 1.94 0 1 0 1.783-1.207m216.935 81.019a2.441 2.441 0 1 0 0-4.882 2.441 2.441 0 0 0 0 4.882"/><path fill="#000" d="M559.788 171.835a2.943 2.943 0 1 1-.028-5.886 2.943 2.943 0 0 1 .028 5.886m0-4.882a1.95 1.95 0 0 0-1.93 2.326 1.948 1.948 0 0 0 2.661 1.432 1.95 1.95 0 0 0 1.208-1.805 1.95 1.95 0 0 0-1.939-1.953M43.29 162.994a2.97 2.97 0 0 1 2.098 5.068 2.97 2.97 0 0 1-3.235.644 2.97 2.97 0 0 1-1.833-2.743 2.967 2.967 0 0 1 2.97-2.969"/><path fill="#000" d="M43.29 169.435a3.473 3.473 0 0 1-3.403-4.148 3.47 3.47 0 0 1 2.727-2.726 3.475 3.475 0 0 1 3.562 1.475 3.471 3.471 0 0 1-2.886 5.399m0-5.938a2.482 2.482 0 0 0-1.749 4.239 2.475 2.475 0 0 0 2.708.53 2.48 2.48 0 0 0-.959-4.769M225.356 59.588a1.189 1.189 0 0 1 .835 2.032 1.19 1.19 0 0 1-1.299.249 1.19 1.19 0 0 1-.724-1.107 1.17 1.17 0 0 1 1.188-1.174"/><path fill="#000" d="M225.354 62.45a1.69 1.69 0 0 1-1.569-1.033 1.69 1.69 0 0 1 .357-1.845 1.69 1.69 0 0 1 2.603.25c.186.277.285.604.285.94a1.665 1.665 0 0 1-1.031 1.56 1.7 1.7 0 0 1-.645.128m0-2.375a.698.698 0 1 0 .687.686.69.69 0 0 0-.687-.686m324.791 177.617c.234 0 .464.07.659.201a1.18 1.18 0 0 1 .505 1.219 1.19 1.19 0 0 1-.933.933 1.19 1.19 0 0 1-1.219-.505 1.188 1.188 0 0 1 .988-1.848"/><path fill="#000" d="M550.141 240.554a1.675 1.675 0 0 1-1.644-2.003 1.67 1.67 0 0 1 1.317-1.317 1.68 1.68 0 0 1 1.72.713c.184.275.282.599.282.931a1.69 1.69 0 0 1-1.675 1.676m0-2.362a.7.7 0 0 0-.382.115.684.684 0 0 0-.104 1.056.69.69 0 0 0 .748.149.68.68 0 0 0 .424-.634.687.687 0 0 0-.686-.686M180.359 133.268a1.18 1.18 0 0 1 1.098.733 1.19 1.19 0 0 1-.258 1.294 1.19 1.19 0 0 1-1.294.257 1.19 1.19 0 0 1-.733-1.097 1.19 1.19 0 0 1 1.187-1.187"/><path fill="#000" d="M180.355 136.144a1.68 1.68 0 0 1-1.548-1.034 1.67 1.67 0 0 1 .364-1.826 1.67 1.67 0 0 1 1.826-.363 1.67 1.67 0 0 1 1.034 1.548 1.68 1.68 0 0 1-1.034 1.548 1.7 1.7 0 0 1-.642.127m0-2.361a.68.68 0 0 0-.633.423.69.69 0 0 0 .896.897.686.686 0 0 0-.263-1.32"/><path fill="#FFEFDC" d="M231.472 100.794a3.312 3.312 0 1 0 0-6.625 3.312 3.312 0 0 0 0 6.625"/><path fill="#000" d="M231.471 101.296a3.8 3.8 0 0 1-2.122-.636 3.816 3.816 0 0 1-.592-5.868 3.814 3.814 0 1 1 2.714 6.504m0-6.597a2.825 2.825 0 0 0-.561 5.594 2.823 2.823 0 0 0 3.372-2.783 2.814 2.814 0 0 0-2.811-2.837z"/><path fill="#FFEFDC" d="M433.078 57.279a3.311 3.311 0 1 1 6.622-.001 3.311 3.311 0 0 1-6.622 0"/><path fill="#000" d="M436.39 61.078a3.798 3.798 0 0 1-3.727-4.542 3.795 3.795 0 0 1 5.181-2.77 3.8 3.8 0 0 1-1.454 7.312m0-6.598a2.81 2.81 0 0 0-2.597 1.735 2.8 2.8 0 0 0-.16 1.624 2.82 2.82 0 0 0 2.209 2.208 2.81 2.81 0 0 0 2.885-1.195 2.8 2.8 0 0 0 .473-1.561 2.805 2.805 0 0 0-2.81-2.824z"/><path fill="#FFEFDC" d="M52.171 228.717a2.124 2.124 0 1 0 0-4.248 2.124 2.124 0 0 0 0 4.248"/><path fill="#000" d="M52.17 229.206a2.64 2.64 0 1 1 .001-5.278 2.64 2.64 0 0 1 0 5.278m0-4.249a1.635 1.635 0 0 0-1.175 2.788 1.637 1.637 0 1 0 1.175-2.788m415.362-120.506a12.1 12.1 0 0 1-4.038-.792.5.5 0 0 1-.16-.103.48.48 0 0 1-.15-.342.5.5 0 0 1 .033-.188.49.49 0 0 1 .634-.29c1.185.452 2.439.697 3.707.725a.505.505 0 0 1 .475.515.48.48 0 0 1-.152.341.5.5 0 0 1-.349.134m3.893-.554a.5.5 0 0 1-.475-.343.5.5 0 0 1 .329-.621 11.2 11.2 0 0 0 3.339-1.754.5.5 0 0 1 .633.143.505.505 0 0 1-.04.648 12.2 12.2 0 0 1-3.628 1.9zm-11.15-2.204a.53.53 0 0 1-.33-.119 12.4 12.4 0 0 1-2.639-3.153.5.5 0 0 1 .185-.673.485.485 0 0 1 .673.185 11.3 11.3 0 0 0 2.428 2.876q.07.07.109.16a.5.5 0 0 1 0 .379.5.5 0 0 1-.109.16.5.5 0 0 1-.317.185m17.377-2.507a.47.47 0 0 1-.263-.08.48.48 0 0 1-.218-.311.5.5 0 0 1 .072-.374 11.6 11.6 0 0 0 1.465-3.418.485.485 0 0 1 .594-.356.49.49 0 0 1 .366.403.5.5 0 0 1-.01.19 12.1 12.1 0 0 1-1.636 3.722.52.52 0 0 1-.37.224m-21.309-4.183a.49.49 0 0 1-.475-.409 12.2 12.2 0 0 1 .462-6.36.5.5 0 0 1 .633-.303.49.49 0 0 1 .303.633 11.1 11.1 0 0 0-.633 3.721c0 .713.066 1.424.198 2.125a.5.5 0 0 1-.383.58zm23.13-3.338a.516.516 0 0 1-.501-.449 11.2 11.2 0 0 0-.976-3.641.5.5 0 0 1-.021-.38.49.49 0 0 1 .636-.296.5.5 0 0 1 .282.254 12.2 12.2 0 0 1 1.069 3.958.5.5 0 0 1-.449.54zm-20.755-6.215a.5.5 0 0 1-.317-.105.5.5 0 0 1-.066-.7 12.1 12.1 0 0 1 3.075-2.718.47.47 0 0 1 .545.015.5.5 0 0 1 .128.144.5.5 0 0 1 .067.376.5.5 0 0 1-.226.31 10.8 10.8 0 0 0-2.823 2.494.49.49 0 0 1-.383.171zm17.483-.831a.57.57 0 0 1-.356-.145 11.3 11.3 0 0 0-3.048-2.23.5.5 0 0 1-.225-.66.507.507 0 0 1 .673-.224 12.4 12.4 0 0 1 3.312 2.415.48.48 0 0 1 .148.35q0 .097-.039.189a.5.5 0 0 1-.109.16.43.43 0 0 1-.356.132zm-10.886-3.26a.5.5 0 0 1-.488-.395.5.5 0 0 1 .383-.58 12.6 12.6 0 0 1 4.103-.198.491.491 0 0 1 .233.88.5.5 0 0 1-.365.096 11.6 11.6 0 0 0-3.76.185zM239.172 226.053a6.3 6.3 0 0 1-1.57-.198.5.5 0 0 1 .25-.963 5.12 5.12 0 0 0 3.523-.33.5.5 0 0 1 .597.267.496.496 0 0 1-.175.63 6 6 0 0 1-2.625.594m-4.605-2.428a.48.48 0 0 1-.409-.211 6.07 6.07 0 0 1 .409-7.376.5.5 0 0 1 .563-.215.5.5 0 0 1 .317.273.5.5 0 0 1 0 .417.5.5 0 0 1-.128.172 5.1 5.1 0 0 0-1.227 3.311 5 5 0 0 0 .884 2.864.5.5 0 0 1 .078.371.486.486 0 0 1-.487.394m9.711-.91a.6.6 0 0 1-.198 0 .52.52 0 0 1-.264-.66 4.8 4.8 0 0 0 .423-2.019 5.3 5.3 0 0 0-.225-1.504.503.503 0 0 1 .7-.538c.11.05.199.138.25.248.175.582.263 1.186.264 1.794a6.1 6.1 0 0 1-.501 2.415.51.51 0 0 1-.449.264m-2.151-6.941a.5.5 0 0 1-.264-.079 5 5 0 0 0-2.639-.779q-.382-.03-.765 0a.514.514 0 0 1-.567-.409.5.5 0 0 1 .422-.567q.453-.063.91-.066a6.04 6.04 0 0 1 3.22.924.5.5 0 0 1 .158.686.5.5 0 0 1-.475.29m62.675-201.26c-.53 0-1.058-.066-1.571-.198a.49.49 0 0 1-.343-.607.5.5 0 0 1 .607-.356c.43.118.874.176 1.32.172.763 0 1.516-.171 2.203-.502a.49.49 0 0 1 .66.238.503.503 0 0 1-.224.66 6.1 6.1 0 0 1-2.652.593m-4.619-2.467a.49.49 0 0 1-.409-.211 6.05 6.05 0 0 1-1.055-3.418 6.1 6.1 0 0 1 1.464-3.958.5.5 0 0 1 .35-.229.5.5 0 0 1 .531.704.5.5 0 0 1-.129.171 5.084 5.084 0 0 0-.343 6.176.487.487 0 0 1-.409.765m9.712-.91a.5.5 0 0 1-.198 0 .51.51 0 0 1-.264-.66 4.8 4.8 0 0 0 .422-2.02 4.8 4.8 0 0 0-.224-1.503.5.5 0 0 1-.047-.208.5.5 0 0 1 .17-.379.5.5 0 0 1 .397-.121.5.5 0 0 1 .43.417 6.3 6.3 0 0 1 .264 1.795 5.9 5.9 0 0 1-.502 2.415.5.5 0 0 1-.448.263m-2.151-6.941a.5.5 0 0 1-.264-.08 5 5 0 0 0-2.639-.778q-.376-.03-.752 0a.486.486 0 0 1-.554-.409.504.504 0 0 1 .409-.567q.446-.062.897-.066a6.05 6.05 0 0 1 3.22.924.5.5 0 0 1 .225.309.5.5 0 0 1-.067.377.51.51 0 0 1-.475.29"/><path fill="#FFEFDC" d="M406.029 15.834h-74.274a3.446 3.446 0 0 0-3.308 2.492c-.137.476-.17.976-.096 1.466l4.275 27.881a3.446 3.446 0 0 0 3.405 2.93h4.209l.132 15.622 10.608-15.57h50.721a3.47 3.47 0 0 0 3.418-2.93l4.314-27.933a3.446 3.446 0 0 0-1.968-3.644 3.4 3.4 0 0 0-1.436-.314"/><path fill="#000" d="M340.422 66.765a.3.3 0 0 1-.145 0 .485.485 0 0 1-.343-.462l-.146-15.134h-3.707a3.96 3.96 0 0 1-3.893-3.352l-4.328-27.893a3.96 3.96 0 0 1 .898-3.18 3.96 3.96 0 0 1 2.995-1.32h74.273a3.96 3.96 0 0 1 2.996 1.32 3.97 3.97 0 0 1 .897 3.18l-4.262 27.867a3.96 3.96 0 0 1-3.959 3.351h-50.404l-10.556 15.412a.5.5 0 0 1-.316.211m-8.616-50.404a2.94 2.94 0 0 0-2.969 3.43l4.275 27.881a2.94 2.94 0 0 0 2.916 2.507h4.209a.503.503 0 0 1 .488.488l.132 14.053 9.764-14.316a.5.5 0 0 1 .357-.264h50.72a2.93 2.93 0 0 0 2.916-2.507l4.328-27.841a2.94 2.94 0 0 0-2.916-3.405z"/><path fill="#FFEFDC" d="M547.857 116.655h-74.273a3.45 3.45 0 0 0-3.309 2.492c-.137.476-.17.977-.096 1.467l4.275 27.881a3.45 3.45 0 0 0 3.418 2.929h4.196l.132 15.622 10.674-15.622h50.748a3.476 3.476 0 0 0 3.417-2.929l4.262-27.881a3.44 3.44 0 0 0-1.995-3.657 3.5 3.5 0 0 0-1.449-.302"/><path fill="#000" d="M482.204 167.574h-.145a.51.51 0 0 1-.343-.475l-.132-15.134h-3.708a3.96 3.96 0 0 1-3.959-3.338l-4.182-27.921a3.957 3.957 0 0 1 3.853-4.591h74.273a3.95 3.95 0 0 1 2.995 1.319 3.87 3.87 0 0 1 .898 3.167l-4.262 27.867a3.96 3.96 0 0 1-3.959 3.352h-50.404l-10.556 15.411a.48.48 0 0 1-.369.343m-8.616-50.404a2.95 2.95 0 0 0-2.842 2.143c-.116.41-.141.84-.075 1.261l4.342 27.855a2.94 2.94 0 0 0 2.929 2.507h4.196a.5.5 0 0 1 .488.488l.132 14.052 9.777-14.316a.47.47 0 0 1 .409-.224h50.682a2.95 2.95 0 0 0 2.929-2.507l4.262-27.881a2.94 2.94 0 0 0-1.681-3.137 2.9 2.9 0 0 0-1.235-.267z"/><path fill="#FFEFDC" d="M11.192 92.363h74.26a3.445 3.445 0 0 1 3.418 3.959l-4.275 27.933a3.47 3.47 0 0 1-3.418 2.929h-4.195l-.146 15.61-10.661-15.61H15.467a3.466 3.466 0 0 1-3.417-2.929L7.775 96.322a3.457 3.457 0 0 1 3.417-3.959"/><path fill="#000" d="M76.833 143.296a.54.54 0 0 1-.41-.211l-10.45-15.411h-50.51a3.96 3.96 0 0 1-3.958-3.352L7.283 96.455a3.958 3.958 0 0 1 3.959-4.552h74.207a3.958 3.958 0 0 1 3.959 4.552l-4.328 27.867a3.96 3.96 0 0 1-3.959 3.352h-3.655l-.132 15.134a.47.47 0 0 1-.356.462zM11.189 92.892a2.97 2.97 0 0 0-2.93 3.43l4.276 27.855a2.94 2.94 0 0 0 2.929 2.494H66.17a.49.49 0 0 1 .41.211l9.777 14.303.171-14.013a.5.5 0 0 1 .489-.488h4.196a2.94 2.94 0 0 0 2.929-2.507l4.262-27.854a2.97 2.97 0 0 0-2.93-3.404zm373.52-55.312a11.5 11.5 0 0 1-3.471-.528 9.24 9.24 0 0 1-4.446-3.022 16.5 16.5 0 0 1-4.961 2.389c-2.738.9-5.7.85-8.405-.146a8.35 8.35 0 0 1-3.378-2.639 18 18 0 0 1-14.937 1.597.5.5 0 0 1-.28-.247.49.49 0 0 1 .223-.657.5.5 0 0 1 .374-.033 16.93 16.93 0 0 0 14.065-1.49 6.6 6.6 0 0 1-.923-3.286 4.2 4.2 0 0 1 1.319-3.101 2.31 2.31 0 0 1 2.848-.224c.286.191.526.443.702.738a3.2 3.2 0 0 1 .448 2.52 6.07 6.07 0 0 1-2.493 3.247l-.568.409a7.4 7.4 0 0 0 2.929 2.243c2.494.897 5.216.934 7.733.105a15.6 15.6 0 0 0 4.684-2.243 7.4 7.4 0 0 1-1.082-3.048 4.4 4.4 0 0 1 1.385-3.694 2.29 2.29 0 0 1 2.151-.502 2.85 2.85 0 0 1 1.847 2.995 5.5 5.5 0 0 1-1.504 3.048 14 14 0 0 1-1.425 1.4 8.3 8.3 0 0 0 3.958 2.638c2.863.756 5.896.533 8.617-.633a.5.5 0 0 1 .53.82.5.5 0 0 1-.161.103 16.5 16.5 0 0 1-5.779 1.24m-6.664-10.701a1.32 1.32 0 0 0-.884.356 3.52 3.52 0 0 0-1.042 2.824c.117.902.423 1.77.897 2.546q.715-.56 1.32-1.24a4.45 4.45 0 0 0 1.253-2.467 1.86 1.86 0 0 0-1.135-1.967 1.1 1.1 0 0 0-.409-.052m-16.506-.066c-.342.009-.67.14-.924.37a3.27 3.27 0 0 0-1.029 2.348c.012.97.276 1.92.765 2.758l.528-.37a4.97 4.97 0 0 0 2.124-2.639 2.26 2.26 0 0 0-.303-1.742 1.47 1.47 0 0 0-.937-.66z"/><path fill="#000" d="M33.234 109.358a1.32 1.32 0 0 1 .815-1.219 1.319 1.319 0 0 1 1.724 1.724 1.32 1.32 0 0 1-2.539-.505"/><path fill="#000" d="M34.568 111.18a1.835 1.835 0 1 1 1.835-1.821 1.82 1.82 0 0 1-1.835 1.821m0-2.639a.842.842 0 0 0-.587 1.432.83.83 0 0 0 .587.244.843.843 0 0 0 .845-.832.845.845 0 0 0-.845-.87zm13.554 2.149a1.333 1.333 0 1 0 0-2.666 1.333 1.333 0 0 0 0 2.666"/><path fill="#000" d="M48.108 111.18a1.835 1.835 0 1 1 1.834-1.821 1.82 1.82 0 0 1-1.834 1.821m0-2.639a.84.84 0 0 0-.832.844.844.844 0 1 0 .831-.844m12.217.817a1.32 1.32 0 0 1 .815-1.219 1.318 1.318 0 0 1 1.799.961 1.32 1.32 0 0 1-.561 1.355 1.32 1.32 0 0 1-2.053-1.097"/><path fill="#000" d="M61.656 111.18a1.836 1.836 0 0 1-1.31-3.131 1.833 1.833 0 0 1 3.13 1.31 1.823 1.823 0 0 1-1.82 1.821m0-2.639a.846.846 0 0 0-.845.844.845.845 0 0 0 .845.832.83.83 0 0 0 .831-.832.845.845 0 0 0-.831-.871zm465.396 21.401h-33.753a.505.505 0 0 1-.42-.495.5.5 0 0 1 .42-.495h33.753a.49.49 0 0 1 .405.113.498.498 0 0 1-.19.865.5.5 0 0 1-.215.012m-4.736 7.43h-23.751a.5.5 0 0 1-.301-.819.5.5 0 0 1 .301-.17h23.751a.5.5 0 0 1 .405.112.502.502 0 0 1-.405.877"/></svg>