<svg xmlns="http://www.w3.org/2000/svg" width="60" height="60" fill="none"><circle cx="29.894" cy="29.894" r="29.894" fill="url(#a)"/><path fill="#fff" d="M13.864 31.919h-.02c-.397 0-.719.35-.719.783v.921c0 .433.322.784.72.784h.019c.397 0 .719-.35.719-.784v-.92c0-.433-.322-.784-.72-.784"/><path fill="#2A2933" d="M20.302 33.842a.3.3 0 0 0 .079-.128q.025-.075.017-.153a.35.35 0 0 0-.05-.145.3.3 0 0 0-.104-.104 2.2 2.2 0 0 0-.545-.227.28.28 0 0 0-.261.061.3.3 0 0 0-.086.116.4.4 0 0 0-.032.146v.953a.8.8 0 0 1 .37.164zm-1.276-.439q0-.077-.033-.146a.3.3 0 0 0-.088-.116.29.29 0 0 0-.263-.061q-.285.09-.544.248a.3.3 0 0 0-.102.106.35.35 0 0 0-.033.296.34.34 0 0 0 .077.128l.617.672a.8.8 0 0 1 .37-.164z"/><path fill="#fff" d="M19.167 31.866c-.625 0-1.236.202-1.755.58-.52.378-.925.916-1.164 1.544a3.7 3.7 0 0 0-.18 1.988c.122.667.423 1.28.865 1.762a3.1 3.1 0 0 0 1.617.941 2.92 2.92 0 0 0 1.825-.195 3.23 3.23 0 0 0 1.418-1.268 3.66 3.66 0 0 0 .533-1.911 3.6 3.6 0 0 0-.926-2.433c-.592-.645-1.395-1.008-2.233-1.008m1.594 5.177a2.2 2.2 0 0 1-1.155.672c-.437.094-.89.046-1.302-.14a2.3 2.3 0 0 1-1.012-.904 2.6 2.6 0 0 1-.38-1.364 2.7 2.7 0 0 1 .14-.974c.107-.312.27-.596.481-.836s.464-.431.744-.562a2.1 2.1 0 0 1 1.774 0c.28.13.534.322.744.562s.374.524.481.836c.107.31.155.642.14.974a2.6 2.6 0 0 1-.655 1.736"/><path fill="#2A2933" d="m20.512 34.069-.617.672c.075.121.126.258.15.402h.85a.3.3 0 0 0 .136-.034.3.3 0 0 0 .107-.095.35.35 0 0 0 .054-.289 2.6 2.6 0 0 0-.204-.582.3.3 0 0 0-.094-.11.28.28 0 0 0-.265-.041.3.3 0 0 0-.117.077m-2.68.001a.3.3 0 0 0-.117-.083.28.28 0 0 0-.272.036.3.3 0 0 0-.097.111 2.8 2.8 0 0 0-.228.593.37.37 0 0 0 .056.286.3.3 0 0 0 .107.096.3.3 0 0 0 .134.036h.874a1 1 0 0 1 .15-.402zm-.403 1.394a.3.3 0 0 0-.132.036.3.3 0 0 0-.106.094.35.35 0 0 0-.058.283q.08.311.228.593a.3.3 0 0 0 .095.113q.06.045.133.054t.14-.018a.3.3 0 0 0 .118-.086l.627-.667a1.05 1.05 0 0 1-.15-.402zm1.891 1.742q0 .076.032.145a.3.3 0 0 0 .086.116.28.28 0 0 0 .262.061q.286-.08.544-.243a.3.3 0 0 0 .102-.105.35.35 0 0 0 .032-.296.34.34 0 0 0-.076-.128l-.612-.678a.86.86 0 0 1-.37.17zm1.197-.673a.3.3 0 0 0 .117.083.28.28 0 0 0 .272-.035.3.3 0 0 0 .097-.111q.149-.28.223-.593a.36.36 0 0 0-.054-.287.3.3 0 0 0-.107-.094.3.3 0 0 0-.135-.032h-.88a1 1 0 0 1-.155.402zm-2.477.26a.36.36 0 0 0-.044.424.3.3 0 0 0 .102.106q.258.16.544.243a.29.29 0 0 0 .263-.06.3.3 0 0 0 .088-.117.4.4 0 0 0 .033-.146v-.979a.86.86 0 0 1-.37-.17z"/><path fill="#F6FBF7" d="M19.18 32.852a2.1 2.1 0 0 0-.895.153 2.2 2.2 0 0 0-.767.524 2.5 2.5 0 0 0-.516.81 2.65 2.65 0 0 0 0 1.933c.12.305.296.58.516.81s.482.408.767.524.59.169.895.153c.305.016.609-.037.894-.153s.547-.294.768-.524.396-.505.516-.81a2.65 2.65 0 0 0 0-1.932 2.5 2.5 0 0 0-.516-.81 2.2 2.2 0 0 0-.768-.525 2.1 2.1 0 0 0-.894-.153m2.041 1.88a.36.36 0 0 1-.054.288.3.3 0 0 1-.107.095.3.3 0 0 1-.135.035h-.87q.003.078 0 .158v.16h.85q.071-.002.135.031a.3.3 0 0 1 .108.094q.043.061.058.137.014.075-.004.15a2.5 2.5 0 0 1-.224.593.3.3 0 0 1-.096.111.28.28 0 0 1-.272.035.3.3 0 0 1-.118-.083l-.622-.667a1 1 0 0 1-.204.223l.641.704q.052.054.077.128a.36.36 0 0 1-.033.296.3.3 0 0 1-.102.105q-.256.163-.544.244a.28.28 0 0 1-.262-.062.3.3 0 0 1-.086-.116.4.4 0 0 1-.031-.145v-.98h-.292v.948q0 .076-.033.146a.3.3 0 0 1-.088.116.29.29 0 0 1-.263.061 2.2 2.2 0 0 1-.544-.244.3.3 0 0 1-.102-.105.354.354 0 0 1 .044-.424l.617-.678a.9.9 0 0 1-.21-.222l-.616.672a.3.3 0 0 1-.118.086q-.069.028-.14.018a.3.3 0 0 1-.133-.053.3.3 0 0 1-.095-.114 2.7 2.7 0 0 1-.229-.593.37.37 0 0 1 .059-.283.3.3 0 0 1 .105-.094.3.3 0 0 1 .133-.036h.874a1 1 0 0 1 0-.159 1 1 0 0 1 0-.158h-.865a.3.3 0 0 1-.133-.036.3.3 0 0 1-.107-.096.35.35 0 0 1-.056-.287 2.8 2.8 0 0 1 .228-.582.3.3 0 0 1 .097-.111.28.28 0 0 1 .272-.035.3.3 0 0 1 .117.083l.627.661a1 1 0 0 1 .21-.227l-.618-.673a.34.34 0 0 1-.076-.128.36.36 0 0 1 .032-.296.3.3 0 0 1 .102-.105q.251-.146.525-.227a.29.29 0 0 1 .263.06q.056.048.088.116.03.07.033.146v.953a.7.7 0 0 1 .292 0v-.953q0-.076.03-.145a.3.3 0 0 1 .087-.116.28.28 0 0 1 .261-.061q.287.086.545.248.064.038.105.104a.35.35 0 0 1 .032.298.3.3 0 0 1-.079.128l-.612.65q.12.097.209.228l.617-.672a.3.3 0 0 1 .118-.083.28.28 0 0 1 .272.035q.06.044.096.111.143.282.214.593"/><path fill="#F6FBF7" d="M19.874 34.772a.8.8 0 0 0-.214-.227l.034-.032a.8.8 0 0 0-.37-.164v.042a.6.6 0 0 0-.145 0 .7.7 0 0 0-.146 0v-.042a.8.8 0 0 0-.37.164h.03a1 1 0 0 0-.214.233v-.032a1 1 0 0 0-.15.402h.038a.9.9 0 0 0 0 .318h-.039c.023.144.074.282.15.402l.03-.037q.084.138.209.233l-.03.026a.85.85 0 0 0 .37.17v-.053a.5.5 0 0 0 .146 0 .5.5 0 0 0 .146 0v.085a.86.86 0 0 0 .369-.17l-.034-.037a.7.7 0 0 0 .209-.222l.03.037q.118-.182.155-.403h-.044a.9.9 0 0 0 0-.317h.044a1.1 1.1 0 0 0-.151-.402z"/><path fill="#F6FBF7" d="M18.699 34.542h-.03q-.12.096-.208.227v.032a.9.9 0 0 1 .238-.259m-.375.765a1 1 0 0 1 0-.159h-.039a1 1 0 0 0 0 .159 1 1 0 0 0 0 .158h.039a1 1 0 0 1 0-.158m.146.525-.029.037a.9.9 0 0 0 .209.222l.029-.027a.8.8 0 0 1-.208-.232m.698-1.454a.6.6 0 0 1 .145 0v-.042a.7.7 0 0 0-.29 0v.042a.7.7 0 0 1 .145 0m0 1.847a.4.4 0 0 1-.146 0v.037h.291v-.053a.5.5 0 0 1-.145.016m.487-.171.034.037a1 1 0 0 0 .204-.222l-.03-.037a.7.7 0 0 1-.208.222m.214-1.274.029-.032a1 1 0 0 0-.209-.226l-.034.031q.127.091.213.227m.154.527a1 1 0 0 1 0 .158h.044v-.158a2 2 0 0 0 0-.159h-.044a1 1 0 0 1 0 .159"/><path fill="#2A2933" d="M45.368 33.842a.3.3 0 0 0 .08-.128q.024-.075.016-.153a.35.35 0 0 0-.05-.145.3.3 0 0 0-.104-.104 2.2 2.2 0 0 0-.544-.227.28.28 0 0 0-.262.061.3.3 0 0 0-.086.116.4.4 0 0 0-.031.146v.953a.8.8 0 0 1 .37.164zM44.1 33.4a.36.36 0 0 0-.117-.243.29.29 0 0 0-.243-.07q-.286.088-.544.25a.3.3 0 0 0-.102.104.35.35 0 0 0-.033.296.34.34 0 0 0 .076.128l.603.651a.8.8 0 0 1 .37-.164zm1.896 1.743a.3.3 0 0 0 .134-.036.3.3 0 0 0 .106-.095.35.35 0 0 0 .056-.287q-.075-.307-.223-.582a.3.3 0 0 0-.097-.111.28.28 0 0 0-.272-.035.3.3 0 0 0-.117.082l-.622.673c.08.12.132.257.156.402z"/><path fill="#F6FBF7" d="M44.945 34.78v-.032a.9.9 0 0 0-.204-.226l-.034.031a.8.8 0 0 1 .237.227"/><path fill="#2A2933" d="M45.59 36.533a.3.3 0 0 0 .119.083.28.28 0 0 0 .271-.035.3.3 0 0 0 .097-.111q.149-.28.223-.593a.36.36 0 0 0-.056-.285.3.3 0 0 0-.106-.094.3.3 0 0 0-.134-.034h-.88a1 1 0 0 1-.155.402zm-2.337.26a.34.34 0 0 0-.076.13.36.36 0 0 0 .035.296.3.3 0 0 0 .104.104c.17.107.354.189.544.243a.29.29 0 0 0 .263-.06.3.3 0 0 0 .088-.117.4.4 0 0 0 .033-.146v-.979a.86.86 0 0 1-.37-.17zm1.282.413q0 .076.031.143a.3.3 0 0 0 .085.116.28.28 0 0 0 .258.064q.29-.082.55-.244a.3.3 0 0 0 .102-.105.35.35 0 0 0 .032-.296.34.34 0 0 0-.076-.128l-.613-.678a.86.86 0 0 1-.369.17zm-1.901-2.061h.88c.02-.144.07-.282.146-.402l-.613-.672a.3.3 0 0 0-.118-.084.28.28 0 0 0-.271.036.3.3 0 0 0-.097.111 2.8 2.8 0 0 0-.228.593.37.37 0 0 0 .058.289q.044.06.108.095a.3.3 0 0 0 .135.034m.006.319a.3.3 0 0 0-.132.035.3.3 0 0 0-.105.095.35.35 0 0 0-.054.283q.08.311.228.593a.3.3 0 0 0 .096.113q.06.045.132.054t.14-.018a.3.3 0 0 0 .118-.086l.617-.667a1 1 0 0 1-.15-.402z"/><path fill="#fff" d="M41.304 34.46a3.7 3.7 0 0 0-.097.842c0 .674.181 1.333.522 1.896a3.24 3.24 0 0 0 1.395 1.27c.57.264 1.198.341 1.807.22a3.07 3.07 0 0 0 1.62-.899 3.53 3.53 0 0 0 .895-1.723 3.73 3.73 0 0 0-.124-1.975 3.4 3.4 0 0 0-1.103-1.574 3 3 0 0 0-1.717-.65 3.4 3.4 0 0 0-1.96.767c-.57.461-1 1.097-1.238 1.826m3.062-1.614c.444.002.878.147 1.247.417.368.27.655.654.824 1.102.17.447.213.94.125 1.414-.087.474-.302.91-.616 1.252a2.2 2.2 0 0 1-1.151.67 2.08 2.08 0 0 1-1.299-.14 2.3 2.3 0 0 1-1.009-.9 2.61 2.61 0 0 1 .284-3.095 2.17 2.17 0 0 1 1.595-.72"/><path fill="#F6FBF7" d="M42.799 37.042a2.2 2.2 0 0 0 1.154.672c.438.095.891.047 1.303-.139.413-.186.765-.5 1.013-.905.248-.404.38-.879.38-1.364s-.133-.961-.38-1.365a2.3 2.3 0 0 0-1.012-.905 2.1 2.1 0 0 0-1.304-.14c-.437.096-.839.33-1.154.673a2.5 2.5 0 0 0-.493.796 2.63 2.63 0 0 0 0 1.881c.114.299.282.569.493.796m-.452-2.313q.082-.307.228-.582a.3.3 0 0 1 .097-.112.29.29 0 0 1 .271-.035.3.3 0 0 1 .118.083l.613.672a.9.9 0 0 1 .214-.227l-.627-.683a.34.34 0 0 1-.076-.13.36.36 0 0 1 .035-.296.3.3 0 0 1 .104-.104q.257-.149.54-.227a.29.29 0 0 1 .262.061q.056.047.088.116.03.069.033.146v.953a.6.6 0 0 1 .146 0 .7.7 0 0 1 .146 0v-.953q0-.077.03-.144a.3.3 0 0 1 .086-.115.28.28 0 0 1 .258-.064q.288.086.55.249.063.038.103.103a.35.35 0 0 1 .033.298.3.3 0 0 1-.079.128l-.617.651q.122.094.21.228l.621-.673a.3.3 0 0 1 .118-.083.28.28 0 0 1 .272.036q.06.043.096.11.149.281.224.594a.37.37 0 0 1-.056.286.3.3 0 0 1-.107.096.3.3 0 0 1-.134.036h-.874a1 1 0 0 1 0 .159 1 1 0 0 1 0 .159h.874q.07 0 .134.033a.3.3 0 0 1 .107.095.35.35 0 0 1 .056.284 2.5 2.5 0 0 1-.224.593.3.3 0 0 1-.096.111.29.29 0 0 1-.272.036.3.3 0 0 1-.118-.083l-.622-.667q-.088.127-.204.222l.612.704q.052.055.077.129a.36.36 0 0 1-.033.295.3.3 0 0 1-.102.105q-.26.163-.55.244a.3.3 0 0 1-.135 0 .3.3 0 0 1-.122-.064.3.3 0 0 1-.085-.115.4.4 0 0 1-.031-.144v-.98h-.146a1 1 0 0 1-.146 0v.948q0 .077-.033.146a.3.3 0 0 1-.088.116.29.29 0 0 1-.263.061 2.1 2.1 0 0 1-.544-.243.3.3 0 0 1-.09-.102.35.35 0 0 1-.032-.273.3.3 0 0 1 .064-.123l.622-.677a.9.9 0 0 1-.21-.223l-.617.667a.3.3 0 0 1-.117.086.28.28 0 0 1-.273-.035.3.3 0 0 1-.095-.114 2.7 2.7 0 0 1-.229-.593.36.36 0 0 1 .055-.283.3.3 0 0 1 .105-.094.3.3 0 0 1 .132-.036h.88a1 1 0 0 1 0-.159 1 1 0 0 1 0-.159h-.876a.3.3 0 0 1-.14-.038.3.3 0 0 1-.109-.103.36.36 0 0 1-.042-.303"/><path fill="#F6FBF7" d="M43.55 35.146a.66.66 0 0 0 0 .318h-.04a1 1 0 0 0 .151.402l.03-.037q.083.136.204.233v.026c.097.083.21.142.33.175v-.053a.5.5 0 0 0 .146 0 .5.5 0 0 0 .146 0v.053a.86.86 0 0 0 .369-.17l-.034-.036a.7.7 0 0 0 .204-.223l.034.037a.95.95 0 0 0 .15-.402h-.043a.66.66 0 0 0 0-.318h.044a.95.95 0 0 0-.15-.402v.032a.9.9 0 0 0-.215-.228l.03-.031a.8.8 0 0 0-.365-.165v.043a.7.7 0 0 0-.146 0 .6.6 0 0 0-.146 0v-.043a.8.8 0 0 0-.369.165q-.12.099-.209.232l-.03-.031c-.075.12-.125.258-.145.402z"/><path fill="#F6FBF7" d="M44.384 36.225a.4.4 0 0 1-.146 0v.037q.073.005.146 0h.145v-.053a.5.5 0 0 1-.145.016m-.845-.918a1 1 0 0 1 0-.159h-.04a1 1 0 0 0 0 .159 1 1 0 0 0 0 .158h.04a1 1 0 0 1 0-.158m.158.525-.029.037a.9.9 0 0 0 .208.222v-.027a.9.9 0 0 1-.179-.232m1.174.222.034.037q.116-.095.204-.222l-.034-.037a.66.66 0 0 1-.204.222m-1.121-1.512h-.03a.9.9 0 0 0-.208.227l.024.032a1 1 0 0 1 .213-.259m.471-.159a.6.6 0 0 1 .145 0v-.042a.7.7 0 0 0-.145 0 .6.6 0 0 0-.146 0v.042a.6.6 0 0 1 .146 0m.874.924a1 1 0 0 1 0 .158h.043v-.158a2 2 0 0 0 0-.159h-.043a1 1 0 0 1 0 .159"/><path fill="#fff" d="m47.402 27.792-.875-.398-1.259-1.72 1.07-.53a13 13 0 0 0-1.255-1.915c-1.114-1.406-2.678-2.296-4.373-2.488l-2.853-.36q.11.338.185.688h.063s2.833.132 4.656 1.239c1.822 1.106-2.999 3.44-2.999 3.44H38.28a41.5 41.5 0 0 1-.778 5.616 3.83 3.83 0 0 1-1.213 2.12 3.3 3.3 0 0 1-2.164.829h-9.336s-2.26-5.42-1.41-10.693l-2.886 2.15-4.422 2.636a4.5 4.5 0 0 0-1.562 1.579 5 5 0 0 0-.679 2.2l-.19 2.826 1.459.794v-.682c0-1.123.41-2.2 1.138-2.995.73-.794 1.718-1.24 2.75-1.24h.077c1.031 0 2.02.446 2.75 1.24.728.794 1.138 1.872 1.138 2.995v.683h18.025v-.037c.001-.446.072-.888.209-1.308a3.48 3.48 0 0 1 1.113-1.866 3 3 0 0 1 1.93-.733h.67c.344 0 .684.074 1.002.217s.607.354.85.619.436.58.568.925.2.718.2 1.092v.032c.167 0 .332-.043.483-.123s.283-.196.387-.34a1.3 1.3 0 0 0 .212-.489 1.3 1.3 0 0 0-.004-.54l-.306-1.393-.734-3.335a4 4 0 0 0-.155-.736m-15.218-8.042c-2.013-.223-4.033.34-5.7 1.588l-.453.339c1.672-1.255 4.14-2.155 6.153-1.927"/><path fill="#fff" d="M41.176 34.46a3.9 3.9 0 0 1 1.24-1.827 3.4 3.4 0 0 1 1.962-.767h-.16a3 3 0 0 0-1.928.731 3.48 3.48 0 0 0-1.114 1.863m-16.379-.138h9.336c.787 0 1.55-.292 2.165-.828a3.83 3.83 0 0 0 1.213-2.12c.386-1.848.646-3.725.777-5.615l-14.715.201c.64-1.496 1.641-2.774 2.897-3.698a7.9 7.9 0 0 1 4.232-1.547 53 53 0 0 1 7.348.345 7 7 0 0 0-.184-.688l-5.672-.636c-2.012-.227-4.48.673-6.153 1.916l-2.663 1.98c-.85 5.27 1.42 10.69 1.42 10.69"/><path fill="#fff" d="M25.27 24.89a7.4 7.4 0 0 1 2.404-2.22 6.8 6.8 0 0 1 3.043-.892c.38 0 .807-.032 1.274-.032 1.914 0 4.096.19 5.21.302.067.466-2.625.593-4.86.62-1.906.033-3.781.52-5.497 1.423zm21.254 2.49.875.396c-.263-.922-.62-1.81-1.064-2.646l-1.07.53z"/><path fill="#F25E53" d="m30.652 29.724-1.53 3.9 3.445-3.9z"/><path fill="#F25E53" d="m30.3 30.695 1.531-3.901-3.44 3.901z"/><defs><linearGradient id="a" x1="29.894" x2="29.894" y1="0" y2="59.788" gradientUnits="userSpaceOnUse"><stop stop-color="#F4815A"/><stop offset="1" stop-color="#F25E53"/></linearGradient></defs></svg>