<svg xmlns="http://www.w3.org/2000/svg" width="49" height="49" fill="none"><circle cx="24.025" cy="24.441" r="24.007" fill="url(#a)"/><path fill="#fff" d="M34.982 17H14.09c-.315 0-.617.116-.84.323a1.06 1.06 0 0 0-.346.78v5.518c-2.166.335-3.823 2.082-3.823 4.187.001 1.127.484 2.208 1.343 3.005.858.797 2.022 1.245 3.236 1.246 2.196 0 4.035-1.444 4.478-3.361h16.843c.156 0 .31-.029.454-.084q.218-.084.385-.239a1.1 1.1 0 0 0 .257-.357q.09-.203.09-.422v-1.453h1.846c.155 0 .31-.028.454-.083q.218-.085.385-.24a1.1 1.1 0 0 0 .257-.357c.06-.133.09-.277.09-.421v-4.386c0-.144-.03-.288-.09-.421a1.1 1.1 0 0 0-.257-.358 1.2 1.2 0 0 0-.385-.238 1.3 1.3 0 0 0-.454-.084h-1.846v-1.453q0-.22-.09-.422a1.1 1.1 0 0 0-.257-.357 1.2 1.2 0 0 0-.385-.239 1.3 1.3 0 0 0-.454-.084m-21.27 14.13a3.8 3.8 0 0 1-1.99-.56 3.4 3.4 0 0 1-1.319-1.49 3.1 3.1 0 0 1-.203-1.92 3.26 3.26 0 0 1 .98-1.702 3.67 3.67 0 0 1 1.832-.91 3.84 3.84 0 0 1 2.069.19 3.54 3.54 0 0 1 1.606 1.224c.393.546.603 1.189.603 1.846a3.2 3.2 0 0 1-1.048 2.35 3.73 3.73 0 0 1-2.53.972m20.196-4.276H18.122a4.16 4.16 0 0 0-1.002-1.826 4.6 4.6 0 0 0-1.806-1.18v-4.815h18.594z"/><path fill="#fff" d="M10.129 27.81c0 .657.21 1.299.603 1.845.394.547.953.973 1.607 1.224a3.84 3.84 0 0 0 2.068.189 3.67 3.67 0 0 0 1.833-.91c.5-.464.841-1.056.98-1.7a3.1 3.1 0 0 0-.204-1.92 3.4 3.4 0 0 0-1.318-1.491 3.82 3.82 0 0 0-3.359-.308 3.6 3.6 0 0 0-1.162.72 3.3 3.3 0 0 0-.776 1.079c-.18.403-.272.835-.272 1.271m3.584-1.374 1.36-1.477-.008.014.014-.014-1.218 2.41a.05.05 0 0 0 .004.054.1.1 0 0 0 .023.019q.015.006.03.006l1.764-.056h.007l-3.502 3.252a.064.064 0 0 1-.08.006.06.06 0 0 1-.024-.034.05.05 0 0 1 .007-.04l1.474-2.418a.05.05 0 0 0 0-.057.1.1 0 0 0-.023-.02.1.1 0 0 0-.031-.007l-1.192.028a.1.1 0 0 1-.033-.009.1.1 0 0 1-.023-.023.05.05 0 0 1 .008-.062l1.442-1.566z"/><path fill="#F4815A" d="m12.189 30.644 1.75-1.626 1.75-1.626h-.007l-1.764.057a.1.1 0 0 1-.03-.007.1.1 0 0 1-.023-.018.05.05 0 0 1-.004-.055l1.22-2.41-.014.015.007-.015-1.36 1.477v.005l-1.441 1.567a.05.05 0 0 0-.008.061q.007.015.023.024.015.008.033.008l1.191-.028q.017 0 .031.007a.1.1 0 0 1 .023.02.05.05 0 0 1 0 .057l-1.474 2.42a.05.05 0 0 0-.007.04.06.06 0 0 0 .023.034.064.064 0 0 0 .08-.007"/><defs><linearGradient id="a" x1="24.025" x2="24.025" y1=".434" y2="48.449" gradientUnits="userSpaceOnUse"><stop stop-color="#F4815A"/><stop offset="1" stop-color="#F25E53"/></linearGradient></defs></svg>