<svg xmlns="http://www.w3.org/2000/svg" width="40" height="40" fill="none"><circle cx="19.962" cy="20.214" r="19.563" fill="url(#a)"/><path fill="#fff" d="M24.577 23.538a.62.62 0 0 1 0-.87l-6.346-6.35-.981.981 1.87 1.481 5.189 5.581a.92.92 0 0 0 1.308 0l.327-.326-.497-.497a.62.62 0 0 1-.87 0"/><path fill="#EDECEA" d="m19.221 15.335-.98.98 6.345 6.354a.615.615 0 1 1 .87.87l.497.496.327-.327a.92.92 0 0 0 0-1.308l-5.614-5.23z"/><path fill="#C4C1BA" d="M24.582 23.535a.62.62 0 0 1 0-.87l-.134-.127a.794.794 0 1 0 1.125 1.125l-.128-.128a.62.62 0 0 1-.863 0"/><path fill="#908F8B" d="M25.453 22.67a.62.62 0 0 1 0 .87l.128.127a.798.798 0 0 0-1.132-1.125l.128.127a.62.62 0 0 1 .876 0"/><path fill="#fff" d="m20.39 17.426-1.207-1.53-1.376 1.373 1.566 1.239 4.75 5.12q.237-.004.461-.082a.615.615 0 0 1 .87-.87l.059.076c.108-.131.036-.494.052-.5z"/><path fill="#6E6D6A" d="M25.57 22.537a.792.792 0 0 0-1.167 1.07.5.5 0 0 0 .193-.06.615.615 0 0 1 .87-.87l.059.076a.37.37 0 0 0 .045-.216"/><path fill="#fff" d="m17.807 17.266.807.654c.508-.276.93-.686 1.22-1.187l-.654-.824z"/><path fill="#fff" d="m16.044 11.072 2.426 2.998-.726 1.71-1.713.726-2.995-2.426a3.597 3.597 0 1 0 3.008-3.008"/><path fill="#fff" d="M18.766 16.76h-.016l-.197.066a1 1 0 0 1-.088.017 2.3 2.3 0 0 1-.454.18l-.089.019a2.04 2.04 0 0 1-1.53.448l.088-.075q.72-.617 1.508-1.145.086-.057.18-.101l-.41-.399-1.709.73-2.998-2.427v.06l-.043-.024a3.596 3.596 0 0 0 6.114 3.103l.03-.033a2.5 2.5 0 0 1-.386-.418"/><path fill="#EDECEA" d="M19.017 17.053a3.41 3.41 0 0 1-4.816-.078 3.46 3.46 0 0 1-1.023-2.224l2.766 2.263 2.145-.883.882-2.145-2.324-2.697a3.64 3.64 0 0 1 2.288.945 3.416 3.416 0 0 1 .082 4.82"/><path fill="#fff" d="m21.086 20.901 2.377 2.227 1.481 1.867.98-.981-3.733-3.73a2.9 2.9 0 0 1-1.105.617"/><path fill="#EDECEA" d="M22.937 19.28a3 3 0 0 1-.608.903q-.062.06-.128.114l3.737 3.72.981-.98-1.837-1.448-1.073-1.155z"/><path fill="#fff" d="M22.754 19.63q-.22.262-.493.468c-.223.263-.49.484-.788.654l2.288 2.122 1.23 1.563 1.373-1.373-1.533-1.21z"/><path fill="#fff" d="m24.978 24.435-.654-.804q.22-.399.54-.723a3.2 3.2 0 0 1 .654-.497l.827.654z"/><path fill="#fff" d="m31.181 26.204-2.998-2.422-1.71.725-.716 1.71 2.426 2.995a3.597 3.597 0 1 1 3.011-3.008z"/><path fill="#fff" d="m25.075 23.097-.033.03a3.596 3.596 0 0 0 3.103 6.11l-.023-.03h.059l-2.423-3.001.726-1.71-.399-.409q-.048.093-.101.18a17 17 0 0 1-1.148 1.507l-.072.089a2.05 2.05 0 0 1 .445-1.53l.02-.089q.063-.24.173-.464c0-.03 0-.059.02-.091.019-.033.042-.131.061-.197a3 3 0 0 1-.408-.395"/><path fill="#C4C1BA" fill-opacity=".31" d="M25.198 23.23a3.407 3.407 0 0 0 .078 4.803c.591.6 1.38.965 2.22 1.027l-2.262-2.763.883-2.145 2.148-.883 2.697 2.335a3.64 3.64 0 0 0-.948-2.289 3.41 3.41 0 0 0-4.816-.085"/><path fill="#fff" d="m20.276 25.574.03-2.387-1.194-.124a4 4 0 0 0-.219-.543l.778-.912-1.667-1.71-.932.755a4 4 0 0 0-.536-.229l-.095-1.197h-1.255v2.718h.029a2.387 2.387 0 1 1-.03 4.773v2.72h1.132l.124-1.193q.279-.085.543-.213l.928.775 1.71-1.67-.755-.929q.133-.262.229-.54zm-5.123 1.147a2.39 2.39 0 0 1 .03-4.777v-2.743h-1.135l-.124 1.194a4 4 0 0 0-.54.219l-.915-.779-1.707 1.655.755.932q-.135.258-.228.536l-1.197.101-.03 2.39 1.194.124q.087.279.216.54l-.778.916 1.657 1.706.932-.755q.26.135.536.232l.095 1.193h1.255v-2.704z"/><path fill="#fff" d="M15.215 21.932a2.386 2.386 0 1 1-.03 4.773v.448a2.841 2.841 0 0 0 0-5.682v.46zm-.059 4.793a2.39 2.39 0 0 1 .029-4.777v-.477a2.841 2.841 0 1 0 0 5.682v-.448z"/><defs><linearGradient id="a" x1="19.962" x2="19.962" y1=".651" y2="39.777" gradientUnits="userSpaceOnUse"><stop stop-color="#F4815A"/><stop offset="1" stop-color="#F25E53"/></linearGradient></defs></svg>