<svg width="49" height="49" viewBox="0 0 49 49" fill="none" xmlns="http://www.w3.org/2000/svg">
<circle cx="24.5348" cy="24.902" r="24.0074" fill="url(#paint0_linear_525_2399)"/>
<g clip-path="url(#clip0_525_2399)">
<path d="M21.5338 34.3539L21.6875 34.1973C21.9415 33.8638 22.1235 33.4812 22.222 33.0738C22.2743 32.8584 22.299 32.6373 22.2953 32.4157C22.2953 32.3252 22.3183 32.272 22.4189 32.2864C22.4763 32.2864 22.5338 32.2864 22.5913 32.2864L29.3441 32.3209C29.6559 32.3209 29.9677 32.3367 30.2795 32.3209C30.7373 32.3187 31.1949 32.3417 31.6502 32.3898C31.8643 32.4056 32.0582 32.4042 32.2249 32.1772C32.2666 32.4473 32.2335 32.6815 32.2795 32.9071C32.3247 33.1405 32.395 33.3684 32.4893 33.5867C32.5937 33.8003 32.7163 34.0046 32.8556 34.1973C33.2087 34.6187 33.6763 34.9286 34.2019 35.0896C34.6365 35.2259 35.0983 35.2513 35.5453 35.1634C35.9922 35.0756 36.4101 34.8773 36.7608 34.5867C36.7867 34.568 36.8154 34.5536 36.8413 34.5364C36.8671 34.5192 36.9074 34.4631 36.9418 34.4286C37.2351 34.1447 37.4619 33.7993 37.6058 33.4173C37.7497 33.0353 37.8073 32.6262 37.7743 32.2193C37.7414 31.8125 37.6187 31.4179 37.4151 31.0641C37.2116 30.7103 36.9322 30.4059 36.597 30.1729C36.5554 30.1442 36.5022 30.1255 36.4806 30.0623L36.6574 30.0134C36.7206 29.9962 36.7852 29.9847 36.8485 29.9674C37.1143 29.8913 37.1358 29.8237 37.0065 29.5867C36.9663 29.5148 36.9232 29.443 36.8786 29.3769C36.4525 28.738 35.8638 28.2242 35.1732 27.8884C34.8291 27.7192 34.4644 27.5956 34.0884 27.5206C34.2579 27.17 34.2982 26.8022 34.3628 26.4401C34.3761 26.3744 34.366 26.3061 34.3342 26.2471C34.3025 26.1881 34.2511 26.142 34.189 26.1169C34.1151 26.0817 34.0368 26.0566 33.9562 26.0421C33.5284 25.9688 33.1366 25.7568 32.8413 25.4387C32.4604 25.0513 32.1424 24.6067 31.8987 24.1212C31.7353 23.793 31.6293 23.4392 31.5855 23.0752C31.6918 23.0421 31.7579 23.1039 31.8341 23.1283C31.9778 23.1743 32.1214 23.2347 32.2752 23.2806C32.4907 23.3467 32.5324 23.3151 32.5439 23.0852C32.5755 22.4444 32.5439 21.8051 32.5209 21.1643C32.5209 21.1068 32.5209 21.0493 32.5108 20.9933C32.4907 20.8496 32.4332 20.8151 32.3082 20.8712C32.1444 20.9444 31.9864 21.0335 31.8283 21.1197C31.745 21.1657 31.6703 21.249 31.6128 21.0867C31.5884 21.0163 31.4993 21.0306 31.4361 21.035C31.199 21.0508 30.962 21.0723 30.7177 21.0881C30.695 21.0865 30.6722 21.0898 30.651 21.098C30.6298 21.1063 30.6107 21.1191 30.595 21.1356C30.5793 21.152 30.5675 21.1718 30.5604 21.1934C30.5533 21.215 30.5511 21.238 30.5539 21.2605C30.5539 21.3482 30.5137 21.3697 30.4289 21.3568C30.2852 21.3352 30.1416 21.3166 29.9878 21.3094C29.3571 21.2835 28.7249 21.2634 28.0941 21.2361C27.6918 21.2203 27.3571 21.0824 27.166 20.6987L27.1401 20.6571C26.8887 20.2347 26.6933 19.7792 26.393 19.3841C26.3745 19.3675 26.3629 19.3446 26.3605 19.3198C26.3581 19.2951 26.3651 19.2703 26.3801 19.2505C26.4821 19.1169 26.4318 19.0148 26.3283 18.9056C26.2249 18.7964 26.245 18.749 26.4016 18.726C26.5234 18.708 26.6405 18.6665 26.7464 18.6039C26.8322 18.542 26.9302 18.4989 27.0338 18.4775C27.2257 18.4573 27.4053 18.3733 27.5439 18.239C27.9205 17.9285 28.1924 17.5096 28.3226 17.0393C28.3523 16.9671 28.3618 16.8882 28.3502 16.811C28.3385 16.7338 28.3062 16.6613 28.2565 16.601C28.1387 16.4574 28.2249 16.2691 28.1976 16.1039C28.1976 16.091 28.2263 16.0651 28.2464 16.0579C28.3901 16.0048 28.4031 15.8827 28.4059 15.7562C28.4233 15.3601 28.3366 14.9663 28.1545 14.614C28.0411 14.3737 27.8732 14.1631 27.6642 13.999C27.4552 13.8349 27.2108 13.7218 26.9505 13.6686C26.6636 13.6287 26.372 13.6385 26.0884 13.6973C25.4687 13.786 24.9047 14.1039 24.5079 14.5881C23.9562 15.2462 23.8643 16.0062 24.0496 16.8151C24.0788 16.9486 24.1377 17.0738 24.2221 17.1812C24.3064 17.2887 24.414 17.3757 24.5367 17.4358C24.7838 17.5608 24.837 17.6916 24.768 17.9818C24.4806 17.9459 24.472 17.9444 24.347 18.2102C24.3042 18.2802 24.2456 18.3392 24.176 18.3827C23.6542 18.8227 23.2034 19.3408 22.8398 19.9186C22.1013 21.0766 21.8341 22.3611 21.7637 23.7117C21.7637 23.8036 21.7522 23.9085 21.8327 23.9617C21.9131 24.0148 21.9289 24.0939 21.9174 24.1901C21.9074 24.2962 21.9074 24.403 21.9174 24.5091C21.9433 24.8367 21.9462 24.8367 21.6301 24.874H21.5568C21.2808 24.8743 21.0071 24.9229 20.7479 25.0177C20.7479 24.9085 20.7479 24.8209 20.7479 24.7304C20.7479 23.7035 20.7527 22.6767 20.7622 21.6499C20.7622 21.3827 20.7436 21.3625 20.485 21.3625L15.7436 21.4358C15.7019 21.4358 15.6617 21.4358 15.62 21.4358C15.4016 21.4502 15.3671 21.489 15.3714 21.7059C15.4078 23.1916 15.4423 24.6762 15.4749 26.16C15.4749 26.2088 15.4921 26.272 15.4749 26.3036C15.3513 26.4818 15.4232 26.6686 15.4375 26.8525C15.4562 27.114 15.4763 27.1298 15.7335 27.1398L17.5051 27.147H17.7378C17.7409 27.1665 17.7375 27.1865 17.7281 27.2038C17.7188 27.2212 17.704 27.2351 17.6861 27.2433C16.5492 28.1262 15.7058 29.3322 15.2666 30.7031C15.2537 30.7522 15.2369 30.8003 15.2163 30.8467C15.1841 30.9003 15.1334 30.9401 15.0738 30.9586C15.0142 30.9772 14.9498 30.9732 14.893 30.9473C14.8271 30.9284 14.7666 30.894 14.7166 30.847C14.6666 30.8001 14.6286 30.7418 14.6056 30.6772C14.551 30.5177 14.3729 30.4832 14.2579 30.3898C14.143 30.2965 14.1056 30.1154 13.9462 30.0594C13.8312 30.0206 13.8168 29.9487 13.8025 29.841C13.7951 29.6923 13.748 29.5484 13.6661 29.424C13.5843 29.2997 13.4706 29.1996 13.337 29.1341C13.2407 29.0881 13.2163 29.012 13.176 28.9315C13.1067 28.7728 13.0035 28.6312 12.8737 28.5166C12.7439 28.4019 12.5906 28.317 12.4246 28.2677C12.3041 28.2235 12.1732 28.2155 12.0482 28.2446C11.9231 28.2737 11.8092 28.3386 11.7206 28.4315C11.5065 28.6686 11.2723 28.8884 11.0755 29.1384C10.9375 29.2941 10.8596 29.4939 10.8556 29.702C10.8517 29.91 10.922 30.1126 11.0539 30.2735C11.0831 30.3116 11.1044 30.355 11.1167 30.4014C11.129 30.4477 11.1321 30.496 11.1258 30.5436C11.1018 30.7708 11.1658 30.9986 11.3044 31.1803C11.4431 31.3619 11.6459 31.4837 11.8714 31.5206C12.0022 31.5371 12.1351 31.5187 12.2565 31.4674C12.3355 31.4387 12.3801 31.4329 12.4375 31.5163C12.7378 31.9473 13.0309 32.0335 13.5122 31.8324C13.5568 31.8137 13.5927 31.7821 13.6459 31.8209C13.7375 31.8989 13.8528 31.9436 13.973 31.9478C14.0933 31.952 14.2114 31.9154 14.3082 31.8439C14.5357 31.8741 14.7599 31.9255 14.9778 31.9976C15.0541 32.0854 15.1505 32.1534 15.2589 32.1957C15.3673 32.238 15.4843 32.2533 15.5999 32.2404C15.9375 32.2404 16.2737 32.249 16.6056 32.2404C16.722 32.2404 16.7694 32.2763 16.7637 32.3956C16.7565 32.5765 16.7696 32.7577 16.8025 32.9358C16.9089 33.5151 17.1914 34.0474 17.6114 34.4602C17.961 34.7858 18.3877 35.0172 18.8513 35.1327C19.3272 35.2555 19.8273 35.248 20.2993 35.111C20.7713 34.974 21.1977 34.7125 21.5338 34.3539ZM14.9246 31.7318C14.7688 31.7515 14.6108 31.7181 14.4763 31.637C14.4405 31.6097 14.3959 31.5963 14.351 31.5995C14.306 31.6027 14.2637 31.6221 14.2321 31.6542C14.202 31.6857 14.1659 31.7107 14.1259 31.7278C14.0859 31.745 14.0428 31.7538 13.9993 31.7538C13.9558 31.7538 13.9127 31.745 13.8727 31.7278C13.8327 31.7107 13.7966 31.6857 13.7666 31.6542C13.7269 31.6116 13.6719 31.5864 13.6138 31.5843C13.5556 31.5821 13.4989 31.6031 13.4562 31.6427C13.3824 31.6909 13.2986 31.7219 13.2112 31.7334C13.1237 31.7448 13.0348 31.7364 12.951 31.7088C12.8673 31.6812 12.7908 31.6351 12.7273 31.5739C12.6637 31.5127 12.6148 31.438 12.5841 31.3554C12.5151 31.1743 12.4878 31.1715 12.3082 31.2419C12.1834 31.305 12.0441 31.3338 11.9045 31.3252C11.7276 31.2975 11.5685 31.2017 11.4611 31.0584C11.3538 30.9151 11.3066 30.7355 11.3298 30.5579C11.3404 30.4825 11.3345 30.4056 11.3124 30.3326C11.2904 30.2597 11.2526 30.1924 11.2019 30.1355C11.1192 30.0366 11.0688 29.9147 11.0575 29.7863C11.0462 29.6578 11.0745 29.529 11.1387 29.4171C11.1849 29.3091 11.2523 29.2114 11.337 29.1298C11.5006 28.9817 11.6507 28.8191 11.7852 28.6442C11.8601 28.5387 11.9706 28.464 12.0963 28.4336C12.222 28.4032 12.3544 28.4193 12.4691 28.4789C12.5953 28.5317 12.7092 28.61 12.8037 28.7089C12.8981 28.8078 12.9711 28.9252 13.018 29.0536C13.0352 29.1077 13.0633 29.1577 13.1006 29.2005C13.138 29.2432 13.1837 29.2779 13.235 29.3022C13.3522 29.3543 13.4508 29.441 13.5176 29.5506C13.5843 29.6602 13.6161 29.7876 13.6085 29.9157C13.6085 30.0694 13.6473 30.1715 13.8039 30.2031C13.8197 30.207 13.835 30.2123 13.8499 30.2189C14.0367 30.2735 14.0122 30.5364 14.189 30.5824C14.2726 30.6027 14.3483 30.6477 14.4062 30.7115C14.464 30.7752 14.5015 30.8549 14.5137 30.9401C14.5309 31.0148 14.5841 31.035 14.6574 31.0536C14.701 31.0562 14.7437 31.068 14.7825 31.0882C14.8213 31.1085 14.8554 31.1367 14.8825 31.171C14.9097 31.2053 14.9292 31.245 14.9399 31.2874C14.9507 31.3298 14.9523 31.374 14.9447 31.4171C14.9347 31.5192 14.9246 31.6183 14.9189 31.7318H14.9246ZM37.5798 32.5536C37.5626 33.1582 37.3232 33.7352 36.9074 34.1743C36.5784 34.5328 36.1575 34.7941 35.6904 34.9301C35.4671 34.9842 35.2376 35.0079 35.0079 35.0005C34.5921 35.015 34.1796 34.9223 33.81 34.7313C33.4403 34.5404 33.126 34.2575 32.8973 33.91C32.594 33.4963 32.4377 32.9931 32.4533 32.4804C32.4735 31.8712 32.3801 32.0364 32.8614 31.716C33.8286 31.0818 34.8736 30.5753 35.9706 30.2088C36.0339 30.1826 36.103 30.1733 36.171 30.1819C36.239 30.1904 36.3036 30.2166 36.3585 30.2577C37.1717 30.8065 37.6013 31.5651 37.574 32.5536H37.5798ZM33.847 26.4114C33.847 26.3439 33.8327 26.2533 33.9418 26.249C33.9954 26.2444 34.0488 26.2605 34.091 26.2938C34.1331 26.3272 34.161 26.3754 34.1689 26.4286C34.1696 26.4368 34.1696 26.4449 34.1689 26.4531C34.1308 26.7517 34.0649 27.046 33.972 27.3324C33.9529 27.3646 33.9313 27.3954 33.9074 27.4243C33.8477 27.2242 33.8272 27.0144 33.847 26.8065C33.847 26.6714 33.847 26.5407 33.847 26.4114ZM29.7148 22.1786C29.7249 22.0896 29.7335 22.0005 29.7393 21.9516C29.7393 21.8769 29.7393 21.8439 29.7393 21.8079C29.7479 21.4631 29.7536 21.4545 30.1042 21.4962C30.291 21.5177 30.4763 21.5536 30.6617 21.5896C30.7832 21.6139 30.8982 21.6635 30.9994 21.735C31.1006 21.8065 31.1858 21.8984 31.2493 22.0048C31.3192 22.1224 31.3433 22.2616 31.3167 22.3958C31.2902 22.53 31.215 22.6497 31.1056 22.7318C31.0847 22.752 31.0584 22.7658 31.03 22.7716C31.0015 22.7775 30.9719 22.7751 30.9447 22.7648C30.893 22.739 30.9002 22.6829 30.9045 22.6341C30.9275 22.4416 30.9045 22.262 30.7134 22.1657C30.6244 22.1205 30.5233 22.1046 30.4247 22.1203C30.3261 22.1361 30.2351 22.1826 30.1645 22.2533C30.0209 22.374 29.8858 22.2893 29.7464 22.2806C29.7091 22.2806 29.7105 22.2217 29.7148 22.1786ZM30.7206 22.5579C30.7206 22.7146 30.6315 22.8123 30.5108 22.8008C30.4424 22.7868 30.3801 22.7515 30.3331 22.6998C30.2861 22.6481 30.2568 22.5829 30.2493 22.5134C30.2605 22.4531 30.2939 22.3992 30.3428 22.3623C30.3917 22.3253 30.4526 22.308 30.5137 22.3137C30.6516 22.3194 30.7249 22.4056 30.7206 22.5579ZM29.6416 22.5723C29.6962 22.4473 29.7982 22.4804 29.893 22.4789C29.9133 22.4748 29.9342 22.475 29.9544 22.4797C29.9746 22.4844 29.9935 22.4934 30.0099 22.5061C30.0263 22.5188 30.0397 22.5349 30.0493 22.5532C30.0589 22.5716 30.0644 22.5918 30.0654 22.6125C30.0719 22.6712 30.0917 22.7276 30.1233 22.7774C30.1549 22.8272 30.1975 22.8691 30.2479 22.8999C30.2951 22.9239 30.3325 22.9635 30.3537 23.012C30.3749 23.0604 30.3787 23.1148 30.3643 23.1657C30.2878 23.8635 30.4161 24.5684 30.7335 25.1944C30.9332 25.626 31.105 26.0699 31.2479 26.5235C31.4221 27.0488 31.4484 27.612 31.324 28.1513C31.1568 28.8793 30.8848 29.5791 30.5166 30.2289C30.3994 30.427 30.2596 30.6107 30.0999 30.7763C30.0611 30.8166 30.0338 30.864 29.9562 30.8223C29.7163 30.6901 29.4433 30.6542 29.189 30.5651C28.9347 30.476 28.9102 30.4574 28.9016 30.1815C28.8916 29.7878 28.9562 29.397 28.9735 29.0033C29.0108 28.1513 29.0683 27.2993 28.9505 26.4487C28.9332 26.3194 28.8987 26.1916 28.8686 26.0637C28.8181 25.8386 28.7206 25.6267 28.5824 25.442C28.4442 25.2572 28.2685 25.1038 28.0668 24.9919C27.5468 24.7112 26.9923 24.4996 26.4174 24.3625C26.1732 24.295 25.926 24.239 25.6804 24.1786C25.7099 23.3792 25.8328 22.586 26.0467 21.8151C26.0707 21.832 26.0928 21.8512 26.1128 21.8726C26.4648 22.3654 26.9648 22.5623 27.5496 22.6197C28.1951 22.6793 28.8447 22.6822 29.4907 22.6283C29.5439 22.6212 29.6171 22.6298 29.6416 22.5723ZM27.5597 31.0263C27.5597 31.1485 27.5123 31.1772 27.3987 31.1772C26.8887 31.1772 26.3801 31.1959 25.8714 31.2059C25.4533 31.2146 25.0338 31.2203 24.6157 31.2332C24.5281 31.2332 24.4505 31.2332 24.4203 31.1341C24.2206 30.4516 24.0769 29.7605 24.1602 29.045C24.1972 28.7587 24.3182 28.4897 24.5079 28.272C24.6875 28.0688 24.8794 27.8768 25.0827 27.6973C25.1799 27.6216 25.2584 27.5246 25.3122 27.4138C25.3661 27.3029 25.3937 27.1812 25.393 27.0579C25.393 27.0077 25.393 26.9545 25.449 26.9358C25.6516 26.8712 25.6947 26.7117 25.6918 26.5048C26.0128 26.5107 26.3329 26.538 26.6502 26.5867C26.7227 26.5899 26.7915 26.6194 26.8438 26.6696C26.8962 26.7198 26.9285 26.7874 26.9347 26.8597C26.9954 27.0983 27.0405 27.3407 27.0697 27.5852C27.1689 28.341 27.291 29.0953 27.426 29.8453C27.4363 29.9574 27.4701 30.0661 27.5252 30.1643C27.5648 30.2545 27.5773 30.3544 27.5611 30.4516C27.5668 30.6427 27.5539 30.8324 27.5597 31.0263ZM27.3815 28.3266C27.3125 27.8956 27.2666 27.4473 27.1789 27.0134C27.0611 26.4286 27.0008 26.4387 26.449 26.3712C25.7967 26.2965 25.1387 26.2936 24.4864 26.2189C24.1119 26.1757 23.7401 26.1114 23.3729 26.0263C22.597 25.8539 22.1689 25.3453 22.1056 24.5608C22.0941 24.4171 22.1056 24.285 22.1056 24.114C22.6003 24.2462 23.1064 24.3308 23.6171 24.3669C24.0739 24.418 24.5356 24.4064 24.9893 24.3324C25.1648 24.3012 25.3451 24.3075 25.518 24.351C26.0223 24.4674 26.5237 24.5896 27.0137 24.7548C27.2953 24.8441 27.5691 24.956 27.8327 25.0896C28.061 25.1967 28.2603 25.357 28.414 25.557C28.5678 25.7569 28.6714 25.9908 28.7163 26.239C28.7729 26.495 28.806 26.7557 28.8154 27.0177C28.8154 27.6513 28.8154 28.2835 28.7939 28.9143C28.7781 29.2591 28.712 29.5982 28.712 29.9444C28.7141 29.9587 28.713 29.9732 28.7089 29.987C28.7048 30.0007 28.6977 30.0134 28.688 30.0241C28.6784 30.0348 28.6666 30.0433 28.6533 30.0489C28.6401 30.0545 28.6258 30.0571 28.6114 30.0565C28.3499 30.0709 28.0927 30.1355 27.8283 30.0709C27.7758 30.065 27.727 30.041 27.6902 30.0029C27.6535 29.9649 27.6312 29.9153 27.6272 29.8625C27.5453 29.3453 27.4562 28.8367 27.3815 28.3266ZM27.7378 30.7692V30.3755C27.7378 30.2936 27.7752 30.2562 27.8585 30.2634C28.0978 30.2798 28.3381 30.2764 28.5769 30.2533C28.6804 30.2447 28.7364 30.2893 28.745 30.3841C28.7608 30.5824 28.8887 30.6715 29.0568 30.716C29.2249 30.7605 29.3528 30.8108 29.5022 30.8597C29.6214 30.8902 29.7352 30.9386 29.8398 31.0033C29.9145 31.0522 30.0079 31.0953 29.9835 31.2074C29.9733 31.2605 29.9455 31.3087 29.9045 31.3441C29.8636 31.3795 29.812 31.4002 29.7579 31.4028C29.6534 31.4224 29.5479 31.4363 29.4418 31.4444C28.934 31.4607 28.4257 31.4367 27.9217 31.3726C27.7867 31.3582 27.7335 31.3008 27.7378 31.17C27.7421 31.0393 27.7306 30.897 27.7306 30.7663L27.7378 30.7692ZM26.1574 18.4128C25.9617 18.1828 25.808 17.9202 25.7033 17.637C25.6645 17.5335 25.7263 17.5091 25.7967 17.476C25.8671 17.443 25.9404 17.4344 25.972 17.5306C26.0036 17.6269 26.0554 17.7433 26.1056 17.8453C26.2206 18.0766 26.3125 18.3223 26.5496 18.5105C26.4811 18.5426 26.4036 18.55 26.3302 18.5314C26.2569 18.5128 26.1923 18.4694 26.1473 18.4085L26.1574 18.4128ZM26.1258 18.6513C26.0496 18.6815 26.0266 18.6226 25.9907 18.5982C25.7204 18.4006 25.424 18.2415 25.11 18.1255C25.0684 18.1208 25.0303 18.0999 25.004 18.0674C24.9776 18.0349 24.9651 17.9933 24.9691 17.9516C24.9691 17.8309 24.916 17.6801 24.9691 17.5967C25.0223 17.5134 25.1962 17.5967 25.314 17.5723C25.3326 17.5645 25.3528 17.5609 25.373 17.5619C25.3933 17.5629 25.413 17.5684 25.4308 17.5781C25.4486 17.5877 25.464 17.6013 25.4759 17.6177C25.4877 17.6341 25.4957 17.653 25.4993 17.6729C25.6281 18.0402 25.8389 18.3733 26.1157 18.647L26.1258 18.6513ZM26.5568 18.2763C26.3493 17.9656 26.1967 17.6215 26.1056 17.2591C26.2333 17.35 26.3667 17.4326 26.5051 17.5062C26.6645 17.5795 26.6875 17.7246 26.7335 17.8597C26.7887 18.0172 26.8564 18.17 26.9361 18.3166C26.6861 18.4487 26.6818 18.4473 26.5467 18.272L26.5568 18.2763ZM26.5625 16.2275C27.0042 16.2389 27.4459 16.2076 27.8815 16.1341C27.9735 16.1154 28.0252 16.1341 28.0252 16.239C28.0225 16.2868 28.0225 16.3348 28.0252 16.3827C28.0252 16.4832 27.9936 16.5263 27.8815 16.5263C27.5123 16.5502 27.1564 16.6733 26.8513 16.8827C26.7378 16.9545 26.6631 16.9487 26.5827 16.8525C26.5507 16.815 26.5145 16.7812 26.4749 16.7519C26.4235 16.7237 26.3832 16.679 26.3602 16.6251C26.3373 16.5711 26.3332 16.5111 26.3485 16.4545C26.3398 16.2117 26.3499 16.2189 26.5625 16.2275ZM26.5855 17.3309C26.5172 17.3159 26.4545 17.2821 26.4045 17.2332C26.2263 17.1097 26.2263 17.1097 26.3111 16.8697C26.4548 16.9875 26.6545 17.0579 26.5855 17.3237V17.3309ZM28.1301 17.0306C27.9808 17.4938 27.6866 17.8968 27.291 18.1801C27.1473 18.2792 27.1358 18.2778 27.0539 18.1255C26.9094 17.8547 26.8209 17.5576 26.7939 17.2519C26.7809 17.1801 26.8341 17.1169 26.9174 17.0651C27.1803 16.8971 27.4729 16.7811 27.7795 16.7232C27.827 16.715 27.8756 16.715 27.9232 16.7232C28.1847 16.7591 28.1947 16.8525 28.1301 17.0235V17.0306ZM24.2206 16.7246C24.179 16.5408 24.1588 16.3527 24.1602 16.1643C24.15 15.6048 24.3492 15.0617 24.7187 14.6415C25.0881 14.2213 25.6012 13.9542 26.1574 13.8927C26.4064 13.841 26.6625 13.8323 26.9145 13.8669C27.1364 13.9133 27.3451 14.0088 27.5253 14.1463C27.7055 14.2837 27.8527 14.4597 27.9562 14.6614C28.127 14.9719 28.2141 15.3214 28.2091 15.6758C28.2091 15.8568 28.2019 15.8669 28.0237 15.9042C27.7357 15.9683 27.4423 16.0053 27.1473 16.0148C26.893 16.0148 26.6387 16.0335 26.3858 16.0263C26.2622 16.0263 26.2249 16.0766 26.212 16.1786C26.1847 16.3654 26.1617 16.5522 26.1315 16.7375C26.0697 17.1197 25.9102 17.2806 25.5309 17.3482C25.3047 17.391 25.0723 17.3886 24.847 17.341C24.6928 17.3131 24.5505 17.2393 24.4388 17.1294C24.327 17.0194 24.251 16.8784 24.2206 16.7246ZM21.9835 23.4689C22.0218 22.904 22.1088 22.3435 22.2436 21.7936C22.5621 20.6133 23.2017 19.5445 24.0913 18.7059C24.2002 18.5926 24.3251 18.4958 24.462 18.4186C24.4763 18.3712 24.495 18.3266 24.5065 18.2749C24.5324 18.1614 24.5941 18.1398 24.7048 18.1729C25.2255 18.3241 25.7047 18.5924 26.1056 18.9574C26.2077 19.0508 26.268 19.1341 26.1559 19.2591C26.1372 19.2806 26.1401 19.3209 26.1329 19.3525C26.3169 19.5517 26.4699 19.7774 26.587 20.022C26.7306 20.2735 26.8657 20.5249 26.9964 20.7806C27.0926 20.9777 27.2431 21.1431 27.4302 21.2574C27.6174 21.3718 27.8333 21.4302 28.0525 21.4258C28.4835 21.4444 28.9145 21.4545 29.3571 21.4732C29.5453 21.4804 29.5482 21.4847 29.5467 21.6628C29.5458 21.8765 29.5333 22.0899 29.5094 22.3022C29.4979 22.3898 29.472 22.4373 29.3801 22.4459C28.6401 22.4847 27.9016 22.512 27.1717 22.3568C26.9896 22.3218 26.8167 22.2495 26.6639 22.1444C26.511 22.0393 26.3816 21.9037 26.2838 21.7462C26.1315 21.5033 25.9533 21.2763 25.7852 21.0436C25.7464 20.9904 25.7005 20.9286 25.6243 20.9847C25.5482 21.0407 25.5855 21.0896 25.6143 21.1398C25.6557 21.2199 25.7038 21.2963 25.7579 21.3683C25.81 21.4256 25.8459 21.4957 25.862 21.5714C25.8782 21.6471 25.874 21.7258 25.8499 21.7993C25.6598 22.4877 25.547 23.1951 25.5137 23.9085C25.5137 24.0062 25.4476 24.0292 25.37 24.0522C25.101 24.1291 24.8245 24.1773 24.5453 24.1959C23.7896 24.2361 23.0322 24.1571 22.301 23.9617C21.9347 23.8525 21.9476 23.8424 21.9835 23.4689ZM20.8226 25.3137C20.8278 25.2682 20.8483 25.2259 20.8806 25.1935C20.913 25.1612 20.9553 25.1407 21.0008 25.1355C21.0869 25.1105 21.1756 25.0951 21.2651 25.0896C21.4699 25.0891 21.6739 25.0645 21.8729 25.0163C21.9591 24.9976 21.9835 25.0163 22.0166 25.0953C22.096 25.3036 22.2085 25.4977 22.3499 25.67C22.6534 25.9943 23.0593 26.2043 23.4993 26.2648C24.0836 26.3859 24.6773 26.4556 25.2737 26.4732C25.3146 26.4718 25.3556 26.4746 25.3959 26.4818C25.4246 26.4864 25.4504 26.5017 25.4683 26.5246C25.4862 26.5476 25.4947 26.5764 25.4921 26.6054C25.4967 26.6349 25.4913 26.665 25.4767 26.6911C25.4621 26.7171 25.4392 26.7375 25.4117 26.749C25.3734 26.7626 25.333 26.7689 25.2924 26.7677C24.9975 26.7821 24.702 26.7792 24.4074 26.7591C23.9476 26.7031 23.4893 26.7332 23.0324 26.7203H22.9332C22.5798 26.7203 22.2278 26.7203 21.8743 26.7203C21.6444 26.7203 21.4189 26.6772 21.1904 26.6614C21.1033 26.6629 21.0188 26.6315 20.9538 26.5734C20.8888 26.5153 20.8481 26.4349 20.8398 26.3482C20.7811 26.0063 20.7753 25.6574 20.8226 25.3137ZM15.5898 22.2189C15.5812 22.1025 15.5712 21.9875 15.5625 21.8726C15.5482 21.6614 15.5625 21.647 15.7666 21.6427C16.0539 21.6427 16.3413 21.6327 16.6286 21.6283L20.176 21.5795C20.2493 21.5795 20.3197 21.5795 20.3973 21.5795C20.5309 21.5666 20.5654 21.6312 20.5625 21.7533C20.5625 22.0005 20.5625 22.2462 20.5625 22.4933C20.5625 22.6657 20.5625 22.6772 20.3916 22.6844C19.949 22.7016 19.5051 22.7117 19.0625 22.7217C18.1186 22.7419 17.1746 22.7591 16.2306 22.7806C16.0668 22.7806 15.9031 22.7936 15.7393 22.8036C15.6372 22.8036 15.5884 22.772 15.5956 22.66C15.5999 22.5134 15.5898 22.3654 15.5898 22.2189ZM15.9002 22.9804C16.2206 22.966 16.5395 22.9703 16.86 22.9631C17.2781 22.9545 17.6976 22.9631 17.9936 22.9344C18.8197 22.9114 19.5252 22.9214 20.2306 22.8783C20.2953 22.8783 20.3614 22.8783 20.4275 22.8783C20.5209 22.8783 20.5712 22.9128 20.5582 23.0077C20.5582 23.0479 20.5582 23.0896 20.5582 23.1298V26.0321C20.5582 26.0809 20.5582 26.1298 20.5582 26.1758C20.5668 26.285 20.5122 26.3194 20.4145 26.3194C20.1186 26.3295 19.824 26.3525 19.5295 26.364C18.5237 26.4056 17.518 26.41 16.5036 26.364C16.291 26.364 16.0726 26.364 15.8643 26.3525C15.6775 26.3525 15.6717 26.3525 15.666 26.1614C15.6559 25.8252 15.6531 25.489 15.6459 25.1556C15.6329 24.5335 15.6157 23.91 15.6056 23.2878C15.5999 22.9631 15.5338 22.9976 15.9002 22.9804ZM15.8657 26.9502C15.6416 26.9502 15.6028 26.9042 15.6056 26.6786C15.6056 26.5982 15.6315 26.5551 15.7177 26.5579C15.8614 26.5579 16.0051 26.5579 16.1602 26.5579C16.9232 26.5579 17.6861 26.6226 18.4505 26.5939L20.393 26.5134C20.4505 26.5134 20.5079 26.5134 20.5654 26.5134C20.5778 26.5122 20.5902 26.5136 20.602 26.5174C20.6138 26.5213 20.6247 26.5275 20.634 26.5357C20.6433 26.5439 20.6508 26.554 20.6561 26.5652C20.6613 26.5764 20.6642 26.5886 20.6645 26.601C20.6645 26.6743 20.6645 26.7447 20.6746 26.8209C20.6847 26.897 20.6329 26.9243 20.5697 26.9315C20.4882 26.942 20.4062 26.9482 20.324 26.9502H15.87H15.8657ZM15.6775 32.0651C15.6296 32.0678 15.5817 32.0678 15.5338 32.0651C15.2091 32.0321 15.1214 31.9358 15.12 31.6125C15.12 31.522 15.12 31.4315 15.12 31.3424C15.12 31.2275 15.12 31.1355 15.2637 31.0996C15.3729 31.0709 15.3872 30.9559 15.416 30.8625C15.6867 30.0327 16.1021 29.2573 16.643 28.5723C17.0094 28.0965 17.4391 27.673 17.9203 27.3137C18.0504 27.2146 18.2109 27.1638 18.3743 27.17C19.0927 27.17 19.8039 27.17 20.518 27.124C20.8312 27.101 20.8312 27.1025 20.8944 26.785C21.2258 26.875 21.5685 26.9161 21.9117 26.9071C22.5941 26.9071 23.2752 26.9071 23.9562 26.9301C24.3255 26.9401 24.6947 26.9674 25.0654 26.9617C25.1861 26.9617 25.2191 27.0048 25.2177 27.1197C25.2167 27.1896 25.2014 27.2586 25.1728 27.3223C25.1441 27.3861 25.1027 27.4433 25.051 27.4904C24.9074 27.6341 24.7493 27.7778 24.6013 27.9114C24.3128 28.1594 24.1043 28.4874 24.0022 28.8539C23.9492 29.0695 23.9274 29.2916 23.9375 29.5134C23.9601 30.0755 24.0552 30.6323 24.2206 31.17C24.2996 31.4128 24.3255 31.4373 24.5913 31.4272C25.5108 31.3942 26.4318 31.3884 27.3513 31.3769C27.4577 31.3769 27.564 31.3582 27.6387 31.4775C27.6537 31.4971 27.6731 31.5131 27.6952 31.524C27.7174 31.535 27.7418 31.5407 27.7666 31.5407C28.3997 31.6382 29.0423 31.6585 29.6804 31.601C30.0568 31.5522 30.1372 31.4574 30.176 31.0896C30.18 31.0412 30.2003 30.9956 30.2335 30.9602C30.7795 30.3439 31.0755 29.5967 31.3413 28.8352C31.5306 28.3259 31.6138 27.7831 31.5855 27.2404C31.5645 26.9468 31.506 26.6571 31.4117 26.3783C31.2619 25.9263 31.0869 25.4831 30.8872 25.0508C30.6089 24.4788 30.4874 23.8431 30.5352 23.2088C30.5525 23.0105 30.6645 22.9071 30.847 22.9617C30.9338 22.9887 31.0268 22.9881 31.1133 22.9601C31.1997 22.932 31.2754 22.8779 31.3298 22.8051C31.4516 22.6747 31.5225 22.5049 31.5296 22.3266C31.5368 22.1484 31.4796 21.9735 31.3686 21.8338C31.2427 21.6596 31.0675 21.527 30.8657 21.4531C30.8082 21.4344 30.722 21.4315 30.7393 21.3352C30.7565 21.239 30.8398 21.2605 30.8987 21.2562C31.0539 21.2419 31.2105 21.2375 31.3657 21.2318C31.3892 21.2276 31.4134 21.2321 31.4338 21.2446C31.4542 21.257 31.4693 21.2765 31.4763 21.2993C31.5539 21.4674 31.62 21.4861 31.7723 21.3999C31.9246 21.3137 32.0395 21.239 32.1746 21.1614C32.1973 21.1438 32.2236 21.1313 32.2517 21.1248C32.2797 21.1184 32.3088 21.1181 32.337 21.124C32.3499 21.7792 32.3801 22.4258 32.3571 23.0838C32.1516 23.0395 31.9513 22.9741 31.7594 22.8884C31.4102 22.7663 31.3499 22.818 31.4074 23.1887C31.4795 23.677 31.6538 24.1445 31.9189 24.5608C32.268 25.101 32.6372 25.624 33.212 25.9631C33.255 25.9989 33.3035 26.0275 33.3556 26.0479C33.643 26.0967 33.6904 26.2692 33.6531 26.5364C33.6275 26.8145 33.6342 27.0946 33.6732 27.3712C33.7005 27.6456 33.722 27.6585 33.9921 27.7045C34.6586 27.8223 35.2844 28.107 35.8111 28.5321C36.2324 28.8513 36.5823 29.2551 36.8384 29.7174C36.7709 29.8166 36.666 29.8123 36.5755 29.8352C35.1275 30.2189 33.7571 30.8509 32.5252 31.7031C32.3731 31.8006 32.2319 31.9143 32.1042 32.0421C32.0438 32.1078 31.9682 32.1578 31.8841 32.1876C31.7999 32.2174 31.7098 32.2261 31.6214 32.2131C31.2939 32.1901 31.2924 32.1916 31.3341 31.8769C31.472 30.8051 31.8706 29.7834 32.495 28.9013C32.6459 28.6861 32.8161 28.485 33.0036 28.3008C33.051 28.2548 33.097 28.2088 33.1473 28.1571C33.1976 28.1054 33.2105 28.0766 33.1732 28.0292C33.1358 27.9818 33.0697 27.9962 33.0223 28.0292C32.9749 28.0623 32.9375 28.1054 32.8959 28.1456C32.2033 28.8468 31.6915 29.7057 31.4045 30.6485C31.2738 31.0634 31.182 31.4895 31.1301 31.9215C31.1013 32.1341 31.1028 32.1355 30.8844 32.1355H28.8384C27.4993 32.1355 26.1602 32.1355 24.8154 32.1154C21.7781 32.0766 18.7249 32.0809 15.6775 32.0637V32.0651ZM20.5295 32.2763C20.7033 32.2763 20.7105 32.2878 20.712 32.4588C20.7173 32.6253 20.6886 32.7911 20.6275 32.9461C20.5665 33.1011 20.4744 33.242 20.3569 33.3601C20.2395 33.4783 20.0991 33.5711 19.9445 33.6331C19.7898 33.695 19.6242 33.7247 19.4577 33.7203C19.1313 33.6974 18.8267 33.5482 18.6086 33.3043C18.3905 33.0604 18.276 32.7412 18.2895 32.4143C18.2967 32.3123 18.3298 32.2706 18.4332 32.2706C18.7867 32.2706 19.1401 32.2706 19.4921 32.2706C19.8398 32.2749 20.1847 32.272 20.5295 32.2749V32.2763ZM17.4289 33.9301C17.1095 33.5096 16.9473 32.9906 16.9706 32.4631C16.9806 32.2921 16.9821 32.285 17.1574 32.2835C17.4031 32.2835 17.6502 32.2835 17.8959 32.2835C18.0051 32.2835 18.0539 32.3151 18.0683 32.4344C18.0855 32.721 18.1686 32.9998 18.3111 33.249C18.4549 33.4964 18.6728 33.6923 18.9339 33.8091C19.1951 33.9259 19.4864 33.9576 19.7666 33.8999C20.045 33.8557 20.3022 33.7241 20.501 33.5243C20.6999 33.3244 20.8301 33.0665 20.8729 32.7878C20.9054 32.6695 20.9209 32.5471 20.9189 32.4243C20.9102 32.3137 20.972 32.2806 21.0712 32.2806C21.3585 32.2806 21.6459 32.2806 21.9332 32.2806C22.0625 32.2806 22.1042 32.3281 22.1028 32.4545C22.1026 33.0411 21.8996 33.6097 21.5281 34.0637C21.1907 34.4807 20.7316 34.782 20.2148 34.9258C19.9912 34.9777 19.7619 35.0014 19.5324 34.9962C19.1199 35.0129 18.71 34.9237 18.3418 34.7371C17.9736 34.5505 17.6593 34.2726 17.4289 33.9301Z" fill="white"/>
<path d="M37.7518 34.8058C37.7212 34.7949 37.6893 34.7877 37.657 34.7842C37.4415 34.7368 37.226 34.6836 37.0104 34.6405C36.9328 34.6262 36.8668 34.6118 36.8337 34.5328C36.8078 34.6492 36.7116 34.6995 36.6254 34.7612C36.0394 35.1711 35.3201 35.3442 34.6118 35.2459C33.9035 35.1476 33.2586 34.7851 32.8064 34.2311C32.7944 34.2387 32.7804 34.2427 32.7662 34.2426C32.4645 34.2311 32.1613 34.2742 31.861 34.2081C31.7473 34.1915 31.6322 34.1872 31.5176 34.1951C31.0866 34.1951 30.6642 34.2095 30.2389 34.1951C28.1656 34.096 26.0909 34.1563 24.0191 34.1621C23.2906 34.1621 22.5622 34.1951 21.8337 34.2009C21.8079 34.2023 21.782 34.2023 21.7561 34.2009C21.4998 34.53 21.1734 34.7979 20.8006 34.985C20.4278 35.1722 20.018 35.2739 19.6009 35.2828C18.927 35.3146 18.2665 35.0874 17.7547 34.6477C17.692 34.5955 17.6427 34.529 17.611 34.4538C17.4214 34.5745 17.1987 34.5601 16.9932 34.5802C16.6168 34.6176 16.259 34.7339 15.8883 34.7957C15.8328 34.8117 15.78 34.8359 15.7317 34.8676C15.5722 34.9566 15.565 35.0443 15.7317 35.1219C15.8791 35.1919 16.0345 35.244 16.1943 35.277C16.5219 35.3431 16.8538 35.3905 17.1828 35.4408C17.7087 35.5227 18.2374 35.5601 18.7633 35.6118C19.2489 35.6592 19.7403 35.6951 20.2303 35.7138C20.9487 35.7411 21.6512 35.7799 22.3624 35.8158C23.2145 35.8575 24.0679 35.8417 24.9199 35.8575C26.3466 35.8819 27.7762 35.915 29.203 35.8288C29.9961 35.7814 30.7935 35.8632 31.588 35.7785C31.9055 35.7454 32.226 35.7512 32.5449 35.7368C33.1412 35.7081 33.736 35.6707 34.3323 35.6348C34.9285 35.5989 35.5205 35.5385 36.1139 35.4796C36.6667 35.4431 37.2137 35.3447 37.7446 35.1865C37.8366 35.1564 37.9573 35.1434 37.9645 35.0227C37.9716 34.902 37.8481 34.8503 37.7518 34.8058Z" fill="#D8D8D8"/>
<path d="M34.1946 35.0993C33.669 34.9383 33.2013 34.6284 32.8483 34.207C32.8373 34.2224 32.8231 34.2352 32.8066 34.2444C33.2588 34.7984 33.9037 35.1609 34.612 35.2592C35.3203 35.3576 36.0396 35.1844 36.6256 34.7746C36.7118 34.7128 36.8081 34.6625 36.8339 34.5461C36.8081 34.5634 36.7793 34.5777 36.7535 34.5964C36.4028 34.887 35.9849 35.0853 35.538 35.1732C35.091 35.261 34.6292 35.2356 34.1946 35.0993Z" fill="#D8D8D8"/>
<path d="M17.757 34.6596C18.2689 35.0965 18.9282 35.3216 19.6004 35.2889C20.0174 35.28 20.4272 35.1783 20.8 34.9912C21.1728 34.804 21.4992 34.5361 21.7555 34.207H21.6866L21.5328 34.3636C21.1967 34.7222 20.7703 34.9837 20.2983 35.1207C19.8264 35.2577 19.3262 35.2652 18.8504 35.1424C18.3873 35.0252 17.9617 34.7924 17.6133 34.4657C17.645 34.5408 17.6943 34.6073 17.757 34.6596Z" fill="#D8D8D8"/>
<path d="M28.8485 32.1276H30.8945C31.1129 32.1276 31.1114 32.1276 31.1402 31.9136C31.1921 31.4817 31.2839 31.0555 31.4146 30.6406C31.7019 29.7018 32.2121 28.8465 32.9017 28.1478C32.9433 28.1075 32.9836 28.0673 33.0281 28.0314C33.0726 27.9955 33.1301 27.9639 33.179 28.0314C33.2278 28.0989 33.1919 28.1219 33.1531 28.1593C33.1143 28.1966 33.0612 28.2526 33.0094 28.3029C32.8219 28.4872 32.6517 28.6882 32.5008 28.9035C31.8764 29.7855 31.4778 30.8072 31.3399 31.8791C31.2997 32.1937 31.3011 32.1923 31.6272 32.2153C31.7156 32.2283 31.8057 32.2195 31.8899 32.1897C31.974 32.1599 32.0496 32.11 32.11 32.0443C32.2377 31.9165 32.3789 31.8028 32.531 31.7052C33.7629 30.8531 35.1333 30.2211 36.5813 29.8374C36.6718 29.8144 36.7767 29.8187 36.8442 29.7196C36.5881 29.2572 36.2382 28.8535 35.8169 28.5343C35.2915 28.1081 34.6667 27.8219 34.0008 27.7024C33.7307 27.6593 33.7134 27.6434 33.6818 27.369C33.6429 27.0925 33.6362 26.8124 33.6617 26.5343C33.6991 26.267 33.6617 26.0946 33.3643 26.0457C33.3122 26.0254 33.2637 25.9967 33.2206 25.961C32.6459 25.6219 32.281 25.0989 31.9275 24.5587C31.6617 24.1421 31.4869 23.674 31.4146 23.1851C31.3571 22.8144 31.4146 22.7627 31.7666 22.8848C31.9585 22.9705 32.1589 23.036 32.3643 23.0802C32.3873 22.4222 32.3571 21.7756 32.3442 21.1205C32.316 21.1145 32.2869 21.1148 32.2589 21.1213C32.2309 21.1277 32.2046 21.1402 32.1818 21.1578C32.0468 21.2354 31.9146 21.3187 31.7795 21.3963C31.6445 21.4739 31.5612 21.4639 31.4836 21.2957C31.4766 21.2729 31.4614 21.2534 31.4411 21.241C31.4207 21.2286 31.3964 21.224 31.3729 21.2282C31.2178 21.2282 31.0612 21.2383 30.906 21.2526C30.8471 21.2526 30.7623 21.2426 30.7465 21.3317C30.7307 21.4207 30.8155 21.4308 30.8729 21.4495C31.0748 21.5234 31.2499 21.656 31.3758 21.8302C31.4868 21.9699 31.544 22.1448 31.5369 22.3231C31.5298 22.5013 31.4588 22.6711 31.337 22.8015C31.2826 22.8743 31.207 22.9284 31.1205 22.9565C31.0341 22.9845 30.941 22.9851 30.8543 22.9581C30.6718 22.9035 30.5597 23.007 30.5425 23.2052C30.4946 23.8396 30.6161 24.4752 30.8945 25.0472C31.0926 25.4796 31.2663 25.9228 31.4146 26.3748C31.509 26.6536 31.5674 26.9433 31.5885 27.2368C31.6167 27.7795 31.5336 28.3223 31.3442 28.8317C31.0784 29.5932 30.7824 30.3403 30.2364 30.9567C30.2032 30.992 30.1829 31.0376 30.179 31.086C30.1402 31.4581 30.0597 31.5486 29.6833 31.5975C29.0448 31.655 28.4017 31.6347 27.7681 31.5371C27.7433 31.5371 27.7189 31.5314 27.6967 31.5205C27.6745 31.5095 27.6552 31.4936 27.6402 31.4739C27.5726 31.3547 27.4663 31.3719 27.3528 31.3733C26.4333 31.3848 25.5123 31.3906 24.5928 31.4236C24.327 31.4337 24.3054 31.4093 24.2221 31.1664C24.0541 30.6248 23.9575 30.0635 23.9347 29.4969C23.9246 29.2751 23.9463 29.053 23.9994 28.8374C24.1015 28.4709 24.31 28.1429 24.5985 27.8949C24.7422 27.7512 24.8988 27.6162 25.0482 27.4739C25.0999 27.4268 25.1413 27.3696 25.17 27.3058C25.1986 27.2421 25.2139 27.1731 25.2149 27.1032C25.2149 26.9883 25.1833 26.9437 25.0626 26.9452C24.6919 26.9452 24.3226 26.9236 23.9534 26.9136C23.2724 26.8949 22.5913 26.8978 21.9089 26.8906C21.5656 26.8996 21.2229 26.8585 20.8916 26.7684C20.8284 27.086 20.8284 27.0845 20.5152 27.1075C19.7968 27.1607 19.087 27.1607 18.3715 27.1535C18.2081 27.1473 18.0476 27.1981 17.9175 27.2972C17.4363 27.6565 17.0066 28.08 16.6402 28.5558C16.0992 29.2408 15.6838 30.0162 15.4132 30.846C15.3844 30.938 15.3701 31.0544 15.2609 31.0831C15.1172 31.119 15.1172 31.211 15.1172 31.3259C15.1172 31.415 15.1172 31.5055 15.1172 31.596C15.1172 31.9193 15.2063 32.0156 15.531 32.0486C15.5788 32.0513 15.6268 32.0513 15.6747 32.0486C18.7221 32.0659 21.7709 32.0616 24.8183 32.0975C26.1703 32.1233 27.5094 32.1219 28.8485 32.1276Z" fill="white"/>
<path d="M22.2981 23.9542C23.0292 24.1496 23.7866 24.2287 24.5423 24.1884C24.8215 24.1698 25.098 24.1217 25.367 24.0448C25.4403 24.0246 25.5021 24.0017 25.5107 23.9011C25.5464 23.1874 25.6615 22.48 25.8541 21.7919C25.8782 21.7183 25.8824 21.6397 25.8662 21.564C25.8501 21.4882 25.8142 21.4182 25.7621 21.3608C25.708 21.2888 25.6599 21.2124 25.6185 21.1324C25.5897 21.0821 25.571 21.0189 25.6285 20.9772C25.686 20.9356 25.7506 20.9772 25.7894 21.0361C25.9575 21.2689 26.1357 21.4959 26.288 21.7387C26.3858 21.8963 26.5152 22.0319 26.6681 22.137C26.8209 22.2421 26.9938 22.3144 27.1759 22.3494C27.9058 22.5045 28.6443 22.4772 29.3843 22.4384C29.4762 22.4384 29.5021 22.3867 29.5136 22.2948C29.5375 22.0825 29.55 21.869 29.5509 21.6554C29.5509 21.4772 29.5509 21.4729 29.3613 21.4657C28.9302 21.4471 28.4906 21.437 28.0567 21.4183C27.8375 21.4227 27.6215 21.3643 27.4344 21.25C27.2473 21.1357 27.0968 20.9703 27.0006 20.7732C26.8699 20.5175 26.7305 20.266 26.5912 20.0146C26.4741 19.77 26.3211 19.5443 26.1371 19.345C25.6181 18.9702 25.0574 18.6568 24.4662 18.4111C24.3293 18.4884 24.2044 18.5852 24.0955 18.6985C23.2022 19.5391 22.5604 20.6116 22.242 21.7962C22.1073 22.3461 22.0203 22.9066 21.982 23.4715C21.946 23.845 21.9331 23.8551 22.2981 23.9542Z" fill="white"/>
<path d="M32.8371 34.1999C32.8091 34.1966 32.7814 34.1918 32.7539 34.1855L32.7654 34.2028L32.7955 34.2372C32.812 34.228 32.8262 34.2152 32.8371 34.1999Z" fill="white"/>
<path d="M21.8038 34.1387C21.7642 34.1485 21.7268 34.1655 21.6934 34.1889H21.7622L21.7751 34.1745L21.8038 34.1387Z" fill="white"/>
<path d="M15.6534 26.1657C15.6534 26.3511 15.6649 26.3525 15.8517 26.3568C16.0644 26.3568 16.2828 26.3568 16.4911 26.3683C17.4968 26.41 18.5026 26.4057 19.517 26.3683C19.8043 26.3568 20.106 26.3338 20.402 26.3238C20.5026 26.3238 20.5572 26.2936 20.5457 26.1801C20.5457 26.1298 20.5457 26.0809 20.5457 26.0364V23.124C20.5457 23.0838 20.5457 23.0421 20.5457 23.0019C20.5457 22.9071 20.5083 22.8669 20.4149 22.8726C20.3489 22.8726 20.2828 22.8726 20.2181 22.8726C19.5126 22.9157 18.8072 22.9057 17.981 22.9286C17.6851 22.9574 17.2626 22.9488 16.8474 22.9574C16.527 22.9574 16.208 22.9574 15.8876 22.9746C15.5213 22.9933 15.5845 22.9588 15.5888 23.2835C15.5989 23.9071 15.6161 24.5307 15.629 25.1513C15.6405 25.4933 15.6434 25.8295 15.6534 26.1657Z" fill="#F1F1F1" fill-opacity="0.94"/>
<path d="M27.8229 30.0643C28.0872 30.129 28.3444 30.0643 28.6059 30.05C28.6203 30.0505 28.6346 30.0479 28.6479 30.0423C28.6611 30.0367 28.673 30.0283 28.6826 30.0176C28.6922 30.0069 28.6993 29.9942 28.7034 29.9804C28.7076 29.9666 28.7086 29.9521 28.7065 29.9379C28.7065 29.5916 28.7726 29.2525 28.7884 28.9077C28.8171 28.277 28.8128 27.6448 28.8099 27.0112C28.8006 26.7491 28.7674 26.4885 28.7108 26.2324C28.6659 25.9842 28.5623 25.7504 28.4086 25.5504C28.2548 25.3504 28.0555 25.1902 27.8272 25.083C27.5637 24.9495 27.2898 24.8375 27.0082 24.7482C26.5183 24.583 26.0168 24.4609 25.5125 24.3445C25.3396 24.301 25.1594 24.2946 24.9838 24.3258C24.5301 24.3998 24.0685 24.4114 23.6117 24.3603C23.1009 24.3243 22.5948 24.2396 22.1002 24.1074C22.1002 24.2784 22.0901 24.4163 22.1002 24.5543C22.1634 25.3416 22.5916 25.8474 23.3602 26.0227C23.7275 26.1077 24.0992 26.172 24.4737 26.2152C25.126 26.2899 25.7841 26.2928 26.4364 26.3675C26.9881 26.4321 27.0484 26.425 27.1663 27.0097C27.2539 27.4408 27.2999 27.8862 27.3689 28.3229C27.4507 28.833 27.5398 29.3416 27.6203 29.8517C27.6234 29.9054 27.6455 29.9562 27.6826 29.9952C27.7197 30.0341 27.7694 30.0586 27.8229 30.0643Z" fill="white"/>
<path d="M35.9597 30.2082C34.8628 30.5747 33.8177 31.0813 32.8505 31.7154C32.3692 32.0358 32.4626 31.8706 32.4425 32.4798C32.4268 32.9925 32.5831 33.4957 32.8864 33.9094C33.1147 34.2561 33.428 34.5384 33.7966 34.7293C34.1651 34.9203 34.5765 35.0134 34.9913 34.9999C35.221 35.0073 35.4505 34.9837 35.6738 34.9295C36.1409 34.7936 36.5618 34.5322 36.8908 34.1738C37.3066 33.7346 37.546 33.1576 37.5632 32.5531C37.5905 31.5646 37.1609 30.8059 36.3419 30.2542C36.2874 30.2146 36.2237 30.1896 36.1568 30.1815C36.0899 30.1735 36.0221 30.1827 35.9597 30.2082ZM34.9913 33.9094C34.214 33.9309 33.566 33.3217 33.5545 32.4525C33.5464 32.2655 33.5761 32.0787 33.6416 31.9034C33.7072 31.7281 33.8074 31.5677 33.9362 31.4319C34.0651 31.2961 34.2199 31.1876 34.3915 31.1129C34.5632 31.0382 34.7481 30.9988 34.9353 30.997C35.1262 30.9963 35.3154 31.0333 35.4919 31.1061C35.6684 31.1788 35.8287 31.2858 35.9636 31.4209C36.0985 31.5559 36.2054 31.7164 36.2779 31.8929C36.3505 32.0695 36.3874 32.2587 36.3864 32.4496C36.3864 33.3433 35.7298 33.9252 34.9913 33.9094Z" fill="white"/>
<path d="M25.5268 17.3497C25.9061 17.2822 26.0656 17.1212 26.1274 16.739C26.1575 16.5537 26.1805 16.3669 26.2078 16.1801C26.2208 16.0781 26.2581 16.025 26.3817 16.0278C26.6346 16.0278 26.8889 16.0278 27.1432 16.0163C27.4381 16.0068 27.7315 15.9698 28.0196 15.9057C28.1978 15.8684 28.205 15.8583 28.205 15.6773C28.21 15.3229 28.1229 14.9734 27.9521 14.6629C27.8486 14.4612 27.7014 14.2852 27.5211 14.1478C27.3409 14.0103 27.1323 13.9148 26.9104 13.8684C26.6584 13.8338 26.4023 13.8426 26.1532 13.8942C25.5968 13.9554 25.0834 14.2223 24.7136 14.6426C24.3439 15.0628 24.1445 15.6061 24.1547 16.1658C24.1532 16.3543 24.1734 16.5423 24.215 16.7261C24.2455 16.8801 24.3218 17.0213 24.4338 17.1313C24.5458 17.2412 24.6884 17.3148 24.8429 17.3425C25.0681 17.3901 25.3006 17.3926 25.5268 17.3497Z" fill="#F1F1F1" fill-opacity="0.94"/>
<path d="M20.2044 34.9297C20.7212 34.786 21.1803 34.4847 21.5176 34.0677C21.8892 33.6137 22.0922 33.0451 22.0924 32.4585C22.0924 32.332 22.0521 32.2818 21.9228 32.2846C21.6355 32.2846 21.3481 32.2846 21.0607 32.2846C20.9616 32.2846 20.8998 32.3134 20.9084 32.4283C20.9104 32.551 20.895 32.6734 20.8625 32.7918C20.8192 33.0689 20.6894 33.3252 20.4918 33.5241C20.2941 33.7231 20.0387 33.8545 19.7619 33.8996C19.4816 33.9567 19.1904 33.9243 18.9295 33.807C18.6686 33.6897 18.4512 33.4934 18.3079 33.2458C18.1654 32.9966 18.0823 32.7178 18.0651 32.4312C18.0507 32.3119 18.0018 32.2789 17.8926 32.2803C17.6469 32.2803 17.3998 32.2803 17.1541 32.2803C16.9788 32.2803 16.9774 32.2889 16.9674 32.4599C16.9424 32.9899 17.1046 33.5117 17.4257 33.9341C17.655 34.2766 17.9682 34.5547 18.3353 34.7421C18.7025 34.9294 19.1115 35.0197 19.5234 35.0045C19.7526 35.0081 19.9814 34.983 20.2044 34.9297Z" fill="white"/>
<path d="M14.6584 31.0622C14.588 31.0435 14.5349 31.0234 14.5147 30.9487C14.5025 30.8634 14.4651 30.7838 14.4072 30.72C14.3493 30.6563 14.2737 30.6113 14.19 30.5909C14.0133 30.545 14.0377 30.282 13.8509 30.2274C13.8361 30.2209 13.8207 30.2156 13.805 30.2116C13.6484 30.1743 13.6081 30.0679 13.6096 29.9243C13.6171 29.7961 13.5854 29.6688 13.5186 29.5591C13.4519 29.4495 13.3533 29.3629 13.236 29.3108C13.184 29.2861 13.1378 29.2509 13.1002 29.2073C13.0625 29.1638 13.0344 29.1129 13.0176 29.0579C12.9707 28.9294 12.8977 28.812 12.8033 28.7131C12.7088 28.6142 12.5949 28.5359 12.4688 28.4832C12.354 28.4236 12.2216 28.4075 12.0959 28.4378C11.9702 28.4682 11.8597 28.543 11.7849 28.6484C11.6503 28.8234 11.5003 28.9859 11.3366 29.134C11.2519 29.2156 11.1845 29.3133 11.1383 29.4214C11.0741 29.5332 11.0458 29.6621 11.0571 29.7905C11.0684 29.919 11.1188 30.0409 11.2015 30.1398C11.2523 30.1967 11.29 30.2639 11.3121 30.3369C11.3341 30.4098 11.3401 30.4867 11.3294 30.5622C11.3063 30.7398 11.3534 30.9194 11.4607 31.0627C11.5681 31.206 11.7272 31.3017 11.9041 31.3294C12.0437 31.338 12.1831 31.3092 12.3078 31.2461C12.4874 31.1757 12.5147 31.1786 12.5837 31.3596C12.6144 31.4423 12.6634 31.517 12.7269 31.5782C12.7904 31.6394 12.8669 31.6855 12.9507 31.7131C13.0344 31.7407 13.1233 31.749 13.2108 31.7376C13.2982 31.7262 13.382 31.6952 13.4558 31.647C13.4985 31.6074 13.5552 31.5864 13.6134 31.5885C13.6716 31.5907 13.7265 31.6158 13.7662 31.6585C13.7962 31.6899 13.8323 31.715 13.8724 31.7321C13.9124 31.7492 13.9554 31.758 13.9989 31.758C14.0424 31.758 14.0855 31.7492 14.1255 31.7321C14.1655 31.715 14.2016 31.6899 14.2317 31.6585C14.2634 31.6264 14.3056 31.6069 14.3506 31.6038C14.3955 31.6006 14.4401 31.6139 14.4759 31.6412C14.6105 31.7223 14.7684 31.7558 14.9242 31.736C14.9242 31.6225 14.94 31.5234 14.9415 31.4257C14.949 31.3829 14.9475 31.3391 14.9371 31.2969C14.9266 31.2548 14.9074 31.2153 14.8807 31.1811C14.854 31.1468 14.8205 31.1185 14.7822 31.098C14.7439 31.0776 14.7017 31.0654 14.6584 31.0622Z" fill="white"/>
<path d="M15.7435 22.798C15.9073 22.788 16.0711 22.7779 16.2349 22.775C17.1788 22.7535 18.1228 22.7363 19.0668 22.7161C19.5093 22.7061 19.9533 22.696 20.3958 22.6788C20.5639 22.6716 20.5653 22.6601 20.5668 22.4877C20.5668 22.2406 20.5668 21.9949 20.5668 21.7477C20.5668 21.6256 20.5352 21.561 20.4015 21.5739C20.3283 21.5811 20.2579 21.5739 20.1803 21.5739L16.6329 21.6227C16.3455 21.6227 16.0581 21.6227 15.7708 21.6371C15.5639 21.6371 15.5524 21.6558 15.5668 21.867C15.5754 21.9819 15.5854 22.0969 15.5941 22.2133C15.5941 22.3569 15.5941 22.5006 15.5941 22.6544C15.5854 22.7664 15.6343 22.8038 15.7435 22.798Z" fill="white"/>
<path d="M21.2068 26.6488C21.4352 26.6646 21.6608 26.7092 21.8907 26.7077C22.2441 26.7077 22.5962 26.7077 22.9496 26.7077H23.0487C23.5056 26.7207 23.964 26.6905 24.4237 26.7465C24.7183 26.7667 25.0139 26.7695 25.3088 26.7551C25.3494 26.7563 25.3898 26.75 25.428 26.7365C25.4556 26.7249 25.4785 26.7045 25.493 26.6785C25.5076 26.6525 25.5131 26.6223 25.5085 26.5928C25.5111 26.5638 25.5025 26.535 25.4847 26.5121C25.4668 26.4891 25.4409 26.4738 25.4122 26.4692C25.372 26.4621 25.331 26.4592 25.2901 26.4606C24.6905 26.446 24.0934 26.3787 23.5056 26.2595C23.0656 26.199 22.6597 25.9889 22.3562 25.6646C22.2149 25.4923 22.1023 25.2982 22.0229 25.0899C21.9913 25.0166 21.9668 24.9922 21.8792 25.0109C21.6802 25.0591 21.4762 25.0837 21.2714 25.0842C21.1819 25.0897 21.0932 25.1051 21.0071 25.1301C20.9616 25.1354 20.9193 25.1558 20.8869 25.1882C20.8546 25.2205 20.8341 25.2629 20.8289 25.3083C20.7848 25.648 20.7926 25.9925 20.8519 26.3299C20.8589 26.4184 20.8996 26.5009 20.9656 26.5602C21.0317 26.6196 21.118 26.6513 21.2068 26.6488Z" fill="#D9D9D9"/>
<path d="M18.4358 32.2744C18.3294 32.2744 18.2921 32.3161 18.2921 32.4181C18.2786 32.745 18.393 33.0643 18.6111 33.3081C18.8292 33.552 19.1338 33.7012 19.4602 33.7241C19.626 33.7281 19.7908 33.6983 19.9447 33.6365C20.0987 33.5748 20.2384 33.4823 20.3555 33.3649C20.4725 33.2474 20.5645 33.1074 20.6257 32.9532C20.6869 32.7991 20.7162 32.6342 20.7116 32.4684C20.7116 32.2974 20.703 32.2873 20.5292 32.2859C20.1843 32.2859 19.8395 32.2859 19.4947 32.2859C19.1427 32.2759 18.7892 32.2787 18.4358 32.2744Z" fill="#D9D9D9"/>
<path d="M18.1108 26.947H20.3278C20.4099 26.945 20.4919 26.9388 20.5735 26.9283C20.6367 26.9283 20.6812 26.8909 20.6783 26.8177C20.6755 26.7444 20.6783 26.674 20.6683 26.5978C20.6679 26.5854 20.6651 26.5732 20.6598 26.562C20.6546 26.5507 20.647 26.5407 20.6378 26.5325C20.6285 26.5242 20.6176 26.518 20.6058 26.5142C20.594 26.5104 20.5815 26.509 20.5691 26.5102C20.5117 26.5102 20.4542 26.5102 20.3967 26.5102L18.4542 26.5906C17.6898 26.6194 16.9269 26.559 16.164 26.5547C16.0203 26.5547 15.8766 26.5547 15.7214 26.5547C15.6352 26.5547 15.6094 26.595 15.6094 26.6754C15.6094 26.901 15.6453 26.947 15.8694 26.947H18.1108Z" fill="white"/>
<path d="M27.9125 31.3586C28.4165 31.4227 28.9248 31.4467 29.4326 31.4304C29.5386 31.4223 29.6441 31.4084 29.7487 31.3888C29.8027 31.3862 29.8544 31.3656 29.8953 31.3301C29.9362 31.2947 29.964 31.2465 29.9742 31.1934C29.9958 31.0813 29.9024 31.0382 29.8306 30.9894C29.7259 30.9246 29.6121 30.8762 29.4929 30.8457C29.3492 30.804 29.1969 30.7537 29.0475 30.702C28.8981 30.6503 28.7515 30.5684 28.7357 30.3701C28.7271 30.2753 28.6711 30.2264 28.5676 30.2394C28.3289 30.2624 28.0886 30.2658 27.8492 30.2494C27.7659 30.2494 27.7271 30.2796 27.7286 30.3615V30.7552C27.7286 30.8859 27.7286 31.0167 27.7286 31.1488C27.7286 31.281 27.7774 31.3442 27.9125 31.3586Z" fill="#D9D9D9"/>
<path d="M27.9281 16.7171C27.8806 16.7089 27.832 16.7089 27.7844 16.7171C27.4779 16.775 27.1853 16.8911 26.9224 17.059C26.839 17.1108 26.7787 17.174 26.7988 17.2458C26.8259 17.5515 26.9143 17.8487 27.0589 18.1194C27.1408 18.2717 27.148 18.2731 27.2959 18.174C27.6916 17.8907 27.9858 17.4877 28.135 17.0246C28.1968 16.8565 28.1867 16.7631 27.9281 16.7171Z" fill="#FEFEFE"/>
<path d="M29.7523 22.2784C29.896 22.287 30.0325 22.3718 30.1704 22.2511C30.2409 22.1804 30.332 22.1338 30.4306 22.1181C30.5292 22.1024 30.6302 22.1182 30.7193 22.1635C30.906 22.2597 30.9333 22.4393 30.9104 22.6319C30.9104 22.6807 30.8989 22.7367 30.9506 22.7626C30.9778 22.7729 31.0073 22.7752 31.0358 22.7694C31.0643 22.7635 31.0906 22.7497 31.1115 22.7296C31.2209 22.6474 31.2961 22.5278 31.3226 22.3936C31.3491 22.2594 31.3251 22.1201 31.2552 22.0025C31.1916 21.8962 31.1065 21.8043 31.0053 21.7327C30.9041 21.6612 30.789 21.6117 30.6675 21.5873C30.4822 21.5514 30.2969 21.5155 30.1101 21.4939C29.7595 21.4523 29.7537 21.4609 29.7451 21.8057C29.7451 21.8388 29.7451 21.8718 29.7451 21.9494C29.7451 21.9982 29.7308 22.0931 29.7207 22.1764C29.7106 22.2166 29.7092 22.2755 29.7523 22.2784Z" fill="white"/>
<path d="M26.4769 16.751C26.5165 16.7803 26.5527 16.8141 26.5846 16.8516C26.6651 16.9478 26.7398 16.9536 26.8533 16.8817C27.1584 16.6724 27.5143 16.5493 27.8835 16.5254C27.9913 16.5254 28.0272 16.4823 28.0272 16.3817C28.0245 16.3339 28.0245 16.2859 28.0272 16.2381C28.0272 16.1346 27.9812 16.1145 27.8835 16.1332C27.4479 16.2067 27.0062 16.2379 26.5645 16.2266C26.3519 16.2266 26.3418 16.2179 26.3476 16.4579C26.3336 16.5142 26.3387 16.5735 26.3621 16.6266C26.3855 16.6796 26.4259 16.7234 26.4769 16.751ZM27.1953 16.2912C27.2118 16.2913 27.2281 16.2949 27.2431 16.3017C27.2581 16.3085 27.2716 16.3184 27.2826 16.3307C27.2935 16.343 27.3018 16.3575 27.3068 16.3732C27.3118 16.389 27.3135 16.4056 27.3117 16.422C27.2915 16.4866 27.2815 16.5656 27.1953 16.5872C27.1392 16.6001 27.0516 16.4866 27.066 16.409C27.0664 16.3921 27.0705 16.3754 27.0777 16.3601C27.085 16.3448 27.0954 16.3311 27.1082 16.32C27.1211 16.309 27.1361 16.3007 27.1523 16.2957C27.1685 16.2908 27.1856 16.2892 27.2025 16.2912H27.1953Z" fill="white"/>
<path d="M24.6951 18.4584C25.1485 18.6621 25.5815 18.9084 25.9882 19.1941C26.0502 19.2351 26.0998 19.2923 26.1319 19.3593C26.1319 19.3277 26.1319 19.2875 26.1549 19.2659C26.267 19.1409 26.2066 19.0576 26.1046 18.9642C25.7032 18.6008 25.2241 18.3339 24.7038 18.184C24.5931 18.151 24.5313 18.1725 24.5055 18.286C24.494 18.3334 24.4753 18.378 24.4609 18.4297C24.4997 18.4168 24.5408 18.4127 24.5813 18.4176C24.6218 18.4226 24.6607 18.4365 24.6951 18.4584Z" fill="white"/>
<path d="M25.9882 19.1925C25.5815 18.9069 25.1485 18.6605 24.6951 18.4569C24.661 18.4343 24.6223 18.4195 24.5818 18.4138C24.5413 18.4081 24.5 18.4115 24.4609 18.4238C25.0521 18.6695 25.6129 18.9829 26.1319 19.3577C26.0998 19.2907 26.0502 19.2336 25.9882 19.1925Z" fill="#F1F1F1" fill-opacity="0.94"/>
<path d="M25.3117 17.5658C25.1939 17.5931 25.033 17.4911 24.9669 17.5903C24.9008 17.6894 24.9669 17.8244 24.9669 17.9451C24.9622 17.9855 24.9732 18.0261 24.9975 18.0587C25.0218 18.0913 25.0576 18.1134 25.0976 18.1204C25.4117 18.2365 25.7081 18.3955 25.9784 18.5931C26.0143 18.6176 26.0373 18.6765 26.1134 18.6463C25.8356 18.3701 25.6247 18.0339 25.497 17.6635C25.4931 17.6439 25.4848 17.6253 25.4728 17.6092C25.4608 17.5932 25.4454 17.58 25.4276 17.5706C25.4099 17.5613 25.3902 17.556 25.3702 17.5551C25.3501 17.5543 25.3302 17.558 25.3117 17.5658Z" fill="white"/>
<path d="M26.4893 17.5049C26.3509 17.4313 26.2175 17.3487 26.0898 17.2578C26.1809 17.6202 26.3335 17.9643 26.541 18.2751C26.6761 18.4503 26.6847 18.4518 26.9203 18.3153C26.8406 18.1687 26.7729 18.0159 26.7177 17.8584C26.6717 17.7233 26.6488 17.5782 26.4893 17.5049Z" fill="white"/>
<path d="M26.0967 17.8387C26.0465 17.7367 26.0034 17.6304 25.9631 17.524C25.9229 17.4177 25.8654 17.4335 25.7878 17.4695C25.7103 17.5054 25.6557 17.5269 25.6944 17.6304C25.7991 17.9136 25.9528 18.1763 26.1485 18.4062C26.1935 18.464 26.2566 18.5051 26.3277 18.5228C26.3988 18.5405 26.4738 18.5339 26.5407 18.5039C26.3036 18.3157 26.2117 18.07 26.0967 17.8387Z" fill="#F0F0F0"/>
<path d="M33.9056 27.4189C33.9295 27.3899 33.9511 27.3592 33.9702 27.3269C34.0631 27.0406 34.129 26.7462 34.1671 26.4476C34.1678 26.4395 34.1678 26.4313 34.1671 26.4232C34.1582 26.3708 34.13 26.3236 34.0879 26.2911C34.0458 26.2586 33.993 26.2432 33.9401 26.2479C33.8309 26.2479 33.8481 26.3427 33.8452 26.4103C33.8452 26.5396 33.8452 26.6703 33.8452 26.8011C33.8254 27.009 33.8459 27.2187 33.9056 27.4189Z" fill="white"/>
<path d="M30.5072 22.3238C30.447 22.3196 30.3873 22.3377 30.3395 22.3746C30.2917 22.4115 30.2592 22.4646 30.248 22.5239C30.2555 22.5935 30.2849 22.6589 30.332 22.7107C30.3791 22.7625 30.4415 22.7979 30.51 22.8118C30.631 22.8234 30.7159 22.7255 30.7202 22.5686C30.7245 22.4117 30.6454 22.3238 30.5072 22.3238Z" fill="white"/>
<path d="M26.4063 17.2324C26.4571 17.2792 26.5199 17.3111 26.5877 17.3245C26.6568 17.0582 26.4567 16.9876 26.3127 16.8682C26.2336 17.1071 26.2336 17.1071 26.4063 17.2324Z" fill="white"/>
<path d="M27.2038 16.5858C27.2899 16.5657 27.2999 16.4854 27.32 16.4208C27.3218 16.4044 27.3202 16.3879 27.3152 16.3722C27.3101 16.3565 27.3019 16.342 27.2909 16.3297C27.28 16.3174 27.2666 16.3075 27.2516 16.3007C27.2365 16.2939 27.2203 16.2904 27.2038 16.2903C27.1875 16.2893 27.1713 16.2916 27.1559 16.297C27.1406 16.3024 27.1265 16.3109 27.1144 16.3218C27.1024 16.3328 27.0927 16.3461 27.0858 16.3609C27.079 16.3756 27.0752 16.3916 27.0747 16.4079C27.0675 16.4854 27.1478 16.5987 27.2038 16.5858Z" fill="white"/>
<path d="M35.2026 31.216C34.5905 31.0795 33.9971 31.4617 33.8147 32.1068C33.7606 32.2906 33.7494 32.4844 33.7817 32.6732C33.8141 32.8621 33.8893 33.041 34.0015 33.1963C34.1136 33.3516 34.2599 33.4792 34.429 33.5693C34.5981 33.6594 34.7855 33.7096 34.977 33.716C35.2717 33.7194 35.5572 33.6142 35.7793 33.4205C36.0013 33.2268 36.1443 32.9581 36.181 32.6657C36.2291 32.3455 36.1553 32.0188 35.9741 31.7504C35.7929 31.4819 35.5176 31.2912 35.2026 31.216Z" fill="#D9D9D9"/>
</g>
<defs>
<linearGradient id="paint0_linear_525_2399" x1="24.5348" y1="0.894531" x2="24.5348" y2="48.9094" gradientUnits="userSpaceOnUse">
<stop stop-color="#F4815A"/>
<stop offset="1" stop-color="#F25E53"/>
</linearGradient>
<clipPath id="clip0_525_2399">
<rect width="27.1063" height="22.25" fill="white" transform="translate(10.8613 13.6436)"/>
</clipPath>
</defs>
</svg>
