<svg width="40" height="40" viewBox="0 0 40 40" fill="none" xmlns="http://www.w3.org/2000/svg">
<circle cx="19.9615" cy="20.2046" r="19.563" fill="url(#paint0_linear_673_6)"/>
<path fill-rule="evenodd" clip-rule="evenodd" d="M17.3707 10.5859H23.5127L20.9815 15.9748L24.706 17.2163L17.2513 29.7069L19.0705 20.661L14.8613 19.4697L17.0502 10.5859H17.3707Z" fill="white"/>
<path fill-rule="evenodd" clip-rule="evenodd" d="M22.2161 11.4092H17.6834L15.8379 18.8995L20.0136 20.0813L18.9852 25.1948L23.4748 17.6724L19.843 16.4617L22.2161 11.4092Z" fill="white"/>
<path fill-rule="evenodd" clip-rule="evenodd" d="M18.7223 18.955L15.8379 18.8958L20.0136 20.0775L18.9852 25.191L23.4748 17.6686L19.843 16.458L21.8594 17.6433L21.0752 17.9408L22.7789 17.8596L21.3185 20.199L21.8053 20.0232L20.4801 21.5512L20.4261 20.51L20.683 20.7669L20.6019 19.7122L18.5329 19.2389L18.7223 18.955Z" fill="#E6E6E6"/>
<path fill-rule="evenodd" clip-rule="evenodd" d="M18.0067 12.2516L19.7511 11.6161L19.3184 12.184L21.3467 11.8865L19.6564 14.1447L20.887 13.6579L19.8575 16.4617L22.2306 11.4092H17.698L16.2383 17.3334L16.979 15.24L17.317 16.1731L17.4658 13.9554L17.6687 14.4827L18.0067 12.2516Z" fill="#E6E6E6"/>
<path fill-rule="evenodd" clip-rule="evenodd" d="M15.2339 15.8307L15.6639 13.244L15.123 13.6227L15.9885 11.0399L15.6099 11.2428L16.5023 9.34961L18.8281 9.43076L18.0574 9.71472L20.7213 10.0782H16.6512L15.2339 15.8307Z" fill="white"/>
<path fill-rule="evenodd" clip-rule="evenodd" d="M22.2089 10.08L23.5341 9.90581L22.7362 9.51367L25.7923 9.66243L23.4394 12.8537L25.1973 12.3669L23.3718 14.6792L23.3313 13.692L22.0527 14.8929L24.3133 10.08H22.2089Z" fill="white"/>
<path fill-rule="evenodd" clip-rule="evenodd" d="M23.1754 16.1668L24.687 16.4054L24.4571 15.9727L26.6072 17.095L24.4707 21.3274L24.7952 19.2991L23.6864 20.9488L24.1462 21.03L21.2734 23.9637L25.4703 16.9319L23.1754 16.1668Z" fill="white"/>
<path fill-rule="evenodd" clip-rule="evenodd" d="M14.8674 17.3271L14.2733 18.5445L13.8 18.1118L13.7324 20.3159L15.7742 20.5188L15.1116 21.0327L17.5051 21.5465L16.0854 25.4814L17.1401 24.8594L16.5992 26.9689L16.0583 26.3469L16.3864 31.4374L18.481 21.0228L14.2518 19.8259L14.8674 17.3271Z" fill="white"/>
<defs>
<linearGradient id="paint0_linear_673_6" x1="19.9615" y1="0.641602" x2="19.9615" y2="39.7676" gradientUnits="userSpaceOnUse">
<stop stop-color="#F4815A"/>
<stop offset="1" stop-color="#F25E53"/>
</linearGradient>
</defs>
</svg>
