<svg xmlns="http://www.w3.org/2000/svg" width="40" height="40" fill="none"><circle cx="19.563" cy="20.037" r="19.563" fill="url(#a)"/><path fill="#fff" d="M29.697 13.807H12.673c-.256 0-.502.095-.683.263a.87.87 0 0 0-.283.635v4.497c-1.765.273-3.115 1.697-3.115 3.412a3.35 3.35 0 0 0 1.094 2.448c.7.65 1.648 1.015 2.637 1.016 1.79 0 3.288-1.177 3.649-2.739h13.725c.127 0 .253-.023.37-.068a1 1 0 0 0 .314-.195.9.9 0 0 0 .21-.291.8.8 0 0 0 .073-.344v-1.184h1.503q.193 0 .37-.068a1 1 0 0 0 .314-.195.9.9 0 0 0 .21-.29.8.8 0 0 0 .073-.344v-3.574a.8.8 0 0 0-.073-.343.9.9 0 0 0-.21-.292 1 1 0 0 0-.314-.194 1 1 0 0 0-.37-.068h-1.503v-1.184a.8.8 0 0 0-.074-.344.9.9 0 0 0-.21-.291 1 1 0 0 0-.313-.195 1 1 0 0 0-.37-.068M12.364 25.32a3.1 3.1 0 0 1-1.62-.456 2.76 2.76 0 0 1-1.075-1.215 2.53 2.53 0 0 1-.167-1.565c.113-.525.39-1.007.799-1.386a3 3 0 0 1 1.493-.741 3.13 3.13 0 0 1 1.686.154 2.9 2.9 0 0 1 1.309.997c.32.446.492.97.492 1.505 0 .718-.308 1.406-.855 1.914a3.04 3.04 0 0 1-2.062.793m16.458-3.485H15.959a3.4 3.4 0 0 0-.817-1.488 3.75 3.75 0 0 0-1.471-.962v-3.923h15.15z"/><path fill="#fff" d="M9.447 22.608c0 .536.171 1.06.492 1.504.32.446.776.793 1.31.998a3.14 3.14 0 0 0 1.684.154 3 3 0 0 0 1.494-.741 2.65 2.65 0 0 0 .798-1.386 2.53 2.53 0 0 0-.166-1.565 2.76 2.76 0 0 0-1.074-1.215 3.11 3.11 0 0 0-2.737-.25 2.9 2.9 0 0 0-.946.586c-.271.252-.486.55-.633.879a2.5 2.5 0 0 0-.222 1.036m2.92-1.119 1.109-1.204-.007.012.012-.012-.992 1.964a.04.04 0 0 0 .003.044l.018.016.025.005 1.438-.046h.005l-2.854 2.65a.05.05 0 0 1-.066.005.05.05 0 0 1-.018-.028.04.04 0 0 1 .006-.032l1.2-1.97a.04.04 0 0 0 0-.047l-.019-.017-.025-.005-.97.022a.1.1 0 0 1-.028-.006.1.1 0 0 1-.019-.02.04.04 0 0 1 .007-.05l1.175-1.276z"/><path fill="#F25E53" d="M28.82 15.458h-2.271v6.374h2.27z"/><path fill="#F4815A" d="m11.126 24.917 1.427-1.325 1.426-1.325h-.006l-1.438.046a.05.05 0 0 1-.042-.02.04.04 0 0 1-.004-.045l.994-1.964-.011.012.006-.012-1.108 1.204v.004l-1.175 1.276a.044.044 0 0 0-.007.05q.006.012.019.02l.027.007.971-.023q.014 0 .025.006t.019.016a.04.04 0 0 1 .007.023.04.04 0 0 1-.007.023l-1.201 1.972a.04.04 0 0 0-.006.032q.004.017.019.028a.05.05 0 0 0 .065-.005"/><defs><linearGradient id="a" x1="19.563" x2="19.563" y1=".474" y2="39.6" gradientUnits="userSpaceOnUse"><stop stop-color="#F4815A"/><stop offset="1" stop-color="#F25E53"/></linearGradient></defs></svg>