<svg xmlns="http://www.w3.org/2000/svg" width="40" height="40" fill="none"><circle cx="19.962" cy="20.205" r="19.563" fill="url(#a)"/><path fill="#fff" fill-rule="evenodd" d="M17.37 10.586h6.143l-2.532 5.389 3.725 1.241-7.455 12.49 1.82-9.045-4.21-1.191 2.19-8.884z" clip-rule="evenodd"/><path fill="#fff" fill-rule="evenodd" d="M22.216 11.41h-4.533l-1.845 7.49 4.176 1.181-1.029 5.114 4.49-7.523-3.632-1.21z" clip-rule="evenodd"/><path fill="#E6E6E6" fill-rule="evenodd" d="m18.722 18.955-2.884-.06 4.176 1.183-1.029 5.113 4.49-7.522-3.632-1.211 2.016 1.185-.784.298 1.704-.081-1.46 2.339.486-.176-1.325 1.528-.054-1.041.257.257-.081-1.055-2.07-.473z" clip-rule="evenodd"/><path fill="#E6E6E6" fill-rule="evenodd" d="m18.007 12.252 1.744-.636-.433.568 2.029-.297-1.69 2.258 1.23-.487-1.03 2.804 2.374-5.053h-4.533l-1.46 5.924.741-2.093.338.933.149-2.218.203.528z" clip-rule="evenodd"/><path fill="#fff" fill-rule="evenodd" d="m15.234 15.83.43-2.586-.541.379.866-2.583-.38.203.893-1.893 2.326.08-.77.285 2.663.363h-4.07zm6.975-5.75 1.325-.174-.798-.392 3.056.148-2.353 3.192 1.758-.487-1.825 2.312-.04-.987-1.28 1.2 2.261-4.812zm.966 6.087 1.512.238-.23-.432 2.15 1.122-2.136 4.232.324-2.028-1.109 1.65.46.081-2.873 2.934 4.197-7.032zm-8.308 1.16-.594 1.217-.473-.432-.068 2.204 2.042.203-.662.514 2.393.514-1.42 3.934 1.055-.622-.54 2.11-.542-.622.328 5.09 2.095-10.414-4.23-1.197z" clip-rule="evenodd"/><defs><linearGradient id="a" x1="19.962" x2="19.962" y1=".642" y2="39.768" gradientUnits="userSpaceOnUse"><stop stop-color="#F4815A"/><stop offset="1" stop-color="#F25E53"/></linearGradient></defs></svg>