<svg xmlns="http://www.w3.org/2000/svg" width="49" height="49" fill="none"><circle cx="24.521" cy="24.826" r="24.007" fill="url(#a)"/><g clip-path="url(#b)"><path fill="#fff" d="M36.782 21.29a1.05 1.05 0 0 0 1.048-1.048v-4.32a1.05 1.05 0 0 0-1.048-1.048h-4.004a1.048 1.048 0 1 0 0 2.096h1.384l-7.397 8.732-.039-2.625a1.048 1.048 0 0 0-1.848-.663l-9.685 11.437a1.048 1.048 0 1 0 1.6 1.353l7.878-9.3.039 2.625a1.048 1.048 0 0 0 1.847.662l9.177-10.834v1.886a1.05 1.05 0 0 0 1.048 1.047"/></g><defs><linearGradient id="a" x1="24.521" x2="24.521" y1=".818" y2="48.833" gradientUnits="userSpaceOnUse"><stop stop-color="#F4815A"/><stop offset="1" stop-color="#F25E53"/></linearGradient><clipPath id="b"><path fill="#fff" d="M12.37 12.48h25.464v25.6H12.37z"/></clipPath></defs></svg>