<svg xmlns="http://www.w3.org/2000/svg" width="49" height="49" fill="none"><circle cx="24.535" cy="24.902" r="24.007" fill="url(#a)"/><g clip-path="url(#b)"><path fill="#fff" d="m21.534 34.354.154-.157a3 3 0 0 0 .534-1.123q.078-.325.073-.658c0-.09.023-.144.124-.13h.172l6.753.035c.312 0 .624.016.935 0q.688-.004 1.371.069c.214.016.408.014.575-.213.042.27.008.505.054.73q.069.351.21.68.157.32.367.61c.353.422.82.732 1.346.893a2.73 2.73 0 0 0 2.559-.503q.04-.027.08-.05c.04-.023.066-.074.1-.108a2.763 2.763 0 0 0-.344-4.256c-.042-.029-.095-.047-.116-.11l.176-.05c.064-.017.128-.028.192-.046.265-.076.287-.143.158-.38a3 3 0 0 0-.128-.21 4.3 4.3 0 0 0-1.706-1.489 4.4 4.4 0 0 0-1.085-.367c.17-.351.21-.719.275-1.08a.29.29 0 0 0-.174-.324 1 1 0 0 0-.233-.075 1.98 1.98 0 0 1-1.115-.603 5.2 5.2 0 0 1-.942-1.318 3.2 3.2 0 0 1-.314-1.046c.107-.033.173.029.25.053.143.046.286.107.44.153.216.066.257.034.269-.196.032-.64 0-1.28-.023-1.92 0-.058 0-.116-.01-.172-.02-.143-.078-.178-.203-.122-.164.073-.322.163-.48.249-.083.046-.158.129-.215-.033-.025-.07-.114-.056-.177-.052-.237.016-.474.037-.718.053a.155.155 0 0 0-.158.105.2.2 0 0 0-.006.067c0 .088-.04.11-.125.097a4 4 0 0 0-.441-.048c-.63-.026-1.263-.046-1.894-.073-.402-.016-.737-.154-.928-.537l-.026-.042c-.251-.422-.447-.878-.747-1.273a.1.1 0 0 1-.013-.134c.102-.133.052-.235-.052-.344-.103-.11-.083-.157.074-.18a1 1 0 0 0 .344-.122.75.75 0 0 1 .288-.127.86.86 0 0 0 .51-.238c.377-.31.648-.73.779-1.2a.43.43 0 0 0-.067-.438c-.117-.144-.031-.332-.058-.497 0-.013.028-.039.048-.046.144-.053.157-.175.16-.302a2.27 2.27 0 0 0-.252-1.142 1.71 1.71 0 0 0-1.203-.945 2.5 2.5 0 0 0-.863.028 2.5 2.5 0 0 0-1.58.891c-.552.658-.644 1.418-.458 2.227a.9.9 0 0 0 .487.62c.247.126.3.257.231.547-.287-.036-.296-.038-.421.228a.5.5 0 0 1-.171.173 6.6 6.6 0 0 0-1.336 1.536c-.739 1.158-1.006 2.442-1.076 3.793 0 .092-.012.197.069.25.08.053.096.132.084.228a1.7 1.7 0 0 0 0 .32c.026.327.03.327-.287.364h-.073c-.276 0-.55.049-.81.144v-.288q0-1.54.015-3.08c0-.267-.018-.287-.277-.287l-4.741.073h-.124c-.218.014-.253.053-.249.27q.055 2.228.104 4.454c0 .049.017.112 0 .144-.124.178-.052.365-.037.549.018.261.038.277.295.287l1.772.007h.233a.09.09 0 0 1-.052.096 7.14 7.14 0 0 0-2.42 3.46 1 1 0 0 1-.05.144.254.254 0 0 1-.323.1.43.43 0 0 1-.287-.27c-.055-.16-.233-.194-.348-.287s-.152-.275-.312-.33c-.115-.04-.13-.111-.143-.219a.83.83 0 0 0-.466-.707c-.096-.046-.12-.122-.161-.203a1.19 1.19 0 0 0-.751-.663.66.66 0 0 0-.704.163c-.214.238-.449.457-.646.707a.875.875 0 0 0-.021 1.135.36.36 0 0 1 .072.27.895.895 0 0 0 .745.978.75.75 0 0 0 .386-.054c.079-.028.123-.034.18.05.3.43.594.516 1.075.315.045-.018.08-.05.134-.011a.53.53 0 0 0 .662.023q.342.045.67.154a.72.72 0 0 0 .622.242c.338 0 .674.009 1.006 0 .116 0 .163.036.158.156q-.011.272.038.54c.107.58.39 1.111.81 1.524.349.326.776.557 1.24.673a2.74 2.74 0 0 0 2.682-.78m-6.61-2.622a.7.7 0 0 1-.448-.095.185.185 0 0 0-.244.017.32.32 0 0 1-.465 0 .22.22 0 0 0-.31-.011.59.59 0 0 1-.873-.288c-.069-.18-.096-.183-.276-.113a.8.8 0 0 1-.403.083.687.687 0 0 1-.575-.767.53.53 0 0 0-.128-.422.63.63 0 0 1-.063-.719.9.9 0 0 1 .198-.287q.247-.222.448-.486a.536.536 0 0 1 .684-.165 1 1 0 0 1 .549.575.42.42 0 0 0 .217.248.63.63 0 0 1 .373.614c0 .153.04.256.196.287q.024.007.046.016c.187.054.162.317.339.363a.43.43 0 0 1 .325.358c.017.075.07.095.143.114a.31.31 0 0 1 .288.363c-.01.102-.02.201-.026.315zm22.656.822a2.46 2.46 0 0 1-.673 1.62c-.329.359-.75.62-1.217.756a2.6 2.6 0 0 1-.682.07 2.42 2.42 0 0 1-2.11-1.09 2.3 2.3 0 0 1-.445-1.43c.02-.609-.073-.444.408-.764a13.4 13.4 0 0 1 3.11-1.507.4.4 0 0 1 .388.049c.813.549 1.242 1.307 1.215 2.296zm-3.733-6.143c0-.067-.014-.158.095-.162a.21.21 0 0 1 .227.18v.024a5 5 0 0 1-.197.88 1 1 0 0 1-.065.091c-.06-.2-.08-.41-.06-.617zm-4.132-4.232.024-.227v-.144c.009-.345.015-.354.365-.312.187.022.372.058.558.094a.9.9 0 0 1 .587.415.554.554 0 0 1-.143.727.15.15 0 0 1-.161.033c-.052-.026-.045-.082-.04-.13.022-.193 0-.373-.192-.47a.47.47 0 0 0-.549.088c-.143.121-.278.036-.418.028-.037 0-.035-.06-.031-.102m1.006.379c0 .157-.09.254-.21.243a.33.33 0 0 1-.262-.288.246.246 0 0 1 .265-.2c.138.006.21.093.207.245m-1.08.014c.055-.125.157-.092.252-.093a.144.144 0 0 1 .172.134.39.39 0 0 0 .183.287.23.23 0 0 1 .116.266 3.6 3.6 0 0 0 .37 2.028q.3.648.514 1.33c.174.525.2 1.088.076 1.627a7.7 7.7 0 0 1-.807 2.078 3 3 0 0 1-.417.547c-.039.04-.066.088-.144.046-.24-.132-.513-.168-.767-.257s-.279-.108-.287-.384c-.01-.393.054-.784.072-1.178.037-.852.094-1.704-.023-2.554-.018-.13-.052-.257-.082-.385a1.64 1.64 0 0 0-.802-1.072 6.8 6.8 0 0 0-1.65-.63c-.244-.067-.491-.123-.737-.183.03-.8.153-1.593.367-2.364a.4.4 0 0 1 .066.058c.352.492.852.69 1.437.747.645.06 1.295.062 1.94.008.054-.007.127.002.152-.056m-2.081 8.454c0 .122-.048.151-.161.151-.51 0-1.019.019-1.528.029-.418.009-.837.014-1.255.027-.088 0-.165 0-.196-.099-.2-.682-.343-1.373-.26-2.089.037-.286.158-.555.348-.773q.27-.305.575-.575a.8.8 0 0 0 .31-.64c0-.05 0-.102.056-.121.203-.065.246-.224.243-.431q.48.009.958.082a.3.3 0 0 1 .285.273q.09.357.135.725c.099.756.221 1.51.356 2.26q.015.17.1.32c.039.09.051.19.035.287.006.19-.007.38-.001.574m-.178-2.7c-.07-.43-.115-.879-.203-1.313-.118-.584-.178-.574-.73-.642-.652-.074-1.31-.077-1.963-.152a10 10 0 0 1-1.113-.193c-.776-.172-1.204-.68-1.267-1.465-.012-.144 0-.276 0-.447q.743.198 1.511.253c.457.051.919.04 1.372-.035.176-.03.356-.024.529.019.504.116 1.006.239 1.496.404q.422.135.819.335a1.58 1.58 0 0 1 .883 1.149q.085.385.1.779c0 .633 0 1.265-.022 1.896-.016.345-.082.684-.082 1.03a.1.1 0 0 1-.024.08.1.1 0 0 1-.077.032c-.261.015-.518.08-.783.015a.23.23 0 0 1-.2-.209c-.083-.517-.172-1.025-.247-1.535m.356 2.443v-.393c0-.082.037-.12.12-.113q.36.025.719-.01.155-.012.168.131c.016.198.144.288.312.332s.296.095.445.144q.18.046.338.143c.075.05.168.092.143.204a.24.24 0 0 1-.225.196 3 3 0 0 1-.316.041 9.6 9.6 0 0 1-1.52-.071c-.135-.015-.189-.072-.184-.203.004-.13-.007-.273-.007-.404zm-1.58-12.356a2.6 2.6 0 0 1-.455-.776c-.038-.104.023-.128.094-.161.07-.033.143-.042.175.055.032.096.083.212.134.314.115.232.206.477.444.666a.33.33 0 0 1-.403-.102zm-.032.238c-.076.03-.1-.028-.135-.053a3.6 3.6 0 0 0-.881-.473.16.16 0 0 1-.14-.173c0-.121-.054-.272 0-.355.052-.084.226 0 .344-.025a.135.135 0 0 1 .185.1c.13.368.34.701.617.975zm.43-.375a3.3 3.3 0 0 1-.45-1.017q.19.137.4.247c.159.073.181.219.227.354q.084.236.203.457c-.25.132-.254.13-.39-.045zm.006-2.049q.664.017 1.32-.093c.091-.019.143 0 .143.105a1 1 0 0 0 0 .144c0 .1-.031.143-.143.143-.37.024-.726.147-1.03.357-.114.072-.189.066-.27-.03a.7.7 0 0 0-.107-.101.26.26 0 0 1-.127-.297c-.008-.243.002-.236.215-.227m.023 1.104a.37.37 0 0 1-.18-.098c-.179-.123-.179-.123-.094-.363.144.117.343.188.274.454zm1.545-.3a2.27 2.27 0 0 1-.839 1.15c-.144.098-.155.097-.237-.056a2.3 2.3 0 0 1-.26-.873c-.013-.072.04-.135.123-.187a2.5 2.5 0 0 1 .862-.342.4.4 0 0 1 .144 0c.262.036.272.13.207.3zm-3.91-.306a2.5 2.5 0 0 1-.06-.56 2.244 2.244 0 0 1 1.997-2.272c.25-.052.506-.06.758-.026a1.52 1.52 0 0 1 1.041.794c.171.31.258.66.253 1.015 0 .18-.007.19-.185.228a4.7 4.7 0 0 1-.877.11c-.254 0-.508.02-.761.012-.124 0-.161.05-.174.153-.027.186-.05.373-.08.559-.062.382-.222.543-.601.61a1.8 1.8 0 0 1-.684-.007.78.78 0 0 1-.626-.616m-2.236 6.744a10 10 0 0 1 .26-1.675 6.6 6.6 0 0 1 1.847-3.088q.165-.17.371-.287c.014-.048.033-.092.044-.144.026-.114.088-.135.199-.102.52.151 1 .42 1.4.784.103.094.163.177.05.302-.018.022-.015.062-.022.093q.277.301.454.67.215.377.41.759a1.15 1.15 0 0 0 1.055.645c.431.018.863.029 1.305.047.188.007.191.012.19.19q-.002.32-.038.64c-.011.087-.037.134-.129.143-.74.039-1.478.066-2.208-.09a1.34 1.34 0 0 1-.888-.61c-.152-.243-.33-.47-.499-.702-.039-.054-.084-.115-.16-.06-.077.057-.04.106-.01.156q.061.12.143.228a.44.44 0 0 1 .092.431 9.6 9.6 0 0 0-.336 2.11c0 .097-.066.12-.144.143a4 4 0 0 1-.825.144 7.2 7.2 0 0 1-2.244-.234c-.366-.11-.353-.12-.317-.493m-1.161 1.845a.2.2 0 0 1 .178-.178q.13-.038.264-.046.308-.001.608-.074c.086-.018.11 0 .144.08.079.208.192.402.333.574.303.324.71.534 1.15.595q.877.18 1.774.208a.6.6 0 0 1 .122.009.115.115 0 0 1 .096.123.13.13 0 0 1-.08.144.3.3 0 0 1-.12.019q-.442.021-.885-.009c-.46-.056-.918-.026-1.375-.039h-1.158c-.23 0-.455-.043-.684-.059a.346.346 0 0 1-.35-.313 3.4 3.4 0 0 1-.017-1.034m-5.233-3.095-.027-.346c-.015-.212 0-.226.204-.23.287 0 .574-.01.862-.015l3.547-.049h.221c.134-.012.168.052.166.174v.74c0 .173 0 .184-.171.191a82 82 0 0 1-1.33.038c-.943.02-1.887.037-2.831.059-.164 0-.328.013-.492.023-.102 0-.15-.032-.143-.144.004-.147-.006-.295-.006-.441m.31.761c.32-.014.64-.01.96-.017.418-.009.838 0 1.134-.029.826-.023 1.531-.013 2.237-.056h.196c.094 0 .144.035.131.13v3.168c.009.109-.046.143-.143.143-.296.01-.591.034-.886.045a35 35 0 0 1-3.025 0c-.213 0-.431 0-.64-.012-.187 0-.192 0-.198-.19-.01-.337-.013-.673-.02-1.006-.013-.622-.03-1.246-.04-1.868-.006-.325-.072-.29.294-.308m-.034 3.97c-.224 0-.263-.046-.26-.271 0-.08.026-.124.112-.121h.442c.763 0 1.526.065 2.29.036l1.943-.08h.172a.09.09 0 0 1 .1.087c0 .073 0 .144.01.22s-.042.103-.105.11q-.123.016-.246.02h-4.458m-.188 5.115a1 1 0 0 1-.144 0c-.325-.033-.413-.13-.414-.452v-.27c0-.116 0-.207.144-.243.109-.03.123-.144.152-.238.27-.83.686-1.605 1.227-2.29a6.6 6.6 0 0 1 1.277-1.258.7.7 0 0 1 .454-.144c.719 0 1.43 0 2.144-.046.313-.023.313-.021.376-.339.332.09.675.131 1.018.122.682 0 1.363 0 2.044.023.37.01.739.037 1.11.032.12 0 .153.043.152.158a.5.5 0 0 1-.167.37 12 12 0 0 1-.45.421 1.9 1.9 0 0 0-.599.943 2.3 2.3 0 0 0-.064.66c.022.562.117 1.118.283 1.656.079.243.105.267.37.257.92-.033 1.84-.039 2.76-.05.107 0 .213-.019.288.1a.16.16 0 0 0 .128.064 8 8 0 0 0 1.913.06c.377-.049.457-.144.496-.511a.2.2 0 0 1 .058-.13c.545-.616.841-1.363 1.107-2.125a4 4 0 0 0 .244-1.595 3.5 3.5 0 0 0-.173-.862q-.225-.678-.525-1.327a3.6 3.6 0 0 1-.352-1.842c.017-.198.13-.302.312-.247a.44.44 0 0 0 .483-.157.744.744 0 0 0 .039-.971 1.1 1.1 0 0 0-.503-.38c-.058-.02-.144-.023-.127-.119s.1-.075.16-.079c.155-.014.311-.018.467-.024a.1.1 0 0 1 .11.067c.078.168.144.187.296.1.153-.085.267-.16.403-.238a.2.2 0 0 1 .162-.037c.013.655.043 1.302.02 1.96a3 3 0 0 1-.598-.196c-.349-.122-.41-.07-.352.3.073.489.247.957.512 1.373.349.54.718 1.063 1.293 1.402a.5.5 0 0 0 .144.085c.287.049.334.221.297.488a3.6 3.6 0 0 0 .02.835c.027.275.049.288.32.334a4 4 0 0 1 1.818.827c.421.32.771.723 1.027 1.185-.067.1-.172.095-.263.118a13 13 0 0 0-4.05 1.868 2.5 2.5 0 0 0-.42.34.55.55 0 0 1-.484.17c-.327-.023-.329-.021-.287-.336a6.6 6.6 0 0 1 1.161-2.976q.226-.323.509-.6l.143-.144c.05-.052.064-.08.026-.128-.037-.047-.103-.033-.15 0-.048.033-.086.076-.127.117a6.1 6.1 0 0 0-1.492 2.502q-.196.624-.274 1.274c-.029.212-.027.213-.246.213H28.84c-1.339 0-2.678 0-4.023-.02-3.037-.038-6.09-.034-9.138-.051zm4.851.211c.174 0 .181.012.183.183a1.223 1.223 0 0 1-1.254 1.261 1.257 1.257 0 0 1-1.168-1.306c.007-.102.04-.143.143-.143h1.06c.347.004.692.001 1.037.004zm-3.1 1.654a2.26 2.26 0 0 1-.458-1.467c.01-.17.011-.178.186-.18h.739c.11 0 .158.032.172.151.017.287.1.566.243.815a1.365 1.365 0 0 0 1.456.65 1.33 1.33 0 0 0 1.106-1.111q.048-.178.046-.364c-.009-.11.053-.143.152-.143h.862c.13 0 .171.047.17.174a2.54 2.54 0 0 1-.575 1.609 2.6 2.6 0 0 1-1.313.862 2.7 2.7 0 0 1-.683.07 2.42 2.42 0 0 1-2.103-1.066"/><path fill="#D8D8D8" d="M37.752 34.806a.4.4 0 0 0-.095-.022c-.215-.047-.431-.1-.647-.143-.077-.015-.143-.03-.176-.108-.026.116-.122.166-.209.228a2.833 2.833 0 0 1-3.819-.53.1.1 0 0 1-.04.012c-.301-.012-.605.031-.905-.035a1.6 1.6 0 0 0-.343-.013c-.431 0-.854.014-1.28 0-2.072-.099-4.147-.039-6.219-.033-.728 0-1.457.033-2.185.039h-.078a2.8 2.8 0 0 1-2.155 1.082 2.64 2.64 0 0 1-1.846-.635.5.5 0 0 1-.144-.194c-.19.12-.412.106-.618.126-.376.038-.734.154-1.105.216a.6.6 0 0 0-.156.072c-.16.089-.167.176 0 .254q.222.105.462.155c.328.066.66.114.989.164.526.082 1.054.12 1.58.17q.73.073 1.467.103c.719.027 1.421.066 2.132.102.853.041 1.706.026 2.558.041 1.427.025 2.856.058 4.283-.028.793-.048 1.59.034 2.385-.05.317-.034.638-.028.957-.042.596-.029 1.191-.066 1.787-.102s1.188-.096 1.782-.155a7.4 7.4 0 0 0 1.63-.293c.093-.03.213-.044.22-.164s-.116-.173-.212-.217"/><path fill="#D8D8D8" d="M34.195 35.1a2.84 2.84 0 0 1-1.347-.893.1.1 0 0 1-.041.037 2.833 2.833 0 0 0 3.819.53c.086-.061.182-.111.208-.228l-.08.05a2.73 2.73 0 0 1-2.56.503m-16.437-.439a2.64 2.64 0 0 0 1.843.629 2.8 2.8 0 0 0 2.156-1.082h-.07l-.153.157a2.74 2.74 0 0 1-2.683.778 2.8 2.8 0 0 1-1.237-.676.5.5 0 0 0 .144.194"/><path fill="#fff" d="M28.849 32.128h2.046c.218 0 .216 0 .245-.214q.078-.65.275-1.273a6.1 6.1 0 0 1 1.487-2.493q.06-.06.126-.117c.045-.035.102-.067.151 0 .049.068.013.09-.026.128s-.092.094-.144.144a4.3 4.3 0 0 0-.508.6 6.6 6.6 0 0 0-1.161 2.976c-.04.315-.039.313.287.336a.55.55 0 0 0 .483-.17q.192-.193.421-.34a13 13 0 0 1 4.05-1.868c.09-.023.196-.018.263-.117a3.8 3.8 0 0 0-1.027-1.186A4 4 0 0 0 34 27.702c-.27-.043-.288-.059-.32-.333a3.6 3.6 0 0 1-.02-.835c.038-.267 0-.44-.297-.488a.5.5 0 0 1-.143-.085c-.575-.34-.94-.862-1.293-1.402a3.5 3.5 0 0 1-.513-1.374c-.058-.37 0-.422.352-.3q.289.128.597.195c.023-.658-.007-1.304-.02-1.96a.2.2 0 0 0-.162.038c-.135.077-.267.16-.403.238-.134.078-.218.068-.295-.1a.1.1 0 0 0-.111-.068q-.234.001-.467.025c-.059 0-.144-.01-.16.079-.015.089.07.099.127.117.202.074.377.207.503.381a.745.745 0 0 1-.039.972.44.44 0 0 1-.483.156c-.182-.054-.294.049-.311.247-.048.635.073 1.27.352 1.842q.297.65.52 1.328.141.42.174.862a4 4 0 0 1-.245 1.595c-.266.761-.562 1.508-1.108 2.125a.2.2 0 0 0-.057.129c-.039.372-.12.463-.496.512a8 8 0 0 1-1.915-.06.16.16 0 0 1-.128-.064c-.067-.12-.174-.102-.287-.1-.92.01-1.84.017-2.76.05-.266.01-.288-.015-.37-.258a6.5 6.5 0 0 1-.288-1.67c-.01-.22.011-.443.064-.659.103-.366.311-.694.6-.942.143-.144.3-.279.45-.421a.5.5 0 0 0 .166-.37c0-.116-.032-.16-.152-.159-.371 0-.74-.021-1.11-.031-.68-.02-1.362-.016-2.044-.023a3.5 3.5 0 0 1-1.017-.123c-.064.318-.064.316-.377.34a26 26 0 0 1-2.143.046.7.7 0 0 0-.454.143c-.482.36-.911.783-1.278 1.259a7.4 7.4 0 0 0-1.227 2.29c-.029.092-.043.208-.152.237-.144.036-.144.128-.144.243v.27c0 .323.09.42.414.453q.072.003.144 0c3.047.017 6.096.013 9.143.048 1.352.026 2.691.025 4.03.03"/><path fill="#fff" d="M22.298 23.954a7.2 7.2 0 0 0 2.244.234q.42-.027.825-.143c.073-.02.135-.043.144-.144.035-.714.15-1.421.343-2.11a.44.44 0 0 0-.092-.43 1.6 1.6 0 0 1-.143-.229c-.03-.05-.048-.113.01-.155.057-.041.122 0 .16.06.168.232.347.459.499.702a1.34 1.34 0 0 0 .888.61c.73.155 1.468.128 2.208.09.092 0 .118-.052.13-.144a6 6 0 0 0 .037-.64c0-.178 0-.182-.19-.19-.43-.018-.87-.028-1.304-.047A1.15 1.15 0 0 1 27 20.773q-.198-.383-.41-.758a2.7 2.7 0 0 0-.454-.67 8.3 8.3 0 0 0-1.67-.934 1.6 1.6 0 0 0-.371.287 6.6 6.6 0 0 0-1.854 3.098 10 10 0 0 0-.26 1.675c-.036.374-.049.384.316.483M32.837 34.2l-.083-.015.011.018.03.034a.1.1 0 0 0 .042-.037m-11.033-.061a.3.3 0 0 0-.11.05h.068l.013-.014z"/><path fill="#F1F1F1" fill-opacity=".94" d="M15.653 26.166c0 .185.012.186.199.19.212 0 .43 0 .64.012 1.005.042 2.01.038 3.025 0 .287-.011.589-.034.885-.044.1 0 .155-.03.144-.144v-3.178c0-.095-.038-.135-.131-.13h-.197c-.705.044-1.41.034-2.237.057-.296.028-.718.02-1.134.028-.32 0-.639 0-.96.018-.366.018-.303-.016-.298.308.01.624.027 1.248.04 1.868.011.342.014.678.024 1.015"/><path fill="#fff" d="M27.823 30.064c.264.065.521 0 .783-.014a.1.1 0 0 0 .077-.032.1.1 0 0 0 .023-.08c0-.346.067-.685.082-1.03.03-.631.025-1.263.022-1.897a4.3 4.3 0 0 0-.1-.779 1.58 1.58 0 0 0-.883-1.149 5.5 5.5 0 0 0-.819-.335 16 16 0 0 0-1.495-.404 1.3 1.3 0 0 0-.53-.018 5 5 0 0 1-1.371.034 8 8 0 0 1-1.512-.253c0 .171-.01.31 0 .447.063.788.492 1.293 1.26 1.469q.552.128 1.114.192c.652.075 1.31.078 1.962.152.552.065.612.058.73.643.088.43.134.876.203 1.313.082.51.17 1.019.251 1.529a.23.23 0 0 0 .203.212m8.137.144a13.4 13.4 0 0 0-3.11 1.507c-.48.32-.387.156-.407.765a2.3 2.3 0 0 0 .443 1.43A2.42 2.42 0 0 0 34.991 35q.347.01.683-.07a2.66 2.66 0 0 0 1.217-.756 2.46 2.46 0 0 0 .672-1.62c.027-.99-.402-1.748-1.221-2.3a.4.4 0 0 0-.382-.046m-.969 3.701c-.777.022-1.425-.587-1.437-1.456a1.397 1.397 0 0 1 1.938-1.347 1.44 1.44 0 0 1 .894 1.344c0 .893-.656 1.475-1.395 1.46"/><path fill="#F1F1F1" fill-opacity=".94" d="M25.527 17.35c.38-.068.539-.229.6-.611.03-.185.053-.372.08-.559.014-.102.051-.155.175-.152.253 0 .507 0 .761-.012q.443-.014.877-.11c.178-.038.185-.048.185-.229a2.05 2.05 0 0 0-.253-1.014 1.52 1.52 0 0 0-1.042-.795 2.2 2.2 0 0 0-.757.026 2.244 2.244 0 0 0-1.998 2.272 2.5 2.5 0 0 0 .06.56.78.78 0 0 0 .628.617c.225.047.458.05.684.007"/><path fill="#fff" d="M20.204 34.93a2.6 2.6 0 0 0 1.314-.862 2.54 2.54 0 0 0 .574-1.61c0-.126-.04-.176-.17-.173h-.861c-.1 0-.161.028-.153.143q.003.185-.046.364a1.33 1.33 0 0 1-1.1 1.108 1.365 1.365 0 0 1-1.454-.654 1.9 1.9 0 0 1-.243-.815c-.014-.12-.063-.152-.172-.15h-.739c-.175 0-.177.008-.187.179a2.26 2.26 0 0 0 .459 1.474 2.42 2.42 0 0 0 2.097 1.07q.346.006.681-.074m-5.546-3.868c-.07-.018-.123-.039-.143-.113a.43.43 0 0 0-.325-.358c-.177-.046-.152-.309-.34-.364l-.045-.015c-.157-.038-.197-.144-.195-.288a.63.63 0 0 0-.374-.613.4.4 0 0 1-.218-.253 1 1 0 0 0-.55-.575.536.536 0 0 0-.683.165 3.7 3.7 0 0 1-.448.486.9.9 0 0 0-.199.287.63.63 0 0 0 .063.719.52.52 0 0 1 .128.422.687.687 0 0 0 .575.767c.14.009.28-.02.404-.083.18-.07.207-.067.276.114a.588.588 0 0 0 .872.287.22.22 0 0 1 .31.012.32.32 0 0 0 .466 0 .185.185 0 0 1 .244-.018.7.7 0 0 0 .448.095c0-.114.016-.213.018-.31a.31.31 0 0 0-.16-.328.3.3 0 0 0-.124-.036m1.086-8.264q.245-.017.49-.023l2.833-.059q.664-.013 1.329-.037c.168-.007.17-.019.17-.191v-.74c0-.122-.03-.187-.165-.174-.073.007-.143 0-.22 0l-3.548.049c-.287 0-.575 0-.862.014-.207 0-.219.019-.204.23l.027.346v.441c-.009.112.04.15.15.144"/><path fill="#D9D9D9" d="M21.207 26.649c.228.016.454.06.684.059h1.158c.457.013.915-.017 1.375.039q.442.03.885.008a.3.3 0 0 0 .119-.018.134.134 0 0 0 .08-.144.115.115 0 0 0-.096-.124.6.6 0 0 0-.122-.008q-.902-.023-1.784-.201a1.94 1.94 0 0 1-1.15-.595 2 2 0 0 1-.333-.575c-.032-.073-.056-.098-.144-.08a2.6 2.6 0 0 1-.608.074q-.135.009-.264.046a.2.2 0 0 0-.178.178 3.4 3.4 0 0 0 .023 1.022.346.346 0 0 0 .355.319m-2.771 5.625c-.107 0-.144.042-.144.144a1.257 1.257 0 0 0 1.168 1.306 1.22 1.22 0 0 0 1.252-1.256c0-.17-.009-.18-.183-.182h-1.034c-.352-.01-.706-.007-1.06-.012"/><path fill="#fff" d="M18.11 26.947h2.218q.123-.003.245-.019c.064 0 .108-.037.105-.11s0-.144-.01-.22a.09.09 0 0 0-.099-.088h-.172l-1.943.08c-.764.03-1.527-.031-2.29-.035h-.443c-.086 0-.112.04-.112.12 0 .226.036.272.26.272z"/><path fill="#D9D9D9" d="M27.913 31.359a9.6 9.6 0 0 0 1.52.071q.159-.012.316-.041a.24.24 0 0 0 .225-.196c.022-.112-.072-.155-.143-.204a1.2 1.2 0 0 0-.338-.143 9 9 0 0 1-.445-.144c-.15-.052-.296-.134-.312-.332-.009-.095-.065-.144-.168-.13a4.4 4.4 0 0 1-.719.01c-.083 0-.122.03-.12.111v.788c0 .132.048.195.184.21"/><path fill="#FEFEFE" d="M27.928 16.717a.4.4 0 0 0-.144 0 2.5 2.5 0 0 0-.862.342c-.083.052-.143.115-.123.187.027.306.115.603.26.873.082.153.089.154.237.055a2.27 2.27 0 0 0 .839-1.15c.062-.168.052-.26-.207-.307"/><path fill="#fff" d="M29.752 22.278c.144.009.28.094.418-.027a.47.47 0 0 1 .55-.088c.186.097.213.276.19.469 0 .049-.011.105.04.13a.15.15 0 0 0 .162-.032.555.555 0 0 0 .143-.727.9.9 0 0 0-.587-.416c-.186-.036-.371-.072-.558-.093-.35-.042-.356-.033-.365.312v.143c0 .05-.014.144-.024.227-.01.04-.012.1.031.102m-3.275-5.527q.06.045.108.1c.08.097.155.103.268.03a2.06 2.06 0 0 1 1.03-.356c.108 0 .144-.043.144-.143a1 1 0 0 1 0-.144c0-.103-.046-.123-.143-.105a7 7 0 0 1-1.32.094c-.212 0-.222-.01-.216.23a.26.26 0 0 0 .129.294m.718-.46a.12.12 0 0 1 .117.131c-.02.065-.03.144-.117.165-.056.013-.143-.1-.129-.178a.122.122 0 0 1 .137-.118zm-2.5 2.167q.681.306 1.293.736a.4.4 0 0 1 .144.165c0-.031 0-.072.023-.093.112-.125.052-.208-.05-.302a3.55 3.55 0 0 0-1.401-.78c-.11-.033-.173-.012-.198.102-.012.047-.03.092-.045.144a.28.28 0 0 1 .234.028"/><path fill="#F1F1F1" fill-opacity=".94" d="M25.988 19.193a8 8 0 0 0-1.293-.736.27.27 0 0 0-.234-.033 8.2 8.2 0 0 1 1.67.934.4.4 0 0 0-.143-.166"/><path fill="#fff" d="M25.312 17.566c-.118.027-.279-.075-.345.024-.066.1 0 .234 0 .355a.16.16 0 0 0 .13.175q.474.175.881.473c.036.025.06.084.135.053a2.6 2.6 0 0 1-.616-.983.135.135 0 0 0-.185-.097m1.178-.061a4 4 0 0 1-.4-.247c.09.362.244.706.451 1.017.135.175.144.177.38.04a3 3 0 0 1-.203-.457c-.046-.135-.07-.28-.229-.353"/><path fill="#F0F0F0" d="M26.097 17.839a4 4 0 0 1-.134-.315c-.04-.106-.098-.09-.175-.055-.078.036-.132.058-.094.161.105.284.259.546.454.776a.33.33 0 0 0 .393.098c-.237-.188-.33-.434-.444-.665"/><path fill="#fff" d="M33.906 27.419a1 1 0 0 0 .064-.092 5 5 0 0 0 .197-.88v-.024a.21.21 0 0 0-.227-.175c-.11 0-.092.095-.095.162v.391c-.02.208 0 .418.06.618m-3.398-5.095a.246.246 0 0 0-.259.2.33.33 0 0 0 .262.288c.121.011.206-.087.21-.243.005-.157-.075-.245-.213-.245m-4.101-5.092q.078.072.182.093c.069-.267-.131-.337-.275-.457-.08.24-.08.24.093.364m.798-.646c.086-.02.096-.1.116-.165a.12.12 0 0 0-.116-.13.12.12 0 0 0-.13.117c-.007.077.074.19.13.178"/><path fill="#D9D9D9" d="M35.203 31.216c-.613-.137-1.206.246-1.388.89a1.256 1.256 0 0 0 1.162 1.61 1.2 1.2 0 0 0 1.204-1.05 1.293 1.293 0 0 0-.978-1.45"/></g><defs><linearGradient id="a" x1="24.535" x2="24.535" y1=".895" y2="48.909" gradientUnits="userSpaceOnUse"><stop stop-color="#F4815A"/><stop offset="1" stop-color="#F25E53"/></linearGradient><clipPath id="b"><path fill="#fff" d="M10.861 13.644h27.106v22.25H10.861z"/></clipPath></defs></svg>