<svg xmlns="http://www.w3.org/2000/svg" width="49" height="49" fill="none"><circle cx="24.025" cy="24.099" r="24.007" fill="url(#a)"/><g style="mix-blend-mode:multiply"><path fill="#FCFCFC" d="M38.164 35.329c0 1.544-12.305 2.021-20.508 1.51-4.899-.314-6.552-.942-6.552-1.51s1.669-1.205 6.552-1.51c8.203-.514 20.508-.034 20.508 1.51" opacity=".05"/><path fill="#FAFAFA" d="M37.63 35.33c0 1.472-11.756 1.933-19.632 1.444-4.736-.296-6.377-.895-6.377-1.444 0-.55 1.641-1.158 6.377-1.447 7.876-.49 19.632-.028 19.632 1.447" opacity=".1"/><path fill="#F7F7F7" d="M37.116 35.329c0 1.402-11.206 1.842-18.753 1.38-4.576-.273-6.21-.86-6.21-1.38 0-.521 1.625-1.111 6.2-1.384 7.557-.462 18.763-.022 18.763 1.384" opacity=".14"/><path fill="#F4F5F5" d="M36.589 35.328c0 1.33-10.67 1.754-17.888 1.318-4.409-.257-6.016-.797-6.016-1.318 0-.52 1.607-1.048 6.023-1.321 7.22-.436 17.88-.013 17.88 1.321" opacity=".19"/><path fill="#F2F2F2" d="M36.051 35.327c0 1.255-10.114 1.666-17.005 1.255-4.253-.245-5.847-.772-5.847-1.255 0-.484 1.594-1.014 5.847-1.256 6.9-.42 17.005-.01 17.005 1.256" opacity=".24"/><path fill="#EFEFF0" d="M35.536 35.321c0 1.19-9.565 1.57-16.13 1.193-4.08-.23-5.668-.731-5.668-1.193 0-.46 1.57-.966 5.668-1.195 6.552-.383 16.13.003 16.13 1.195" opacity=".29"/><path fill="#E9EAEB" d="M34.484 35.326c0 1.051-8.473 1.4-14.382 1.067-3.766-.198-5.313-.65-5.313-1.067s1.547-.87 5.313-1.067c5.912-.336 14.382.019 14.382 1.067" opacity=".38"/><path fill="#E7E7E8" d="M33.957 35.324c0 .98-7.92 1.3-13.494 1.005-3.606-.192-5.147-.61-5.147-1.005s1.532-.822 5.134-1.004c5.586-.307 13.507.022 13.507 1.004" opacity=".43"/><path fill="#E4E5E6" d="M33.425 35.325c0 .91-7.374 1.208-12.63.941-3.453-.175-4.96-.564-4.96-.941s1.517-.775 4.96-.942c5.255-.282 12.63.032 12.63.942" opacity=".48"/></g><path fill="#fff" d="M25.905 14.326a1.255 1.255 0 1 0-2.51 0v5.02h2.51z"/><path fill="#fff" d="M24.63 34.369a4.86 4.86 0 0 1-2.896-8.765V14.275a2.897 2.897 0 0 1 5.787 0v11.329a4.86 4.86 0 0 1-2.897 8.765zm0-.816a4.045 4.045 0 0 0 2.081-7.516V14.275a2.08 2.08 0 0 0-4.161 0v11.762a4.045 4.045 0 0 0 2.08 7.516"/><path fill="#F1F1F1" fill-opacity=".94" d="M25.898 26.538v-7.183h-2.51v7.183a3.23 3.23 0 1 0 2.51 0"/><path fill="#fff" d="M23.693 29.265c0 .593-.314 1.073-.735 1.073-.42 0-.737-.47-.737-1.073s.314-1.074.737-1.074c.424 0 .735.49.735 1.074m3.013-5.036h-1.839v.561h1.84zm.013-1.63h-.791v.561h.79zm-.013-1.622h-1.839v.561h1.84zm.013-1.622h-.791v.561h.79zm-.013-1.624h-1.839v.562h1.84zm.013-1.623h-.791v.562h.79zm-.013-1.628h-1.839v.561h1.84zm-2.565.185a.157.157 0 0 0-.157-.147.16.16 0 0 0-.16.147V26.44l.314-.066V14.665z"/><defs><linearGradient id="a" x1="24.025" x2="24.025" y1=".092" y2="48.107" gradientUnits="userSpaceOnUse"><stop stop-color="#F4815A"/><stop offset="1" stop-color="#F25E53"/></linearGradient></defs></svg>