<svg xmlns="http://www.w3.org/2000/svg" width="49" height="49" fill="none"><circle cx="24.025" cy="24.363" r="24.007" fill="url(#a)"/><path fill="#fff" d="M24.147 9.736A15.06 15.06 0 1 0 39.2 24.796a15.077 15.077 0 0 0-15.053-15.06m0 29.066a13.9 13.9 0 0 1-8.793-3.12h-.194a1.2 1.2 0 0 1-.75-.273l-2.419-1.995a1.25 1.25 0 0 1-.072-1.815 14 14 0 0 1 12.216-20.865 14.013 14.013 0 0 1 0 28.026z"/><path fill="#fff" d="M24.145 11.563a13.245 13.245 0 0 0-13.233 13.233 13.1 13.1 0 0 0 1.494 6.048l.266-.66a12.7 12.7 0 1 1 6.81 6.411 1 1 0 0 1-.254.073 1 1 0 0 1-.194 0 1.17 1.17 0 0 1-.743-.272l-1.96-1.633q-.069.183-.17.35a1 1 0 0 1-.084.115 13.227 13.227 0 1 0 8.086-23.689z"/><path fill="#fff" d="m13.27 21.683.066.03 2.364 1.18.424-.485.635-1.215-.538-.478.344-.744-2.008-.193-.06-.496-.036-.272-.726-.466-.605.145.46.175v.508l-.938 2.13zm1.423 6.549-1.318 3.284-.242.605-.067.17-.314.18.054.05-.054.03 2.42 1.995v-.042c.08-.153.122-.323.12-.496a1 1 0 0 0 0-.12.6.6 0 0 0-.478-.509l-.187-.042-.115-.285-.133-.084v-.327l.23.06 1.427-3.628-.557-.822z"/><path fill="#fff" d="m20.394 17.909-.205-.514-.605-.653-.187.266-.067.09-.181-.241-1.5-2.075-1.029.744 1.174 1.615.744 1.016-2.812 5.425-.115 1.373-.853 3.126h.756l1.608 2.256-.205 3.06-.29.164 2.419 1.995a.701.701 0 0 0-.526-1.13l-.115-.285-.14-.084-.03-.339.194.042.369-2.897.03-.356.036-.509-1.433-2.068.762-5.673h-.048l1.39-2.733 1.38 1.899-1.3 1.143-1.21.036-.206 1.464 1.67-.079.429-.103 1.475-1.264.69.944.26.363c-.17.265-.26.574-.26.889a1.693 1.693 0 0 0 3.368.266l5.812-3.49-1.1-1.814-5.794 3.477a1.7 1.7 0 0 0-.605-.109q-.21.004-.417.055l-.43-.605-.75-1.028.333-.278-.435-.907h-.436l-.145.241-.405-.562-.768-1.052-.575-.793.067-.072z"/><defs><linearGradient id="a" x1="24.025" x2="24.025" y1=".355" y2="48.37" gradientUnits="userSpaceOnUse"><stop stop-color="#F4815A"/><stop offset="1" stop-color="#F25E53"/></linearGradient></defs></svg>