<svg xmlns="http://www.w3.org/2000/svg" width="49" height="49" fill="none"><circle cx="24.517" cy="24.547" r="24.007" fill="url(#a)"/><path fill="#fff" d="M24.806 35.335q-.1 0-.197-.017c-.077-.013-.776-.14-1.789-.572q-.901-.385-1.73-.91a13 13 0 0 1-1.968-1.527c-1.542-1.448-2.767-3.28-3.64-5.444a21 21 0 0 1-1.173-4.143c-.29-1.614-.438-3.375-.438-5.234a1.17 1.17 0 0 1 .698-1.072l8.078-3.57a1.175 1.175 0 0 1 1.547.598 1.17 1.17 0 0 1-.598 1.547l-7.372 3.256c.07 2.914.537 5.482 1.393 7.643.729 1.841 1.74 3.393 3.008 4.614a10.5 10.5 0 0 0 3.001 2.037c.505.223.912.349 1.15.412a9 9 0 0 0 1.162-.471 11.6 11.6 0 0 0 3.03-2.163c1.276-1.261 2.294-2.825 3.026-4.65.854-2.129 1.322-4.622 1.393-7.422l-2.64-1.167-5.818 10.3a1.173 1.173 0 0 1-1.85.252l-3.056-3.056a1.172 1.172 0 0 1 1.658-1.658l1.965 1.965 5.581-9.881a1.17 1.17 0 0 1 1.495-.496l4.32 1.91a1.17 1.17 0 0 1 .699 1.072c0 3.455-.542 6.536-1.613 9.156-.871 2.136-2.091 3.97-3.626 5.453-2.647 2.559-5.326 3.184-5.439 3.21q-.126.027-.257.028"/><defs><linearGradient id="a" x1="24.517" x2="24.517" y1=".539" y2="48.554" gradientUnits="userSpaceOnUse"><stop stop-color="#F4815A"/><stop offset="1" stop-color="#F25E53"/></linearGradient></defs></svg>