<svg xmlns="http://www.w3.org/2000/svg" width="49" height="49" fill="none"><circle cx="24.521" cy="24.093" r="24.007" fill="url(#a)"/><g fill="#fff" clip-path="url(#b)"><path d="M26.8 16.581a.75.75 0 0 1 .34.874l-1.707 5.547h2.997a.752.752 0 0 1 .548 1.27l-8.033 8.534a.753.753 0 0 1-1.268-.738l1.71-5.55H18.39a.753.753 0 0 1-.548-1.269l8.03-8.534a.75.75 0 0 1 .928-.135z"/><path d="M15.383 18.732h6.524l-1.416 1.506h-5.108a1.506 1.506 0 0 0-1.506 1.506v6.024a1.506 1.506 0 0 0 1.506 1.506h3.584l-.464 1.506h-3.12a3.01 3.01 0 0 1-3.012-3.012v-6.024a3.01 3.01 0 0 1 3.012-3.012"/><path d="M15.387 21.744h3.69l-2.323 2.468a2.257 2.257 0 0 0 .61 3.556h-1.977zm12.943-3.012-.464 1.506h2.58a1.506 1.506 0 0 1 1.506 1.506v6.024a1.506 1.506 0 0 1-1.506 1.506h-4.102l-1.419 1.506h5.52a3.01 3.01 0 0 0 3.013-3.012v-6.024a3.01 3.01 0 0 0-3.012-3.012z"/><path d="M30.453 27.775h-2.685l2.322-2.469q.219-.234.363-.512zm0-5.051v-.973h-.973c.417.215.757.555.973.973m6.023 2.039a2.26 2.26 0 0 1-2.259 2.259v-4.518a2.26 2.26 0 0 1 2.26 2.259"/></g><defs><linearGradient id="a" x1="24.521" x2="24.521" y1=".086" y2="48.101" gradientUnits="userSpaceOnUse"><stop stop-color="#F4815A"/><stop offset="1" stop-color="#F25E53"/></linearGradient><clipPath id="b"><path fill="#fff" d="M12.37 12.714h24.094v24.095H12.37z"/></clipPath></defs></svg>