<svg xmlns="http://www.w3.org/2000/svg" width="49" height="49" fill="none"><circle cx="24.007" cy="24.9" r="24.007" fill="url(#a)"/><path fill="#fff" d="M9.671 26.528h-.015c-.32 0-.578.282-.578.63v.74c0 .347.259.628.578.628h.015c.32 0 .578-.281.578-.629v-.74c0-.347-.259-.629-.578-.629"/><path fill="#2A2933" d="M14.837 28.078a.3.3 0 0 0 .064-.103q.02-.06.013-.123a.3.3 0 0 0-.04-.116.25.25 0 0 0-.084-.084 1.8 1.8 0 0 0-.437-.182.23.23 0 0 0-.21.049.3.3 0 0 0-.07.093.3.3 0 0 0-.024.117v.765a.63.63 0 0 1 .296.132zm-1.02-.353q-.001-.06-.026-.117a.3.3 0 0 0-.07-.093.23.23 0 0 0-.211-.05 2 2 0 0 0-.438.2.3.3 0 0 0-.082.085.28.28 0 0 0-.026.237.3.3 0 0 0 .061.104l.496.54a.63.63 0 0 1 .296-.132z"/><path fill="#fff" d="M13.935 26.49c-.502 0-.992.161-1.41.465a2.73 2.73 0 0 0-.934 1.24 3 3 0 0 0-.144 1.596c.098.536.34 1.029.695 1.415s.806.65 1.298.756a2.35 2.35 0 0 0 1.466-.157c.464-.209.86-.563 1.139-1.017.278-.455.427-.99.427-1.536 0-.732-.267-1.435-.743-1.953a2.44 2.44 0 0 0-1.794-.81m1.28 4.157a1.77 1.77 0 0 1-.927.54 1.67 1.67 0 0 1-1.046-.113 1.85 1.85 0 0 1-.812-.726 2.1 2.1 0 0 1-.306-1.096 2.1 2.1 0 0 1 .113-.782c.086-.25.217-.478.386-.671.17-.193.373-.347.598-.452a1.69 1.69 0 0 1 1.425 0c.225.105.428.259.597.452.17.193.3.421.386.67s.125.517.113.783a2.08 2.08 0 0 1-.527 1.395"/><path fill="#2A2933" d="m15.01 28.255-.496.54q.09.147.12.323h.684a.23.23 0 0 0 .108-.028.25.25 0 0 0 .086-.076.28.28 0 0 0 .044-.232 2 2 0 0 0-.164-.468.3.3 0 0 0-.075-.087.23.23 0 0 0-.213-.034.24.24 0 0 0-.095.062m-2.155.005a.25.25 0 0 0-.095-.068.23.23 0 0 0-.218.029.3.3 0 0 0-.077.09q-.118.226-.184.475a.3.3 0 0 0 .046.23.3.3 0 0 0 .085.077q.05.028.107.03h.703a.8.8 0 0 1 .121-.324zm-.321 1.118a.23.23 0 0 0-.106.029.3.3 0 0 0-.085.075.3.3 0 0 0-.047.227q.064.251.184.477a.3.3 0 0 0 .076.091.22.22 0 0 0 .22.029.24.24 0 0 0 .094-.07l.503-.535a.8.8 0 0 1-.12-.323zm1.516 1.399q0 .061.025.116t.07.094q.043.038.1.05a.2.2 0 0 0 .11-.001q.23-.065.436-.196a.3.3 0 0 0 .082-.084.28.28 0 0 0 .027-.238.3.3 0 0 0-.062-.103l-.492-.544a.7.7 0 0 1-.296.136zm.964-.54q.04.046.095.067a.23.23 0 0 0 .218-.029.3.3 0 0 0 .077-.09q.12-.223.18-.476a.3.3 0 0 0-.043-.23.25.25 0 0 0-.087-.075.2.2 0 0 0-.108-.026h-.706a.8.8 0 0 1-.125.323zm-1.988.209a.3.3 0 0 0-.061.103.3.3 0 0 0 .026.238q.031.052.082.084.207.128.437.196a.23.23 0 0 0 .211-.05.3.3 0 0 0 .07-.093.3.3 0 0 0 .027-.117v-.786a.7.7 0 0 1-.296-.136z"/><path fill="#F6FBF7" d="M13.936 27.28a1.7 1.7 0 0 0-.718.123c-.23.094-.44.237-.617.421a2 2 0 0 0-.414.65 2.13 2.13 0 0 0 0 1.553c.096.245.237.466.415.65.177.185.386.328.616.421.229.094.473.136.718.123.245.012.489-.03.718-.123.23-.093.44-.236.617-.42.177-.185.318-.406.414-.651a2.12 2.12 0 0 0 0-1.552 2 2 0 0 0-.415-.651 1.8 1.8 0 0 0-.616-.42 1.7 1.7 0 0 0-.718-.124m1.64 1.51a.3.3 0 0 1-.044.231.25.25 0 0 1-.086.077.23.23 0 0 1-.109.027h-.698q.003.064 0 .128v.127h.683q.056 0 .108.026a.25.25 0 0 1 .086.076q.036.049.047.11a.3.3 0 0 1-.003.12q-.06.252-.18.476a.3.3 0 0 1-.078.09.23.23 0 0 1-.218.028.25.25 0 0 1-.094-.067l-.5-.536a.8.8 0 0 1-.164.179l.515.565a.29.29 0 0 1 .035.34.3.3 0 0 1-.081.085 1.6 1.6 0 0 1-.437.196.23.23 0 0 1-.21-.05.3.3 0 0 1-.07-.092.3.3 0 0 1-.025-.117v-.787h-.234v.761q0 .062-.027.117a.3.3 0 0 1-.07.093.24.24 0 0 1-.1.051.23.23 0 0 1-.111-.001q-.23-.067-.437-.196a.3.3 0 0 1-.083-.084.28.28 0 0 1-.026-.238.3.3 0 0 1 .062-.103l.495-.544a.7.7 0 0 1-.168-.179l-.495.54a.24.24 0 0 1-.095.07q-.054.021-.112.014a.23.23 0 0 1-.107-.044.3.3 0 0 1-.076-.09 2.2 2.2 0 0 1-.184-.477.3.3 0 0 1 .047-.227.3.3 0 0 1 .085-.076.23.23 0 0 1 .106-.029h.703a1 1 0 0 1 0-.127 1 1 0 0 1 0-.128h-.695a.23.23 0 0 1-.108-.029.3.3 0 0 1-.085-.076.3.3 0 0 1-.045-.23q.066-.246.183-.468a.3.3 0 0 1 .078-.09.23.23 0 0 1 .218-.028.24.24 0 0 1 .095.067l.503.531a.8.8 0 0 1 .168-.183l-.496-.54a.3.3 0 0 1-.061-.102.3.3 0 0 1 .026-.238.3.3 0 0 1 .082-.085q.201-.117.422-.182a.23.23 0 0 1 .21.049q.045.038.071.093a.3.3 0 0 1 .027.117v.765a.54.54 0 0 1 .234 0v-.765q0-.06.025-.117a.3.3 0 0 1 .07-.093.23.23 0 0 1 .21-.05q.23.07.437.2.05.032.084.084a.28.28 0 0 1 .026.239.3.3 0 0 1-.064.103l-.491.522q.096.078.168.183l.495-.54a.24.24 0 0 1 .095-.066.23.23 0 0 1 .218.028.3.3 0 0 1 .077.09q.115.226.172.476"/><path fill="#F6FBF7" d="M14.495 28.823a.7.7 0 0 0-.172-.183l.028-.026a.63.63 0 0 0-.297-.132v.034a.5.5 0 0 0-.117 0 .5.5 0 0 0-.117 0v-.034a.63.63 0 0 0-.297.132h.024a.8.8 0 0 0-.172.187v-.025a.8.8 0 0 0-.121.323h.031a.7.7 0 0 0 0 .255h-.031a.8.8 0 0 0 .12.323l.024-.03a.7.7 0 0 0 .168.187l-.023.021c.088.07.19.116.296.136v-.042a.4.4 0 0 0 .117 0 .4.4 0 0 0 .117 0v.068a.7.7 0 0 0 .297-.136l-.027-.03a.54.54 0 0 0 .168-.178l.023.03a.8.8 0 0 0 .125-.324h-.035a.7.7 0 0 0 0-.255h.035a.9.9 0 0 0-.121-.323z"/><path fill="#F6FBF7" d="M13.548 28.636h-.023a.8.8 0 0 0-.168.182v.026a.8.8 0 0 1 .191-.208m-.291.617a.6.6 0 0 1 0-.127h-.031a1 1 0 0 0 0 .127 1 1 0 0 0 0 .128h.03a.6.6 0 0 1 0-.128m.117.423-.023.03q.069.106.167.178l.024-.021a.7.7 0 0 1-.168-.187m.558-1.17a.5.5 0 0 1 .117 0v-.034a.54.54 0 0 0-.233 0v.034a.5.5 0 0 1 .116 0m0 1.481a.4.4 0 0 1-.116 0v.03h.233v-.042a.4.4 0 0 1-.117.012m.389-.133.028.03a.8.8 0 0 0 .163-.178l-.023-.03a.54.54 0 0 1-.168.178m.172-1.024.023-.025a.8.8 0 0 0-.167-.183l-.028.026q.102.073.172.182m.131.423a.6.6 0 0 1 0 .128h.035v-.128a1 1 0 0 0 0-.127h-.035a.6.6 0 0 1 0 .127"/><path fill="#2A2933" d="M34.976 28.078a.3.3 0 0 0 .063-.103q.02-.06.014-.123a.3.3 0 0 0-.04-.116.25.25 0 0 0-.084-.084 1.8 1.8 0 0 0-.437-.182.23.23 0 0 0-.21.049.3.3 0 0 0-.07.093.3.3 0 0 0-.025.117v.765c.108.017.21.062.297.132zm-1.016-.358a.3.3 0 0 0-.028-.108.3.3 0 0 0-.066-.087.24.24 0 0 0-.195-.056q-.23.07-.437.2a.3.3 0 0 0-.082.084.28.28 0 0 0-.026.238q.02.06.061.103l.484.523a.64.64 0 0 1 .297-.132zm1.524 1.398q.056-.002.107-.03a.3.3 0 0 0 .086-.076.3.3 0 0 0 .045-.23 2 2 0 0 0-.18-.468.3.3 0 0 0-.077-.09.23.23 0 0 0-.218-.028.25.25 0 0 0-.095.067l-.5.54a.8.8 0 0 1 .125.323z"/><path fill="#F6FBF7" d="M34.625 28.83v-.025a.7.7 0 0 0-.164-.183l-.027.026q.112.07.19.182"/><path fill="#2A2933" d="M35.158 30.237q.04.046.094.067a.23.23 0 0 0 .219-.029.3.3 0 0 0 .077-.09q.12-.223.18-.476a.3.3 0 0 0-.046-.228.25.25 0 0 0-.085-.076.23.23 0 0 0-.108-.027h-.706a.8.8 0 0 1-.125.323zm-1.89.209a.3.3 0 0 0-.061.104.3.3 0 0 0 .028.238q.033.052.083.083.208.13.438.196a.23.23 0 0 0 .21-.05.3.3 0 0 0 .071-.093.3.3 0 0 0 .027-.117v-.786a.7.7 0 0 1-.297-.136zm1.031.331q0 .061.025.115t.068.093a.24.24 0 0 0 .098.05.2.2 0 0 0 .11 0 1.7 1.7 0 0 0 .44-.195.3.3 0 0 0 .082-.084.28.28 0 0 0 .027-.238.3.3 0 0 0-.062-.103l-.492-.544a.7.7 0 0 1-.296.136zm-1.529-1.655h.707a.8.8 0 0 1 .117-.323l-.492-.54a.25.25 0 0 0-.094-.067.23.23 0 0 0-.219.029.3.3 0 0 0-.077.09q-.118.226-.184.475a.3.3 0 0 0 .047.232.3.3 0 0 0 .087.077.23.23 0 0 0 .108.027m.014.256a.23.23 0 0 0-.106.029.25.25 0 0 0-.084.075.28.28 0 0 0-.044.227q.064.251.184.477a.3.3 0 0 0 .076.091.22.22 0 0 0 .22.029.24.24 0 0 0 .094-.07l.495-.535a.8.8 0 0 1-.12-.323z"/><path fill="#fff" d="M31.703 28.572q-.078.333-.078.676c0 .542.145 1.071.42 1.523.273.452.663.807 1.12 1.02s.961.274 1.45.177a2.47 2.47 0 0 0 1.301-.722c.36-.375.61-.856.72-1.384s.075-1.08-.1-1.586a2.75 2.75 0 0 0-.886-1.264 2.4 2.4 0 0 0-1.379-.523 2.74 2.74 0 0 0-1.575.617c-.457.37-.803.88-.993 1.466m2.459-1.296c.357.001.705.118 1.001.335s.527.525.662.885c.136.36.17.754.1 1.136-.07.38-.242.73-.495 1.005a1.77 1.77 0 0 1-.924.537 1.67 1.67 0 0 1-1.043-.111 1.85 1.85 0 0 1-.81-.723 2.095 2.095 0 0 1 .228-2.486c.34-.37.8-.577 1.28-.578"/><path fill="#F6FBF7" d="M32.912 30.645c.253.276.576.464.927.54s.716.037 1.047-.112c.33-.15.613-.402.812-.726a2.1 2.1 0 0 0 .306-1.096 2.1 2.1 0 0 0-.306-1.096 1.85 1.85 0 0 0-.812-.727 1.67 1.67 0 0 0-1.047-.112 1.77 1.77 0 0 0-.927.54c-.17.183-.304.4-.396.64a2.1 2.1 0 0 0 0 1.51c.092.24.226.457.396.64m-.363-1.858q.066-.246.183-.467a.3.3 0 0 1 .078-.09.23.23 0 0 1 .218-.028.24.24 0 0 1 .095.067l.491.54a.7.7 0 0 1 .172-.183l-.503-.549a.29.29 0 0 1-.032-.342.3.3 0 0 1 .082-.083q.207-.12.434-.182a.23.23 0 0 1 .21.049q.046.037.071.093a.3.3 0 0 1 .027.117v.765a.5.5 0 0 1 .117 0 .6.6 0 0 1 .117 0v-.765q0-.061.025-.116a.3.3 0 0 1 .068-.092.23.23 0 0 1 .207-.051q.233.07.442.2a.25.25 0 0 1 .084.083.284.284 0 0 1-.037.342l-.496.522q.098.076.168.183l.5-.54a.25.25 0 0 1 .094-.067.23.23 0 0 1 .218.029.3.3 0 0 1 .078.09q.119.225.179.475a.3.3 0 0 1-.045.23.3.3 0 0 1-.086.077.23.23 0 0 1-.107.03h-.703a1 1 0 0 1 0 .127 1 1 0 0 1 0 .127h.703q.056 0 .107.028a.25.25 0 0 1 .086.075.28.28 0 0 1 .045.229q-.06.252-.18.476a.3.3 0 0 1-.077.09.23.23 0 0 1-.218.028.25.25 0 0 1-.095-.067l-.5-.536a1 1 0 0 1-.163.179l.491.565a.3.3 0 0 1 .062.103.3.3 0 0 1-.026.238.3.3 0 0 1-.082.084 1.7 1.7 0 0 1-.441.196.23.23 0 0 1-.208-.051.29.29 0 0 1-.093-.208v-.787h-.117a1 1 0 0 1-.117 0v.761q0 .06-.027.117a.3.3 0 0 1-.07.093.24.24 0 0 1-.1.051.23.23 0 0 1-.111-.002q-.23-.066-.437-.195a.3.3 0 0 1-.072-.082.28.28 0 0 1-.026-.22.3.3 0 0 1 .05-.098l.5-.544a.7.7 0 0 1-.168-.178l-.495.535a.24.24 0 0 1-.095.07.22.22 0 0 1-.219-.03.3.3 0 0 1-.077-.09q-.119-.226-.183-.477a.3.3 0 0 1 .044-.227.25.25 0 0 1 .084-.076.23.23 0 0 1 .106-.028h.707a1 1 0 0 1 0-.128 1 1 0 0 1 0-.127h-.703a.23.23 0 0 1-.113-.031.3.3 0 0 1-.087-.083.29.29 0 0 1-.034-.244"/><path fill="#F6FBF7" d="M33.506 29.123a.5.5 0 0 0 0 .255h-.031a.8.8 0 0 0 .12.323l.024-.03q.067.11.164.187v.021a.7.7 0 0 0 .265.14v-.042a.4.4 0 0 0 .117 0 .4.4 0 0 0 .117 0v.043a.7.7 0 0 0 .297-.136l-.027-.03a.5.5 0 0 0 .164-.179l.027.03a.76.76 0 0 0 .121-.323h-.035a.5.5 0 0 0 0-.255h.035a.76.76 0 0 0-.121-.323v.025a.7.7 0 0 0-.172-.183l.024-.025a.6.6 0 0 0-.293-.132v.034a.5.5 0 0 0-.117 0 .5.5 0 0 0-.117 0v-.034a.64.64 0 0 0-.297.132.8.8 0 0 0-.168.187l-.023-.025a.8.8 0 0 0-.117.323z"/><path fill="#F6FBF7" d="M34.181 29.987a.4.4 0 0 1-.116 0v.03a1 1 0 0 0 .116 0h.117v-.042a.4.4 0 0 1-.117.012m-.684-.734a.6.6 0 0 1 0-.127h-.031a1 1 0 0 0 0 .127 1 1 0 0 0 0 .128h.031a.6.6 0 0 1 0-.128m.133.423-.023.03q.07.106.168.178v-.021a.7.7 0 0 1-.144-.187m.939.178.028.03a1 1 0 0 0 .163-.178l-.027-.03a.5.5 0 0 1-.164.178m-.902-1.218h-.024a.7.7 0 0 0-.167.182l.019.026a.8.8 0 0 1 .171-.208m.382-.123a.5.5 0 0 1 .117 0v-.034a.5.5 0 0 0-.117 0 .5.5 0 0 0-.117 0v.034a.5.5 0 0 1 .117 0m.687.74a1 1 0 0 1 0 .128h.035v-.128a1 1 0 0 0 0-.127h-.035a1 1 0 0 1 0 .127"/><path fill="#fff" d="m36.601 23.217-.702-.319-1.011-1.381.858-.425a10.3 10.3 0 0 0-1.006-1.54c-.895-1.128-2.151-1.843-3.513-1.997l-2.29-.29q.087.273.147.553h.051s2.275.106 3.739.995c1.464.888-2.408 2.763-2.408 2.763h-1.19a33 33 0 0 1-.625 4.51 3.08 3.08 0 0 1-.974 1.703 2.64 2.64 0 0 1-1.738.665H18.44s-1.814-4.353-1.131-8.587l-2.319 1.726-3.551 2.117c-.509.302-.94.738-1.255 1.268a4 4 0 0 0-.545 1.767l-.152 2.27 1.171.638v-.548c0-.902.33-1.767.915-2.405s1.38-.996 2.207-.996h.063c.828 0 1.622.358 2.208.996a3.56 3.56 0 0 1 .914 2.405v.548h14.476v-.03c0-.358.058-.713.168-1.05.137-.593.452-1.12.894-1.498a2.4 2.4 0 0 1 1.549-.589h.538c.276 0 .55.06.805.174.255.116.487.284.683.497.195.213.35.465.456.743s.16.576.16.877v.026a.8.8 0 0 0 .389-.099.9.9 0 0 0 .31-.273c.083-.115.142-.25.17-.392a1.1 1.1 0 0 0-.003-.435l-.245-1.118-.59-2.678a3 3 0 0 0-.125-.591m-12.218-6.46c-1.616-.179-3.239.273-4.578 1.275l-.363.273c1.343-1.008 3.326-1.73 4.941-1.548"/><path fill="#fff" d="M31.611 28.572a3.13 3.13 0 0 1 .996-1.467 2.74 2.74 0 0 1 1.576-.616h-.129a2.4 2.4 0 0 0-1.547.587 2.8 2.8 0 0 0-.896 1.496M18.46 28.46h7.498a2.64 2.64 0 0 0 1.739-.665c.493-.43.836-1.03.974-1.702.31-1.484.519-2.991.624-4.51l-11.818.162a7.2 7.2 0 0 1 2.327-2.97 6.36 6.36 0 0 1 3.399-1.242 42 42 0 0 1 5.901.277 6 6 0 0 0-.148-.553l-4.555-.51c-1.616-.183-3.598.54-4.941 1.539l-2.139 1.59c-.683 4.232 1.14 8.584 1.14 8.584"/><path fill="#fff" d="M18.838 20.885a5.96 5.96 0 0 1 1.93-1.782 5.44 5.44 0 0 1 2.445-.717c.304 0 .648-.026 1.022-.026 1.538 0 3.29.153 4.184.243.055.374-2.107.476-3.902.497a9.84 9.84 0 0 0-4.415 1.143zm17.058 1.998.702.319a11 11 0 0 0-.855-2.126l-.858.425z"/><path fill="#F25E53" d="m23.147 24.763-1.229 3.133 2.767-3.133z"/><path fill="#F25E53" d="m22.86 25.545 1.23-3.133-2.764 3.133z"/><defs><linearGradient id="a" x1="24.007" x2="24.007" y1=".893" y2="48.907" gradientUnits="userSpaceOnUse"><stop stop-color="#F4815A"/><stop offset="1" stop-color="#F25E53"/></linearGradient></defs></svg>