<svg xmlns="http://www.w3.org/2000/svg" width="40" height="40" fill="none"><circle cx="19.962" cy="20.197" r="19.563" fill="url(#a)"/><g fill="#fff" clip-path="url(#b)"><path d="M12.514 11.36v15.6a.434.434 0 0 0 .436.437h15.263v-.873H13.386V11.36z"/><path d="M27.805 16.88a.657.657 0 0 0 .657-.657v-2.706a.656.656 0 0 0-.657-.657h-2.508a.656.656 0 1 0 0 1.314h.867l-4.634 5.47-.024-1.645a.658.658 0 0 0-1.158-.415l-6.067 7.164a.657.657 0 1 0 1.002.848l4.935-5.826.024 1.644a.656.656 0 0 0 1.158.415l5.749-6.787v1.182a.656.656 0 0 0 .656.656"/></g><defs><linearGradient id="a" x1="19.962" x2="19.962" y1=".634" y2="39.76" gradientUnits="userSpaceOnUse"><stop stop-color="#F4815A"/><stop offset="1" stop-color="#F25E53"/></linearGradient><clipPath id="b"><path fill="#fff" d="M12.51 11.358h15.953v16.038H12.51z"/></clipPath></defs></svg>