<svg width="60" height="60" viewBox="0 0 60 60" fill="none" xmlns="http://www.w3.org/2000/svg">
<circle cx="29.894" cy="29.894" r="29.894" fill="url(#paint0_linear_458_3719)"/>
<path d="M13.8637 31.9189H13.8442C13.447 31.9189 13.125 32.2697 13.125 32.7024V33.6234C13.125 34.0561 13.447 34.4068 13.8442 34.4068H13.8637C14.2609 34.4068 14.5829 34.0561 14.5829 33.6234V32.7024C14.5829 32.2697 14.2609 31.9189 13.8637 31.9189Z" fill="white"/>
<path d="M20.302 33.8417C20.3372 33.8065 20.3643 33.7627 20.3809 33.7138C20.3975 33.665 20.4032 33.6125 20.3975 33.5608C20.3918 33.509 20.3749 33.4595 20.3481 33.4164C20.3214 33.3732 20.2856 33.3375 20.2437 33.3124C20.0717 33.2121 19.8888 33.1357 19.6994 33.0848C19.6544 33.0728 19.6075 33.072 19.5622 33.0826C19.5169 33.0932 19.4744 33.1149 19.4379 33.146C19.4014 33.1771 19.3718 33.2168 19.3515 33.2621C19.3311 33.3074 19.3205 33.3572 19.3203 33.4077V34.3605C19.4539 34.3815 19.5807 34.4378 19.6897 34.5246L20.302 33.8417Z" fill="#2A2933"/>
<path d="M19.0262 33.4027C19.0253 33.352 19.014 33.3021 18.9931 33.2568C18.9722 33.2115 18.9422 33.1719 18.9053 33.1409C18.8685 33.11 18.8257 33.0884 18.7802 33.0778C18.7347 33.0672 18.6875 33.0679 18.6423 33.0798C18.4526 33.1393 18.2699 33.2228 18.098 33.3285C18.0569 33.3545 18.0219 33.3904 17.9958 33.4336C17.9697 33.4768 17.9531 33.526 17.9475 33.5774C17.9418 33.6287 17.9472 33.6808 17.9632 33.7295C17.9792 33.7781 18.0054 33.8221 18.0397 33.8579L18.6569 34.5301C18.7658 34.4434 18.8926 34.3871 19.0262 34.366V33.4027Z" fill="#2A2933"/>
<path d="M19.1667 31.8662C18.5419 31.8662 17.9312 32.068 17.4117 32.4461C16.8922 32.8241 16.4874 33.3615 16.2483 33.9902C16.0092 34.6189 15.9466 35.3107 16.0685 35.9781C16.1904 36.6455 16.4912 37.2586 16.933 37.7398C17.3748 38.2209 17.9377 38.5486 18.5504 38.6814C19.1632 38.8142 19.7983 38.746 20.3755 38.4856C20.9527 38.2252 21.4461 37.7842 21.7932 37.2184C22.1403 36.6526 22.3256 35.9874 22.3256 35.3069C22.3256 34.3943 21.9927 33.5192 21.4003 32.874C20.8079 32.2287 20.0045 31.8662 19.1667 31.8662ZM20.7607 37.0431C20.4453 37.3863 20.0436 37.6201 19.6063 37.7148C19.169 37.8095 18.7158 37.7608 18.3039 37.575C17.892 37.3892 17.5399 37.0746 17.2921 36.6709C17.0443 36.2671 16.9119 35.7925 16.9117 35.3069C16.8976 34.9751 16.9454 34.6436 17.0522 34.3325C17.159 34.0214 17.3226 33.7372 17.5332 33.4969C17.7437 33.2567 17.9968 33.0655 18.2772 32.9348C18.5575 32.8041 18.8593 32.7368 19.1643 32.7368C19.4692 32.7368 19.771 32.8041 20.0513 32.9348C20.3317 33.0655 20.5848 33.2567 20.7953 33.4969C21.0059 33.7372 21.1695 34.0214 21.2763 34.3325C21.3831 34.6436 21.4309 34.9751 21.4168 35.3069C21.4157 35.9569 21.1801 36.5805 20.7607 37.0431Z" fill="white"/>
<path d="M20.5117 34.0688L19.8945 34.741C19.9697 34.8623 20.021 34.9993 20.0452 35.1433H20.8956C20.9425 35.1434 20.9888 35.1317 21.0308 35.1092C21.0729 35.0867 21.1097 35.054 21.1383 35.0136C21.1669 34.9732 21.1867 34.9262 21.196 34.8762C21.2053 34.8262 21.204 34.7745 21.1921 34.7251C21.1474 34.5222 21.0788 34.3265 20.988 34.1429C20.9648 34.0992 20.9328 34.0619 20.8944 34.0336C20.856 34.0054 20.8122 33.987 20.7664 33.9799C20.7205 33.9728 20.6738 33.9771 20.6297 33.9925C20.5856 34.0078 20.5452 34.0339 20.5117 34.0688Z" fill="#2A2933"/>
<path d="M17.8324 34.0705C17.7996 34.0332 17.7592 34.0047 17.7145 33.9873C17.6698 33.9699 17.622 33.964 17.5749 33.9701C17.5278 33.9763 17.4826 33.9943 17.4429 34.0228C17.4033 34.0512 17.3703 34.0893 17.3465 34.1341C17.2485 34.3208 17.1718 34.5199 17.1181 34.7269C17.1071 34.7762 17.1065 34.8275 17.1162 34.8771C17.126 34.9267 17.1458 34.9733 17.1742 35.0134C17.2027 35.0535 17.239 35.0862 17.2806 35.109C17.3222 35.1318 17.368 35.1441 17.4145 35.1451H18.2893C18.3109 35.0003 18.3624 34.8627 18.4399 34.7428L17.8324 34.0705Z" fill="#2A2933"/>
<path d="M17.429 35.4639C17.383 35.465 17.3378 35.4772 17.2966 35.4997C17.2554 35.5222 17.2194 35.5544 17.191 35.5939C17.1627 35.6334 17.1427 35.6792 17.1326 35.7281C17.1225 35.7771 17.1225 35.8278 17.1326 35.8767C17.1854 36.0841 17.2622 36.2833 17.361 36.4696C17.384 36.5152 17.4167 36.5542 17.4564 36.5834C17.4961 36.6125 17.5415 36.6309 17.589 36.6371C17.6365 36.6433 17.6846 36.6371 17.7295 36.619C17.7744 36.601 17.8146 36.5715 17.8469 36.5331L18.4739 35.8662C18.397 35.7458 18.3456 35.6084 18.3232 35.4639H17.429Z" fill="#2A2933"/>
<path d="M19.3203 37.2056C19.3205 37.2561 19.3311 37.3058 19.3515 37.3512C19.3718 37.3965 19.4014 37.4362 19.4379 37.4673C19.4744 37.4984 19.5169 37.52 19.5622 37.5306C19.6075 37.5412 19.6544 37.5405 19.6994 37.5285C19.8902 37.475 20.0734 37.3931 20.2437 37.285C20.2848 37.2591 20.3197 37.2231 20.3458 37.1799C20.372 37.1367 20.3885 37.0875 20.3942 37.0362C20.3998 36.9849 20.3944 36.9328 20.3784 36.8841C20.3624 36.8354 20.3363 36.7914 20.302 36.7557L19.6897 36.0781C19.5799 36.1643 19.4536 36.2222 19.3203 36.2475V37.2056Z" fill="#2A2933"/>
<path d="M20.5166 36.5332C20.5494 36.5705 20.5898 36.599 20.6345 36.6164C20.6792 36.6339 20.727 36.6397 20.7741 36.6336C20.8213 36.6274 20.8664 36.6094 20.9061 36.5809C20.9457 36.5525 20.9788 36.5144 21.0026 36.4696C21.1018 36.2842 21.177 36.0847 21.2261 35.8768C21.2382 35.8277 21.2396 35.7762 21.2303 35.7264C21.2209 35.6767 21.2011 35.6299 21.1724 35.5899C21.1436 35.5498 21.1067 35.5176 21.0646 35.4958C21.0225 35.4739 20.9763 35.463 20.9297 35.4639H20.05C20.0268 35.6091 19.9736 35.7467 19.8945 35.8662L20.5166 36.5332Z" fill="#2A2933"/>
<path d="M18.0397 36.7934C18.0054 36.8292 17.9792 36.8732 17.9632 36.9219C17.9472 36.9706 17.9418 37.0226 17.9475 37.074C17.9531 37.1253 17.9697 37.1745 17.9958 37.2177C18.0219 37.2609 18.0569 37.2968 18.098 37.3228C18.2691 37.4291 18.452 37.5109 18.6423 37.5663C18.6875 37.5782 18.7347 37.5788 18.7802 37.5682C18.8257 37.5577 18.8685 37.5361 18.9053 37.5051C18.9422 37.4741 18.9722 37.4345 18.9931 37.3892C19.014 37.3439 19.0253 37.2941 19.0262 37.2434V36.2641C18.8929 36.2388 18.7666 36.1809 18.6569 36.0947L18.0397 36.7934Z" fill="#2A2933"/>
<path d="M19.1799 32.8523C18.8753 32.8368 18.571 32.8889 18.2854 33.0052C17.9998 33.1216 17.7388 33.2998 17.5182 33.5291C17.2976 33.7585 17.1221 34.0342 17.0021 34.3395C16.8822 34.6449 16.8203 34.9736 16.8203 35.3057C16.8203 35.6378 16.8822 35.9665 17.0021 36.2719C17.1221 36.5772 17.2976 36.8529 17.5182 37.0823C17.7388 37.3116 17.9998 37.4898 18.2854 37.6062C18.571 37.7225 18.8753 37.7746 19.1799 37.7591C19.4845 37.7746 19.7888 37.7225 20.0744 37.6062C20.3601 37.4898 20.621 37.3116 20.8416 37.0823C21.0622 36.8529 21.2378 36.5772 21.3577 36.2719C21.4777 35.9665 21.5395 35.6378 21.5395 35.3057C21.5395 34.9736 21.4777 34.6449 21.3577 34.3395C21.2378 34.0342 21.0622 33.7585 20.8416 33.5291C20.621 33.2998 20.3601 33.1216 20.0744 33.0052C19.7888 32.8889 19.4845 32.8368 19.1799 32.8523ZM21.221 34.7314C21.2329 34.7807 21.2343 34.8324 21.2249 34.8824C21.2156 34.9325 21.1959 34.9795 21.1672 35.0199C21.1386 35.0603 21.1018 35.093 21.0598 35.1155C21.0177 35.1379 20.9714 35.1496 20.9246 35.1495H20.0547C20.0573 35.2024 20.0573 35.2555 20.0547 35.3083C20.0547 35.3613 20.0547 35.4142 20.0547 35.4671H20.9051C20.9518 35.4662 20.998 35.4772 21.0401 35.499C21.0822 35.5209 21.1191 35.5531 21.1478 35.5931C21.1766 35.6331 21.1964 35.6799 21.2057 35.7297C21.2151 35.7795 21.2136 35.8309 21.2016 35.88C21.1525 36.0879 21.0773 36.2874 20.978 36.4729C20.9542 36.5176 20.9212 36.5557 20.8816 36.5842C20.8419 36.6126 20.7967 36.6306 20.7496 36.6368C20.7025 36.6429 20.6547 36.6371 20.61 36.6197C20.5653 36.6022 20.5249 36.5737 20.4921 36.5364L19.87 35.8694C19.8133 35.955 19.7444 36.03 19.6659 36.0918L20.3074 36.7958C20.3417 36.8315 20.3678 36.8755 20.3838 36.9242C20.3998 36.9729 20.4052 37.025 20.3996 37.0763C20.3939 37.1276 20.3774 37.1768 20.3512 37.22C20.3251 37.2632 20.2901 37.2992 20.2491 37.3251C20.0788 37.4332 19.8956 37.5151 19.7048 37.5686C19.6598 37.5806 19.6129 37.5813 19.5676 37.5707C19.5223 37.5601 19.4798 37.5385 19.4433 37.5074C19.4068 37.4763 19.3772 37.4366 19.3569 37.3913C19.3365 37.3459 19.3258 37.2962 19.3257 37.2457V36.2664H19.1799H19.0341V37.2139C19.0332 37.2646 19.0219 37.3145 19.001 37.3598C18.9801 37.4051 18.9501 37.4447 18.9132 37.4756C18.8764 37.5066 18.8336 37.5282 18.7881 37.5388C18.7426 37.5494 18.6954 37.5487 18.6502 37.5368C18.4599 37.4815 18.277 37.3996 18.1059 37.2933C18.0648 37.2674 18.0298 37.2314 18.0037 37.1883C17.9776 37.1451 17.9611 37.0959 17.9554 37.0445C17.9498 36.9932 17.9551 36.9411 17.9711 36.8924C17.9871 36.8437 18.0133 36.7998 18.0476 36.764L18.6648 36.0865C18.5837 36.0263 18.5129 35.951 18.4558 35.8641L17.8386 36.5364C17.8063 36.5748 17.766 36.6042 17.7212 36.6223C17.6763 36.6404 17.6282 36.6466 17.5807 36.6404C17.5332 36.6342 17.4877 36.6158 17.4481 36.5866C17.4084 36.5575 17.3757 36.5185 17.3526 36.4729C17.2538 36.2865 17.1771 36.0873 17.1242 35.88C17.1141 35.8311 17.1142 35.7803 17.1243 35.7314C17.1344 35.6825 17.1543 35.6366 17.1827 35.5971C17.2111 35.5576 17.2471 35.5255 17.2883 35.503C17.3294 35.4805 17.3746 35.4683 17.4207 35.4671H18.2954C18.2907 35.4143 18.2907 35.3612 18.2954 35.3083C18.2904 35.2556 18.2904 35.2023 18.2954 35.1495H17.4304C17.3838 35.1486 17.3381 35.1363 17.2965 35.1135C17.2549 35.0907 17.2186 35.058 17.1901 35.0179C17.1617 34.9778 17.1418 34.9312 17.1321 34.8816C17.1224 34.832 17.123 34.7807 17.1339 34.7314C17.1884 34.528 17.2651 34.3325 17.3623 34.1491C17.3862 34.1044 17.4192 34.0663 17.4588 34.0378C17.4985 34.0094 17.5436 33.9914 17.5908 33.9852C17.6379 33.979 17.6857 33.9849 17.7304 34.0023C17.7751 34.0198 17.8155 34.0483 17.8483 34.0856L18.4752 34.7473C18.5338 34.6602 18.6043 34.5835 18.6842 34.5196L18.067 33.8474C18.0327 33.8116 18.0066 33.7677 17.9906 33.719C17.9746 33.6703 17.9692 33.6182 17.9748 33.5669C17.9805 33.5155 17.997 33.4663 18.0232 33.4231C18.0493 33.38 18.0843 33.344 18.1253 33.3181C18.292 33.2211 18.468 33.1448 18.6502 33.0905C18.6954 33.0786 18.7426 33.0779 18.7881 33.0885C18.8336 33.0991 18.8764 33.1206 18.9132 33.1516C18.9501 33.1826 18.9801 33.2222 19.001 33.2675C19.0219 33.3128 19.0332 33.3627 19.0341 33.4133V34.3661C19.1303 34.3449 19.2295 34.3449 19.3257 34.3661V33.4133C19.3258 33.3629 19.3365 33.3131 19.3569 33.2678C19.3772 33.2224 19.4068 33.1827 19.4433 33.1517C19.4798 33.1206 19.5223 33.0989 19.5676 33.0883C19.6129 33.0777 19.6598 33.0784 19.7048 33.0905C19.8951 33.1481 20.078 33.2316 20.2491 33.3392C20.291 33.3644 20.3268 33.4 20.3535 33.4432C20.3803 33.4864 20.3972 33.5359 20.4029 33.5876C20.4086 33.6393 20.4029 33.6918 20.3863 33.7407C20.3697 33.7895 20.3426 33.8334 20.3074 33.8686L19.6951 34.5196C19.775 34.5835 19.8454 34.6602 19.904 34.7473L20.5212 34.075C20.5541 34.0377 20.5944 34.0092 20.6391 33.9917C20.6838 33.9743 20.7316 33.9685 20.7788 33.9746C20.8259 33.9808 20.8711 33.9988 20.9107 34.0272C20.9504 34.0557 20.9834 34.0938 21.0072 34.1385C21.1022 34.325 21.1741 34.5243 21.221 34.7314Z" fill="#F6FBF7"/>
<path d="M19.8735 34.7721C19.8162 34.6821 19.7436 34.6049 19.6597 34.5445L19.6937 34.5127C19.5848 34.426 19.458 34.3697 19.3244 34.3486V34.391C19.2759 34.3853 19.227 34.3853 19.1786 34.391C19.1301 34.3855 19.0813 34.3855 19.0328 34.391V34.3486C18.8992 34.3697 18.7724 34.426 18.6635 34.5127H18.6926C18.6097 34.5766 18.5374 34.6553 18.4788 34.7456V34.7139C18.4012 34.8338 18.3497 34.9714 18.3281 35.1162H18.367C18.3476 35.221 18.3476 35.3289 18.367 35.4338H18.3281C18.3505 35.5783 18.402 35.7157 18.4788 35.8361L18.5079 35.799C18.5634 35.8904 18.6343 35.9694 18.7169 36.0319L18.6877 36.0584C18.7975 36.1445 18.9238 36.2025 19.0571 36.2278V36.1748C19.1054 36.1828 19.1546 36.1828 19.2029 36.1748C19.2512 36.1828 19.3004 36.1828 19.3487 36.1748V36.2595C19.482 36.2342 19.6083 36.1763 19.718 36.0901L19.684 36.0531C19.7683 35.9973 19.8398 35.9213 19.893 35.8308L19.9221 35.8678C20.0013 35.7483 20.0544 35.6107 20.0777 35.4655H20.0339C20.0533 35.3607 20.0533 35.2527 20.0339 35.1479H20.0777C20.0535 35.0039 20.0022 34.8669 19.927 34.7456L19.8735 34.7721Z" fill="#F6FBF7"/>
<path d="M18.6985 34.542H18.6694C18.5897 34.6057 18.5194 34.6822 18.4609 34.769V34.8007C18.5244 34.6989 18.605 34.6111 18.6985 34.542Z" fill="#F6FBF7"/>
<path d="M18.3238 35.3068C18.3186 35.2542 18.3186 35.2011 18.3238 35.1484H18.285C18.28 35.2011 18.28 35.2542 18.285 35.3068C18.2803 35.3595 18.2803 35.4125 18.285 35.4652H18.3238C18.3186 35.4126 18.3186 35.3595 18.3238 35.3068Z" fill="#F6FBF7"/>
<path d="M18.4705 35.832L18.4414 35.869C18.4984 35.9557 18.5689 36.0307 18.6498 36.0907L18.6789 36.0643C18.5965 36.002 18.5258 35.9232 18.4705 35.832Z" fill="#F6FBF7"/>
<path d="M19.1689 34.3784C19.2172 34.3727 19.2659 34.3727 19.3143 34.3784V34.3362C19.2183 34.315 19.1194 34.315 19.0234 34.3362V34.3784C19.0718 34.373 19.1205 34.373 19.1689 34.3784Z" fill="#F6FBF7"/>
<path d="M19.1689 36.2248C19.1207 36.2328 19.0716 36.2328 19.0234 36.2248V36.2618H19.1689H19.3143V36.209C19.2668 36.2222 19.2178 36.2276 19.1689 36.2248Z" fill="#F6FBF7"/>
<path d="M19.6562 36.0538L19.6902 36.0907C19.7685 36.0292 19.8372 35.9543 19.8938 35.869L19.8647 35.832C19.8116 35.9223 19.7404 35.9982 19.6562 36.0538Z" fill="#F6FBF7"/>
<path d="M19.8695 34.7802L19.8986 34.7485C19.8402 34.6617 19.7699 34.5851 19.6902 34.5215L19.6562 34.5532C19.7399 34.6134 19.8123 34.6904 19.8695 34.7802Z" fill="#F6FBF7"/>
<path d="M20.0234 35.3068C20.0287 35.3595 20.0287 35.4126 20.0234 35.4652H20.0671C20.0671 35.4124 20.0671 35.3596 20.0671 35.3068C20.0697 35.2541 20.0697 35.2012 20.0671 35.1484H20.0234C20.0287 35.2011 20.0287 35.2542 20.0234 35.3068Z" fill="#F6FBF7"/>
<path d="M45.3684 33.8417C45.4036 33.8065 45.4307 33.7627 45.4473 33.7138C45.4639 33.665 45.4696 33.6125 45.4639 33.5608C45.4582 33.509 45.4413 33.4595 45.4145 33.4164C45.3878 33.3732 45.352 33.3375 45.3101 33.3124C45.1381 33.2121 44.9552 33.1357 44.7658 33.0848C44.7208 33.0728 44.6739 33.072 44.6286 33.0826C44.5833 33.0932 44.5408 33.1149 44.5043 33.146C44.4678 33.1771 44.4382 33.2168 44.4179 33.2621C44.3975 33.3074 44.3869 33.3572 44.3867 33.4077V34.3605C44.5203 34.3815 44.6471 34.4378 44.7561 34.5246L45.3684 33.8417Z" fill="#2A2933"/>
<path d="M44.0996 33.3996C44.0967 33.3525 44.0849 33.3066 44.0648 33.2649C44.0448 33.2231 44.0169 33.1863 43.9831 33.1569C43.9492 33.1275 43.9101 33.1061 43.8683 33.0941C43.8264 33.0821 43.7827 33.0798 43.7399 33.0873C43.5499 33.1458 43.3671 33.2294 43.1956 33.3361C43.1546 33.362 43.1196 33.398 43.0935 33.4411C43.0673 33.4843 43.0508 33.5335 43.0451 33.5849C43.0395 33.6362 43.0449 33.6883 43.0609 33.737C43.0769 33.7857 43.103 33.8296 43.1373 33.8654L43.7399 34.5165C43.8489 34.4297 43.9757 34.3734 44.1093 34.3524L44.0996 33.3996Z" fill="#2A2933"/>
<path d="M45.9961 35.1433C46.0426 35.1423 46.0884 35.13 46.13 35.1072C46.1715 35.0844 46.2079 35.0518 46.2364 35.0116C46.2648 34.9715 46.2846 34.9249 46.2943 34.8753C46.3041 34.8257 46.3034 34.7744 46.2925 34.7251C46.2417 34.5212 46.1666 34.3254 46.069 34.1428C46.0452 34.0981 46.0121 34.06 45.9725 34.0316C45.9329 34.0031 45.8877 33.9851 45.8405 33.9789C45.7934 33.9728 45.7456 33.9786 45.7009 33.9961C45.6562 34.0135 45.6158 34.042 45.583 34.0793L44.9609 34.7516C45.0401 34.8711 45.0932 35.0087 45.1165 35.1539L45.9961 35.1433Z" fill="#2A2933"/>
<path d="M44.9445 34.7802V34.7485C44.8894 34.6604 44.8205 34.5836 44.741 34.5215L44.707 34.5532C44.7994 34.6106 44.8802 34.6879 44.9445 34.7802Z" fill="#F6FBF7"/>
<path d="M45.5908 36.5331C45.6237 36.5704 45.664 36.599 45.7087 36.6164C45.7534 36.6338 45.8012 36.6397 45.8484 36.6335C45.8955 36.6273 45.9407 36.6093 45.9803 36.5809C46.02 36.5524 46.053 36.5143 46.0768 36.4696C46.176 36.2841 46.2513 36.0846 46.3003 35.8767C46.3114 35.8277 46.312 35.7766 46.3023 35.7273C46.2926 35.6779 46.2727 35.6317 46.2441 35.5919C46.2156 35.5522 46.1792 35.52 46.1375 35.4978C46.0959 35.4756 46.0502 35.464 46.0039 35.4639H45.1243C45.101 35.6091 45.0479 35.7466 44.9688 35.8662L45.5908 36.5331Z" fill="#2A2933"/>
<path d="M43.2527 36.7934C43.2186 36.8296 43.1928 36.8739 43.1771 36.9228C43.1615 36.9717 43.1566 37.024 43.1627 37.0753C43.1688 37.1267 43.1859 37.1758 43.2125 37.2188C43.239 37.2617 43.2745 37.2973 43.3159 37.3228C43.4866 37.4299 43.6696 37.5118 43.8602 37.5663C43.9054 37.5782 43.9526 37.5788 43.9981 37.5682C44.0436 37.5577 44.0864 37.5361 44.1232 37.5051C44.1601 37.4741 44.1901 37.4345 44.211 37.3892C44.2319 37.3439 44.2432 37.2941 44.2441 37.2434V36.2641C44.1108 36.2388 43.9845 36.1809 43.8748 36.0947L43.2527 36.7934Z" fill="#2A2933"/>
<path d="M44.5352 37.2056C44.5355 37.2555 44.5461 37.3047 44.5661 37.3495C44.5862 37.3944 44.6153 37.4338 44.6512 37.4647C44.6871 37.4957 44.7289 37.5175 44.7736 37.5286C44.8183 37.5396 44.8647 37.5396 44.9094 37.5285C45.1018 37.475 45.2865 37.3931 45.4585 37.285C45.4996 37.2591 45.5346 37.2231 45.5607 37.1799C45.5868 37.1367 45.6034 37.0875 45.609 37.0362C45.6147 36.9849 45.6093 36.9328 45.5933 36.8841C45.5773 36.8354 45.5511 36.7914 45.5168 36.7557L44.9045 36.0781C44.7947 36.1643 44.6685 36.2222 44.5352 36.2475V37.2056Z" fill="#2A2933"/>
<path d="M42.6342 35.1451H43.5138C43.5336 35.0006 43.5835 34.863 43.6596 34.7428L43.0473 34.0705C43.0144 34.0332 42.9741 34.0047 42.9294 33.9873C42.8847 33.9699 42.8369 33.964 42.7897 33.9701C42.7426 33.9763 42.6974 33.9943 42.6578 34.0228C42.6181 34.0512 42.5851 34.0893 42.5613 34.1341C42.4633 34.3208 42.3866 34.5199 42.3329 34.7269C42.3219 34.7766 42.3214 34.8284 42.3313 34.8784C42.3413 34.9284 42.3616 34.9752 42.3906 35.0155C42.4196 35.0557 42.4565 35.0883 42.4987 35.1107C42.5409 35.1332 42.5872 35.1449 42.6342 35.1451Z" fill="#2A2933"/>
<path d="M42.6403 35.4639C42.5943 35.4648 42.5492 35.477 42.5082 35.4995C42.4672 35.522 42.4313 35.5543 42.4033 35.594C42.3753 35.6336 42.3559 35.6796 42.3464 35.7286C42.337 35.7775 42.3377 35.8282 42.3487 35.8767C42.4015 36.0841 42.4783 36.2833 42.5771 36.4696C42.6001 36.5152 42.6329 36.5542 42.6725 36.5834C42.7122 36.6125 42.7576 36.6309 42.8051 36.6371C42.8526 36.6433 42.9008 36.6371 42.9456 36.619C42.9905 36.601 43.0307 36.5715 43.0631 36.5331L43.6802 35.8662C43.6015 35.747 43.5498 35.6091 43.5296 35.4639H42.6403Z" fill="#2A2933"/>
<path d="M41.3042 34.4599C41.2396 34.7349 41.207 35.0177 41.207 35.3016C41.2067 35.9758 41.3882 36.6354 41.7291 37.1982C42.0699 37.7611 42.5551 38.2024 43.1244 38.4674C43.6936 38.7324 44.3218 38.8094 44.9308 38.6888C45.5399 38.5683 46.103 38.2554 46.5502 37.7891C46.9974 37.3229 47.309 36.7238 47.4462 36.0663C47.5834 35.4088 47.5402 34.7219 47.322 34.0909C47.1038 33.4599 46.7202 32.9126 46.2188 32.5171C45.7175 32.1216 45.1205 31.8953 44.502 31.8662C43.793 31.9047 43.1105 32.1718 42.5411 32.6336C41.9718 33.0954 41.5413 33.7311 41.3042 34.4599ZM44.3659 32.8455C44.8103 32.8476 45.2442 32.9929 45.6128 33.2633C45.9815 33.5336 46.2683 33.9168 46.4373 34.3645C46.6063 34.8122 46.6497 35.3043 46.5622 35.7789C46.4747 36.2535 46.2601 36.6892 45.9455 37.0311C45.6309 37.373 45.2304 37.6058 44.7946 37.7001C44.3587 37.7944 43.9069 37.746 43.4962 37.561C43.0856 37.376 42.7344 37.0627 42.487 36.6606C42.2396 36.2585 42.1071 35.7856 42.1061 35.3016C42.1087 34.6501 42.3477 34.0262 42.7711 33.5661C43.1945 33.1059 43.7678 32.8469 44.3659 32.8455Z" fill="white"/>
<path d="M42.7989 37.0419C43.1142 37.3855 43.516 37.6196 43.9534 37.7145C44.3909 37.8094 44.8444 37.7608 45.2565 37.575C45.6686 37.3891 46.0209 37.0743 46.2687 36.6704C46.5165 36.2665 46.6488 35.7915 46.6488 35.3057C46.6488 34.8199 46.5165 34.345 46.2687 33.941C46.0209 33.5371 45.6686 33.2223 45.2565 33.0364C44.8444 32.8506 44.3909 32.802 43.9534 32.8969C43.516 32.9918 43.1142 33.2259 42.7989 33.5695C42.5879 33.7965 42.4204 34.0668 42.306 34.3649C42.1917 34.6629 42.1328 34.9827 42.1328 35.3057C42.1328 35.6287 42.1917 35.9485 42.306 36.2465C42.4204 36.5446 42.5879 36.8149 42.7989 37.0419ZM42.3469 34.7287C42.4014 34.5254 42.4781 34.3299 42.5753 34.1465C42.5991 34.1017 42.6322 34.0636 42.6718 34.0352C42.7115 34.0067 42.7566 33.9887 42.8038 33.9826C42.8509 33.9764 42.8987 33.9823 42.9434 33.9997C42.9881 34.0171 43.0285 34.0456 43.0613 34.083L43.6737 34.7552C43.7324 34.6665 43.8048 34.5895 43.8875 34.5276L43.2606 33.8448C43.2265 33.8086 43.2006 33.7643 43.185 33.7154C43.1694 33.6665 43.1645 33.6142 43.1706 33.5629C43.1767 33.5115 43.1938 33.4624 43.2203 33.4194C43.2469 33.3765 43.2823 33.3409 43.3238 33.3154C43.4946 33.2164 43.6757 33.14 43.8632 33.0878C43.9084 33.0759 43.9556 33.0752 44.0011 33.0858C44.0466 33.0964 44.0894 33.118 44.1262 33.149C44.1631 33.18 44.1931 33.2196 44.214 33.2649C44.2349 33.3102 44.2462 33.36 44.2471 33.4107V34.3635C44.2956 34.3578 44.3445 34.3578 44.3929 34.3635C44.4414 34.3583 44.4902 34.3583 44.5387 34.3635V33.4107C44.539 33.3608 44.5496 33.3116 44.5697 33.2668C44.5898 33.2219 44.6188 33.1825 44.6547 33.1516C44.6907 33.1206 44.7325 33.0988 44.7772 33.0877C44.8219 33.0767 44.8682 33.0767 44.9129 33.0878C45.1048 33.1454 45.2893 33.229 45.4621 33.3366C45.504 33.3617 45.5398 33.3974 45.5665 33.4405C45.5933 33.4837 45.6102 33.5332 45.6159 33.585C45.6216 33.6367 45.6159 33.6892 45.5993 33.738C45.5827 33.7869 45.5556 33.8307 45.5204 33.8659L44.9032 34.517C44.9844 34.5791 45.0552 34.6561 45.1122 34.7446L45.7342 34.0724C45.7671 34.035 45.8074 34.0065 45.8521 33.9891C45.8968 33.9717 45.9446 33.9658 45.9918 33.972C46.0389 33.9781 46.0841 33.9961 46.1237 34.0246C46.1634 34.053 46.1964 34.0911 46.2202 34.1359C46.3186 34.3218 46.3938 34.5212 46.4437 34.7287C46.4547 34.778 46.4553 34.8294 46.4456 34.8789C46.4358 34.9285 46.416 34.9751 46.3876 35.0152C46.3591 35.0554 46.3228 35.088 46.2812 35.1108C46.2396 35.1336 46.1938 35.1459 46.1473 35.1469H45.2725C45.2776 35.1997 45.2776 35.2529 45.2725 35.3057C45.2773 35.3585 45.2773 35.4117 45.2725 35.4645H46.1473C46.1936 35.4647 46.2393 35.4763 46.2809 35.4984C46.3226 35.5206 46.359 35.5528 46.3876 35.5925C46.4161 35.6323 46.436 35.6786 46.4457 35.7279C46.4555 35.7773 46.4548 35.8284 46.4437 35.8774C46.3947 36.0853 46.3194 36.2848 46.2202 36.4702C46.1964 36.515 46.1634 36.5531 46.1237 36.5815C46.0841 36.61 46.0389 36.628 45.9918 36.6341C45.9446 36.6403 45.8968 36.6344 45.8521 36.617C45.8074 36.5996 45.7671 36.5711 45.7342 36.5337L45.1122 35.8668C45.0542 35.9511 44.9855 36.026 44.908 36.0891L45.5204 36.7931C45.5547 36.8289 45.5808 36.8729 45.5968 36.9215C45.6128 36.9702 45.6182 37.0223 45.6126 37.0736C45.6069 37.125 45.5904 37.1742 45.5642 37.2174C45.5381 37.2606 45.5031 37.2965 45.4621 37.3225C45.2901 37.4306 45.1053 37.5125 44.9129 37.5659C44.8682 37.577 44.8219 37.5771 44.7772 37.566C44.7325 37.555 44.6907 37.5332 44.6547 37.5022C44.6188 37.4712 44.5898 37.4318 44.5697 37.387C44.5496 37.3421 44.539 37.293 44.5387 37.2431V36.2638H44.3929C44.3444 36.2669 44.2957 36.2669 44.2471 36.2638V37.2113C44.2462 37.262 44.2349 37.3118 44.214 37.3571C44.1931 37.4024 44.1631 37.442 44.1262 37.473C44.0894 37.504 44.0466 37.5256 44.0011 37.5362C43.9556 37.5468 43.9084 37.5461 43.8632 37.5342C43.6726 37.4797 43.4896 37.3978 43.3189 37.2907C43.2827 37.2642 43.2522 37.2295 43.2293 37.1891C43.2064 37.1487 43.1917 37.1034 43.1862 37.0563C43.1807 37.0092 43.1845 36.9613 43.1973 36.916C43.2101 36.8706 43.2317 36.8287 43.2606 36.7931L43.8826 36.1156C43.8015 36.0554 43.7308 35.9802 43.6737 35.8933L43.0565 36.5602C43.0241 36.5986 42.9839 36.6281 42.939 36.6462C42.8942 36.6642 42.846 36.6704 42.7985 36.6642C42.751 36.658 42.7056 36.6396 42.6659 36.6105C42.6263 36.5813 42.5936 36.5423 42.5705 36.4967C42.4717 36.3104 42.395 36.1112 42.3421 35.9038C42.3311 35.8553 42.3304 35.8046 42.3398 35.7557C42.3493 35.7067 42.3687 35.6607 42.3968 35.6211C42.4248 35.5814 42.4606 35.5491 42.5016 35.5266C42.5426 35.5041 42.5877 35.4919 42.6337 35.491H43.5133C43.5085 35.4382 43.5085 35.385 43.5133 35.3322C43.5082 35.2794 43.5082 35.2262 43.5133 35.1734H42.6385C42.5897 35.1727 42.5416 35.1595 42.4983 35.1349C42.455 35.1102 42.4177 35.0748 42.3893 35.0315C42.3609 34.9882 42.3423 34.9383 42.3349 34.8856C42.3275 34.833 42.3317 34.7793 42.3469 34.7287Z" fill="#F6FBF7"/>
<path d="M43.5496 35.1461C43.5237 35.2501 43.5237 35.3597 43.5496 35.4637H43.5107C43.5309 35.6089 43.5825 35.7468 43.6613 35.866L43.6905 35.829C43.7456 35.9189 43.8147 35.9977 43.8946 36.0619V36.0883C43.9925 36.1708 44.105 36.2303 44.2251 36.263V36.2101C44.2734 36.2181 44.3225 36.2181 44.3709 36.2101C44.4192 36.2181 44.4683 36.2181 44.5167 36.2101V36.263C44.6499 36.2377 44.7762 36.1798 44.886 36.0936L44.852 36.0566C44.9349 36.0006 45.0047 35.9245 45.0561 35.8343L45.0901 35.8713C45.1697 35.7526 45.2215 35.6145 45.2408 35.469H45.197C45.2228 35.365 45.2228 35.2554 45.197 35.1514H45.2408C45.2215 35.0059 45.1697 34.8678 45.0901 34.7491V34.7809C45.0314 34.6921 44.9591 34.6151 44.8763 34.5533L44.9054 34.5215C44.7982 34.435 44.673 34.3786 44.541 34.3574V34.3998C44.4925 34.3943 44.4436 34.3943 44.3952 34.3998C44.3467 34.394 44.2978 34.394 44.2494 34.3998V34.3574C44.1158 34.3784 43.989 34.4348 43.88 34.5215C43.7997 34.5869 43.7293 34.6655 43.671 34.7544L43.6419 34.7227C43.5658 34.8429 43.5159 34.9805 43.4961 35.1249L43.5496 35.1461Z" fill="#F6FBF7"/>
<path d="M44.3837 36.2248C44.3355 36.2328 44.2865 36.2328 44.2383 36.2248V36.2618C44.2867 36.2649 44.3353 36.2649 44.3837 36.2618H44.5291V36.209C44.4817 36.2222 44.4326 36.2276 44.3837 36.2248Z" fill="#F6FBF7"/>
<path d="M43.5386 35.3068C43.5333 35.2542 43.5333 35.2011 43.5386 35.1484H43.4999C43.4948 35.2011 43.4948 35.2542 43.4999 35.3068C43.4951 35.3595 43.4951 35.4125 43.4999 35.4652H43.5386C43.5333 35.4126 43.5333 35.3595 43.5386 35.3068Z" fill="#F6FBF7"/>
<path d="M43.6971 35.832L43.668 35.869C43.725 35.9557 43.7955 36.0307 43.8764 36.0907V36.0643C43.8053 35.9981 43.7447 35.9196 43.6971 35.832Z" fill="#F6FBF7"/>
<path d="M44.8711 36.0538L44.905 36.0907C44.9822 36.0277 45.0508 35.9531 45.1086 35.869L45.0747 35.832C45.0234 35.9221 44.9538 35.998 44.8711 36.0538Z" fill="#F6FBF7"/>
<path d="M43.7492 34.542H43.7201C43.6391 34.6039 43.5686 34.6807 43.5117 34.769L43.536 34.8007C43.5922 34.7012 43.6644 34.6136 43.7492 34.542Z" fill="#F6FBF7"/>
<path d="M44.2196 34.3833C44.268 34.3775 44.3167 34.3775 44.3651 34.3833V34.341C44.3167 34.3358 44.268 34.3358 44.2196 34.341C44.1713 34.3355 44.1226 34.3355 44.0742 34.341V34.3833C44.1225 34.3775 44.1713 34.3775 44.2196 34.3833Z" fill="#F6FBF7"/>
<path d="M45.0938 35.3068C45.099 35.3595 45.099 35.4126 45.0938 35.4652H45.1374C45.1374 35.4124 45.1374 35.3596 45.1374 35.3068C45.14 35.2541 45.14 35.2012 45.1374 35.1484H45.0938C45.099 35.2011 45.099 35.2542 45.0938 35.3068Z" fill="#F6FBF7"/>
<path d="M47.4016 27.7915L46.5269 27.3945L45.2682 25.6742L46.3373 25.1448C45.9746 24.4653 45.5548 23.8239 45.0835 23.2287C43.9694 21.8232 42.4052 20.9335 40.7097 20.7408L37.857 20.3809C37.9301 20.6064 37.9917 20.8361 38.0417 21.069H38.1048C38.1048 21.069 40.9381 21.2013 42.7605 22.3076C44.583 23.4139 39.762 25.7483 39.762 25.7483H38.2798C38.1485 27.6387 37.8886 29.5159 37.5022 31.3645C37.3309 32.201 36.903 32.9489 36.289 33.4849C35.6749 34.0209 34.9115 34.3129 34.1247 34.3128H24.789C24.789 34.3128 22.5292 28.8925 23.3797 23.6204L20.4929 25.7694L16.0705 28.4055C15.4371 28.7816 14.9002 29.3245 14.5088 29.9847C14.1175 30.6449 13.8842 31.4013 13.8302 32.1849L13.6406 35.0115L15.0986 35.8055V35.1227C15.0986 33.9996 15.5082 32.9225 16.2373 32.1284C16.9664 31.3342 17.9553 30.8881 18.9864 30.8881H19.0642C20.0953 30.8881 21.0842 31.3342 21.8133 32.1284C22.5424 32.9225 22.952 33.9996 22.952 35.1227V35.8055H40.977V35.7685C40.9783 35.3229 41.049 34.8809 41.186 34.461C41.3571 33.722 41.7487 33.0658 42.2994 32.5954C42.85 32.125 43.5284 31.867 44.2282 31.862H44.8988C45.2428 31.862 45.5834 31.9358 45.9013 32.0792C46.2191 32.2226 46.5078 32.4328 46.7511 32.6977C46.9943 32.9626 47.1872 33.2771 47.3189 33.6233C47.4505 33.9694 47.5183 34.3405 47.5183 34.7151V34.7469C47.686 34.7463 47.8514 34.7043 48.0022 34.6243C48.153 34.5442 48.2852 34.4281 48.3889 34.2845C48.4927 34.141 48.5653 33.9737 48.6013 33.7953C48.6374 33.6169 48.636 33.4319 48.5971 33.2542L48.291 31.862L47.5571 28.5273C47.5328 28.2732 47.4697 28.0244 47.4016 27.7915Z" fill="white"/>
<path d="M32.1838 19.7489C30.1709 19.5259 28.1506 20.0887 26.4832 21.3369L26.0312 21.6757C27.703 20.4212 30.1718 19.5213 32.1838 19.7489Z" fill="white"/>
<path d="M41.1758 34.4599C41.4137 33.7307 41.8451 33.0948 42.4153 32.6331C42.9855 32.1713 43.6687 31.9044 44.3784 31.8662H44.218C43.5189 31.8709 42.841 32.1281 42.2904 32.5974C41.7399 33.0668 41.3479 33.7219 41.1758 34.4599Z" fill="white"/>
<path d="M24.7973 34.3217H34.1333C34.9201 34.3217 35.6836 34.0298 36.2976 33.4939C36.9116 32.958 37.3396 32.2103 37.5109 31.3739C37.8973 29.5258 38.1572 27.649 38.2885 25.7589L23.5726 25.9601C24.2128 24.4642 25.2143 23.186 26.4702 22.2622C27.726 21.3385 29.1888 20.8038 30.7021 20.7155C33.1558 20.6584 35.6103 20.7733 38.0504 21.0595C38.0004 20.8267 37.9388 20.597 37.8657 20.3715L32.1941 19.7365C30.1821 19.5089 27.7133 20.4086 26.0415 21.6522L23.3782 23.6315C22.5277 28.9025 24.7973 34.3217 24.7973 34.3217Z" fill="white"/>
<path d="M25.2695 24.8903C25.9112 23.9666 26.7322 23.2087 27.674 22.6707C28.6157 22.1326 29.6549 21.8278 30.7174 21.7779C31.0964 21.7779 31.5241 21.7461 31.9906 21.7461C33.9054 21.7461 36.0874 21.9367 37.2003 22.0478C37.2684 22.5136 34.576 22.6407 32.3405 22.6671C30.4352 22.7014 28.5596 23.1873 26.8441 24.091L25.2695 24.8903Z" fill="white"/>
<path d="M46.5243 27.3795L47.3991 27.7765C47.136 26.8539 46.779 25.9661 46.3348 25.1299L45.2656 25.6592L46.5243 27.3795Z" fill="white"/>
<path d="M30.6519 29.7236L29.1211 33.6248L32.5667 29.7236H30.8949H30.6519Z" fill="#F25E53"/>
<path d="M30.3005 30.6951L31.8314 26.7939L28.3906 30.6951H30.0575H30.3005Z" fill="#F25E53"/>
<defs>
<linearGradient id="paint0_linear_458_3719" x1="29.894" y1="0" x2="29.894" y2="59.788" gradientUnits="userSpaceOnUse">
<stop stop-color="#F4815A"/>
<stop offset="1" stop-color="#F25E53"/>
</linearGradient>
</defs>
</svg>
