<svg width="49" height="49" viewBox="0 0 49 49" fill="none" xmlns="http://www.w3.org/2000/svg">
<circle cx="24.0074" cy="24.9" r="24.0074" fill="url(#paint0_linear_674_2)"/>
<path d="M9.67136 26.5283H9.65574C9.33673 26.5283 9.07812 26.81 9.07812 27.1575V27.8971C9.07812 28.2446 9.33673 28.5263 9.65574 28.5263H9.67136C9.99037 28.5263 10.249 28.2446 10.249 27.8971V27.1575C10.249 26.81 9.99037 26.5283 9.67136 26.5283Z" fill="white"/>
<path d="M14.8372 28.0775C14.8655 28.0492 14.8872 28.014 14.9006 27.9748C14.9139 27.9355 14.9185 27.8934 14.9139 27.8519C14.9093 27.8103 14.8957 27.7706 14.8742 27.7359C14.8528 27.7012 14.824 27.6726 14.7904 27.6524C14.6522 27.5719 14.5054 27.5105 14.3532 27.4696C14.3171 27.46 14.2794 27.4594 14.2431 27.4679C14.2067 27.4764 14.1725 27.4938 14.1432 27.5188C14.1139 27.5437 14.0902 27.5756 14.0738 27.612C14.0575 27.6484 14.0489 27.6884 14.0488 27.7289V28.4941C14.1561 28.511 14.2579 28.5562 14.3454 28.6259L14.8372 28.0775Z" fill="#2A2933"/>
<path d="M13.8173 27.7249C13.8166 27.6842 13.8075 27.6442 13.7907 27.6078C13.7739 27.5714 13.7498 27.5396 13.7202 27.5147C13.6906 27.4898 13.6563 27.4725 13.6197 27.464C13.5831 27.4555 13.5453 27.456 13.5089 27.4656C13.3566 27.5134 13.2099 27.5805 13.0718 27.6654C13.0388 27.6862 13.0107 27.7151 12.9898 27.7498C12.9688 27.7845 12.9555 27.824 12.951 27.8652C12.9464 27.9064 12.9508 27.9483 12.9636 27.9874C12.9764 28.0265 12.9975 28.0618 13.025 28.0905L13.5207 28.6304C13.6082 28.5607 13.71 28.5155 13.8173 28.4986V27.7249Z" fill="#2A2933"/>
<path d="M13.9353 26.4893C13.4335 26.4893 12.9431 26.6513 12.5259 26.9549C12.1087 27.2585 11.7836 27.6901 11.5915 28.195C11.3995 28.6999 11.3493 29.2555 11.4472 29.7915C11.5451 30.3274 11.7867 30.8198 12.1415 31.2062C12.4962 31.5927 12.9483 31.8558 13.4404 31.9624C13.9325 32.069 14.4425 32.0143 14.9061 31.8052C15.3696 31.5961 15.7658 31.2419 16.0446 30.7875C16.3233 30.3331 16.4721 29.7989 16.4721 29.2524C16.4721 28.5196 16.2048 27.8167 15.7291 27.2986C15.2533 26.7804 14.6081 26.4893 13.9353 26.4893ZM15.2154 30.6467C14.9621 30.9224 14.6395 31.1101 14.2884 31.1862C13.9372 31.2622 13.5732 31.2231 13.2424 31.0739C12.9116 30.9247 12.6288 30.672 12.4298 30.3478C12.2308 30.0236 12.1245 29.6424 12.1244 29.2524C12.113 28.9859 12.1514 28.7198 12.2371 28.4699C12.3229 28.2201 12.4543 27.9918 12.6234 27.7989C12.7925 27.6059 12.9958 27.4524 13.2209 27.3474C13.4461 27.2425 13.6884 27.1884 13.9333 27.1884C14.1782 27.1884 14.4206 27.2425 14.6457 27.3474C14.8709 27.4524 15.0741 27.6059 15.2432 27.7989C15.4123 27.9918 15.5437 28.2201 15.6295 28.4699C15.7153 28.7198 15.7537 28.9859 15.7423 29.2524C15.7414 29.7745 15.5522 30.2752 15.2154 30.6467Z" fill="white"/>
<path d="M15.0093 28.2547L14.5137 28.7946C14.5741 28.892 14.6153 29.002 14.6347 29.1177H15.3177C15.3553 29.1177 15.3924 29.1083 15.4262 29.0903C15.46 29.0722 15.4895 29.046 15.5125 29.0135C15.5355 28.9811 15.5514 28.9433 15.5589 28.9031C15.5664 28.863 15.5653 28.8215 15.5557 28.7818C15.5199 28.6189 15.4648 28.4617 15.3918 28.3142C15.3732 28.2792 15.3475 28.2492 15.3166 28.2265C15.2858 28.2038 15.2507 28.1891 15.2138 28.1834C15.177 28.1776 15.1395 28.1811 15.1041 28.1934C15.0686 28.2058 15.0362 28.2267 15.0093 28.2547Z" fill="#2A2933"/>
<path d="M12.8541 28.2593C12.8277 28.2293 12.7953 28.2064 12.7594 28.1924C12.7235 28.1784 12.6851 28.1737 12.6473 28.1787C12.6094 28.1836 12.5732 28.1981 12.5413 28.2209C12.5095 28.2438 12.483 28.2744 12.4638 28.3103C12.3852 28.4603 12.3236 28.6202 12.2804 28.7864C12.2716 28.826 12.2711 28.8672 12.2789 28.907C12.2868 28.9469 12.3027 28.9843 12.3255 29.0165C12.3484 29.0487 12.3776 29.075 12.411 29.0933C12.4444 29.1116 12.4811 29.1215 12.5185 29.1222H13.221C13.2383 29.006 13.2797 28.8955 13.342 28.7992L12.8541 28.2593Z" fill="#2A2933"/>
<path d="M12.5332 29.3779C12.4962 29.3788 12.4599 29.3887 12.4269 29.4067C12.3938 29.4248 12.3649 29.4506 12.3421 29.4823C12.3193 29.514 12.3033 29.5509 12.2952 29.5902C12.287 29.6295 12.287 29.6702 12.2951 29.7095C12.3376 29.876 12.3992 30.036 12.4786 30.1856C12.4971 30.2223 12.5234 30.2536 12.5552 30.277C12.5871 30.3004 12.6236 30.3152 12.6617 30.3202C12.6998 30.3251 12.7385 30.3202 12.7745 30.3056C12.8105 30.2911 12.8429 30.2675 12.8688 30.2366L13.3723 29.701C13.3106 29.6043 13.2693 29.494 13.2513 29.3779H12.5332Z" fill="#2A2933"/>
<path d="M14.0488 30.7765C14.0489 30.8171 14.0575 30.857 14.0738 30.8935C14.0902 30.9299 14.1139 30.9617 14.1432 30.9867C14.1725 31.0117 14.2067 31.0291 14.2431 31.0376C14.2794 31.0461 14.3171 31.0455 14.3532 31.0359C14.5065 30.9929 14.6536 30.9271 14.7904 30.8403C14.8234 30.8195 14.8514 30.7906 14.8724 30.7559C14.8934 30.7212 14.9067 30.6817 14.9112 30.6405C14.9158 30.5993 14.9114 30.5575 14.8986 30.5184C14.8857 30.4793 14.8647 30.4439 14.8372 30.4152L14.3454 29.8711C14.2573 29.9403 14.1559 29.9868 14.0488 30.0071V30.7765Z" fill="#2A2933"/>
<path d="M15.0132 30.2367C15.0396 30.2667 15.072 30.2895 15.1079 30.3035C15.1438 30.3175 15.1822 30.3222 15.2201 30.3173C15.2579 30.3123 15.2942 30.2979 15.326 30.275C15.3579 30.2522 15.3844 30.2216 15.4035 30.1857C15.4832 30.0367 15.5436 29.8765 15.583 29.7095C15.5927 29.6701 15.5939 29.6288 15.5864 29.5888C15.5789 29.5488 15.563 29.5113 15.5399 29.4791C15.5168 29.447 15.4872 29.4211 15.4534 29.4036C15.4195 29.386 15.3824 29.3772 15.345 29.378H14.6386C14.6199 29.4946 14.5772 29.605 14.5137 29.701L15.0132 30.2367Z" fill="#2A2933"/>
<path d="M13.025 30.4459C12.9975 30.4746 12.9764 30.5099 12.9636 30.549C12.9508 30.5881 12.9464 30.6299 12.951 30.6712C12.9555 30.7124 12.9688 30.7519 12.9898 30.7866C13.0107 30.8213 13.0388 30.8502 13.0718 30.871C13.2092 30.9563 13.3561 31.0221 13.5089 31.0665C13.5453 31.0761 13.5831 31.0766 13.6197 31.0681C13.6563 31.0596 13.6906 31.0423 13.7202 31.0174C13.7498 30.9925 13.7739 30.9607 13.7907 30.9243C13.8075 30.888 13.8166 30.8479 13.8173 30.8072V30.0208C13.7102 30.0005 13.6088 29.954 13.5207 29.8848L13.025 30.4459Z" fill="#2A2933"/>
<path d="M13.936 27.2804C13.6914 27.2681 13.447 27.3099 13.2176 27.4033C12.9882 27.4967 12.7786 27.6399 12.6015 27.824C12.4244 28.0082 12.2834 28.2296 12.187 28.4748C12.0907 28.7201 12.041 28.984 12.041 29.2508C12.041 29.5175 12.0907 29.7815 12.187 30.0267C12.2834 30.2719 12.4244 30.4933 12.6015 30.6775C12.7786 30.8617 12.9882 31.0048 13.2176 31.0983C13.447 31.1917 13.6914 31.2335 13.936 31.2211C14.1806 31.2335 14.425 31.1917 14.6544 31.0983C14.8837 31.0048 15.0933 30.8617 15.2705 30.6775C15.4476 30.4933 15.5886 30.2719 15.6849 30.0267C15.7813 29.7815 15.8309 29.5175 15.8309 29.2508C15.8309 28.984 15.7813 28.7201 15.6849 28.4748C15.5886 28.2296 15.4476 28.0082 15.2705 27.824C15.0933 27.6399 14.8837 27.4967 14.6544 27.4033C14.425 27.3099 14.1806 27.2681 13.936 27.2804ZM15.5752 28.7895C15.5847 28.8292 15.5858 28.8707 15.5783 28.9109C15.5708 28.951 15.555 28.9888 15.532 29.0212C15.509 29.0537 15.4794 29.0799 15.4456 29.098C15.4119 29.116 15.3747 29.1254 15.3371 29.1254H14.6385C14.6406 29.1678 14.6406 29.2104 14.6385 29.2529C14.6385 29.2954 14.6385 29.3379 14.6385 29.3804H15.3215C15.3589 29.3797 15.396 29.3885 15.4299 29.406C15.4637 29.4236 15.4933 29.4494 15.5164 29.4816C15.5395 29.5137 15.5554 29.5513 15.5629 29.5913C15.5704 29.6312 15.5692 29.6726 15.5596 29.712C15.5201 29.879 15.4597 30.0392 15.38 30.1881C15.3609 30.224 15.3344 30.2546 15.3025 30.2775C15.2707 30.3003 15.2344 30.3148 15.1966 30.3197C15.1587 30.3247 15.1203 30.32 15.0844 30.306C15.0485 30.292 15.0161 30.2691 14.9897 30.2391L14.4902 29.7035C14.4447 29.7722 14.3893 29.8325 14.3263 29.882L14.8414 30.4474C14.869 30.4761 14.89 30.5115 14.9028 30.5506C14.9157 30.5897 14.92 30.6315 14.9155 30.6727C14.9109 30.7139 14.8976 30.7535 14.8767 30.7881C14.8557 30.8228 14.8276 30.8517 14.7946 30.8725C14.6579 30.9593 14.5108 31.0251 14.3575 31.0681C14.3213 31.0777 14.2837 31.0783 14.2473 31.0698C14.2109 31.0613 14.1768 31.0439 14.1475 31.0189C14.1182 30.9939 14.0944 30.9621 14.0781 30.9257C14.0617 30.8893 14.0532 30.8493 14.0531 30.8088V30.0223H13.936H13.8189V30.7832C13.8182 30.824 13.8091 30.864 13.7923 30.9004C13.7755 30.9367 13.7514 30.9685 13.7218 30.9934C13.6922 31.0183 13.6579 31.0356 13.6213 31.0441C13.5848 31.0527 13.5469 31.0521 13.5106 31.0426C13.3578 30.9981 13.2108 30.9324 13.0735 30.847C13.0405 30.8262 13.0124 30.7973 12.9914 30.7626C12.9704 30.7279 12.9571 30.6884 12.9526 30.6472C12.9481 30.606 12.9524 30.5642 12.9652 30.5251C12.9781 30.486 12.9991 30.4506 13.0266 30.4219L13.5223 29.8778C13.4571 29.8295 13.4003 29.769 13.3545 29.6992L12.8588 30.2391C12.8328 30.27 12.8005 30.2936 12.7645 30.3081C12.7285 30.3227 12.6898 30.3276 12.6516 30.3227C12.6135 30.3177 12.577 30.3029 12.5452 30.2795C12.5133 30.2561 12.487 30.2248 12.4685 30.1881C12.3892 30.0385 12.3275 29.8785 12.2851 29.712C12.277 29.6727 12.277 29.6319 12.2851 29.5927C12.2932 29.5534 12.3093 29.5165 12.332 29.4848C12.3548 29.4531 12.3838 29.4273 12.4168 29.4092C12.4499 29.3912 12.4862 29.3813 12.5232 29.3804H13.2257C13.2218 29.338 13.2218 29.2953 13.2257 29.2529C13.2216 29.2105 13.2216 29.1678 13.2257 29.1254H12.531C12.4936 29.1246 12.4568 29.1147 12.4234 29.0964C12.39 29.0781 12.3608 29.0519 12.338 29.0196C12.3151 28.9874 12.2992 28.95 12.2914 28.9102C12.2836 28.8703 12.2841 28.8291 12.2929 28.7895C12.3366 28.6262 12.3982 28.4692 12.4763 28.3219C12.4954 28.286 12.522 28.2554 12.5538 28.2326C12.5856 28.2097 12.6219 28.1952 12.6598 28.1903C12.6976 28.1854 12.736 28.1901 12.7719 28.2041C12.8078 28.218 12.8402 28.2409 12.8666 28.2709L13.3701 28.8023C13.4171 28.7324 13.4737 28.6708 13.5379 28.6195L13.0422 28.0796C13.0147 28.0509 12.9937 28.0156 12.9808 27.9765C12.968 27.9374 12.9637 27.8956 12.9682 27.8543C12.9727 27.8131 12.986 27.7736 13.007 27.7389C13.028 27.7042 13.0561 27.6754 13.0891 27.6545C13.2229 27.5767 13.3643 27.5154 13.5106 27.4717C13.5469 27.4622 13.5848 27.4616 13.6213 27.4701C13.6579 27.4787 13.6922 27.496 13.7218 27.5209C13.7514 27.5458 13.7755 27.5776 13.7923 27.6139C13.8091 27.6503 13.8182 27.6903 13.8189 27.731V28.4962C13.8962 28.4792 13.9758 28.4792 14.0531 28.4962V27.731C14.0532 27.6905 14.0617 27.6505 14.0781 27.6141C14.0944 27.5777 14.1182 27.5459 14.1475 27.5209C14.1768 27.4959 14.2109 27.4785 14.2473 27.47C14.2837 27.4615 14.3213 27.4621 14.3575 27.4717C14.5103 27.518 14.6572 27.5851 14.7946 27.6715C14.8282 27.6917 14.857 27.7203 14.8785 27.755C14.9 27.7897 14.9135 27.8295 14.9181 27.871C14.9227 27.9125 14.9181 27.9547 14.9048 27.9939C14.8915 28.0331 14.8697 28.0684 14.8414 28.0966L14.3497 28.6195C14.4138 28.6708 14.4704 28.7324 14.5175 28.8023L15.0132 28.2624C15.0395 28.2324 15.072 28.2095 15.1078 28.1956C15.1437 28.1816 15.1821 28.1768 15.22 28.1818C15.2578 28.1867 15.2941 28.2012 15.326 28.2241C15.3578 28.2469 15.3843 28.2775 15.4034 28.3134C15.4797 28.4632 15.5375 28.6233 15.5752 28.7895Z" fill="#F6FBF7"/>
<path d="M14.495 28.8225C14.4489 28.7502 14.3907 28.6882 14.3233 28.6397L14.3506 28.6142C14.2631 28.5445 14.1613 28.4993 14.054 28.4824V28.5164C14.0151 28.5118 13.9758 28.5118 13.9369 28.5164C13.898 28.512 13.8587 28.512 13.8198 28.5164V28.4824C13.7125 28.4993 13.6107 28.5445 13.5232 28.6142H13.5466C13.48 28.6655 13.422 28.7287 13.3749 28.8012V28.7757C13.3126 28.8721 13.2713 28.9825 13.2539 29.0988H13.2851C13.2696 29.183 13.2696 29.2697 13.2851 29.3539H13.2539C13.2719 29.47 13.3132 29.5803 13.3749 29.6769L13.3983 29.6472C13.4428 29.7206 13.4998 29.7841 13.5661 29.8342L13.5427 29.8555C13.6309 29.9247 13.7323 29.9712 13.8393 29.9915V29.949C13.8781 29.9554 13.9176 29.9554 13.9564 29.949C13.9952 29.9554 14.0347 29.9554 14.0735 29.949V30.017C14.1805 29.9967 14.282 29.9502 14.3701 29.881L14.3428 29.8512C14.4105 29.8065 14.4679 29.7454 14.5106 29.6727L14.534 29.7025C14.5976 29.6064 14.6403 29.496 14.6589 29.3794H14.6238C14.6394 29.2952 14.6394 29.2085 14.6238 29.1243H14.6589C14.6395 29.0087 14.5983 28.8987 14.5379 28.8012L14.495 28.8225Z" fill="#F6FBF7"/>
<path d="M13.5484 28.6357H13.525C13.4609 28.6869 13.4044 28.7485 13.3574 28.8183V28.8437C13.4084 28.7619 13.4732 28.6913 13.5484 28.6357Z" fill="#F6FBF7"/>
<path d="M13.2569 29.2533C13.2526 29.211 13.2526 29.1683 13.2569 29.126H13.2257C13.2216 29.1683 13.2216 29.211 13.2257 29.2533C13.2219 29.2957 13.2219 29.3383 13.2257 29.3807H13.2569C13.2526 29.3383 13.2526 29.2956 13.2569 29.2533Z" fill="#F6FBF7"/>
<path d="M13.373 29.6758L13.3496 29.7055C13.3954 29.7752 13.4522 29.8355 13.5172 29.8838L13.5406 29.8626C13.4743 29.8124 13.4175 29.7491 13.373 29.6758Z" fill="#F6FBF7"/>
<path d="M13.9314 28.5057C13.9702 28.5011 14.0094 28.5011 14.0483 28.5057V28.4718C13.9711 28.4547 13.8916 28.4547 13.8145 28.4718V28.5057C13.8533 28.5013 13.8925 28.5013 13.9314 28.5057Z" fill="#F6FBF7"/>
<path d="M13.9314 29.9873C13.8926 29.9937 13.8532 29.9937 13.8145 29.9873V30.0171H13.9314H14.0483V29.9746C14.0101 29.9853 13.9707 29.9896 13.9314 29.9873Z" fill="#F6FBF7"/>
<path d="M14.3203 29.8541L14.3476 29.8838C14.4106 29.8343 14.4658 29.7741 14.5113 29.7055L14.4879 29.6758C14.4453 29.7484 14.3879 29.8093 14.3203 29.8541Z" fill="#F6FBF7"/>
<path d="M14.4918 28.8301L14.5152 28.8046C14.4682 28.7348 14.4117 28.6733 14.3476 28.6221L14.3203 28.6475C14.3876 28.696 14.4458 28.7579 14.4918 28.8301Z" fill="#F6FBF7"/>
<path d="M14.623 29.2533C14.6273 29.2956 14.6273 29.3383 14.623 29.3807H14.6581C14.6581 29.3382 14.6581 29.2958 14.6581 29.2533C14.6602 29.2109 14.6602 29.1684 14.6581 29.126H14.623C14.6273 29.1683 14.6273 29.211 14.623 29.2533Z" fill="#F6FBF7"/>
<path d="M34.9759 28.0775C35.0042 28.0492 35.0259 28.014 35.0392 27.9748C35.0526 27.9355 35.0571 27.8934 35.0526 27.8519C35.048 27.8103 35.0344 27.7706 35.0129 27.7359C34.9914 27.7012 34.9627 27.6726 34.929 27.6524C34.7909 27.5719 34.644 27.5105 34.4919 27.4696C34.4558 27.46 34.4181 27.4594 34.3817 27.4679C34.3453 27.4764 34.3112 27.4938 34.2819 27.5188C34.2526 27.5437 34.2289 27.5756 34.2125 27.612C34.1962 27.6484 34.1876 27.6884 34.1875 27.7289V28.4941C34.2948 28.511 34.3966 28.5562 34.4841 28.6259L34.9759 28.0775Z" fill="#2A2933"/>
<path d="M33.9599 27.7201C33.9576 27.6823 33.9481 27.6454 33.932 27.6119C33.9159 27.5783 33.8935 27.5488 33.8663 27.5252C33.8391 27.5015 33.8077 27.4844 33.7741 27.4748C33.7405 27.4651 33.7054 27.4633 33.6711 27.4693C33.5184 27.5163 33.3716 27.5834 33.2339 27.6691C33.2009 27.6899 33.1729 27.7188 33.1519 27.7534C33.1309 27.7881 33.1176 27.8276 33.1131 27.8689C33.1085 27.9101 33.1129 27.9519 33.1257 27.991C33.1386 28.0301 33.1596 28.0654 33.1871 28.0941L33.6711 28.617C33.7586 28.5474 33.8604 28.5021 33.9677 28.4852L33.9599 27.7201Z" fill="#2A2933"/>
<path d="M35.4836 29.1176C35.521 29.1169 35.5578 29.107 35.5912 29.0887C35.6246 29.0704 35.6538 29.0441 35.6766 29.0119C35.6995 28.9797 35.7154 28.9423 35.7232 28.9024C35.731 28.8626 35.7305 28.8214 35.7217 28.7818C35.6809 28.6181 35.6206 28.4608 35.5422 28.3142C35.5231 28.2783 35.4965 28.2477 35.4647 28.2248C35.4329 28.202 35.3966 28.1875 35.3587 28.1826C35.3209 28.1776 35.2825 28.1823 35.2466 28.1963C35.2107 28.2103 35.1783 28.2332 35.1519 28.2632L34.6523 28.8031C34.7159 28.8991 34.7586 29.0095 34.7772 29.1261L35.4836 29.1176Z" fill="#2A2933"/>
<path d="M34.6246 28.8301V28.8046C34.5803 28.7338 34.5248 28.672 34.4609 28.6221L34.4336 28.6475C34.5079 28.6938 34.5728 28.7558 34.6246 28.8301Z" fill="#F6FBF7"/>
<path d="M35.1578 30.2366C35.1841 30.2666 35.2166 30.2895 35.2525 30.3035C35.2884 30.3175 35.3267 30.3222 35.3646 30.3172C35.4025 30.3123 35.4387 30.2978 35.4706 30.275C35.5024 30.2521 35.5289 30.2215 35.5481 30.1856C35.6278 30.0367 35.6882 29.8765 35.7276 29.7095C35.7364 29.6701 35.737 29.6291 35.7292 29.5895C35.7213 29.5499 35.7054 29.5127 35.6825 29.4808C35.6595 29.4488 35.6303 29.423 35.5968 29.4052C35.5634 29.3874 35.5267 29.3781 35.4895 29.3779H34.7831C34.7644 29.4945 34.7217 29.605 34.6582 29.701L35.1578 30.2366Z" fill="#2A2933"/>
<path d="M33.2677 30.4459C33.2403 30.4749 33.2195 30.5105 33.207 30.5498C33.1945 30.5891 33.1905 30.631 33.1954 30.6723C33.2003 30.7135 33.214 30.753 33.2354 30.7875C33.2567 30.8219 33.2852 30.8505 33.3184 30.871C33.4555 30.957 33.6025 31.0228 33.7555 31.0665C33.7919 31.0761 33.8297 31.0766 33.8663 31.0681C33.9028 31.0596 33.9372 31.0423 33.9668 31.0174C33.9964 30.9925 34.0205 30.9607 34.0373 30.9243C34.0541 30.888 34.0631 30.8479 34.0639 30.8072V30.0208C33.9568 30.0005 33.8554 29.954 33.7672 29.8848L33.2677 30.4459Z" fill="#2A2933"/>
<path d="M34.2988 30.7765C34.2991 30.8166 34.3076 30.8561 34.3237 30.8921C34.3398 30.9282 34.3632 30.9598 34.392 30.9847C34.4209 31.0096 34.4545 31.0271 34.4903 31.0359C34.5262 31.0448 34.5635 31.0448 34.5993 31.0359C34.7539 30.9929 34.9023 30.9271 35.0404 30.8403C35.0734 30.8195 35.1014 30.7906 35.1224 30.7559C35.1434 30.7212 35.1567 30.6817 35.1612 30.6405C35.1658 30.5993 35.1614 30.5575 35.1486 30.5184C35.1357 30.4793 35.1147 30.4439 35.0872 30.4152L34.5954 29.8711C34.5073 29.9403 34.4059 29.9868 34.2988 30.0071V30.7765Z" fill="#2A2933"/>
<path d="M32.7704 29.1222H33.4768C33.4927 29.0062 33.5328 28.8957 33.5939 28.7992L33.1022 28.2593C33.0758 28.2293 33.0434 28.2064 33.0075 28.1924C32.9716 28.1784 32.9332 28.1737 32.8953 28.1787C32.8575 28.1836 32.8212 28.1981 32.7894 28.2209C32.7575 28.2438 32.731 28.2744 32.7119 28.3103C32.6332 28.4603 32.5716 28.6202 32.5284 28.7864C32.5196 28.8263 32.5192 28.8679 32.5272 28.9081C32.5352 28.9482 32.5515 28.9858 32.5748 29.0181C32.5981 29.0505 32.6278 29.0766 32.6616 29.0946C32.6955 29.1127 32.7327 29.1221 32.7704 29.1222Z" fill="#2A2933"/>
<path d="M32.7842 29.3779C32.7473 29.3787 32.7111 29.3885 32.6782 29.4066C32.6452 29.4246 32.6164 29.4506 32.594 29.4824C32.5715 29.5142 32.5558 29.5512 32.5482 29.5905C32.5406 29.6298 32.5413 29.6705 32.5501 29.7095C32.5925 29.876 32.6542 30.036 32.7335 30.1856C32.752 30.2223 32.7783 30.2536 32.8101 30.277C32.842 30.3004 32.8785 30.3152 32.9166 30.3202C32.9547 30.3251 32.9934 30.3202 33.0295 30.3056C33.0655 30.2911 33.0978 30.2675 33.1238 30.2366L33.6194 29.701C33.5562 29.6053 33.5147 29.4945 33.4984 29.3779H32.7842Z" fill="#2A2933"/>
<path d="M31.7031 28.5722C31.6512 28.7931 31.625 29.0202 31.625 29.2481C31.6247 29.7896 31.7705 30.3193 32.0442 30.7713C32.318 31.2233 32.7076 31.5778 33.1648 31.7906C33.6219 32.0034 34.1264 32.0653 34.6155 31.9684C35.1047 31.8716 35.5569 31.6203 35.916 31.2459C36.2752 30.8714 36.5254 30.3903 36.6356 29.8623C36.7458 29.3343 36.7111 28.7826 36.5359 28.2759C36.3606 27.7691 36.0525 27.3296 35.6499 27.012C35.2473 26.6944 34.7678 26.5126 34.2711 26.4893C33.7017 26.5202 33.1536 26.7347 32.6964 27.1056C32.2392 27.4764 31.8934 27.9869 31.7031 28.5722ZM34.1618 27.2757C34.5187 27.2774 34.8672 27.3941 35.1632 27.6112C35.4593 27.8283 35.6897 28.136 35.8253 28.4956C35.961 28.8551 35.9959 29.2504 35.9257 29.6315C35.8554 30.0126 35.683 30.3625 35.4304 30.6371C35.1778 30.9117 34.8561 31.0986 34.5061 31.1744C34.156 31.2501 33.7932 31.2112 33.4634 31.0627C33.1336 30.9141 32.8516 30.6625 32.6529 30.3396C32.4542 30.0166 32.3478 29.6369 32.347 29.2481C32.3491 28.725 32.5411 28.2239 32.8811 27.8544C33.2211 27.4848 33.6815 27.2768 34.1618 27.2757Z" fill="white"/>
<path d="M32.9119 30.6451C33.1651 30.9211 33.4878 31.109 33.8391 31.1852C34.1904 31.2614 34.5546 31.2224 34.8855 31.0732C35.2165 30.9239 35.4994 30.6711 35.6984 30.3467C35.8974 30.0223 36.0037 29.6409 36.0037 29.2508C36.0037 28.8606 35.8974 28.4792 35.6984 28.1548C35.4994 27.8304 35.2165 27.5776 34.8855 27.4284C34.5546 27.2791 34.1904 27.2401 33.8391 27.3163C33.4878 27.3925 33.1651 27.5805 32.9119 27.8565C32.7424 28.0387 32.6079 28.2558 32.5161 28.4952C32.4242 28.7345 32.377 28.9914 32.377 29.2508C32.377 29.5102 32.4242 29.767 32.5161 30.0063C32.6079 30.2457 32.7424 30.4628 32.9119 30.6451ZM32.5489 28.7874C32.5927 28.6241 32.6542 28.4671 32.7323 28.3198C32.7515 28.2839 32.778 28.2533 32.8098 28.2304C32.8417 28.2076 32.8779 28.1931 32.9158 28.1882C32.9536 28.1832 32.992 28.1879 33.0279 28.2019C33.0638 28.2159 33.0963 28.2388 33.1226 28.2688L33.6144 28.8087C33.6616 28.7375 33.7197 28.6756 33.7861 28.6259L33.2826 28.0775C33.2553 28.0485 33.2345 28.0129 33.222 27.9736C33.2094 27.9343 33.2055 27.8924 33.2104 27.8511C33.2153 27.8099 33.229 27.7704 33.2503 27.7359C33.2717 27.7015 33.3001 27.6728 33.3334 27.6524C33.4706 27.5729 33.616 27.5115 33.7666 27.4696C33.8029 27.4601 33.8408 27.4595 33.8773 27.468C33.9139 27.4765 33.9482 27.4939 33.9778 27.5187C34.0074 27.5436 34.0315 27.5754 34.0483 27.6118C34.0651 27.6482 34.0742 27.6882 34.0749 27.7289V28.4941C34.1138 28.4895 34.1531 28.4895 34.192 28.4941C34.2309 28.4899 34.2702 28.4899 34.3091 28.4941V27.7289C34.3093 27.6889 34.3178 27.6493 34.334 27.6133C34.3501 27.5773 34.3734 27.5457 34.4023 27.5208C34.4311 27.4959 34.4647 27.4784 34.5006 27.4695C34.5365 27.4607 34.5737 27.4607 34.6096 27.4696C34.7637 27.5159 34.9119 27.583 35.0506 27.6694C35.0843 27.6896 35.113 27.7182 35.1345 27.7529C35.156 27.7876 35.1696 27.8273 35.1741 27.8689C35.1787 27.9104 35.1742 27.9525 35.1608 27.9918C35.1475 28.031 35.1258 28.0662 35.0975 28.0945L34.6018 28.6174C34.6671 28.6672 34.7238 28.7291 34.7696 28.8002L35.2692 28.2603C35.2956 28.2303 35.328 28.2074 35.3639 28.1934C35.3998 28.1794 35.4382 28.1747 35.476 28.1797C35.5139 28.1846 35.5502 28.1991 35.582 28.2219C35.6138 28.2448 35.6404 28.2754 35.6595 28.3113C35.7385 28.4606 35.7989 28.6207 35.839 28.7874C35.8478 28.827 35.8483 28.8682 35.8405 28.908C35.8327 28.9479 35.8167 28.9853 35.7939 29.0175C35.771 29.0497 35.7418 29.076 35.7084 29.0943C35.675 29.1126 35.6383 29.1225 35.6009 29.1232H34.8984C34.9025 29.1656 34.9025 29.2084 34.8984 29.2508C34.9023 29.2932 34.9023 29.3359 34.8984 29.3783H35.6009C35.6381 29.3784 35.6748 29.3877 35.7083 29.4056C35.7417 29.4234 35.771 29.4492 35.7939 29.4811C35.8168 29.5131 35.8328 29.5502 35.8406 29.5899C35.8484 29.6295 35.8479 29.6705 35.839 29.7099C35.7996 29.8768 35.7392 30.0371 35.6595 30.186C35.6404 30.2219 35.6138 30.2525 35.582 30.2754C35.5502 30.2982 35.5139 30.3127 35.476 30.3176C35.4382 30.3226 35.3998 30.3179 35.3639 30.3039C35.328 30.2899 35.2956 30.267 35.2692 30.237L34.7696 29.7014C34.7231 29.7691 34.6679 29.8292 34.6057 29.8799L35.0975 30.4453C35.125 30.474 35.146 30.5093 35.1589 30.5484C35.1717 30.5875 35.176 30.6293 35.1715 30.6706C35.1669 30.7118 35.1537 30.7513 35.1327 30.786C35.1117 30.8207 35.0836 30.8496 35.0506 30.8704C34.9125 30.9572 34.7641 31.023 34.6096 31.0659C34.5737 31.0748 34.5365 31.0749 34.5006 31.066C34.4647 31.0571 34.4311 31.0396 34.4023 31.0147C34.3734 30.9899 34.3501 30.9582 34.334 30.9222C34.3178 30.8862 34.3093 30.8467 34.3091 30.8066V30.0202H34.192C34.153 30.0227 34.1139 30.0227 34.0749 30.0202V30.7811C34.0742 30.8218 34.0651 30.8619 34.0483 30.8982C34.0315 30.9346 34.0074 30.9664 33.9778 30.9913C33.9482 31.0162 33.9139 31.0335 33.8773 31.042C33.8408 31.0505 33.8029 31.05 33.7666 31.0404C33.6136 30.9967 33.4666 30.9309 33.3295 30.8449C33.3004 30.8236 33.2759 30.7958 33.2575 30.7633C33.2391 30.7308 33.2273 30.6945 33.2229 30.6567C33.2185 30.6188 33.2215 30.5804 33.2318 30.5439C33.2421 30.5075 33.2594 30.4739 33.2826 30.4453L33.7822 29.9012C33.7171 29.8528 33.6603 29.7924 33.6144 29.7226L33.1187 30.2583C33.0928 30.2891 33.0604 30.3127 33.0244 30.3273C32.9884 30.3418 32.9497 30.3468 32.9116 30.3418C32.8734 30.3368 32.8369 30.322 32.8051 30.2986C32.7732 30.2752 32.747 30.2439 32.7284 30.2072C32.6491 30.0576 32.5875 29.8976 32.545 29.7311C32.5362 29.6921 32.5356 29.6514 32.5432 29.6121C32.5508 29.5728 32.5664 29.5359 32.5889 29.504C32.6114 29.4722 32.6402 29.4463 32.6731 29.4282C32.7061 29.4101 32.7423 29.4003 32.7792 29.3996H33.4856C33.4818 29.3571 33.4818 29.3144 33.4856 29.272C33.4815 29.2296 33.4815 29.1869 33.4856 29.1445H32.7831C32.7439 29.144 32.7053 29.1334 32.6705 29.1136C32.6357 29.0938 32.6057 29.0654 32.5829 29.0306C32.5601 28.9958 32.5452 28.9557 32.5392 28.9134C32.5333 28.8712 32.5366 28.828 32.5489 28.7874Z" fill="#F6FBF7"/>
<path d="M33.5058 29.1227C33.4851 29.2062 33.4851 29.2942 33.5058 29.3777H33.4746C33.4908 29.4943 33.5323 29.6051 33.5956 29.7008L33.619 29.671C33.6633 29.7433 33.7187 29.8066 33.7829 29.8581V29.8793C33.8615 29.9456 33.9519 29.9934 34.0483 30.0196V29.9771C34.0871 29.9835 34.1266 29.9835 34.1654 29.9771C34.2042 29.9835 34.2437 29.9835 34.2825 29.9771V30.0196C34.3895 29.9993 34.491 29.9528 34.5791 29.8836L34.5518 29.8538C34.6183 29.8089 34.6744 29.7478 34.7157 29.6753L34.743 29.705C34.807 29.6097 34.8485 29.4988 34.864 29.382H34.8289C34.8496 29.2984 34.8496 29.2104 34.8289 29.1269H34.864C34.8485 29.0101 34.807 28.8991 34.743 28.8038V28.8293C34.6959 28.7581 34.6378 28.6962 34.5713 28.6465L34.5947 28.621C34.5086 28.5516 34.408 28.5063 34.302 28.4893V28.5233C34.2631 28.5189 34.2238 28.5189 34.1849 28.5233C34.146 28.5187 34.1067 28.5187 34.0678 28.5233V28.4893C33.9606 28.5061 33.8587 28.5514 33.7712 28.621C33.7068 28.6736 33.6501 28.7367 33.6034 28.8081L33.58 28.7826C33.5188 28.8791 33.4788 28.9896 33.4629 29.1056L33.5058 29.1227Z" fill="#F6FBF7"/>
<path d="M34.1814 29.9873C34.1426 29.9937 34.1032 29.9937 34.0645 29.9873V30.0171C34.1034 30.0196 34.1424 30.0196 34.1814 30.0171H34.2983V29.9746C34.2601 29.9853 34.2207 29.9896 34.1814 29.9873Z" fill="#F6FBF7"/>
<path d="M33.4971 29.2533C33.4928 29.211 33.4928 29.1683 33.4971 29.126H33.4659C33.4619 29.1683 33.4619 29.211 33.4659 29.2533C33.4621 29.2957 33.4621 29.3383 33.4659 29.3807H33.4971C33.4928 29.3383 33.4928 29.2956 33.4971 29.2533Z" fill="#F6FBF7"/>
<path d="M33.6308 29.6758L33.6074 29.7055C33.6532 29.7752 33.71 29.8355 33.775 29.8838V29.8626C33.7179 29.8093 33.6691 29.7462 33.6308 29.6758Z" fill="#F6FBF7"/>
<path d="M34.5703 29.8541L34.5976 29.8838C34.6597 29.8331 34.7148 29.7731 34.7613 29.7055L34.734 29.6758C34.6928 29.7482 34.6368 29.8092 34.5703 29.8541Z" fill="#F6FBF7"/>
<path d="M33.6675 28.6357H33.6441C33.579 28.6855 33.5223 28.7473 33.4766 28.8183L33.496 28.8437C33.5413 28.7637 33.5993 28.6933 33.6675 28.6357Z" fill="#F6FBF7"/>
<path d="M34.0486 28.5128C34.0874 28.5083 34.1266 28.5083 34.1655 28.5128V28.4789C34.1266 28.4747 34.0874 28.4747 34.0486 28.4789C34.0097 28.4745 33.9705 28.4745 33.9316 28.4789V28.5128C33.9705 28.5083 34.0097 28.5083 34.0486 28.5128Z" fill="#F6FBF7"/>
<path d="M34.7363 29.2533C34.7405 29.2956 34.7405 29.3383 34.7363 29.3807H34.7714C34.7714 29.3382 34.7714 29.2958 34.7714 29.2533C34.7735 29.2109 34.7735 29.1684 34.7714 29.126H34.7363C34.7405 29.1683 34.7405 29.211 34.7363 29.2533Z" fill="#F6FBF7"/>
<path d="M36.6012 23.217L35.8987 22.8982L34.8879 21.5166L35.7465 21.0915C35.4552 20.5458 35.1181 20.0307 34.7396 19.5526C33.8449 18.424 32.5887 17.7094 31.227 17.5547L28.9361 17.2656C28.9948 17.4467 29.0443 17.6312 29.0844 17.8183H29.1351C29.1351 17.8183 31.4105 17.9245 32.874 18.813C34.3376 19.7014 30.466 21.5761 30.466 21.5761H29.2756C29.1702 23.0943 28.9614 24.6019 28.6512 26.0864C28.5136 26.7582 28.1699 27.3588 27.6768 27.7893C27.1837 28.2197 26.5706 28.4543 25.9387 28.4542H18.4414C18.4414 28.4542 16.6266 24.1012 17.3096 19.8672L14.9913 21.5931L11.4397 23.7101C10.931 24.0122 10.4998 24.4482 10.1855 24.9783C9.87125 25.5085 9.68387 26.116 9.64049 26.7453L9.48828 29.0153L10.6591 29.653V29.1046C10.6591 28.2026 10.9881 27.3376 11.5736 26.6999C12.1592 26.0621 12.9533 25.7038 13.7814 25.7038H13.8438C14.6719 25.7038 15.4661 26.0621 16.0516 26.6999C16.6372 27.3376 16.9661 28.2026 16.9661 29.1046V29.653H31.4417V29.6232C31.4428 29.2654 31.4995 28.9104 31.6095 28.5732C31.747 27.9797 32.0615 27.4527 32.5037 27.0749C32.9459 26.6971 33.4907 26.49 34.0527 26.486H34.5913C34.8675 26.486 35.1411 26.5452 35.3963 26.6604C35.6515 26.7755 35.8834 26.9443 36.0788 27.1571C36.2741 27.3698 36.4291 27.6224 36.5348 27.9004C36.6405 28.1784 36.6949 28.4764 36.6949 28.7773V28.8028C36.8296 28.8023 36.9625 28.7686 37.0835 28.7043C37.2046 28.64 37.3108 28.5467 37.3941 28.4314C37.4774 28.3162 37.5357 28.1819 37.5647 28.0386C37.5937 27.8953 37.5925 27.7467 37.5613 27.604L37.3155 26.486L36.7261 23.8079C36.7066 23.6038 36.6559 23.404 36.6012 23.217Z" fill="white"/>
<path d="M24.3824 16.7571C22.7659 16.578 21.1435 17.03 19.8044 18.0324L19.4414 18.3045C20.784 17.297 22.7666 16.5743 24.3824 16.7571Z" fill="white"/>
<path d="M31.6113 28.5722C31.8024 27.9866 32.1488 27.476 32.6067 27.1051C33.0647 26.7343 33.6134 26.5199 34.1833 26.4893H34.0545C33.493 26.493 32.9486 26.6996 32.5065 27.0765C32.0643 27.4534 31.7495 27.9795 31.6113 28.5722Z" fill="white"/>
<path d="M18.4608 28.4602H25.9583C26.5903 28.4603 27.2034 28.2258 27.6965 27.7955C28.1896 27.3651 28.5333 26.7646 28.6709 26.093C28.9812 24.6087 29.1899 23.1015 29.2954 21.5837L17.4773 21.7452C17.9914 20.5439 18.7957 19.5174 19.8042 18.7755C20.8128 18.0336 21.9875 17.6043 23.2029 17.5334C25.1734 17.4875 27.1445 17.5797 29.1041 17.8096C29.064 17.6226 29.0145 17.4382 28.9558 17.2571L24.4011 16.7471C22.7853 16.5644 20.8026 17.2869 19.4599 18.2856L17.3211 19.8751C16.6381 24.1082 18.4608 28.4602 18.4608 28.4602Z" fill="white"/>
<path d="M18.8379 20.8854C19.3532 20.1436 20.0125 19.5349 20.7688 19.1029C21.5251 18.6708 22.3597 18.4259 23.213 18.3859C23.5174 18.3859 23.8608 18.3604 24.2355 18.3604C25.7732 18.3604 27.5256 18.5134 28.4193 18.6027C28.474 18.9767 26.3118 19.0788 24.5165 19.1C22.9864 19.1276 21.4801 19.5178 20.1024 20.2435L18.8379 20.8854Z" fill="white"/>
<path d="M35.8956 22.8828L36.5981 23.2017C36.3868 22.4607 36.1002 21.7477 35.7434 21.0762L34.8848 21.5013L35.8956 22.8828Z" fill="white"/>
<path d="M23.1474 24.7627L21.918 27.8957L24.6851 24.7627H23.3425H23.1474Z" fill="#F25E53"/>
<path d="M22.86 25.5451L24.0894 22.4121L21.3262 25.5451H22.6648H22.86Z" fill="#F25E53"/>
<defs>
<linearGradient id="paint0_linear_674_2" x1="24.0074" y1="0.892578" x2="24.0074" y2="48.9075" gradientUnits="userSpaceOnUse">
<stop stop-color="#F4815A"/>
<stop offset="1" stop-color="#F25E53"/>
</linearGradient>
</defs>
</svg>
