<svg xmlns="http://www.w3.org/2000/svg" width="40" height="40" fill="none"><circle cx="19.563" cy="20.047" r="19.563" fill="url(#a)"/><path fill="#fff" d="M10.354 20.375a8.004 8.004 0 0 1 14.394-4.829l-.105-1.057a8.59 8.59 0 1 0-6.274 14.498h.46l-.58-.605a8.02 8.02 0 0 1-7.895-8.007"/><path fill="#fff" d="M18.36 12.808a7.563 7.563 0 0 0-.617 15.092l-.34-.336a7.267 7.267 0 1 1 7.223-10.869l.224-.037v-.194a7.56 7.56 0 0 0-6.49-3.656"/><path fill="#fff" d="M18.006 13.552v5.923a1 1 0 0 0-.153.078l-3.53-1.213-.4 1.161 3.538 1.218a.967.967 0 1 0 1.266-1.244v-5.923zm11.476 13.401-.333-.022h-.026l-1.464-2.637-.205-.34-.299-.467-.687-.164-.587-.153-.444-.124-.288-.074h-.074l.209-.344.523-.885.556-.937.598-1.001 1.143-1.92-1.095-.183-.205-.037-.28-.045-.684-.116-.272-.06-.206.038-.298.052-4.247.747-.269 1.598 3.9-.5-2.462 3.107-.478.56-3.313 3.29-.508.236 1.05 1.038.288.284.407.404.205.201.28-.276.25-.247a.9.9 0 0 0-.284-.201 2 2 0 0 0-.238-.086l-.056-.16-.05-.15 3.093-3.19 1.666.374.321.07.463.102.639.142.153.033 1.823 2.872.03.56 3.137-1.34s-.661-1.013-1.382-.049M25.681 15.83l.135 1.321.582.098.116.022 1.494-.127.13-.77.89-.115-.99-1.98.657-.534.008-.94-.486-.479.101.527-.467.299-2.517.366.187.675z"/><path fill="#fff" d="m28.174 18.329-.84 1.39 1.296 1.613.478.082 2.435-1.442-.187-1.665-2.345 1.236z"/><defs><linearGradient id="a" x1="19.563" x2="19.563" y1=".484" y2="39.61" gradientUnits="userSpaceOnUse"><stop stop-color="#F4815A"/><stop offset="1" stop-color="#F25E53"/></linearGradient></defs></svg>