<svg xmlns="http://www.w3.org/2000/svg" width="40" height="40" fill="none"><circle cx="19.563" cy="20.049" r="19.563" fill="url(#a)"/><g style="mix-blend-mode:multiply"><path fill="#FCFCFC" d="M31.082 27.979c0 1.258-10.027 1.646-16.711 1.23-3.992-.256-5.34-.767-5.34-1.23s1.36-.982 5.34-1.23c6.684-.42 16.71-.028 16.71 1.23" opacity=".05"/><path fill="#FAFAFA" d="M30.643 27.981c0 1.2-9.58 1.576-15.998 1.177-3.858-.24-5.196-.73-5.196-1.177s1.338-.943 5.196-1.178c6.419-.4 15.998-.023 15.998 1.178" opacity=".1"/><path fill="#F7F7F7" d="M30.211 27.98c0 1.142-9.131 1.5-15.281 1.124-3.729-.222-5.06-.7-5.06-1.125 0-.424 1.324-.905 5.052-1.127 6.158-.376 15.29-.018 15.29 1.127" opacity=".14"/><path fill="#F4F5F5" d="M29.794 27.982c0 1.084-8.694 1.43-14.575 1.074-3.593-.21-4.903-.65-4.903-1.074s1.31-.854 4.908-1.077c5.884-.355 14.57-.01 14.57 1.077" opacity=".19"/><path fill="#F2F2F2" d="M29.358 27.98c0 1.023-8.242 1.357-13.858 1.023-3.465-.2-4.764-.63-4.764-1.023 0-.394 1.3-.826 4.764-1.023 5.624-.343 13.858-.008 13.858 1.023" opacity=".24"/><path fill="#EFEFF0" d="M28.944 27.979c0 .97-7.794 1.279-13.144.972-3.324-.187-4.618-.596-4.618-.972s1.278-.788 4.618-.974c5.34-.312 13.144.002 13.144.974" opacity=".29"/><path fill="#E9EAEB" d="M28.082 27.986c0 .857-6.904 1.14-11.72.87-3.068-.162-4.329-.53-4.329-.87s1.26-.709 4.33-.87c4.817-.273 11.719.016 11.719.87" opacity=".38"/><path fill="#E7E7E8" d="M27.65 27.981c0 .798-6.454 1.059-10.995.818-2.939-.156-4.194-.496-4.194-.818s1.248-.67 4.184-.818c4.551-.25 11.006.018 11.006.818" opacity=".43"/><path fill="#E4E5E6" d="M27.22 27.977c0 .741-6.01.984-10.293.767-2.813-.143-4.04-.46-4.04-.767s1.235-.632 4.04-.767c4.283-.23 10.293.025 10.293.767" opacity=".48"/></g><path fill="#fff" d="M21.079 10.858a1.022 1.022 0 1 0-2.046 0v4.091h2.046z"/><path fill="#fff" d="M20.043 27.193a3.961 3.961 0 0 1-2.36-7.142V10.82a2.36 2.36 0 0 1 4.715 0v9.231a3.961 3.961 0 0 1-2.36 7.142zm0-.665a3.295 3.295 0 0 0 1.696-6.124V10.82a1.695 1.695 0 1 0-3.391 0v9.584a3.296 3.296 0 0 0 1.695 6.124"/><path fill="#F1F1F1" fill-opacity=".94" d="M21.074 20.813V14.96h-2.046v5.853a2.631 2.631 0 1 0 2.046 0"/><path fill="#fff" d="M19.276 23.035c0 .483-.256.874-.599.874s-.6-.383-.6-.874.255-.875.6-.875.599.4.599.875m2.464-4.105h-1.498v.458h1.499zm.004-1.324H21.1v.457h.644zm-.004-1.325h-1.498v.458h1.499zm.004-1.321H21.1v.458h.644zm-.004-1.325h-1.498v.457h1.499zm.004-1.325H21.1v.458h.644zm-.004-1.325h-1.498v.458h1.499zm-2.093.154a.127.127 0 0 0-.128-.12.13.13 0 0 0-.13.12v9.594l.255-.053v-9.541z"/><defs><linearGradient id="a" x1="19.563" x2="19.563" y1=".486" y2="39.612" gradientUnits="userSpaceOnUse"><stop stop-color="#F4815A"/><stop offset="1" stop-color="#F25E53"/></linearGradient></defs></svg>