<svg xmlns="http://www.w3.org/2000/svg" width="77" height="67" fill="none"><rect width="76.697" height="67" fill="#F5844D" rx="8.816"/><path fill="#fff" d="m40.673 16.465-2.75 14.449 9.963.033-13.561 19.588 2.75-15.896-9.962-.035zm.002-2.438q-.1 0-.196.008c-.43.034-.716.178-1.054.406a2.5 2.5 0 0 0-.635.617L25.132 33.134a2.42 2.42 0 0 0-.205 2.53 2.45 2.45 0 0 0 2.168 1.34l7.036.05-2.212 13.033a2.445 2.445 0 0 0 2.405 2.885c.766 0 1.395-.358 1.868-1.005l13.675-19.588c.54-.74.618-1.716.204-2.53a2.45 2.45 0 0 0-2.168-1.34l-7.035-.011 2.188-11.46q.07-.282.07-.573a2.44 2.44 0 0 0-2.364-2.436q-.044-.003-.087-.002"/></svg>