<svg xmlns="http://www.w3.org/2000/svg" width="77" height="67" fill="none"><rect width="76.697" height="67" fill="#F5844D" rx="8.816"/><path stroke="#fff" stroke-linecap="round" stroke-linejoin="round" stroke-width="2.778" d="M34.722 23.778 37.5 21m-5.556 18.056 11.112-11.112M37.5 46l2.778-2.778m3.472 0a3.472 3.472 0 1 0 0-6.944 3.472 3.472 0 0 0 0 6.944m-12.5-12.5a3.472 3.472 0 1 0 0-6.944 3.472 3.472 0 0 0 0 6.944M28.472 46a3.472 3.472 0 1 0 0-6.945 3.472 3.472 0 0 0 0 6.945m18.056-18.056a3.472 3.472 0 1 0 0-6.944 3.472 3.472 0 0 0 0 6.944"/></svg>