<svg width="77" height="67" viewBox="0 0 77 67" fill="none" xmlns="http://www.w3.org/2000/svg">
<rect width="76.6974" height="67" rx="8.81579" fill="#F5844D"/>
<path d="M34.7222 23.7778L37.5 21M31.9444 39.0556L43.0556 27.9444M37.5 46L40.2778 43.2222M43.75 43.2222C44.6709 43.2222 45.5541 42.8564 46.2052 42.2052C46.8564 41.5541 47.2222 40.6709 47.2222 39.75C47.2222 38.8291 46.8564 37.9459 46.2052 37.2948C45.5541 36.6436 44.6709 36.2778 43.75 36.2778C42.8291 36.2778 41.9459 36.6436 41.2948 37.2948C40.6436 37.9459 40.2778 38.8291 40.2778 39.75C40.2778 40.6709 40.6436 41.5541 41.2948 42.2052C41.9459 42.8564 42.8291 43.2222 43.75 43.2222ZM31.25 30.7222C32.1709 30.7222 33.0541 30.3564 33.7052 29.7052C34.3564 29.0541 34.7222 28.1709 34.7222 27.25C34.7222 26.3291 34.3564 25.4459 33.7052 24.7948C33.0541 24.1436 32.1709 23.7778 31.25 23.7778C30.3291 23.7778 29.4459 24.1436 28.7948 24.7948C28.1436 25.4459 27.7778 26.3291 27.7778 27.25C27.7778 28.1709 28.1436 29.0541 28.7948 29.7052C29.4459 30.3564 30.3291 30.7222 31.25 30.7222ZM28.4722 46C29.3931 46 30.2763 45.6342 30.9275 44.983C31.5786 44.3318 31.9444 43.4487 31.9444 42.5278C31.9444 41.6069 31.5786 40.7237 30.9275 40.0725C30.2763 39.4214 29.3931 39.0556 28.4722 39.0556C27.5513 39.0556 26.6682 39.4214 26.017 40.0725C25.3658 40.7237 25 41.6069 25 42.5278C25 43.4487 25.3658 44.3318 26.017 44.983C26.6682 45.6342 27.5513 46 28.4722 46ZM46.5278 27.9444C47.4487 27.9444 48.3318 27.5786 48.983 26.9275C49.6342 26.2763 50 25.3931 50 24.4722C50 23.5513 49.6342 22.6682 48.983 22.017C48.3318 21.3658 47.4487 21 46.5278 21C45.6069 21 44.7237 21.3658 44.0725 22.017C43.4214 22.6682 43.0556 23.5513 43.0556 24.4722C43.0556 25.3931 43.4214 26.2763 44.0725 26.9275C44.7237 27.5786 45.6069 27.9444 46.5278 27.9444Z" stroke="white" stroke-width="2.77778" stroke-linecap="round" stroke-linejoin="round"/>
</svg>
