<svg width="77" height="67" viewBox="0 0 77 67" fill="none" xmlns="http://www.w3.org/2000/svg">
<rect width="76.6974" height="67" rx="8.81579" fill="#F5844D"/>
<path d="M27.1429 24H20.8095C19.8102 24 19 24.8101 19 25.8095V40.2857C19 41.2851 19.8102 42.0952 20.8095 42.0952H27.1429" stroke="white" stroke-width="3.61905" stroke-linecap="round" stroke-linejoin="round"/>
<path d="M43.4277 42.0952H49.7611C50.7605 42.0952 51.5706 41.2851 51.5706 40.2857V25.8095C51.5706 24.8101 50.7605 24 49.7611 24H43.4277" stroke="white" stroke-width="3.61905" stroke-linecap="round" stroke-linejoin="round"/>
<path d="M35.2873 24L30.7617 33.0487H39.813L35.2855 42.0952" stroke="white" stroke-width="3.61905" stroke-linecap="round" stroke-linejoin="round"/>
<path d="M53.3809 29.4287H55.1904C56.1898 29.4287 56.9999 30.2388 56.9999 31.2382V34.8573C56.9999 35.8567 56.1898 36.6668 55.1904 36.6668H53.3809V29.4287Z" fill="white"/>
</svg>
