<svg xmlns="http://www.w3.org/2000/svg" width="77" height="67" fill="none"><rect width="76.697" height="67" fill="#F5844D" rx="8.816"/><path stroke="#fff" stroke-linecap="round" stroke-linejoin="round" stroke-width="3.619" d="M27.143 24h-6.334A1.81 1.81 0 0 0 19 25.81v14.476c0 1 .81 1.81 1.81 1.81h6.333m16.285-.001h6.333c1 0 1.81-.81 1.81-1.81V25.81c0-1-.81-1.81-1.81-1.81h-6.333m-8.141 0-4.525 9.049h9.051l-4.528 9.046"/><path fill="#fff" d="M53.38 29.429h1.81c1 0 1.81.81 1.81 1.81v3.618c0 1-.81 1.81-1.81 1.81h-1.81z"/></svg>