<svg width="413" height="392" viewBox="0 0 413 392" fill="none" xmlns="http://www.w3.org/2000/svg">
<path d="M380.026 319.47C386.749 300.825 377.085 280.259 358.44 273.536C339.795 266.812 319.23 276.476 312.506 295.121C305.783 313.766 315.447 334.331 334.092 341.055C352.737 347.779 373.302 338.115 380.026 319.47Z" fill="url(#paint0_linear_515_1596)"/>
<path d="M371.085 113.569C394.154 108.201 408.503 85.1482 403.134 62.0794C397.766 39.0107 374.713 24.6616 351.645 30.0299C328.576 35.3982 314.227 58.4509 319.595 81.5196C324.963 104.588 348.016 118.937 371.085 113.569Z" fill="url(#paint1_linear_515_1596)"/>
<path d="M364.56 73.8569L358.68 74.5029L361.383 99.1118L367.263 98.4658L364.56 73.8569Z" fill="url(#paint2_linear_515_1596)"/>
<path d="M356.862 74.692L366.299 73.6552L366.901 79.1282C366.935 79.445 366.843 79.7626 366.643 80.0112C366.444 80.2598 366.154 80.419 365.837 80.4538L358.724 81.2354C358.407 81.2702 358.089 81.1777 357.841 80.9783C357.592 80.779 357.433 80.489 357.398 80.1722L356.797 74.6992L356.862 74.692Z" fill="url(#paint3_linear_515_1596)"/>
<path d="M349.797 107.174L380.325 103.82C381.187 103.725 381.81 102.949 381.715 102.087L379.796 84.6176C379.701 83.755 378.925 83.1326 378.062 83.2273L347.534 86.5815C346.672 86.6763 346.049 87.4523 346.144 88.3149L348.063 105.784C348.158 106.647 348.934 107.269 349.797 107.174Z" fill="url(#paint4_linear_515_1596)"/>
<path d="M353.076 103.081L376.215 100.539L374.764 87.3356L351.625 89.8779L353.076 103.081Z" fill="white"/>
<path d="M375.006 63.0139L378.835 62.5914C379.647 62.5027 380.435 62.2546 381.151 61.8614C381.868 61.4682 382.5 60.9376 383.011 60.2999C383.523 59.6622 383.903 58.93 384.131 58.145C384.36 57.3601 384.431 56.5379 384.341 55.7255L383.351 46.7073L373.329 47.8033L372.801 42.9839L383.232 41.8352C383.814 41.7712 384.403 41.8231 384.965 41.9878C385.527 42.1526 386.051 42.4271 386.506 42.7953C386.962 43.1636 387.34 43.6183 387.618 44.1334C387.897 44.6485 388.071 45.2136 388.13 45.7963L389.173 55.2237C389.492 58.1457 388.638 61.0746 386.798 63.3672C384.959 65.6597 382.285 67.1283 379.363 67.4504L375.534 67.8729L375.006 63.0139Z" fill="url(#paint5_linear_515_1596)"/>
<path d="M346.135 66.1863L342.293 66.6088C340.653 66.7867 339.009 66.307 337.722 65.2749C336.435 64.2428 335.61 62.7425 335.427 61.1029L334.437 52.0847L344.459 50.9888L343.93 46.1562L333.499 47.305C332.916 47.3658 332.351 47.5414 331.836 47.8215C331.321 48.1017 330.866 48.4808 330.498 48.9373C330.13 49.3938 329.855 49.9185 329.691 50.4813C329.526 51.0441 329.474 51.6339 329.538 52.2168L330.581 61.631C330.739 63.0783 331.181 64.4803 331.881 65.7569C332.581 67.0334 333.526 68.1594 334.661 69.0706C335.797 69.9817 337.101 70.66 338.499 71.0669C339.897 71.4737 341.361 71.6009 342.808 71.4414L346.637 71.0189L346.135 66.1863Z" fill="url(#paint6_linear_515_1596)"/>
<path d="M376.251 36.5166L339.148 40.5834L341.472 61.8413C342.017 66.7617 344.492 71.2648 348.354 74.3618C352.216 77.4588 357.149 78.8965 362.07 78.3592C364.507 78.0913 366.866 77.3459 369.015 76.1656C371.163 74.9853 373.058 73.3932 374.591 71.4803C376.123 69.5674 377.264 67.3713 377.948 65.0173C378.631 62.6633 378.844 60.1977 378.575 57.7614L376.251 36.5166Z" fill="url(#paint7_linear_515_1596)"/>
<path d="M156.872 128.455C156.868 126.263 157.298 124.091 158.136 122.066C158.973 120.04 160.203 118.2 161.753 116.65C163.304 115.101 165.145 113.873 167.172 113.037C169.198 112.201 171.369 111.773 173.561 111.778L173.628 79.5217C160.781 79.4939 148.054 81.9968 136.175 86.8874C124.295 91.778 113.495 98.9605 104.392 108.025C95.2882 117.089 88.0591 127.858 83.1172 139.716C78.1754 151.575 75.6176 164.29 75.5898 177.137L107.847 177.203C107.847 181.619 109.601 185.854 112.723 188.976C115.846 192.099 120.081 193.853 124.496 193.853C128.912 193.853 133.147 192.099 136.27 188.976C139.392 185.854 141.146 181.619 141.146 177.203L173.416 177.282V145.012C169.034 144.988 164.838 143.235 161.74 140.135C158.642 137.035 156.893 132.837 156.872 128.455Z" fill="url(#paint8_linear_515_1596)"/>
<path d="M195.54 155.349H227.797C227.802 153.163 228.238 150.999 229.08 148.981C229.921 146.963 231.152 145.13 232.702 143.588C234.252 142.045 236.09 140.823 238.112 139.991C240.134 139.159 242.3 138.734 244.487 138.739C246.673 138.744 248.837 139.18 250.855 140.022C252.873 140.863 254.706 142.094 256.248 143.644C257.791 145.194 259.013 147.032 259.845 149.054C260.677 151.076 261.102 153.242 261.097 155.429L293.367 155.495C293.395 142.648 290.892 129.922 286.001 118.042C281.111 106.163 273.928 95.3627 264.864 86.259C255.799 77.1554 245.03 69.9263 233.172 64.9844C221.314 60.0426 208.598 57.4847 195.752 57.457L195.686 89.7137C191.27 89.7032 187.031 91.4473 183.901 94.5624C180.771 97.6774 179.007 101.908 178.996 106.324C178.986 110.74 180.73 114.979 183.845 118.109C186.96 121.239 191.191 123.003 195.606 123.014L195.54 155.349Z" fill="url(#paint9_linear_515_1596)"/>
<path d="M238.975 177.542C238.985 173.126 237.241 168.887 234.126 165.757C231.011 162.627 226.78 160.863 222.364 160.853C217.949 160.842 213.71 162.586 210.58 165.701C207.45 168.816 205.685 173.047 205.675 177.463L173.418 177.397L173.207 275.223C199.151 275.276 224.054 265.022 242.439 246.716C260.824 228.41 271.185 203.552 271.245 177.608L238.975 177.542Z" fill="url(#paint10_linear_515_1596)"/>
<path d="M173.337 209.657L173.416 177.4L141.147 177.321C141.147 181.737 139.392 185.972 136.27 189.094C133.147 192.217 128.912 193.971 124.497 193.971C120.081 193.971 115.846 192.217 112.723 189.094C109.601 185.972 107.847 181.737 107.847 177.321L75.5901 177.255C75.5623 190.102 78.0652 202.828 82.9558 214.708C87.8464 226.587 95.0289 237.387 104.093 246.491C113.158 255.594 123.926 262.823 135.785 267.765C147.643 272.707 160.358 275.265 173.205 275.293V243.023C175.392 243.027 177.558 242.601 179.579 241.768C181.601 240.935 183.439 239.712 184.988 238.169C186.537 236.626 187.767 234.793 188.608 232.775C189.449 230.756 189.884 228.592 189.888 226.406C189.892 224.219 189.466 222.053 188.633 220.032C187.801 218.01 186.578 216.172 185.035 214.623C183.492 213.074 181.659 211.844 179.64 211.003C177.622 210.162 175.458 209.727 173.271 209.723L173.337 209.657Z" fill="url(#paint11_linear_515_1596)"/>
<path d="M137.102 278.315L209.233 278.479L209.122 327.636C209.114 331.136 208.417 334.599 207.07 337.828C205.724 341.058 203.755 343.991 201.275 346.46C198.795 348.928 195.853 350.884 192.618 352.216C189.382 353.548 185.915 354.229 182.416 354.221L163.575 354.178C160.076 354.17 156.612 353.473 153.383 352.127C150.153 350.781 147.22 348.811 144.751 346.331C142.283 343.852 140.327 340.91 138.995 337.674C137.663 334.438 136.982 330.972 136.99 327.473L137.102 278.315Z" fill="url(#paint12_linear_515_1596)"/>
<path d="M120.207 259.499V292.601C120.186 301.267 123.607 309.587 129.717 315.732C135.828 321.877 144.128 325.344 152.794 325.372L193.435 325.465C202.11 325.482 210.437 322.054 216.585 315.933C222.733 309.812 226.199 301.5 226.22 292.825V259.737L120.207 259.499Z" fill="url(#paint13_linear_515_1596)"/>
<path d="M226.271 267.592L120.219 267.37L120.202 275.319L226.254 275.541L226.271 267.592Z" fill="#D7D1EB"/>
<path d="M226.228 286.129L120.176 285.907L120.159 293.856L226.211 294.078L226.228 286.129Z" fill="#D7D1EB"/>
<path d="M223.896 304.71L122.426 304.552C123.534 307.389 125.037 310.056 126.889 312.474L219.46 312.672C221.307 310.24 222.8 307.56 223.896 304.71Z" fill="#D7D1EB"/>
<path d="M143.797 138.871C143.49 138.608 143.244 138.282 143.075 137.915C142.907 137.548 142.819 137.149 142.819 136.745C142.819 136.341 142.907 135.942 143.075 135.575C143.244 135.208 143.49 134.882 143.797 134.619L146.794 131.979C147.167 131.661 147.417 131.224 147.502 130.742C147.586 130.259 147.499 129.763 147.257 129.338L142.292 120.716C142.048 120.292 141.664 119.966 141.206 119.795C140.748 119.624 140.245 119.618 139.783 119.778L136.06 121.099C135.678 121.231 135.272 121.279 134.869 121.24C134.467 121.201 134.078 121.076 133.728 120.873C133.378 120.67 133.076 120.394 132.843 120.064C132.61 119.734 132.451 119.357 132.376 118.96L131.65 115.078C131.56 114.596 131.306 114.161 130.93 113.848C130.553 113.534 130.08 113.362 129.59 113.361H119.648C119.16 113.362 118.687 113.532 118.312 113.843C117.936 114.154 117.68 114.586 117.588 115.065L116.848 118.946C116.773 119.344 116.612 119.721 116.377 120.051C116.142 120.381 115.839 120.656 115.488 120.858C115.137 121.06 114.746 121.183 114.343 121.22C113.94 121.257 113.533 121.207 113.151 121.072L109.428 119.752C108.967 119.59 108.465 119.594 108.007 119.763C107.55 119.932 107.165 120.255 106.919 120.676L101.928 129.285C101.685 129.708 101.595 130.202 101.674 130.683C101.754 131.165 101.998 131.604 102.364 131.926L105.361 134.501C105.668 134.765 105.915 135.092 106.083 135.46C106.252 135.828 106.34 136.228 106.34 136.633C106.34 137.038 106.252 137.438 106.083 137.806C105.915 138.174 105.668 138.501 105.361 138.765L102.364 141.327C101.991 141.644 101.741 142.082 101.656 142.564C101.572 143.046 101.659 143.543 101.902 143.968L106.866 152.59C107.108 153.012 107.489 153.338 107.945 153.509C108.401 153.68 108.902 153.687 109.362 153.527L113.099 152.207C113.481 152.074 113.887 152.026 114.289 152.065C114.691 152.104 115.081 152.229 115.43 152.432C115.78 152.635 116.082 152.911 116.315 153.242C116.548 153.572 116.708 153.948 116.782 154.346L117.509 158.228C117.598 158.708 117.853 159.141 118.23 159.452C118.606 159.764 119.08 159.933 119.568 159.931H129.511C129.998 159.93 130.471 159.76 130.847 159.449C131.223 159.139 131.478 158.707 131.571 158.228L132.31 154.346C132.387 153.949 132.549 153.574 132.785 153.246C133.02 152.917 133.324 152.644 133.675 152.443C134.026 152.243 134.416 152.12 134.818 152.084C135.22 152.048 135.626 152.098 136.007 152.233L139.73 153.553C140.191 153.715 140.693 153.711 141.151 153.542C141.609 153.374 141.994 153.051 142.239 152.629L147.23 144.034C147.474 143.611 147.563 143.117 147.484 142.635C147.404 142.154 147.161 141.715 146.794 141.393L143.797 138.871ZM124.573 144.007C123.125 144.007 121.709 143.577 120.506 142.773C119.302 141.968 118.365 140.824 117.812 139.485C117.259 138.147 117.116 136.675 117.4 135.256C117.685 133.836 118.384 132.533 119.41 131.511C120.435 130.489 121.741 129.794 123.162 129.515C124.582 129.236 126.054 129.384 127.39 129.942C128.726 130.5 129.867 131.441 130.667 132.648C131.468 133.854 131.893 135.271 131.887 136.719C131.886 137.678 131.695 138.627 131.327 139.512C130.958 140.397 130.419 141.201 129.739 141.878C129.06 142.555 128.254 143.091 127.368 143.456C126.481 143.822 125.531 144.009 124.573 144.007Z" fill="url(#paint14_linear_515_1596)"/>
<path d="M124.627 119.133C121.151 119.122 117.749 120.143 114.853 122.066C111.957 123.989 109.696 126.728 108.357 129.936C107.017 133.144 106.659 136.677 107.328 140.089C107.997 143.5 109.663 146.636 112.115 149.101C114.566 151.566 117.694 153.248 121.102 153.935C124.51 154.622 128.045 154.282 131.26 152.96C134.475 151.637 137.225 149.391 139.164 146.505C141.102 143.619 142.14 140.223 142.148 136.747C142.155 134.439 141.707 132.153 140.83 130.019C139.954 127.885 138.665 125.945 137.037 124.309C135.41 122.673 133.477 121.374 131.347 120.486C129.218 119.598 126.934 119.138 124.627 119.133ZM124.627 144.009C123.179 144.009 121.764 143.579 120.56 142.774C119.357 141.969 118.419 140.825 117.866 139.487C117.314 138.149 117.17 136.677 117.455 135.257C117.739 133.837 118.438 132.534 119.464 131.512C120.49 130.49 121.795 129.796 123.216 129.516C124.637 129.237 126.108 129.386 127.445 129.943C128.781 130.501 129.921 131.443 130.722 132.649C131.522 133.856 131.947 135.272 131.942 136.72C131.94 137.684 131.748 138.637 131.376 139.526C131.004 140.414 130.46 141.221 129.775 141.898C129.09 142.576 128.278 143.111 127.386 143.473C126.493 143.835 125.537 144.017 124.574 144.009H124.627Z" fill="url(#paint15_linear_515_1596)"/>
<path d="M124.611 125.508C122.396 125.5 120.229 126.149 118.383 127.374C116.537 128.598 115.096 130.343 114.241 132.386C113.387 134.43 113.158 136.681 113.583 138.855C114.009 141.029 115.069 143.028 116.631 144.599C118.193 146.169 120.185 147.242 122.357 147.68C124.528 148.118 126.78 147.903 128.829 147.06C130.878 146.218 132.631 144.787 133.866 142.949C135.101 141.11 135.763 138.946 135.768 136.731C135.776 133.764 134.604 130.915 132.512 128.811C130.42 126.706 127.579 125.518 124.611 125.508ZM124.611 143.993C123.163 143.993 121.748 143.563 120.545 142.758C119.341 141.954 118.404 140.81 117.851 139.471C117.298 138.133 117.155 136.661 117.439 135.241C117.723 133.822 118.423 132.518 119.448 131.497C120.474 130.475 121.78 129.78 123.201 129.501C124.621 129.221 126.093 129.37 127.429 129.928C128.765 130.485 129.906 131.427 130.706 132.634C131.507 133.84 131.931 135.257 131.926 136.705C131.926 137.668 131.736 138.622 131.365 139.511C130.995 140.4 130.453 141.208 129.769 141.886C129.085 142.565 128.274 143.102 127.382 143.466C126.49 143.83 125.535 144.013 124.572 144.006L124.611 143.993Z" fill="url(#paint16_linear_515_1596)"/>
<path d="M240.956 202.026C238.445 199.596 235.081 198.248 231.587 198.273C228.094 198.298 224.749 199.692 222.273 202.158C219.811 199.681 216.475 198.27 212.984 198.228C209.492 198.186 206.123 199.516 203.603 201.933C202.334 203.199 201.328 204.702 200.642 206.357C199.955 208.012 199.602 209.787 199.602 211.578C199.602 213.37 199.955 215.144 200.642 216.8C201.328 218.455 202.334 219.958 203.603 221.224L218.866 236.54C219.744 237.411 220.931 237.899 222.167 237.899C223.404 237.899 224.59 237.411 225.468 236.54L240.837 221.369C242.123 220.111 243.147 218.611 243.849 216.955C244.552 215.299 244.919 213.521 244.93 211.722C244.941 209.923 244.596 208.14 243.913 206.476C243.231 204.812 242.226 203.299 240.956 202.026Z" fill="url(#paint17_linear_515_1596)"/>
<path opacity="0.4" d="M241.763 213.827C244.073 211.516 243.175 206.856 239.743 203.409C236.31 199.963 231.662 199.039 229.338 201.35C227.014 203.66 227.925 208.321 231.358 211.767C234.791 215.213 239.439 216.085 241.763 213.827Z" fill="url(#paint18_linear_515_1596)"/>
<path opacity="0.2" d="M220.972 204.809C221.593 203.198 219.771 201.007 216.905 199.897C214.04 198.788 211.215 199.198 210.594 200.808C209.973 202.419 211.795 204.624 214.661 205.733C217.526 206.843 220.338 206.42 220.972 204.809Z" fill="url(#paint19_linear_515_1596)"/>
<path d="M107.194 219.744H117.11C117.502 219.744 117.878 219.9 118.155 220.177C118.433 220.455 118.588 220.831 118.588 221.223V230.386H105.715V221.223C105.715 220.831 105.871 220.455 106.148 220.177C106.425 219.9 106.801 219.744 107.194 219.744Z" fill="url(#paint20_linear_515_1596)"/>
<path d="M126.389 209.484L136.305 209.506C136.697 209.507 137.073 209.664 137.35 209.942C137.626 210.22 137.781 210.596 137.78 210.988L137.735 230.794L124.862 230.765L124.907 210.959C124.908 210.567 125.064 210.191 125.342 209.915C125.62 209.638 125.997 209.483 126.389 209.484Z" fill="url(#paint21_linear_515_1596)"/>
<path d="M146.345 201.463L156.26 201.486C156.653 201.487 157.028 201.643 157.305 201.921C157.582 202.199 157.737 202.576 157.736 202.968L157.673 230.841L144.812 230.812L144.876 202.886C144.89 202.505 145.051 202.145 145.325 201.88C145.598 201.615 145.964 201.466 146.345 201.463Z" fill="url(#paint22_linear_515_1596)"/>
<path d="M236.612 88.5785L241.735 99.3264L253.54 100.924C253.959 100.981 254.354 101.155 254.679 101.427C255.004 101.699 255.245 102.057 255.375 102.461C255.505 102.864 255.518 103.296 255.413 103.706C255.308 104.116 255.089 104.488 254.781 104.779L246.145 112.979L248.258 124.691C248.334 125.107 248.29 125.536 248.133 125.928C247.975 126.32 247.71 126.66 247.368 126.909C247.026 127.157 246.621 127.304 246.199 127.332C245.777 127.36 245.356 127.268 244.984 127.067L234.513 121.39L224.095 127.015C223.722 127.213 223.301 127.302 222.88 127.272C222.459 127.241 222.055 127.093 221.714 126.843C221.374 126.594 221.11 126.253 220.955 125.861C220.799 125.468 220.757 125.04 220.834 124.625L222.999 112.926L214.404 104.687C214.1 104.395 213.884 104.022 213.782 103.613C213.679 103.204 213.695 102.774 213.826 102.372C213.957 101.971 214.198 101.615 214.522 101.345C214.846 101.075 215.24 100.901 215.658 100.845L227.462 99.2867L232.638 88.5653C232.83 88.2037 233.116 87.9012 233.467 87.6908C233.818 87.4803 234.22 87.3697 234.629 87.3711C235.038 87.3725 235.439 87.4857 235.789 87.6985C236.139 87.9113 236.423 88.2156 236.612 88.5785Z" fill="url(#paint23_linear_515_1596)"/>
<path d="M67.1474 92.3407C81.2797 92.3407 92.7362 80.8842 92.7362 66.7519C92.7362 52.6196 81.2797 41.1631 67.1474 41.1631C53.0151 41.1631 41.5586 52.6196 41.5586 66.7519C41.5586 80.8842 53.0151 92.3407 67.1474 92.3407Z" fill="url(#paint24_linear_515_1596)"/>
<path d="M65.8289 71.7311L62.1847 68.0869L50.4598 79.7986C49.9916 80.2897 49.7305 80.9422 49.7305 81.6207C49.7305 82.2992 49.9916 82.9517 50.4598 83.4428C50.9509 83.911 51.6034 84.1722 52.2819 84.1722C52.9604 84.1722 53.6129 83.911 54.104 83.4428L65.8289 71.7311Z" fill="url(#paint25_linear_515_1596)"/>
<path d="M64.8216 72.5608L61.3391 69.0783C61.2359 68.9752 61.0687 68.9752 60.9656 69.0783L57.6699 72.3741C57.5667 72.4772 57.5667 72.6444 57.6699 72.7475L61.1524 76.23C61.2555 76.3332 61.4227 76.3332 61.5258 76.23L64.8216 72.9343C64.9247 72.8312 64.9247 72.664 64.8216 72.5608Z" fill="url(#paint26_linear_515_1596)"/>
<path d="M80.6466 53.2614C78.7635 51.377 76.3638 50.0934 73.751 49.5729C71.1382 49.0525 68.4298 49.3187 65.9684 50.3378C63.5069 51.3568 61.403 53.083 59.9227 55.298C58.4424 57.513 57.6523 60.1172 57.6523 62.7813C57.6523 65.4454 58.4424 68.0496 59.9227 70.2646C61.403 72.4795 63.5069 74.2057 65.9684 75.2248C68.4298 76.2439 71.1382 76.51 73.751 75.9896C76.3638 75.4692 78.7635 74.1856 80.6466 72.3012C83.1703 69.7757 84.5879 66.3516 84.5879 62.7813C84.5879 59.211 83.1703 55.7868 80.6466 53.2614ZM64.3268 69.5284C62.9833 68.1837 62.0687 66.471 61.6985 64.6066C61.3283 62.7422 61.5191 60.81 62.2469 59.054C62.9747 57.2981 64.2067 55.7973 65.7873 54.7415C67.3678 53.6857 69.2259 53.1221 71.1267 53.1221C73.0275 53.1221 74.8856 53.6857 76.4661 54.7415C78.0467 55.7973 79.2787 57.2981 80.0065 59.054C80.7343 60.81 80.9252 62.7422 80.5549 64.6066C80.1847 66.471 79.2701 68.1837 77.9266 69.5284C76.122 71.3296 73.6765 72.3413 71.1267 72.3413C68.577 72.3413 66.1314 71.3296 64.3268 69.5284Z" fill="url(#paint27_linear_515_1596)"/>
<path opacity="0.4" d="M71.1318 72.3897C76.4406 72.3897 80.7442 68.0861 80.7442 62.7773C80.7442 57.4686 76.4406 53.165 71.1318 53.165C65.8231 53.165 61.5195 57.4686 61.5195 62.7773C61.5195 68.0861 65.8231 72.3897 71.1318 72.3897Z" fill="url(#paint28_linear_515_1596)"/>
<path opacity="0.4" d="M77.9318 55.9785C76.5874 54.633 74.8741 53.7166 73.0088 53.3452C71.1434 52.9738 69.2097 53.1642 67.4526 53.8922C65.6954 54.6202 64.1937 55.8532 63.1376 57.435C62.0815 59.0168 61.5184 60.8764 61.5195 62.7784H80.7442C80.7457 61.5157 80.498 60.2651 80.0154 59.0983C79.5328 57.9314 78.8247 56.8713 77.9318 55.9785Z" fill="url(#paint29_linear_515_1596)"/>
<path d="M326.181 285.948L316.133 301.476H336.229L326.181 285.948Z" fill="url(#paint30_linear_515_1596)"/>
<path d="M346.279 285.948L336.23 301.476H356.327L346.279 285.948Z" fill="url(#paint31_linear_515_1596)"/>
<path d="M356.325 301.476L366.373 285.948H346.277L356.325 301.476Z" fill="url(#paint32_linear_515_1596)"/>
<path d="M336.232 301.476L346.28 285.948H326.184L336.232 301.476Z" fill="url(#paint33_linear_515_1596)"/>
<path d="M366.372 285.948L356.324 301.476H376.42L366.372 285.948Z" fill="url(#paint34_linear_515_1596)"/>
<path d="M336.229 301.473L346.277 335.683L316.133 301.473H336.229Z" fill="url(#paint35_linear_515_1596)"/>
<path d="M356.327 301.473L346.279 335.683L336.23 301.473H356.327Z" fill="url(#paint36_linear_515_1596)"/>
<path d="M376.421 301.473L346.277 335.683L356.325 301.473H376.421Z" fill="url(#paint37_linear_515_1596)"/>
<g opacity="0.6">
<circle cx="318.464" cy="103.75" r="1.22134" fill="white"/>
<path d="M310.108 106.97L297.551 111.789" stroke="white" stroke-width="2.44269" stroke-miterlimit="10" stroke-linecap="round"/>
<circle cx="293.366" cy="113.389" r="1.22134" fill="white"/>
</g>
<g opacity="0.6">
<circle cx="257.913" cy="242.874" r="1.22134" fill="white"/>
<path d="M265.398 248.522L306.647 279.604" stroke="white" stroke-width="2.44269" stroke-miterlimit="10" stroke-linecap="round"/>
<circle cx="310.397" cy="282.433" r="1.22134" fill="white"/>
</g>
<path opacity="0.4" d="M96.1857 354.95C96.3871 353.852 96.4888 352.738 96.4894 351.622C96.4916 348.525 95.7268 345.475 94.2631 342.744C92.7995 340.014 90.6827 337.689 88.1015 335.976C85.5204 334.263 82.5553 333.216 79.4709 332.928C76.3865 332.64 73.2788 333.12 70.4252 334.326C67.8934 330.866 64.4331 328.195 60.4452 326.621C56.4573 325.048 52.1052 324.637 47.8932 325.435C43.6812 326.234 39.7818 328.21 36.6469 331.134C33.5119 334.058 31.2698 337.811 30.1803 341.957C29.4678 341.851 28.7484 341.798 28.0281 341.799C24.4271 341.802 20.9598 343.163 18.3187 345.611C15.6776 348.058 14.0572 351.412 13.7812 355.003L96.1857 354.95Z" fill="url(#paint38_linear_515_1596)"/>
<path opacity="0.4" d="M306.205 176.831C306.007 175.769 305.91 174.69 305.914 173.61C305.917 170.614 306.66 167.666 308.077 165.027C309.495 162.388 311.543 160.141 314.039 158.485C316.536 156.829 319.402 155.816 322.385 155.536C325.367 155.256 328.373 155.718 331.133 156.88C333.58 153.531 336.927 150.945 340.784 149.421C344.642 147.897 348.853 147.498 352.928 148.271C357.003 149.043 360.776 150.956 363.808 153.786C366.84 156.617 369.007 160.249 370.058 164.261C370.753 164.162 371.455 164.109 372.157 164.103C375.634 164.105 378.982 165.416 381.536 167.774C384.09 170.132 385.663 173.366 385.942 176.831H306.205Z" fill="url(#paint39_linear_515_1596)"/>
<path opacity="0.4" d="M171.097 28.9373C171.294 27.8747 171.391 26.7962 171.388 25.7156C171.385 22.7223 170.644 19.776 169.228 17.1384C167.813 14.5009 165.768 12.2539 163.275 10.5972C160.782 8.94042 157.919 7.92527 154.939 7.64197C151.959 7.35867 148.955 7.81599 146.195 8.97326C143.744 5.62904 140.396 3.04749 136.539 1.52763C132.681 0.00777449 128.472 -0.388212 124.399 0.385535C120.326 1.15928 116.555 3.07111 113.524 5.89957C110.492 8.72804 108.324 12.3574 107.27 16.3673C105.395 16.0861 103.481 16.1934 101.649 16.6827C99.8163 17.172 98.1041 18.0327 96.6183 19.2114C95.1324 20.3902 93.9048 21.8618 93.0115 23.5349C92.1183 25.208 91.5785 27.0469 91.4258 28.9373H171.097Z" fill="url(#paint40_linear_515_1596)"/>
<path d="M41.5653 316.791C64.5212 316.791 83.1306 298.181 83.1306 275.225C83.1306 252.27 64.5212 233.66 41.5653 233.66C18.6094 233.66 0 252.27 0 275.225C0 298.181 18.6094 316.791 41.5653 316.791Z" fill="#59ACF9"/>
<path d="M135.774 392C151.561 392 164.36 379.202 164.36 363.414C164.36 347.627 151.561 334.828 135.774 334.828C119.986 334.828 107.188 347.627 107.188 363.414C107.188 379.202 119.986 392 135.774 392Z" fill="#59ACF9"/>
<path d="M135.77 334.844V363.417L155.984 383.632C159.985 379.635 162.71 374.542 163.814 368.997C164.918 363.451 164.352 357.703 162.188 352.479C160.023 347.256 156.358 342.792 151.655 339.652C146.952 336.513 141.424 334.839 135.77 334.844Z" fill="#FFC940"/>
<path d="M135.77 334.844V363.417L147.085 337.168C143.511 335.63 139.66 334.84 135.77 334.844Z" fill="#FF4757"/>
<path d="M52.4427 266.483L35.8984 295.096H74.3741L57.843 266.483C57.5671 266.012 57.1727 265.621 56.699 265.35C56.2253 265.078 55.6888 264.936 55.1429 264.936C54.5969 264.936 54.0604 265.078 53.5867 265.35C53.1131 265.621 52.7187 266.012 52.4427 266.483Z" fill="url(#paint41_linear_515_1596)"/>
<path d="M45.3934 250.602L32.6914 245.559V255.646L45.3934 250.602Z" fill="url(#paint42_linear_515_1596)"/>
<path d="M30.0011 258.34L8.76953 295.099H56.633L35.4146 258.34C35.1396 257.866 34.7447 257.472 34.2697 257.199C33.7947 256.925 33.2561 256.781 32.7079 256.781C32.1597 256.781 31.6211 256.925 31.1461 257.199C30.671 257.472 30.2762 257.866 30.0011 258.34Z" fill="url(#paint43_linear_515_1596)"/>
<path d="M32.6914 258.855V246.312" stroke="#F2EFFA" stroke-width="2.44269" stroke-miterlimit="10" stroke-linecap="round"/>
<path d="M30.2646 267.926C30.9251 267.308 31.796 266.964 32.7007 266.964C33.6054 266.964 34.4762 267.308 35.1367 267.926C35.9457 268.676 36.9874 269.126 38.088 269.2C39.1886 269.275 40.2814 268.97 41.184 268.335L35.414 258.34C35.1389 257.866 34.7441 257.472 34.2691 257.199C33.794 256.925 33.2555 256.781 32.7073 256.781C32.1591 256.781 31.6205 256.925 31.1454 257.199C30.6704 257.472 30.2756 257.866 30.0005 258.34L24.2305 268.322C25.1304 268.955 26.2197 269.26 27.3174 269.188C28.415 269.116 29.455 268.671 30.2646 267.926Z" fill="white"/>
<g opacity="0.6">
<circle cx="41.1823" cy="225.395" r="1.22134" fill="white"/>
<path d="M41.1758 217.235V204.982" stroke="white" stroke-width="2.44269" stroke-miterlimit="10" stroke-linecap="round"/>
<circle cx="41.1823" cy="200.901" r="1.22134" fill="white"/>
<path d="M51.1641 200.901H66.1371" stroke="white" stroke-width="2.44269" stroke-miterlimit="10" stroke-linecap="round"/>
<circle cx="71.1276" cy="200.901" r="1.22134" fill="white"/>
</g>
<path d="M32.9047 129.271L33.4988 131.674C33.7825 132.86 34.3891 133.945 35.2514 134.807C36.1138 135.669 37.1981 136.276 38.3842 136.56L40.7741 137.154C40.9492 137.154 41.1171 137.223 41.2409 137.347C41.3647 137.471 41.4343 137.639 41.4343 137.814C41.4343 137.989 41.3647 138.157 41.2409 138.281C41.1171 138.405 40.9492 138.474 40.7741 138.474L38.3842 139.055C37.1981 139.339 36.1138 139.945 35.2514 140.808C34.3891 141.67 33.7825 142.754 33.4988 143.94L32.9047 146.344C32.9047 146.519 32.8351 146.687 32.7113 146.81C32.5875 146.934 32.4196 147.004 32.2445 147.004C32.0694 147.004 31.9015 146.934 31.7777 146.81C31.6538 146.687 31.5843 146.519 31.5843 146.344L31.0033 143.94C30.7115 142.758 30.1022 141.678 29.2412 140.817C28.3801 139.956 27.3002 139.347 26.118 139.055L23.7149 138.474C23.5398 138.474 23.3719 138.405 23.2481 138.281C23.1242 138.157 23.0547 137.989 23.0547 137.814C23.0547 137.639 23.1242 137.471 23.2481 137.347C23.3719 137.223 23.5398 137.154 23.7149 137.154L26.118 136.56C27.304 136.276 28.3884 135.669 29.2507 134.807C30.1131 133.945 30.7197 132.86 31.0033 131.674L31.5843 129.271C31.6149 129.119 31.6975 128.981 31.8178 128.883C31.9382 128.784 32.0889 128.73 32.2445 128.73C32.4 128.73 32.5508 128.784 32.6711 128.883C32.7915 128.981 32.874 129.119 32.9047 129.271Z" fill="#FFC940"/>
<path d="M222.91 5.93522L223.491 8.33831C223.775 9.5244 224.381 10.6087 225.244 11.4711C226.106 12.3334 227.19 12.94 228.377 13.2237L230.78 13.8178C230.932 13.8485 231.069 13.931 231.168 14.0514C231.266 14.1717 231.32 14.3225 231.32 14.478C231.32 14.6336 231.266 14.7844 231.168 14.9047C231.069 15.0251 230.932 15.1076 230.78 15.1382L228.377 15.7192C227.19 16.0028 226.106 16.6095 225.244 17.4718C224.381 18.3341 223.775 19.4185 223.491 20.6046L222.91 23.0076C222.88 23.1601 222.797 23.2974 222.677 23.3959C222.556 23.4945 222.406 23.5483 222.25 23.5483C222.094 23.5483 221.944 23.4945 221.823 23.3959C221.703 23.2974 221.62 23.1601 221.59 23.0076L221.009 20.6046C220.725 19.4185 220.119 18.3341 219.256 17.4718C218.394 16.6095 217.31 16.0028 216.123 15.7192L213.72 15.1382C213.568 15.1076 213.431 15.0251 213.332 14.9047C213.234 14.7844 213.18 14.6336 213.18 14.478C213.18 14.3225 213.234 14.1717 213.332 14.0514C213.431 13.931 213.568 13.8485 213.72 13.8178L216.123 13.2237C217.31 12.94 218.394 12.3334 219.256 11.4711C220.119 10.6087 220.725 9.5244 221.009 8.33831L221.59 5.93522C221.62 5.78271 221.703 5.64552 221.823 5.54696C221.944 5.44839 222.094 5.39453 222.25 5.39453C222.406 5.39453 222.556 5.44839 222.677 5.54696C222.797 5.64552 222.88 5.78271 222.91 5.93522Z" fill="#FFC940"/>
<path d="M336.877 209.563L337.471 211.952C337.755 213.138 338.362 214.223 339.224 215.085C340.086 215.948 341.171 216.554 342.357 216.838L344.76 217.432C344.912 217.463 345.05 217.545 345.148 217.665C345.247 217.786 345.301 217.937 345.301 218.092C345.301 218.248 345.247 218.398 345.148 218.519C345.05 218.639 344.912 218.722 344.76 218.752L342.357 219.333C341.171 219.617 340.086 220.224 339.224 221.086C338.362 221.948 337.755 223.033 337.471 224.219L336.877 226.622C336.877 226.797 336.808 226.965 336.684 227.089C336.56 227.212 336.392 227.282 336.217 227.282C336.042 227.282 335.874 227.212 335.75 227.089C335.627 226.965 335.557 226.797 335.557 226.622L334.976 224.219C334.684 223.036 334.075 221.956 333.214 221.095C332.353 220.234 331.273 219.625 330.091 219.333L327.688 218.752C327.512 218.752 327.345 218.683 327.221 218.559C327.097 218.435 327.027 218.267 327.027 218.092C327.027 217.917 327.097 217.749 327.221 217.625C327.345 217.502 327.512 217.432 327.688 217.432L330.091 216.838C331.277 216.554 332.361 215.948 333.223 215.085C334.086 214.223 334.692 213.138 334.976 211.952L335.557 209.563C335.557 209.387 335.627 209.22 335.75 209.096C335.874 208.972 336.042 208.902 336.217 208.902C336.392 208.902 336.56 208.972 336.684 209.096C336.808 209.22 336.877 209.387 336.877 209.563Z" fill="#FFC940"/>
<path d="M249.531 334.682L250.112 337.085C250.396 338.271 251.002 339.356 251.865 340.218C252.727 341.08 253.812 341.687 254.998 341.971L257.401 342.552C257.553 342.582 257.69 342.665 257.789 342.785C257.888 342.906 257.941 343.056 257.941 343.212C257.941 343.367 257.888 343.518 257.789 343.639C257.69 343.759 257.553 343.841 257.401 343.872L254.998 344.453C253.812 344.737 252.727 345.343 251.865 346.206C251.002 347.068 250.396 348.152 250.112 349.338L249.531 351.742C249.501 351.894 249.418 352.031 249.298 352.13C249.177 352.228 249.027 352.282 248.871 352.282C248.716 352.282 248.565 352.228 248.444 352.13C248.324 352.031 248.242 351.894 248.211 351.742L247.63 349.338C247.346 348.152 246.74 347.068 245.877 346.206C245.015 345.343 243.931 344.737 242.745 344.453L240.341 343.872C240.189 343.841 240.052 343.759 239.953 343.639C239.855 343.518 239.801 343.367 239.801 343.212C239.801 343.056 239.855 342.906 239.953 342.785C240.052 342.665 240.189 342.582 240.341 342.552L242.745 341.971C243.931 341.687 245.015 341.08 245.877 340.218C246.74 339.356 247.346 338.271 247.63 337.085L248.211 334.682C248.242 334.53 248.324 334.393 248.444 334.294C248.565 334.195 248.716 334.142 248.871 334.142C249.027 334.142 249.177 334.195 249.298 334.294C249.418 334.393 249.501 334.53 249.531 334.682Z" fill="#FFC940"/>
<path d="M97.1382 304.129L97.7192 306.532C98.0028 307.718 98.6094 308.802 99.4718 309.665C100.334 310.527 101.418 311.134 102.605 311.417L105.008 311.998C105.183 311.998 105.351 312.068 105.474 312.192C105.598 312.316 105.668 312.483 105.668 312.659C105.668 312.834 105.598 313.002 105.474 313.125C105.351 313.249 105.183 313.319 105.008 313.319L102.605 313.913C101.418 314.197 100.334 314.803 99.4718 315.666C98.6094 316.528 98.0028 317.612 97.7192 318.798L97.1382 321.201C97.1076 321.354 97.0251 321.491 96.9047 321.59C96.7844 321.688 96.6336 321.742 96.478 321.742C96.3225 321.742 96.1717 321.688 96.0514 321.59C95.931 321.491 95.8485 321.354 95.8178 321.201L95.2237 318.798C94.94 317.612 94.3334 316.528 93.4711 315.666C92.6087 314.803 91.5244 314.197 90.3383 313.913L87.9352 313.319C87.7827 313.288 87.6455 313.206 87.547 313.085C87.4484 312.965 87.3945 312.814 87.3945 312.659C87.3945 312.503 87.4484 312.352 87.547 312.232C87.6455 312.112 87.7827 312.029 87.9352 311.998L90.3383 311.417C91.5244 311.134 92.6087 310.527 93.4711 309.665C94.3334 308.802 94.94 307.718 95.2237 306.532L95.8178 304.129C95.8178 303.954 95.8874 303.786 96.0112 303.662C96.135 303.538 96.3029 303.469 96.478 303.469C96.6531 303.469 96.821 303.538 96.9449 303.662C97.0687 303.786 97.1382 303.954 97.1382 304.129Z" fill="#FFC940"/>
<defs>
<linearGradient id="paint0_linear_515_1596" x1="346.229" y1="363.013" x2="346.229" y2="286.656" gradientUnits="userSpaceOnUse">
<stop stop-color="#43386B"/>
<stop offset="0.58" stop-color="#514482"/>
<stop offset="1" stop-color="#594A8E"/>
</linearGradient>
<linearGradient id="paint1_linear_515_1596" x1="361.352" y1="124.9" x2="361.352" y2="12.5891" gradientUnits="userSpaceOnUse">
<stop stop-color="#FF4757"/>
<stop offset="0.12" stop-color="#FF5362"/>
<stop offset="0.49" stop-color="#FF7782"/>
<stop offset="0.8" stop-color="#FF8D96"/>
<stop offset="1" stop-color="#FF959D"/>
</linearGradient>
<linearGradient id="paint2_linear_515_1596" x1="361.552" y1="73.4435" x2="364.658" y2="101.714" gradientUnits="userSpaceOnUse">
<stop stop-color="#FFA538"/>
<stop offset="0.04" stop-color="#FFA838"/>
<stop offset="0.43" stop-color="#FAC73D"/>
<stop offset="0.76" stop-color="#F8D940"/>
<stop offset="1" stop-color="#F7E041"/>
</linearGradient>
<linearGradient id="paint3_linear_515_1596" x1="361.605" y1="73.9717" x2="362.447" y2="81.6365" gradientUnits="userSpaceOnUse">
<stop stop-color="#FFA538"/>
<stop offset="0.04" stop-color="#FFA838"/>
<stop offset="0.43" stop-color="#FAC73D"/>
<stop offset="0.76" stop-color="#F8D940"/>
<stop offset="1" stop-color="#F7E041"/>
</linearGradient>
<linearGradient id="paint4_linear_515_1596" x1="365.115" y1="106.115" x2="362.517" y2="82.4647" gradientUnits="userSpaceOnUse">
<stop stop-color="#00395E"/>
<stop offset="0.17" stop-color="#003E66"/>
<stop offset="0.44" stop-color="#004B7C"/>
<stop offset="0.77" stop-color="#0061A0"/>
<stop offset="1" stop-color="#0072BC"/>
</linearGradient>
<linearGradient id="paint5_linear_515_1596" x1="388.713" y1="53.1413" x2="370.216" y2="55.1964" gradientUnits="userSpaceOnUse">
<stop stop-color="#F7E041"/>
<stop offset="1" stop-color="#FFA538"/>
</linearGradient>
<linearGradient id="paint6_linear_515_1596" x1="330.458" y1="60.2206" x2="349.016" y2="58.1815" gradientUnits="userSpaceOnUse">
<stop stop-color="#F7E041"/>
<stop offset="1" stop-color="#FFA538"/>
</linearGradient>
<linearGradient id="paint7_linear_515_1596" x1="362.974" y1="86.4675" x2="357.884" y2="40.1372" gradientUnits="userSpaceOnUse">
<stop stop-color="#FFA538"/>
<stop offset="0.04" stop-color="#FFA838"/>
<stop offset="0.43" stop-color="#FAC73D"/>
<stop offset="0.76" stop-color="#F8D940"/>
<stop offset="1" stop-color="#F7E041"/>
</linearGradient>
<linearGradient id="paint8_linear_515_1596" x1="93.0396" y1="95.3566" x2="192.511" y2="199.355" gradientUnits="userSpaceOnUse">
<stop stop-color="#FF4757"/>
<stop offset="0.12" stop-color="#FF5362"/>
<stop offset="0.49" stop-color="#FF7782"/>
<stop offset="0.8" stop-color="#FF8D96"/>
<stop offset="1" stop-color="#FF959D"/>
</linearGradient>
<linearGradient id="paint9_linear_515_1596" x1="292.707" y1="57.9823" x2="183.124" y2="168.504" gradientUnits="userSpaceOnUse">
<stop stop-color="#00395E"/>
<stop offset="0.17" stop-color="#003E66"/>
<stop offset="0.44" stop-color="#004B7C"/>
<stop offset="0.77" stop-color="#0061A0"/>
<stop offset="1" stop-color="#0072BC"/>
</linearGradient>
<linearGradient id="paint10_linear_515_1596" x1="237.186" y1="282.265" x2="208.082" y2="173.572" gradientUnits="userSpaceOnUse">
<stop stop-color="#FFA538"/>
<stop offset="0.38" stop-color="#FBC23C"/>
<stop offset="0.76" stop-color="#F8D840"/>
<stop offset="1" stop-color="#F7E041"/>
</linearGradient>
<linearGradient id="paint11_linear_515_1596" x1="161.035" y1="312.746" x2="128.025" y2="189.461" gradientUnits="userSpaceOnUse">
<stop stop-color="#06DAAE"/>
<stop offset="0.17" stop-color="#28DFB9"/>
<stop offset="0.44" stop-color="#59E6C9"/>
<stop offset="0.68" stop-color="#7DECD5"/>
<stop offset="0.87" stop-color="#93EFDC"/>
<stop offset="1" stop-color="#9BF0DF"/>
</linearGradient>
<linearGradient id="paint12_linear_515_1596" x1="173.111" y1="306.323" x2="172.978" y2="364.974" gradientUnits="userSpaceOnUse">
<stop stop-color="#43386B"/>
<stop offset="0.58" stop-color="#514482"/>
<stop offset="1" stop-color="#594A8E"/>
</linearGradient>
<linearGradient id="paint13_linear_515_1596" x1="173.032" y1="335.634" x2="173.231" y2="247.817" gradientUnits="userSpaceOnUse">
<stop stop-color="#D7D1EB"/>
<stop offset="0.52" stop-color="#E3DEF2"/>
<stop offset="1" stop-color="#E9E5F6"/>
</linearGradient>
<linearGradient id="paint14_linear_515_1596" x1="124.507" y1="166.552" x2="124.63" y2="112.364" gradientUnits="userSpaceOnUse">
<stop stop-color="#43386B"/>
<stop offset="1" stop-color="#594A8E"/>
</linearGradient>
<linearGradient id="paint15_linear_515_1596" x1="124.525" y1="159.159" x2="124.622" y2="116.59" gradientUnits="userSpaceOnUse">
<stop stop-color="#594A8E"/>
<stop offset="1" stop-color="#7662BD"/>
</linearGradient>
<linearGradient id="paint16_linear_515_1596" x1="124.596" y1="127.058" x2="124.538" y2="152.555" gradientUnits="userSpaceOnUse">
<stop stop-color="#43386B"/>
<stop offset="1" stop-color="#594A8E"/>
</linearGradient>
<linearGradient id="paint17_linear_515_1596" x1="222.173" y1="240.042" x2="222.277" y2="194.014" gradientUnits="userSpaceOnUse">
<stop stop-color="#FF4757"/>
<stop offset="1" stop-color="#FF959D"/>
</linearGradient>
<linearGradient id="paint18_linear_515_1596" x1="239.395" y1="203.821" x2="230.899" y2="212.12" gradientUnits="userSpaceOnUse">
<stop stop-color="white"/>
<stop offset="0.1" stop-color="white" stop-opacity="0.85"/>
<stop offset="0.29" stop-color="white" stop-opacity="0.6"/>
<stop offset="0.47" stop-color="white" stop-opacity="0.38"/>
<stop offset="0.63" stop-color="white" stop-opacity="0.22"/>
<stop offset="0.78" stop-color="white" stop-opacity="0.1"/>
<stop offset="0.91" stop-color="white" stop-opacity="0.03"/>
<stop offset="1" stop-color="white" stop-opacity="0"/>
</linearGradient>
<linearGradient id="paint19_linear_515_1596" x1="214.651" y1="200.023" x2="212.348" y2="205.819" gradientUnits="userSpaceOnUse">
<stop stop-color="white"/>
<stop offset="0.1" stop-color="white" stop-opacity="0.85"/>
<stop offset="0.29" stop-color="white" stop-opacity="0.6"/>
<stop offset="0.47" stop-color="white" stop-opacity="0.38"/>
<stop offset="0.63" stop-color="white" stop-opacity="0.22"/>
<stop offset="0.78" stop-color="white" stop-opacity="0.1"/>
<stop offset="0.91" stop-color="white" stop-opacity="0.03"/>
<stop offset="1" stop-color="white" stop-opacity="0"/>
</linearGradient>
<linearGradient id="paint20_linear_515_1596" x1="112.158" y1="230.584" x2="112.158" y2="220.021" gradientUnits="userSpaceOnUse">
<stop stop-color="#FF4757"/>
<stop offset="1" stop-color="#FF959D"/>
</linearGradient>
<linearGradient id="paint21_linear_515_1596" x1="131.331" y1="231.11" x2="131.379" y2="209.984" gradientUnits="userSpaceOnUse">
<stop stop-color="#FFA538"/>
<stop offset="1" stop-color="#F7E041"/>
</linearGradient>
<linearGradient id="paint22_linear_515_1596" x1="151.241" y1="231.288" x2="151.308" y2="202.161" gradientUnits="userSpaceOnUse">
<stop stop-color="#0072BC"/>
<stop offset="1" stop-color="#59ACF9"/>
</linearGradient>
<linearGradient id="paint23_linear_515_1596" x1="234.482" y1="127.969" x2="234.572" y2="88.2527" gradientUnits="userSpaceOnUse">
<stop stop-color="#FFA538"/>
<stop offset="0.04" stop-color="#FFA838"/>
<stop offset="0.43" stop-color="#FAC73D"/>
<stop offset="0.76" stop-color="#F8D940"/>
<stop offset="1" stop-color="#F7E041"/>
</linearGradient>
<linearGradient id="paint24_linear_515_1596" x1="67.1474" y1="95.338" x2="67.1474" y2="27.1011" gradientUnits="userSpaceOnUse">
<stop stop-color="#FFA538"/>
<stop offset="0.38" stop-color="#FBC23C"/>
<stop offset="0.76" stop-color="#F8D840"/>
<stop offset="1" stop-color="#F7E041"/>
</linearGradient>
<linearGradient id="paint25_linear_515_1596" x1="63.2624" y1="70.6458" x2="53.7206" y2="80.1876" gradientUnits="userSpaceOnUse">
<stop stop-color="#001F5C"/>
<stop offset="0.12" stop-color="#072661"/>
<stop offset="0.69" stop-color="#274175"/>
<stop offset="1" stop-color="#334C7D"/>
</linearGradient>
<linearGradient id="paint26_linear_515_1596" x1="63.4398" y1="70.4695" x2="59.3971" y2="74.5121" gradientUnits="userSpaceOnUse">
<stop stop-color="#C9EDFF"/>
<stop offset="1" stop-color="#DFF4FF"/>
</linearGradient>
<linearGradient id="paint27_linear_515_1596" x1="61.6129" y1="72.3006" x2="85.4115" y2="48.502" gradientUnits="userSpaceOnUse">
<stop stop-color="#001F5C"/>
<stop offset="0.12" stop-color="#072661"/>
<stop offset="0.69" stop-color="#274175"/>
<stop offset="1" stop-color="#334C7D"/>
</linearGradient>
<linearGradient id="paint28_linear_515_1596" x1="64.335" y1="69.5798" x2="81.3366" y2="52.5781" gradientUnits="userSpaceOnUse">
<stop stop-color="white" stop-opacity="0.99"/>
<stop offset="0.12" stop-color="white" stop-opacity="0.78"/>
<stop offset="0.23" stop-color="white" stop-opacity="0.62"/>
<stop offset="0.33" stop-color="white" stop-opacity="0.5"/>
<stop offset="0.42" stop-color="white" stop-opacity="0.43"/>
<stop offset="0.47" stop-color="white" stop-opacity="0.4"/>
<stop offset="0.54" stop-color="white" stop-opacity="0.44"/>
<stop offset="0.65" stop-color="white" stop-opacity="0.53"/>
<stop offset="0.78" stop-color="white" stop-opacity="0.69"/>
<stop offset="0.93" stop-color="white" stop-opacity="0.9"/>
<stop offset="1" stop-color="white"/>
</linearGradient>
<linearGradient id="paint29_linear_515_1596" x1="71.1412" y1="71.0467" x2="71.1319" y2="55.4268" gradientUnits="userSpaceOnUse">
<stop stop-color="white"/>
<stop offset="0.09" stop-color="white" stop-opacity="0.87"/>
<stop offset="0.28" stop-color="white" stop-opacity="0.61"/>
<stop offset="0.46" stop-color="white" stop-opacity="0.39"/>
<stop offset="0.63" stop-color="white" stop-opacity="0.22"/>
<stop offset="0.78" stop-color="white" stop-opacity="0.1"/>
<stop offset="0.91" stop-color="white" stop-opacity="0.03"/>
<stop offset="1" stop-color="white" stop-opacity="0"/>
</linearGradient>
<linearGradient id="paint30_linear_515_1596" x1="326.181" y1="309.834" x2="326.181" y2="275.636" gradientUnits="userSpaceOnUse">
<stop stop-color="#C5BAEB"/>
<stop offset="0.3" stop-color="#D4CCF0"/>
<stop offset="0.71" stop-color="#E3DEF4"/>
<stop offset="1" stop-color="#E9E5F6"/>
</linearGradient>
<linearGradient id="paint31_linear_515_1596" x1="346.279" y1="306.124" x2="346.279" y2="274.553" gradientUnits="userSpaceOnUse">
<stop stop-color="#C5BAEB"/>
<stop offset="0.3" stop-color="#D4CCF0"/>
<stop offset="0.71" stop-color="#E3DEF4"/>
<stop offset="1" stop-color="#E9E5F6"/>
</linearGradient>
<linearGradient id="paint32_linear_515_1596" x1="356.325" y1="269.655" x2="356.325" y2="308.487" gradientUnits="userSpaceOnUse">
<stop stop-color="#C5BAEB"/>
<stop offset="0.3" stop-color="#D4CCF0"/>
<stop offset="0.71" stop-color="#E3DEF4"/>
<stop offset="1" stop-color="#E9E5F6"/>
</linearGradient>
<linearGradient id="paint33_linear_515_1596" x1="336.232" y1="269.655" x2="336.232" y2="308.487" gradientUnits="userSpaceOnUse">
<stop stop-color="#C5BAEB"/>
<stop offset="0.3" stop-color="#D4CCF0"/>
<stop offset="0.71" stop-color="#E3DEF4"/>
<stop offset="1" stop-color="#E9E5F6"/>
</linearGradient>
<linearGradient id="paint34_linear_515_1596" x1="366.372" y1="304.367" x2="366.372" y2="277.392" gradientUnits="userSpaceOnUse">
<stop stop-color="#C5BAEB"/>
<stop offset="0.3" stop-color="#D4CCF0"/>
<stop offset="0.71" stop-color="#E3DEF4"/>
<stop offset="1" stop-color="#E9E5F6"/>
</linearGradient>
<linearGradient id="paint35_linear_515_1596" x1="331.211" y1="341.665" x2="331.211" y2="296.006" gradientUnits="userSpaceOnUse">
<stop stop-color="#C5BAEB"/>
<stop offset="0.3" stop-color="#D4CCF0"/>
<stop offset="0.71" stop-color="#E3DEF4"/>
<stop offset="1" stop-color="#E9E5F6"/>
</linearGradient>
<linearGradient id="paint36_linear_515_1596" x1="346.279" y1="328.844" x2="346.279" y2="283.186" gradientUnits="userSpaceOnUse">
<stop stop-color="#C5BAEB"/>
<stop offset="0.3" stop-color="#D4CCF0"/>
<stop offset="0.71" stop-color="#E3DEF4"/>
<stop offset="1" stop-color="#E9E5F6"/>
</linearGradient>
<linearGradient id="paint37_linear_515_1596" x1="361.356" y1="344.424" x2="361.356" y2="298.779" gradientUnits="userSpaceOnUse">
<stop stop-color="#C5BAEB"/>
<stop offset="0.3" stop-color="#D4CCF0"/>
<stop offset="0.71" stop-color="#E3DEF4"/>
<stop offset="1" stop-color="#E9E5F6"/>
</linearGradient>
<linearGradient id="paint38_linear_515_1596" x1="55.1353" y1="325.426" x2="55.1353" y2="405.269" gradientUnits="userSpaceOnUse">
<stop stop-color="white"/>
<stop offset="0.09" stop-color="white" stop-opacity="0.87"/>
<stop offset="0.28" stop-color="white" stop-opacity="0.61"/>
<stop offset="0.46" stop-color="white" stop-opacity="0.39"/>
<stop offset="0.63" stop-color="white" stop-opacity="0.22"/>
<stop offset="0.78" stop-color="white" stop-opacity="0.1"/>
<stop offset="0.91" stop-color="white" stop-opacity="0.03"/>
<stop offset="1" stop-color="white" stop-opacity="0"/>
</linearGradient>
<linearGradient id="paint39_linear_515_1596" x1="345.921" y1="149.42" x2="345.921" y2="201.007" gradientUnits="userSpaceOnUse">
<stop stop-color="white"/>
<stop offset="0.09" stop-color="white" stop-opacity="0.87"/>
<stop offset="0.28" stop-color="white" stop-opacity="0.61"/>
<stop offset="0.46" stop-color="white" stop-opacity="0.39"/>
<stop offset="0.63" stop-color="white" stop-opacity="0.22"/>
<stop offset="0.78" stop-color="white" stop-opacity="0.1"/>
<stop offset="0.91" stop-color="white" stop-opacity="0.03"/>
<stop offset="1" stop-color="white" stop-opacity="0"/>
</linearGradient>
<linearGradient id="paint40_linear_515_1596" x1="131.38" y1="-2.42155" x2="131.38" y2="63.1878" gradientUnits="userSpaceOnUse">
<stop stop-color="white"/>
<stop offset="0.09" stop-color="white" stop-opacity="0.87"/>
<stop offset="0.28" stop-color="white" stop-opacity="0.61"/>
<stop offset="0.46" stop-color="white" stop-opacity="0.39"/>
<stop offset="0.63" stop-color="white" stop-opacity="0.22"/>
<stop offset="0.78" stop-color="white" stop-opacity="0.1"/>
<stop offset="0.91" stop-color="white" stop-opacity="0.03"/>
<stop offset="1" stop-color="white" stop-opacity="0"/>
</linearGradient>
<linearGradient id="paint41_linear_515_1596" x1="55.1363" y1="283.899" x2="55.1363" y2="246.4" gradientUnits="userSpaceOnUse">
<stop stop-color="#00395E"/>
<stop offset="0.17" stop-color="#003E66"/>
<stop offset="0.44" stop-color="#004B7C"/>
<stop offset="0.77" stop-color="#0061A0"/>
<stop offset="1" stop-color="#0072BC"/>
</linearGradient>
<linearGradient id="paint42_linear_515_1596" x1="37.4051" y1="250.602" x2="53.1704" y2="250.602" gradientUnits="userSpaceOnUse">
<stop stop-color="#FF4757"/>
<stop offset="0.12" stop-color="#FF5362"/>
<stop offset="0.49" stop-color="#FF7782"/>
<stop offset="0.8" stop-color="#FF8D96"/>
<stop offset="1" stop-color="#FF959D"/>
</linearGradient>
<linearGradient id="paint43_linear_515_1596" x1="32.6947" y1="294.703" x2="32.6947" y2="258.763" gradientUnits="userSpaceOnUse">
<stop stop-color="#00395E"/>
<stop offset="0.17" stop-color="#003E66"/>
<stop offset="0.44" stop-color="#004B7C"/>
<stop offset="0.77" stop-color="#0061A0"/>
<stop offset="1" stop-color="#0072BC"/>
</linearGradient>
</defs>
</svg>
