<svg xmlns="http://www.w3.org/2000/svg" width="413" height="392" fill="none"><path fill="url(#a)" d="M380.026 319.47c6.723-18.645-2.941-39.211-21.586-45.934-18.645-6.724-39.21 2.94-45.934 21.585s2.941 39.21 21.586 45.934 39.21-2.94 45.934-21.585"/><path fill="url(#b)" d="M371.085 113.569c23.069-5.368 37.418-28.42 32.049-51.49-5.368-23.068-28.421-37.417-51.489-32.05-23.069 5.37-37.418 28.422-32.05 51.49s28.421 37.418 51.49 32.05"/><path fill="url(#c)" d="m364.56 73.857-5.88.646 2.703 24.609 5.88-.646z"/><path fill="url(#d)" d="m356.862 74.692 9.437-1.037.602 5.473a1.203 1.203 0 0 1-1.064 1.326l-7.113.781a1.2 1.2 0 0 1-1.326-1.063l-.601-5.473z"/><path fill="url(#e)" d="m349.797 107.174 30.528-3.354a1.57 1.57 0 0 0 1.39-1.733l-1.919-17.47a1.57 1.57 0 0 0-1.734-1.39l-30.528 3.355a1.57 1.57 0 0 0-1.39 1.733l1.919 17.469a1.57 1.57 0 0 0 1.734 1.39"/><path fill="#fff" d="m353.076 103.081 23.139-2.542-1.451-13.203-23.139 2.542z"/><path fill="url(#f)" d="m375.006 63.014 3.829-.423a6.216 6.216 0 0 0 5.506-6.866l-.99-9.018-10.022 1.096-.528-4.82 10.431-1.148a4.44 4.44 0 0 1 4.898 3.961l1.043 9.428a11.087 11.087 0 0 1-9.81 12.226l-3.829.423z"/><path fill="url(#g)" d="m346.135 66.186-3.842.423a6.23 6.23 0 0 1-6.866-5.506l-.99-9.018 10.022-1.096-.529-4.833-10.431 1.149a4.445 4.445 0 0 0-3.808 3.176 4.4 4.4 0 0 0-.153 1.736l1.043 9.414a11.08 11.08 0 0 0 7.918 9.436c1.398.407 2.862.534 4.309.374l3.829-.422z"/><path fill="url(#h)" d="m376.251 36.517-37.103 4.066 2.324 21.258A18.686 18.686 0 0 0 362.07 78.36a18.66 18.66 0 0 0 16.505-20.598z"/><path fill="url(#i)" d="M156.872 128.455a16.65 16.65 0 0 1 10.3-15.418 16.7 16.7 0 0 1 6.389-1.259l.067-32.256a97.825 97.825 0 0 0-98.038 97.615l32.257.066a16.65 16.65 0 1 0 33.299 0l32.27.079v-32.27a16.637 16.637 0 0 1-16.544-16.557"/><path fill="url(#j)" d="M195.54 155.349h32.257c.005-2.186.441-4.35 1.283-6.368a16.645 16.645 0 0 1 27.168-5.337 16.65 16.65 0 0 1 4.849 11.785l32.27.066a97.82 97.82 0 0 0-28.503-69.236 97.84 97.84 0 0 0-69.112-28.802l-.066 32.257a16.65 16.65 0 0 0-.08 33.3z"/><path fill="url(#k)" d="M238.975 177.542a16.653 16.653 0 0 0-16.611-16.689 16.647 16.647 0 0 0-16.689 16.61l-32.257-.066-.211 97.826a97.837 97.837 0 0 0 98.038-97.615z"/><path fill="url(#l)" d="m173.337 209.657.079-32.257-32.269-.079a16.65 16.65 0 0 1-33.3 0l-32.257-.066a97.83 97.83 0 0 0 97.615 98.038v-32.27a16.65 16.65 0 0 0 15.403-10.248 16.64 16.64 0 0 0 .025-12.743 16.63 16.63 0 0 0-8.993-9.029 16.6 16.6 0 0 0-6.369-1.28z"/><path fill="url(#m)" d="m137.102 278.315 72.131.164-.111 49.157a26.64 26.64 0 0 1-26.706 26.585l-18.841-.043a26.65 26.65 0 0 1-18.824-7.847 26.65 26.65 0 0 1-7.761-18.858z"/><path fill="url(#n)" d="M120.207 259.499v33.102a32.694 32.694 0 0 0 32.587 32.771l40.641.093a32.72 32.72 0 0 0 32.785-32.64v-33.088z"/><path fill="#D7D1EB" d="m226.271 267.592-106.052-.222-.017 7.949 106.052.222zm-.043 18.537-106.052-.222-.017 7.949 106.052.222zm-2.332 18.581-101.47-.158a32.4 32.4 0 0 0 4.463 7.922l92.571.198a32.4 32.4 0 0 0 4.436-7.962"/><path fill="url(#o)" d="M143.797 138.871a2.8 2.8 0 0 1 0-4.252l2.997-2.64c.373-.318.623-.755.708-1.237a2.1 2.1 0 0 0-.245-1.404l-4.965-8.622a2.1 2.1 0 0 0-2.509-.938l-3.723 1.321a2.815 2.815 0 0 1-3.684-2.139l-.726-3.882a2.1 2.1 0 0 0-2.06-1.717h-9.942a2.1 2.1 0 0 0-2.06 1.704l-.74 3.881a2.8 2.8 0 0 1-1.36 1.912 2.81 2.81 0 0 1-2.337.214l-3.723-1.32a2.096 2.096 0 0 0-2.509.924l-4.991 8.609a2.12 2.12 0 0 0-.254 1.398c.08.482.324.921.69 1.243l2.997 2.575a2.81 2.81 0 0 1 0 4.264l-2.997 2.562a2.1 2.1 0 0 0-.462 2.641l4.964 8.622a2.09 2.09 0 0 0 2.496.937l3.737-1.32a2.8 2.8 0 0 1 2.331.225 2.8 2.8 0 0 1 1.352 1.914l.727 3.882a2.08 2.08 0 0 0 2.059 1.703h9.943a2.104 2.104 0 0 0 2.06-1.703l.739-3.882a2.805 2.805 0 0 1 2.508-2.262 2.8 2.8 0 0 1 1.189.149l3.723 1.32a2.096 2.096 0 0 0 2.509-.924l4.991-8.595a2.114 2.114 0 0 0-.436-2.641zm-19.224 5.136a7.31 7.31 0 0 1-7.173-8.751 7.317 7.317 0 0 1 9.99-5.314 7.31 7.31 0 0 1 4.497 6.777 7.295 7.295 0 0 1-4.519 6.737 7.3 7.3 0 0 1-2.795.551"/><path fill="url(#p)" d="M124.627 119.133a17.57 17.57 0 0 0-16.27 10.803 17.57 17.57 0 0 0 3.758 19.165 17.57 17.57 0 0 0 19.145 3.859 17.58 17.58 0 0 0 10.888-16.213 17.56 17.56 0 0 0-17.521-17.614m0 24.876a7.317 7.317 0 0 1-5.163-12.497 7.32 7.32 0 0 1 7.981-1.569 7.322 7.322 0 0 1 2.33 11.955 7.3 7.3 0 0 1-5.201 2.111z"/><path fill="url(#q)" d="M124.611 125.508a11.202 11.202 0 0 0-11.028 13.347 11.2 11.2 0 0 0 8.774 8.825 11.195 11.195 0 1 0 2.254-22.172m0 18.485a7.31 7.31 0 0 1-6.76-4.522 7.32 7.32 0 0 1 1.597-7.974 7.315 7.315 0 0 1 12.478 5.208c0 .963-.19 1.917-.561 2.806a7.31 7.31 0 0 1-6.793 4.495z"/><path fill="url(#r)" d="M240.956 202.026a13.336 13.336 0 0 0-18.683.132 13.323 13.323 0 0 0-18.67-.225 13.62 13.62 0 0 0-2.961 14.867 13.6 13.6 0 0 0 2.961 4.424l15.263 15.316a4.687 4.687 0 0 0 6.602 0l15.369-15.171a13.6 13.6 0 0 0 4.093-9.647 13.6 13.6 0 0 0-3.974-9.696"/><path fill="url(#s)" d="M241.763 213.827c2.31-2.311 1.412-6.971-2.02-10.418s-8.081-4.37-10.405-2.059-1.413 6.971 2.02 10.417 8.081 4.318 10.405 2.06" opacity=".4"/><path fill="url(#t)" d="M220.972 204.809c.621-1.611-1.201-3.802-4.067-4.912s-5.69-.699-6.311.911c-.621 1.611 1.201 3.816 4.067 4.925 2.865 1.11 5.677.687 6.311-.924" opacity=".2"/><path fill="url(#u)" d="M107.194 219.744h9.916a1.48 1.48 0 0 1 1.478 1.479v9.163h-12.873v-9.163a1.48 1.48 0 0 1 1.479-1.479"/><path fill="url(#v)" d="m126.389 209.484 9.916.022a1.48 1.48 0 0 1 1.475 1.482l-.045 19.806-12.873-.029.045-19.806a1.476 1.476 0 0 1 1.482-1.475"/><path fill="url(#w)" d="m146.345 201.463 9.915.023a1.48 1.48 0 0 1 1.476 1.482l-.063 27.873-12.861-.029.064-27.926a1.48 1.48 0 0 1 1.469-1.423"/><path fill="url(#x)" d="m236.612 88.579 5.123 10.747 11.805 1.598a2.246 2.246 0 0 1 1.241 3.855l-8.636 8.2 2.113 11.712a2.244 2.244 0 0 1-3.274 2.376l-10.471-5.677-10.418 5.625a2.25 2.25 0 0 1-2.381-.172 2.24 2.24 0 0 1-.88-2.218l2.165-11.699-8.595-8.239a2.243 2.243 0 0 1 1.254-3.842l11.804-1.558 5.176-10.722a2.247 2.247 0 0 1 3.151-.867c.35.213.634.518.823.88"/><path fill="url(#y)" d="M67.147 92.34c14.133 0 25.59-11.456 25.59-25.588S81.28 41.163 67.146 41.163 41.56 52.62 41.56 66.752 53.015 92.34 67.147 92.34"/><path fill="url(#z)" d="m65.829 71.731-3.644-3.644L50.46 79.799a2.64 2.64 0 0 0 0 3.644 2.64 2.64 0 0 0 3.644 0z"/><path fill="url(#A)" d="m64.822 72.56-3.483-3.482a.264.264 0 0 0-.373 0l-3.296 3.296a.264.264 0 0 0 0 .374l3.482 3.482c.103.103.27.103.374 0l3.296-3.296a.264.264 0 0 0 0-.373"/><path fill="url(#B)" d="M80.647 53.261a13.468 13.468 0 1 0-19.054 19.041 13.468 13.468 0 0 0 19.054-19.04m-16.32 16.267a9.612 9.612 0 1 1 13.6 0 9.626 9.626 0 0 1-13.6 0"/><path fill="url(#C)" d="M71.132 72.39a9.612 9.612 0 1 0 0-19.225 9.612 9.612 0 0 0 0 19.225" opacity=".4"/><path fill="url(#D)" d="M77.932 55.979a9.613 9.613 0 0 0-16.412 6.8h19.224a9.6 9.6 0 0 0-2.812-6.8" opacity=".4"/><path fill="url(#E)" d="m326.181 285.948-10.048 15.528h20.096z"/><path fill="url(#F)" d="m346.279 285.948-10.049 15.528h20.097z"/><path fill="url(#G)" d="m356.325 301.476 10.048-15.528h-20.096z"/><path fill="url(#H)" d="m336.232 301.476 10.048-15.528h-20.096z"/><path fill="url(#I)" d="m366.372 285.948-10.048 15.528h20.096z"/><path fill="url(#J)" d="m336.229 301.473 10.048 34.21-30.144-34.21z"/><path fill="url(#K)" d="m356.327 301.473-10.048 34.21-10.049-34.21z"/><path fill="url(#L)" d="m376.421 301.473-30.144 34.21 10.048-34.21z"/><g opacity=".6"><circle cx="318.464" cy="103.75" r="1.221" fill="#fff"/><path stroke="#fff" stroke-linecap="round" stroke-miterlimit="10" stroke-width="2.443" d="m310.108 106.97-12.557 4.819"/><circle cx="293.366" cy="113.389" r="1.221" fill="#fff"/></g><g opacity=".6"><circle cx="257.913" cy="242.874" r="1.221" fill="#fff"/><path stroke="#fff" stroke-linecap="round" stroke-miterlimit="10" stroke-width="2.443" d="m265.398 248.522 41.249 31.082"/><circle cx="310.397" cy="282.433" r="1.221" fill="#fff"/></g><path fill="url(#M)" d="M96.186 354.95c.201-1.098.303-2.212.303-3.328a18.77 18.77 0 0 0-8.388-15.646 18.76 18.76 0 0 0-17.676-1.65 22.686 22.686 0 0 0-33.778-3.192 22.7 22.7 0 0 0-6.467 10.823 14.5 14.5 0 0 0-2.152-.158 14.3 14.3 0 0 0-14.247 13.204z" opacity=".4"/><path fill="url(#N)" d="M306.205 176.831a17 17 0 0 1-.291-3.221 18.174 18.174 0 0 1 16.471-18.074 18.2 18.2 0 0 1 8.748 1.344 21.936 21.936 0 0 1 32.675-3.094 21.94 21.94 0 0 1 6.25 10.475 16 16 0 0 1 2.099-.158 13.84 13.84 0 0 1 13.785 12.728z" opacity=".4"/><path fill="url(#O)" d="M171.097 28.937c.197-1.062.294-2.14.291-3.221a18.17 18.17 0 0 0-25.193-16.743A21.95 21.95 0 0 0 124.399.386a21.94 21.94 0 0 0-17.129 15.981 13.835 13.835 0 0 0-15.844 12.57z" opacity=".4"/><path fill="#59ACF9" d="M41.565 316.791c22.956 0 41.566-18.61 41.566-41.566 0-22.955-18.61-41.565-41.566-41.565S0 252.27 0 275.225c0 22.956 18.61 41.566 41.565 41.566M135.774 392c15.787 0 28.586-12.798 28.586-28.586s-12.799-28.586-28.586-28.586c-15.788 0-28.586 12.799-28.586 28.586 0 15.788 12.798 28.586 28.586 28.586"/><path fill="#FFC940" d="M135.77 334.844v28.573l20.214 20.215a28.573 28.573 0 0 0-20.214-48.788"/><path fill="#FF4757" d="M135.77 334.844v28.573l11.315-26.249a28.55 28.55 0 0 0-11.315-2.324"/><path fill="url(#P)" d="m52.443 266.483-16.545 28.613h38.476l-16.531-28.613a3.13 3.13 0 0 0-2.7-1.547 3.12 3.12 0 0 0-2.7 1.547"/><path fill="url(#Q)" d="m45.393 250.602-12.702-5.043v10.087z"/><path fill="url(#R)" d="M30.001 258.34 8.77 295.099h47.863L35.415 258.34a3.13 3.13 0 0 0-2.707-1.559A3.13 3.13 0 0 0 30 258.34"/><path stroke="#F2EFFA" stroke-linecap="round" stroke-miterlimit="10" stroke-width="2.443" d="M32.691 258.855v-12.543"/><path fill="#fff" d="M30.265 267.926a3.566 3.566 0 0 1 4.872 0 4.82 4.82 0 0 0 6.047.409l-5.77-9.995a3.13 3.13 0 0 0-2.707-1.559A3.13 3.13 0 0 0 30 258.34l-5.77 9.982a4.82 4.82 0 0 0 6.035-.396"/><g opacity=".6"><circle cx="41.182" cy="225.395" r="1.221" fill="#fff"/><path stroke="#fff" stroke-linecap="round" stroke-miterlimit="10" stroke-width="2.443" d="M41.176 217.235v-12.253"/><circle cx="41.182" cy="200.901" r="1.221" fill="#fff"/><path stroke="#fff" stroke-linecap="round" stroke-miterlimit="10" stroke-width="2.443" d="M51.164 200.901h14.973"/><circle cx="71.128" cy="200.901" r="1.221" fill="#fff"/></g><path fill="#FFC940" d="m32.905 129.271.594 2.403a6.6 6.6 0 0 0 4.885 4.886l2.39.594a.659.659 0 1 1 0 1.32l-2.39.581a6.6 6.6 0 0 0-4.885 4.885l-.594 2.404a.657.657 0 0 1-.66.66.66.66 0 0 1-.66-.66l-.582-2.404a6.68 6.68 0 0 0-4.885-4.885l-2.403-.581a.659.659 0 1 1 0-1.32l2.403-.594a6.61 6.61 0 0 0 4.885-4.886l.581-2.403a.673.673 0 0 1 1.32 0M222.91 5.935l.581 2.403a6.6 6.6 0 0 0 4.886 4.886l2.403.594a.676.676 0 0 1 .54.66.676.676 0 0 1-.54.66l-2.403.581a6.6 6.6 0 0 0-4.886 4.886l-.581 2.403a.67.67 0 0 1-1.087.388.67.67 0 0 1-.233-.388l-.581-2.403a6.6 6.6 0 0 0-4.886-4.886l-2.403-.58a.675.675 0 0 1-.388-1.088.68.68 0 0 1 .388-.233l2.403-.594a6.6 6.6 0 0 0 4.886-4.886l.581-2.403a.67.67 0 0 1 1.087-.388c.12.099.203.236.233.388m113.967 203.628.594 2.389a6.61 6.61 0 0 0 4.886 4.886l2.403.594a.675.675 0 0 1 .541.66.67.67 0 0 1-.541.66l-2.403.581a6.61 6.61 0 0 0-4.886 4.886l-.594 2.403a.66.66 0 1 1-1.32 0l-.581-2.403a6.68 6.68 0 0 0-4.885-4.886l-2.403-.581a.66.66 0 0 1-.661-.66.66.66 0 0 1 .661-.66l2.403-.594a6.6 6.6 0 0 0 4.885-4.886l.581-2.389a.66.66 0 0 1 .66-.661.66.66 0 0 1 .66.661m-87.346 125.119.581 2.403a6.6 6.6 0 0 0 4.886 4.886l2.403.581a.673.673 0 0 1 0 1.32l-2.403.581a6.6 6.6 0 0 0-4.886 4.885l-.581 2.404a.673.673 0 0 1-1.32 0l-.581-2.404a6.6 6.6 0 0 0-1.753-3.132 6.6 6.6 0 0 0-3.132-1.753l-2.404-.581a.68.68 0 0 1-.388-.233.68.68 0 0 1 0-.854.67.67 0 0 1 .388-.233l2.404-.581a6.6 6.6 0 0 0 4.885-4.886l.581-2.403a.674.674 0 0 1 1.32 0M97.138 304.129l.581 2.403a6.6 6.6 0 0 0 4.886 4.885l2.403.581a.66.66 0 1 1 0 1.321l-2.403.594a6.6 6.6 0 0 0-4.886 4.885l-.58 2.403a.674.674 0 0 1-1.321 0l-.594-2.403a6.6 6.6 0 0 0-4.886-4.885l-2.403-.594a.672.672 0 0 1-.388-1.087.68.68 0 0 1 .388-.234l2.403-.581a6.6 6.6 0 0 0 4.886-4.885l.594-2.403a.661.661 0 0 1 1.32 0"/><defs><linearGradient id="a" x1="346.229" x2="346.229" y1="363.013" y2="286.656" gradientUnits="userSpaceOnUse"><stop stop-color="#43386B"/><stop offset=".58" stop-color="#514482"/><stop offset="1" stop-color="#594A8E"/></linearGradient><linearGradient id="b" x1="361.352" x2="361.352" y1="124.9" y2="12.589" gradientUnits="userSpaceOnUse"><stop stop-color="#FF4757"/><stop offset=".12" stop-color="#FF5362"/><stop offset=".49" stop-color="#FF7782"/><stop offset=".8" stop-color="#FF8D96"/><stop offset="1" stop-color="#FF959D"/></linearGradient><linearGradient id="c" x1="361.552" x2="364.658" y1="73.444" y2="101.714" gradientUnits="userSpaceOnUse"><stop stop-color="#FFA538"/><stop offset=".04" stop-color="#FFA838"/><stop offset=".43" stop-color="#FAC73D"/><stop offset=".76" stop-color="#F8D940"/><stop offset="1" stop-color="#F7E041"/></linearGradient><linearGradient id="d" x1="361.605" x2="362.447" y1="73.972" y2="81.636" gradientUnits="userSpaceOnUse"><stop stop-color="#FFA538"/><stop offset=".04" stop-color="#FFA838"/><stop offset=".43" stop-color="#FAC73D"/><stop offset=".76" stop-color="#F8D940"/><stop offset="1" stop-color="#F7E041"/></linearGradient><linearGradient id="e" x1="365.115" x2="362.517" y1="106.115" y2="82.465" gradientUnits="userSpaceOnUse"><stop stop-color="#00395E"/><stop offset=".17" stop-color="#003E66"/><stop offset=".44" stop-color="#004B7C"/><stop offset=".77" stop-color="#0061A0"/><stop offset="1" stop-color="#0072BC"/></linearGradient><linearGradient id="f" x1="388.713" x2="370.216" y1="53.141" y2="55.196" gradientUnits="userSpaceOnUse"><stop stop-color="#F7E041"/><stop offset="1" stop-color="#FFA538"/></linearGradient><linearGradient id="g" x1="330.458" x2="349.016" y1="60.221" y2="58.181" gradientUnits="userSpaceOnUse"><stop stop-color="#F7E041"/><stop offset="1" stop-color="#FFA538"/></linearGradient><linearGradient id="h" x1="362.974" x2="357.884" y1="86.468" y2="40.137" gradientUnits="userSpaceOnUse"><stop stop-color="#FFA538"/><stop offset=".04" stop-color="#FFA838"/><stop offset=".43" stop-color="#FAC73D"/><stop offset=".76" stop-color="#F8D940"/><stop offset="1" stop-color="#F7E041"/></linearGradient><linearGradient id="i" x1="93.04" x2="192.511" y1="95.357" y2="199.355" gradientUnits="userSpaceOnUse"><stop stop-color="#FF4757"/><stop offset=".12" stop-color="#FF5362"/><stop offset=".49" stop-color="#FF7782"/><stop offset=".8" stop-color="#FF8D96"/><stop offset="1" stop-color="#FF959D"/></linearGradient><linearGradient id="j" x1="292.707" x2="183.124" y1="57.982" y2="168.504" gradientUnits="userSpaceOnUse"><stop stop-color="#00395E"/><stop offset=".17" stop-color="#003E66"/><stop offset=".44" stop-color="#004B7C"/><stop offset=".77" stop-color="#0061A0"/><stop offset="1" stop-color="#0072BC"/></linearGradient><linearGradient id="k" x1="237.186" x2="208.082" y1="282.265" y2="173.572" gradientUnits="userSpaceOnUse"><stop stop-color="#FFA538"/><stop offset=".38" stop-color="#FBC23C"/><stop offset=".76" stop-color="#F8D840"/><stop offset="1" stop-color="#F7E041"/></linearGradient><linearGradient id="l" x1="161.035" x2="128.025" y1="312.746" y2="189.461" gradientUnits="userSpaceOnUse"><stop stop-color="#06DAAE"/><stop offset=".17" stop-color="#28DFB9"/><stop offset=".44" stop-color="#59E6C9"/><stop offset=".68" stop-color="#7DECD5"/><stop offset=".87" stop-color="#93EFDC"/><stop offset="1" stop-color="#9BF0DF"/></linearGradient><linearGradient id="m" x1="173.111" x2="172.978" y1="306.323" y2="364.974" gradientUnits="userSpaceOnUse"><stop stop-color="#43386B"/><stop offset=".58" stop-color="#514482"/><stop offset="1" stop-color="#594A8E"/></linearGradient><linearGradient id="n" x1="173.032" x2="173.231" y1="335.634" y2="247.817" gradientUnits="userSpaceOnUse"><stop stop-color="#D7D1EB"/><stop offset=".52" stop-color="#E3DEF2"/><stop offset="1" stop-color="#E9E5F6"/></linearGradient><linearGradient id="o" x1="124.507" x2="124.63" y1="166.552" y2="112.364" gradientUnits="userSpaceOnUse"><stop stop-color="#43386B"/><stop offset="1" stop-color="#594A8E"/></linearGradient><linearGradient id="p" x1="124.525" x2="124.622" y1="159.159" y2="116.59" gradientUnits="userSpaceOnUse"><stop stop-color="#594A8E"/><stop offset="1" stop-color="#7662BD"/></linearGradient><linearGradient id="q" x1="124.596" x2="124.538" y1="127.058" y2="152.555" gradientUnits="userSpaceOnUse"><stop stop-color="#43386B"/><stop offset="1" stop-color="#594A8E"/></linearGradient><linearGradient id="r" x1="222.173" x2="222.277" y1="240.042" y2="194.014" gradientUnits="userSpaceOnUse"><stop stop-color="#FF4757"/><stop offset="1" stop-color="#FF959D"/></linearGradient><linearGradient id="s" x1="239.395" x2="230.899" y1="203.821" y2="212.12" gradientUnits="userSpaceOnUse"><stop stop-color="#fff"/><stop offset=".1" stop-color="#fff" stop-opacity=".85"/><stop offset=".29" stop-color="#fff" stop-opacity=".6"/><stop offset=".47" stop-color="#fff" stop-opacity=".38"/><stop offset=".63" stop-color="#fff" stop-opacity=".22"/><stop offset=".78" stop-color="#fff" stop-opacity=".1"/><stop offset=".91" stop-color="#fff" stop-opacity=".03"/><stop offset="1" stop-color="#fff" stop-opacity="0"/></linearGradient><linearGradient id="t" x1="214.651" x2="212.348" y1="200.023" y2="205.819" gradientUnits="userSpaceOnUse"><stop stop-color="#fff"/><stop offset=".1" stop-color="#fff" stop-opacity=".85"/><stop offset=".29" stop-color="#fff" stop-opacity=".6"/><stop offset=".47" stop-color="#fff" stop-opacity=".38"/><stop offset=".63" stop-color="#fff" stop-opacity=".22"/><stop offset=".78" stop-color="#fff" stop-opacity=".1"/><stop offset=".91" stop-color="#fff" stop-opacity=".03"/><stop offset="1" stop-color="#fff" stop-opacity="0"/></linearGradient><linearGradient id="u" x1="112.158" x2="112.158" y1="230.584" y2="220.021" gradientUnits="userSpaceOnUse"><stop stop-color="#FF4757"/><stop offset="1" stop-color="#FF959D"/></linearGradient><linearGradient id="v" x1="131.331" x2="131.379" y1="231.11" y2="209.984" gradientUnits="userSpaceOnUse"><stop stop-color="#FFA538"/><stop offset="1" stop-color="#F7E041"/></linearGradient><linearGradient id="w" x1="151.241" x2="151.308" y1="231.288" y2="202.161" gradientUnits="userSpaceOnUse"><stop stop-color="#0072BC"/><stop offset="1" stop-color="#59ACF9"/></linearGradient><linearGradient id="x" x1="234.482" x2="234.572" y1="127.969" y2="88.253" gradientUnits="userSpaceOnUse"><stop stop-color="#FFA538"/><stop offset=".04" stop-color="#FFA838"/><stop offset=".43" stop-color="#FAC73D"/><stop offset=".76" stop-color="#F8D940"/><stop offset="1" stop-color="#F7E041"/></linearGradient><linearGradient id="y" x1="67.147" x2="67.147" y1="95.338" y2="27.101" gradientUnits="userSpaceOnUse"><stop stop-color="#FFA538"/><stop offset=".38" stop-color="#FBC23C"/><stop offset=".76" stop-color="#F8D840"/><stop offset="1" stop-color="#F7E041"/></linearGradient><linearGradient id="z" x1="63.262" x2="53.721" y1="70.646" y2="80.188" gradientUnits="userSpaceOnUse"><stop stop-color="#001F5C"/><stop offset=".12" stop-color="#072661"/><stop offset=".69" stop-color="#274175"/><stop offset="1" stop-color="#334C7D"/></linearGradient><linearGradient id="A" x1="63.44" x2="59.397" y1="70.469" y2="74.512" gradientUnits="userSpaceOnUse"><stop stop-color="#C9EDFF"/><stop offset="1" stop-color="#DFF4FF"/></linearGradient><linearGradient id="B" x1="61.613" x2="85.412" y1="72.301" y2="48.502" gradientUnits="userSpaceOnUse"><stop stop-color="#001F5C"/><stop offset=".12" stop-color="#072661"/><stop offset=".69" stop-color="#274175"/><stop offset="1" stop-color="#334C7D"/></linearGradient><linearGradient id="C" x1="64.335" x2="81.337" y1="69.58" y2="52.578" gradientUnits="userSpaceOnUse"><stop stop-color="#fff" stop-opacity=".99"/><stop offset=".12" stop-color="#fff" stop-opacity=".78"/><stop offset=".23" stop-color="#fff" stop-opacity=".62"/><stop offset=".33" stop-color="#fff" stop-opacity=".5"/><stop offset=".42" stop-color="#fff" stop-opacity=".43"/><stop offset=".47" stop-color="#fff" stop-opacity=".4"/><stop offset=".54" stop-color="#fff" stop-opacity=".44"/><stop offset=".65" stop-color="#fff" stop-opacity=".53"/><stop offset=".78" stop-color="#fff" stop-opacity=".69"/><stop offset=".93" stop-color="#fff" stop-opacity=".9"/><stop offset="1" stop-color="#fff"/></linearGradient><linearGradient id="D" x1="71.141" x2="71.132" y1="71.047" y2="55.427" gradientUnits="userSpaceOnUse"><stop stop-color="#fff"/><stop offset=".09" stop-color="#fff" stop-opacity=".87"/><stop offset=".28" stop-color="#fff" stop-opacity=".61"/><stop offset=".46" stop-color="#fff" stop-opacity=".39"/><stop offset=".63" stop-color="#fff" stop-opacity=".22"/><stop offset=".78" stop-color="#fff" stop-opacity=".1"/><stop offset=".91" stop-color="#fff" stop-opacity=".03"/><stop offset="1" stop-color="#fff" stop-opacity="0"/></linearGradient><linearGradient id="E" x1="326.181" x2="326.181" y1="309.834" y2="275.636" gradientUnits="userSpaceOnUse"><stop stop-color="#C5BAEB"/><stop offset=".3" stop-color="#D4CCF0"/><stop offset=".71" stop-color="#E3DEF4"/><stop offset="1" stop-color="#E9E5F6"/></linearGradient><linearGradient id="F" x1="346.279" x2="346.279" y1="306.124" y2="274.553" gradientUnits="userSpaceOnUse"><stop stop-color="#C5BAEB"/><stop offset=".3" stop-color="#D4CCF0"/><stop offset=".71" stop-color="#E3DEF4"/><stop offset="1" stop-color="#E9E5F6"/></linearGradient><linearGradient id="G" x1="356.325" x2="356.325" y1="269.655" y2="308.487" gradientUnits="userSpaceOnUse"><stop stop-color="#C5BAEB"/><stop offset=".3" stop-color="#D4CCF0"/><stop offset=".71" stop-color="#E3DEF4"/><stop offset="1" stop-color="#E9E5F6"/></linearGradient><linearGradient id="H" x1="336.232" x2="336.232" y1="269.655" y2="308.487" gradientUnits="userSpaceOnUse"><stop stop-color="#C5BAEB"/><stop offset=".3" stop-color="#D4CCF0"/><stop offset=".71" stop-color="#E3DEF4"/><stop offset="1" stop-color="#E9E5F6"/></linearGradient><linearGradient id="I" x1="366.372" x2="366.372" y1="304.367" y2="277.392" gradientUnits="userSpaceOnUse"><stop stop-color="#C5BAEB"/><stop offset=".3" stop-color="#D4CCF0"/><stop offset=".71" stop-color="#E3DEF4"/><stop offset="1" stop-color="#E9E5F6"/></linearGradient><linearGradient id="J" x1="331.211" x2="331.211" y1="341.665" y2="296.006" gradientUnits="userSpaceOnUse"><stop stop-color="#C5BAEB"/><stop offset=".3" stop-color="#D4CCF0"/><stop offset=".71" stop-color="#E3DEF4"/><stop offset="1" stop-color="#E9E5F6"/></linearGradient><linearGradient id="K" x1="346.279" x2="346.279" y1="328.844" y2="283.186" gradientUnits="userSpaceOnUse"><stop stop-color="#C5BAEB"/><stop offset=".3" stop-color="#D4CCF0"/><stop offset=".71" stop-color="#E3DEF4"/><stop offset="1" stop-color="#E9E5F6"/></linearGradient><linearGradient id="L" x1="361.356" x2="361.356" y1="344.424" y2="298.779" gradientUnits="userSpaceOnUse"><stop stop-color="#C5BAEB"/><stop offset=".3" stop-color="#D4CCF0"/><stop offset=".71" stop-color="#E3DEF4"/><stop offset="1" stop-color="#E9E5F6"/></linearGradient><linearGradient id="M" x1="55.135" x2="55.135" y1="325.426" y2="405.269" gradientUnits="userSpaceOnUse"><stop stop-color="#fff"/><stop offset=".09" stop-color="#fff" stop-opacity=".87"/><stop offset=".28" stop-color="#fff" stop-opacity=".61"/><stop offset=".46" stop-color="#fff" stop-opacity=".39"/><stop offset=".63" stop-color="#fff" stop-opacity=".22"/><stop offset=".78" stop-color="#fff" stop-opacity=".1"/><stop offset=".91" stop-color="#fff" stop-opacity=".03"/><stop offset="1" stop-color="#fff" stop-opacity="0"/></linearGradient><linearGradient id="N" x1="345.921" x2="345.921" y1="149.42" y2="201.007" gradientUnits="userSpaceOnUse"><stop stop-color="#fff"/><stop offset=".09" stop-color="#fff" stop-opacity=".87"/><stop offset=".28" stop-color="#fff" stop-opacity=".61"/><stop offset=".46" stop-color="#fff" stop-opacity=".39"/><stop offset=".63" stop-color="#fff" stop-opacity=".22"/><stop offset=".78" stop-color="#fff" stop-opacity=".1"/><stop offset=".91" stop-color="#fff" stop-opacity=".03"/><stop offset="1" stop-color="#fff" stop-opacity="0"/></linearGradient><linearGradient id="O" x1="131.38" x2="131.38" y1="-2.422" y2="63.188" gradientUnits="userSpaceOnUse"><stop stop-color="#fff"/><stop offset=".09" stop-color="#fff" stop-opacity=".87"/><stop offset=".28" stop-color="#fff" stop-opacity=".61"/><stop offset=".46" stop-color="#fff" stop-opacity=".39"/><stop offset=".63" stop-color="#fff" stop-opacity=".22"/><stop offset=".78" stop-color="#fff" stop-opacity=".1"/><stop offset=".91" stop-color="#fff" stop-opacity=".03"/><stop offset="1" stop-color="#fff" stop-opacity="0"/></linearGradient><linearGradient id="P" x1="55.136" x2="55.136" y1="283.899" y2="246.4" gradientUnits="userSpaceOnUse"><stop stop-color="#00395E"/><stop offset=".17" stop-color="#003E66"/><stop offset=".44" stop-color="#004B7C"/><stop offset=".77" stop-color="#0061A0"/><stop offset="1" stop-color="#0072BC"/></linearGradient><linearGradient id="Q" x1="37.405" x2="53.17" y1="250.602" y2="250.602" gradientUnits="userSpaceOnUse"><stop stop-color="#FF4757"/><stop offset=".12" stop-color="#FF5362"/><stop offset=".49" stop-color="#FF7782"/><stop offset=".8" stop-color="#FF8D96"/><stop offset="1" stop-color="#FF959D"/></linearGradient><linearGradient id="R" x1="32.695" x2="32.695" y1="294.703" y2="258.763" gradientUnits="userSpaceOnUse"><stop stop-color="#00395E"/><stop offset=".17" stop-color="#003E66"/><stop offset=".44" stop-color="#004B7C"/><stop offset=".77" stop-color="#0061A0"/><stop offset="1" stop-color="#0072BC"/></linearGradient></defs></svg>