<svg xmlns="http://www.w3.org/2000/svg" width="13" height="14" fill="none"><g clip-path="url(#a)"><path fill="#000" fill-rule="evenodd" d="M0 6.695c0-1.756.685-3.44 1.904-4.682A6.44 6.44 0 0 1 6.5.074a6.44 6.44 0 0 1 4.596 1.94A6.68 6.68 0 0 1 13 6.693c0 1.756-.685 3.44-1.904 4.682a6.44 6.44 0 0 1-4.596 1.94 6.44 6.44 0 0 1-4.596-1.94A6.68 6.68 0 0 1 0 6.696m6.13 2.833 3.74-4.766-.676-.55-3.19 4.06-2.261-1.917-.555.678z" clip-rule="evenodd"/></g><defs><clipPath id="a"><path fill="#fff" d="M0 .074h13v13.241H0z"/></clipPath></defs></svg>