<svg xmlns="http://www.w3.org/2000/svg" width="500" height="487" fill="none"><path fill="url(#a)" d="M20.834 329.815C71.17 444.612 204.05 493.92 308.162 485.515c28.427-2.296 85.62-6.914 130.281-48.12 85.763-79.136 72.556-244.552-9.545-341.944-10.574-12.537-83.757-96.564-197.8-95.44C147.601.835 88.996 46.856 81.874 52.59c-9.006 7.244-28.861 24.455-46.756 51.761-42.045 64.154-45.74 153.716-14.284 225.465"/><path fill="url(#b)" d="M315.482 395.424c-.206-2.555-2.815-4.767-7.234-6.54 4.802-2.647 7.458-5.485 7.234-8.267-.678-8.423-27.351-13.145-59.578-10.548s-57.793 11.532-57.113 19.955c.206 2.554 2.816 4.765 7.234 6.538-4.801 2.648-7.459 5.486-7.234 8.269.206 2.554 2.816 4.766 7.234 6.537-4.801 2.649-7.459 5.487-7.234 8.27.206 2.554 2.816 4.766 7.234 6.539-4.801 2.647-7.459 5.485-7.234 8.268.301 3.726 5.692 6.725 14.391 8.688a75 75 0 0 0 .221 9.098c1.261 15.518 18.717 27.687 41.806 27.687s43.07-16.589 43.297-32.161a78 78 0 0 0-.452-10.157c11.047-3.689 17.775-8.205 17.422-12.566-.205-2.555-2.815-4.766-7.233-6.538 4.802-2.649 7.458-5.486 7.233-8.269-.205-2.554-2.815-4.766-7.233-6.539 4.806-2.644 7.463-5.482 7.239-8.264"/><path fill="#7D97F4" d="M241 446.486c-9.568 0-18.324-.714-25.559-2.091a.78.78 0 0 1-.638-.602.77.77 0 0 1 .113-.594.77.77 0 0 1 .507-.331.8.8 0 0 1 .309.007c11.319 2.167 26.44 2.646 42.576 1.345 13.2-1.07 25.549-3.195 35.705-6.159a.775.775 0 0 1 .434 1.486c-10.255 3.002-22.709 5.142-36.016 6.213a217 217 0 0 1-17.431.726m.165-14.818c-12.433 0-23.546-1.169-31.382-3.402a.775.775 0 1 1 .425-1.488c11.168 3.181 29.15 4.165 48.104 2.638 18.747-1.512 36.233-5.317 46.772-10.178a.774.774 0 0 1 .649 1.406c-10.703 4.934-28.378 8.788-47.298 10.315-5.906.471-11.723.709-17.27.709m-.162-14.805c-13.424 0-25.172-1.374-33.08-3.982a.773.773 0 0 1 .486-1.469c11.004 3.628 29.658 4.816 49.9 3.189 18.745-1.513 36.231-5.317 46.772-10.178a.76.76 0 0 1 .592-.024.77.77 0 0 1 .435.402.77.77 0 0 1 .024.592.78.78 0 0 1-.402.435c-10.703 4.934-28.379 8.789-47.298 10.314-5.995.491-11.857.721-17.429.721m.103-14.805c-10.649 0-20.335-.861-27.864-2.534a.78.78 0 0 1-.594-.621.8.8 0 0 1 .129-.578.76.76 0 0 1 .499-.317.8.8 0 0 1 .301.007c11.324 2.515 27.627 3.166 44.731 1.783 18.58-1.498 35.975-5.26 46.533-10.067a.76.76 0 0 1 .592-.021.8.8 0 0 1 .434.404.8.8 0 0 1 .02.593.8.8 0 0 1-.159.256.8.8 0 0 1-.245.177c-10.713 4.877-28.301 8.69-47.052 10.201-5.923.478-11.756.717-17.325.717"/><path fill="url(#c)" d="M177.169 320.679a109 109 0 0 0-19.515-38.099c-19.18-24.175-50.48-73.341-54.325-140.444C97.726 44.533 184.289-4.333 263.281 2.301c78.991 6.634 156.934 65.448 148.408 156.257-5.25 55.87-36.521 98.248-59.804 122.586-14.786 15.454-25.329 34.381-31.037 54.994-6.987 25.228-23.615 56.667-63.145 58.582-51.145 2.474-72.39-45.196-80.534-74.041"/><path fill="url(#d)" d="m270.757 375.252 27.649-179.765c.57-3.713 2.397-6.207 4.081-5.57s2.586 4.163 2.015 7.878c-.016.099-.035.222-.053.318l-31.483 178.093c-.236 1.339-.917 2.185-1.518 1.891s-.889-1.547-.691-2.845"/><path fill="url(#e)" d="m242.075 376.677-27.639-179.764c-.571-3.714-2.399-6.207-4.081-5.571s-2.587 4.165-2.016 7.879c.016.098.036.221.054.318l31.481 178.094c.237 1.34.919 2.186 1.52 1.889s.879-1.546.681-2.845"/><path fill="#fff" d="M298.198 180.053c-.703-1.13-2.319-1.551-3.628-.942l-15.39 7.19-5.351-15.221a3.27 3.27 0 0 0-1.872-1.883c-1.771-.73-3.888-.077-4.728 1.457l-.029.05-12.664 23.076-11.745-32.851-.019-.054a3.75 3.75 0 0 0-1.784-2.004c-1.962-1.071-4.57-.562-5.811 1.145l-17.693 24.357c-.714.999-.473 2.336.622 3.075 1.17.787 2.854.605 3.764-.41l15.579-17.378 14.056 31.25.011.025c.253.539.692.968 1.236 1.211 1.316.615 2.959.191 3.671-.951l13.535-21.72 5.094 10.986.047.098q.055.12.126.233c.701 1.128 2.319 1.549 3.625.941l18.26-8.541c1.308-.603 1.789-2.01 1.088-3.139" opacity=".7"/><path fill="url(#f)" d="M176.927 204.387c-4.995 4.761-13.186 9.425-25.686 8.164-23.751-2.401-26.295-24.451-23.706-35.982 2.185-9.728 22.528-24.512 40.352-15.395 3.781 1.935 8.05-1.375 7.3-5.737l-8.979-52.304-57.413 11.535c-4.995 1.003-9.242-3.924-7.835-9.154 1.538-5.708 2.658-13.3 1.825-22.338-1.928-20.87-20.335-27.011-36.758-22.429-14.15 3.946-28.037 30.07-8.5 50.997 3.825 4.094 1.754 11.169-3.538 12.233l-48.31 9.724 10.626 61.876c11.575-22.077 34.375-21.214 46.301-3.418 11.97 17.866 7.952 36.892-11.284 42.031-9.837 2.629-17.167-.022-21.96-3.211-2.506-1.664-5.575.551-5.04 3.662l8.576 49.945 47.733-7.927c5.296-.879 9.572 5.196 7.033 10.192-2.203 4.335-3.644 9.572-2.91 15.464 2.115 17.029 16.722 31.279 32.909 30.555 16.304-.729 30.444-19.576 25.226-35.466-2.474-7.529-6.639-14.384-10.331-19.503-3.077-4.271-.86-10.346 4.075-11.16l57.311-9.525-8.541-49.731c-.715-4.165-5.514-5.922-8.476-3.098"/><path fill="url(#g)" d="M483.159 124.476c-4.186 2.58-9.311 5.013-15.176 6.39-32.464 7.629-30.518-34.047-14.627-51.856 8.131-9.111 18.508-7.056 26.756-2.825 6.065 3.11 13.259-1.606 12.843-8.551l-3.371-56.968-53.2 4.66c-5.958.52-9.276 7.313-6.233 12.498 3.513 5.983 6.887 14.191 7.48 24.177 1.304 22.045-27.211 29.482-36.399 30.884-8.306 1.266-42.275-11.821-24.019-50.213 2.651-5.576-1.437-11.92-7.352-11.403l-58.823 5.148 3.339 56.43c.28 4.706-4.637 7.706-8.406 5.212-17.793-11.753-41.071 1.499-44.532 11.54-4.102 11.899-4.011 35.544 20.852 40.886 13.082 2.81 22.311-1.161 28.151-5.611 3.472-2.644 8.343-.216 8.609 4.281l3.175 53.653 60.685-3.261c6.023-.323 9.161-7.527 5.415-12.466-5.351-7.06-11.366-15.637-13.096-20.669-3.311-9.632.963-30.091 23.674-34.763 22.917-4.713 40.628 10.08 40.931 31.06a67.7 67.7 0 0 1-3.679 23.145c-1.82 5.242 2.304 10.702 7.745 10.417l55.611-2.988-3.066-51.82c-.387-6.691-7.638-10.469-13.287-6.987"/><defs><linearGradient id="a" x1="-26.687" x2="334.92" y1="553.28" y2="162.974" gradientUnits="userSpaceOnUse"><stop offset="1" stop-color="#F4815A" stop-opacity=".26"/></linearGradient><linearGradient id="b" x1="300.14" x2="263.139" y1="280.627" y2="389.821" gradientUnits="userSpaceOnUse"><stop stop-color="#09005D"/><stop offset="1" stop-color="#1A0F91"/></linearGradient><linearGradient id="c" x1="260.641" x2="251.617" y1="18.293" y2="388.286" gradientUnits="userSpaceOnUse"><stop offset="1" stop-color="#FFC727"/></linearGradient><linearGradient id="d" x1="286.462" x2="297.812" y1="247.025" y2="607.651" gradientUnits="userSpaceOnUse"><stop stop-color="#E1473D"/><stop offset="1" stop-color="#E9605A"/></linearGradient><linearGradient id="e" x1="223.947" x2="235.297" y1="248.993" y2="609.619" gradientUnits="userSpaceOnUse"><stop stop-color="#E1473D"/><stop offset="1" stop-color="#E9605A"/></linearGradient><linearGradient id="f" x1="149.255" x2="55.403" y1="77.559" y2="301.36" gradientUnits="userSpaceOnUse"><stop offset="1" stop-color="#1B1092"/></linearGradient><linearGradient id="g" x1="430.637" x2="339.186" y1="-13.008" y2="268.562" gradientUnits="userSpaceOnUse"><stop offset="1" stop-color="#1B1092"/></linearGradient></defs></svg>