<svg xmlns="http://www.w3.org/2000/svg" width="57" height="57" fill="none"><circle cx="28.5" cy="28.5" r="28.5" fill="#BFAAFF"/><g clip-path="url(#a)"><path fill="#fff" d="m26.536 19.737-2.166 2.166a4.4 4.4 0 0 0-1.758.954l-1.128 1.004a2.37 2.37 0 0 1-1.576.598h-.84v5.424a3.4 3.4 0 0 1 2.302.992l1.509 1.509.296.297 1.145 1.144a.68.68 0 0 0 1.114-.246 1.02 1.02 0 0 1 .733-.648c.34-.077.695.025.941.275l.458.45a1.253 1.253 0 0 0 2.14-.823c.017-.373.238-.703.577-.864a1.02 1.02 0 0 1 1.034.089 1.018 1.018 0 0 0 1.31-1.547l-3.213-3.213-1.517 1.399a3.06 3.06 0 0 1-4.179-4.475l2.97-2.806a6.254 6.254 0 0 1 8.442-.127l1.277 1.135h5.039a.68.68 0 0 1 .678.678v8.816c0 .75-.606 1.356-1.356 1.356h-1.356c-.5 0-.941-.271-1.174-.678h-3.599a3.06 3.06 0 0 1-3.242 1.644q-.23.467-.618.856a3.3 3.3 0 0 1-4.256.344 2.71 2.71 0 0 1-3.644-.174l-1.14-1.144-.297-.297-1.509-1.509a1.37 1.37 0 0 0-.864-.394c0 .746-.61 1.352-1.357 1.352h-1.356c-.75 0-1.356-.606-1.356-1.356v-8.816a.68.68 0 0 1 .678-.678h4.23a.33.33 0 0 0 .224-.084l1.124-1a6.46 6.46 0 0 1 4.284-1.628h.437c.186 0 .377.008.56.025m11.52 10.825v-6.103H36.02c-.25 0-.492-.094-.674-.259l-1.564-1.39a4.224 4.224 0 0 0-5.696.085l-2.97 2.805a1.026 1.026 0 0 0 1.399 1.5l3.046-2.813a1.014 1.014 0 0 1 1.437.059 1.014 1.014 0 0 1-.06 1.437l-.033.034 3.153 3.153c.424.424.7.945.822 1.487h3.174zm-20.344.678a.678.678 0 1 0-1.356 0 .678.678 0 0 0 1.356 0m22.378.678a.678.678 0 1 0 0-1.356.678.678 0 0 0 0 1.356"/></g><defs><clipPath id="a"><path fill="#fff" d="M15 17h27.124v21.699H15z"/></clipPath></defs></svg>