<svg xmlns="http://www.w3.org/2000/svg" width="57" height="57" fill="none"><circle cx="28.5" cy="28.5" r="28.5" fill="#FFC46A"/><path fill="#fff" d="m21.125 17-1.206 1.205L21.714 20l1.205-1.205zm15.75 0-1.795 1.795L36.286 20l1.795-1.794zM29 17.535q-.426.003-.857.055-.013-.002-.026 0c-3.476.398-6.243 3.207-6.724 6.668-.384 2.786.764 5.312 2.678 6.939a4.5 4.5 0 0 1 1.5 2.597v5.143h1.955c.298.512.842.857 1.474.857s1.176-.345 1.474-.857h1.955v-3.429h.08V34.49c0-1.257.653-2.523 1.714-3.508 1.42-1.421 2.491-3.44 2.491-5.759 0-4.234-3.485-7.728-7.714-7.688m0 1.714c3.313-.046 6 2.666 6 5.974 0 1.795-.831 3.376-1.983 4.526l.028.028a6.68 6.68 0 0 0-2.092 4.018h-3.749c-.188-1.47-.818-2.891-2.009-3.911-1.514-1.286-2.417-3.223-2.115-5.41.374-2.7 2.565-4.872 5.25-5.17q.332-.045.668-.054zm-12 5.974v1.715h2.571v-1.715zm21.429 0v1.715H41v-1.715zm-16.715 6.938-1.795 1.794 1.206 1.206 1.794-1.795zm14.572 0-1.205 1.205 1.794 1.795 1.206-1.206zm-9 3.348h3.428v1.714h-3.428z"/></svg>