<svg xmlns="http://www.w3.org/2000/svg" width="57" height="57" fill="none"><circle cx="28.5" cy="28.5" r="28.5" fill="#5CC4A8"/><g fill="#fff" clip-path="url(#a)"><path d="M29.099 16a7 7 0 0 1 1.14.086 6 6 0 0 1 1.045.231 7 7 0 0 1 1.011.395c.326.154.66.343.995.549.565.36 1.122.65 1.689.883 1.116.447 2.296.713 3.496.788a27 27 0 0 0 1.886.069v6c0 1.14-.146 2.22-.437 3.249a13.5 13.5 0 0 1-1.183 2.914 15.5 15.5 0 0 1-1.782 2.587 23 23 0 0 1-2.238 2.299 26 26 0 0 1-2.555 1.987 40 40 0 0 1-2.69 1.715l-.36.214-.36-.215a41 41 0 0 1-2.71-1.714 23.4 23.4 0 0 1-4.79-4.285 16.4 16.4 0 0 1-1.792-2.588 14.6 14.6 0 0 1-1.183-2.915 11.8 11.8 0 0 1-.43-3.248v-6c.653 0 1.279-.026 1.888-.07q.9-.062 1.782-.256a11 11 0 0 0 1.714-.531 10 10 0 0 0 1.68-.874 8.2 8.2 0 0 1 1.99-.954A7.2 7.2 0 0 1 29.098 16m9.753 4.475a14.3 14.3 0 0 1-3.351-.566 12 12 0 0 1-3.07-1.414 6.4 6.4 0 0 0-1.59-.755 5.8 5.8 0 0 0-1.735-.248 6 6 0 0 0-1.747.248 6 6 0 0 0-1.587.755 11.9 11.9 0 0 1-3.077 1.42 15 15 0 0 1-3.343.568v4.525c0 .995.129 1.945.387 2.862.263.909.625 1.785 1.08 2.614a14.4 14.4 0 0 0 1.62 2.358 22 22 0 0 0 2.013 2.074c.72.652 1.474 1.252 2.263 1.809a33 33 0 0 0 2.391 1.525q1.224-.713 2.384-1.526a23 23 0 0 0 2.27-1.808 22 22 0 0 0 2.015-2.073 14.4 14.4 0 0 0 1.62-2.359c.453-.828.81-1.705 1.064-2.614.266-.93.398-1.894.393-2.862z"/><path fill-rule="evenodd" d="m34.688 23.064-.66-.567-.609.053-6.54 7.722-2.227-3.18-.6-.102-.695.496-.103.6 2.863 4.09.326.18.685.041.351-.153 7.253-8.572z" clip-rule="evenodd"/></g><defs><clipPath id="a"><path fill="#fff" d="M17 16h24v24H17z"/></clipPath></defs></svg>