<svg xmlns="http://www.w3.org/2000/svg" width="57" height="57" fill="none"><circle cx="28.5" cy="28.5" r="28.5" fill="#7A9FFF"/><path fill="#fff" fill-rule="evenodd" d="M32.764 19.524a.8.8 0 0 0-1.268.08l-.346.52-.809 1.617a3.18 3.18 0 0 1-2.841 1.757H26a.75.75 0 1 1 0-1.5h1.5c.634 0 1.215-.357 1.5-.926l.83-1.659a1 1 0 0 1 .045-.08l.375-.559a2.298 2.298 0 0 1 3.648-.23c.524.607.79 1.397.737 2.198l-.011.182a9.5 9.5 0 0 1-.47 2.382l-.065.192h2.66a2.753 2.753 0 0 1 2.4 4.104l-.177.315a2.9 2.9 0 0 1-.736 2.856l-.143.142a3.186 3.186 0 0 1-1.742 3.651l-.164.495a2.83 2.83 0 0 1-2.687 1.937h-1.382a7.6 7.6 0 0 1-3.402-.803 11.4 11.4 0 0 1-2.974-2.145l-.273-.271a.75.75 0 0 1 1.06-1.062l.273.273a10 10 0 0 0 2.585 1.863 6.1 6.1 0 0 0 2.73.645H33.5a1.33 1.33 0 0 0 1.263-.91l.269-.805a.8.8 0 0 1 .504-.504 1.683 1.683 0 0 0 1.081-2.073l-.078-.267a.8.8 0 0 1 .203-.795l.433-.432a1.4 1.4 0 0 0 .29-1.56.75.75 0 0 1 .031-.672l.345-.615a1.254 1.254 0 0 0-1.092-1.867h-2.94a1.295 1.295 0 0 1-1.23-1.707l.153-.46c.216-.65.349-1.325.395-2.008l.011-.181a1.55 1.55 0 0 0-.374-1.118M23 22.968a.3.3 0 0 0-.3-.3h-2.4a.3.3 0 0 0-.3.3v10.06a.3.3 0 0 0 .3.3h2.4a.3.3 0 0 0 .3-.3zm-3-1.72c-.828 0-1.5.636-1.5 1.42v10.66c0 .784.672 1.42 1.5 1.42h3c.828 0 1.5-.636 1.5-1.42v-10.66c0-.784-.672-1.42-1.5-1.42z" clip-rule="evenodd"/></svg>