<svg xmlns="http://www.w3.org/2000/svg" width="81" height="82" fill="none"><g filter="url(#a)"><rect width="73" height="73" x="4" y="3" fill="#FFC36A" rx="18"/></g><g fill="#fff" clip-path="url(#b)"><path d="M41 46.125A7.125 7.125 0 1 1 48.125 39 7.05 7.05 0 0 1 41 46.125m0-11.875A4.644 4.644 0 0 0 36.25 39 4.644 4.644 0 0 0 41 43.75 4.644 4.644 0 0 0 45.75 39 4.644 4.644 0 0 0 41 34.25"/><path d="m56.8 33.115-2.803-4.855a2.37 2.37 0 0 0-2.819-1.061l-2.89.977a13 13 0 0 0-1.558-.9l-.597-2.991a2.374 2.374 0 0 0-2.33-1.91h-5.605a2.375 2.375 0 0 0-2.33 1.91l-.598 2.99q-.819.393-1.575.895l-2.874-.971a2.37 2.37 0 0 0-2.817 1.061l-2.802 4.855a2.375 2.375 0 0 0 .488 2.972l2.293 2.014c-.02.3-.045.596-.045.899q0 .46.033.91l-2.28 2.004a2.375 2.375 0 0 0-.49 2.971l2.802 4.855a2.37 2.37 0 0 0 2.82 1.063l2.89-.979q.747.505 1.557.901l.598 2.99a2.375 2.375 0 0 0 2.33 1.91h5.177V53.25h-5.177l-.843-4.216a10.8 10.8 0 0 1-3.2-1.866l-4.094 1.384-2.803-4.854 3.236-2.844a10.6 10.6 0 0 1-.008-3.715l-3.228-2.837 2.803-4.854 4.07 1.377a10.7 10.7 0 0 1 3.224-1.86l.843-4.215h5.605l.843 4.216a10.8 10.8 0 0 1 3.2 1.866l4.093-1.384 2.803 4.854-3.323 2.912L52.984 39l3.325-2.914a2.375 2.375 0 0 0 .49-2.971"/><path d="m49.313 51.088-3.076-3.075-1.675 1.674 4.75 4.75 8.313-8.312-1.674-1.675z"/></g><defs><clipPath id="b"><path fill="#fff" d="M22 20h38v38H22z"/></clipPath><filter id="a" width="81" height="81" x="0" y=".5" color-interpolation-filters="sRGB" filterUnits="userSpaceOnUse"><feFlood flood-opacity="0" result="BackgroundImageFix"/><feColorMatrix in="SourceAlpha" result="hardAlpha" values="0 0 0 0 0 0 0 0 0 0 0 0 0 0 0 0 0 0 127 0"/><feOffset dy="1.5"/><feGaussianBlur stdDeviation="2"/><feComposite in2="hardAlpha" operator="out"/><feColorMatrix values="0 0 0 0 0.360784 0 0 0 0 0.768627 0 0 0 0 0.658824 0 0 0 0.21 0"/><feBlend in2="BackgroundImageFix" result="effect1_dropShadow_515_1688"/><feBlend in="SourceGraphic" in2="effect1_dropShadow_515_1688" result="shape"/></filter></defs></svg>