<svg width="81" height="82" viewBox="0 0 81 82" fill="none" xmlns="http://www.w3.org/2000/svg">
<g filter="url(#filter0_d_629_5)">
<rect x="4" y="3" width="73" height="73" rx="18" fill="#FF759A"/>
</g>
<path d="M34 33.75H41M48 33.75H58.5M53.25 28.5V39M34 41.625C32.6655 42.3955 31.6225 43.5848 31.0328 45.0084C30.4432 46.432 30.3397 48.0105 30.7385 49.4989C31.1373 50.9873 32.0162 52.3026 33.2387 53.2406C34.4612 54.1787 35.9591 54.6872 37.5 54.6872C39.0409 54.6872 40.5388 54.1787 41.7613 53.2406C42.9838 52.3026 43.8627 50.9873 44.2615 49.4989C44.6603 48.0105 44.5569 46.432 43.9672 45.0084C43.3775 43.5848 42.3345 42.3955 41 41.625V26.75C41 25.8217 40.6313 24.9315 39.9749 24.2751C39.3185 23.6187 38.4283 23.25 37.5 23.25C36.5717 23.25 35.6815 23.6187 35.0251 24.2751C34.3688 24.9315 34 25.8217 34 26.75V41.625Z" stroke="white" stroke-width="3.5" stroke-linecap="round" stroke-linejoin="round"/>
<defs>
<filter id="filter0_d_629_5" x="0" y="0.5" width="81" height="81" filterUnits="userSpaceOnUse" color-interpolation-filters="sRGB">
<feFlood flood-opacity="0" result="BackgroundImageFix"/>
<feColorMatrix in="SourceAlpha" type="matrix" values="0 0 0 0 0 0 0 0 0 0 0 0 0 0 0 0 0 0 127 0" result="hardAlpha"/>
<feOffset dy="1.5"/>
<feGaussianBlur stdDeviation="2"/>
<feComposite in2="hardAlpha" operator="out"/>
<feColorMatrix type="matrix" values="0 0 0 0 0.360784 0 0 0 0 0.768627 0 0 0 0 0.658824 0 0 0 0.21 0"/>
<feBlend mode="normal" in2="BackgroundImageFix" result="effect1_dropShadow_629_5"/>
<feBlend mode="normal" in="SourceGraphic" in2="effect1_dropShadow_629_5" result="shape"/>
</filter>
</defs>
</svg>
