<svg xmlns="http://www.w3.org/2000/svg" width="81" height="82" fill="none"><g filter="url(#a)"><rect width="73" height="73" x="4" y="3" fill="#5CC4A8" rx="18"/></g><path fill="#fff" d="m27.878 20-2.012 2.01L28.859 25l2.01-2.009zm26.256 0-2.993 2.992 2.01 2.01 2.992-2.991zm-13.129.892a13 13 0 0 0-1.429.091c-.014 0-.028-.003-.043 0-5.795.665-10.408 5.347-11.21 11.117-.64 4.644 1.275 8.856 4.466 11.568a7.5 7.5 0 0 1 2.5 4.33v8.573h3.258A2.84 2.84 0 0 0 41.006 58a2.84 2.84 0 0 0 2.458-1.429h3.258v-5.716h.134v-1.697c0-2.095 1.09-4.207 2.858-5.849 2.367-2.37 4.153-5.734 4.153-9.6 0-7.059-5.81-12.883-12.86-12.817m0 2.858c5.523-.078 10.003 4.444 10.003 9.96 0 2.992-1.386 5.627-3.305 7.544l.045.046a11.14 11.14 0 0 0-3.486 6.699h-6.25c-.315-2.45-1.365-4.82-3.35-6.52-2.525-2.144-4.03-5.373-3.526-9.02.624-4.501 4.276-8.12 8.752-8.617q.555-.077 1.114-.091zM21 33.71v2.857h4.287V33.71zm35.724 0v2.857h4.287V33.71zM28.859 45.274l-2.992 2.991 2.01 2.01 2.99-2.992zm24.292 0-2.009 2.01 2.991 2.992 2.01-2.011zm-15.004 5.582h5.716v2.858h-5.716z"/><defs><filter id="a" width="81" height="81" x="0" y=".5" color-interpolation-filters="sRGB" filterUnits="userSpaceOnUse"><feFlood flood-opacity="0" result="BackgroundImageFix"/><feColorMatrix in="SourceAlpha" result="hardAlpha" values="0 0 0 0 0 0 0 0 0 0 0 0 0 0 0 0 0 0 127 0"/><feOffset dy="1.5"/><feGaussianBlur stdDeviation="2"/><feComposite in2="hardAlpha" operator="out"/><feColorMatrix values="0 0 0 0 0.360784 0 0 0 0 0.768627 0 0 0 0 0.658824 0 0 0 0.21 0"/><feBlend in2="BackgroundImageFix" result="effect1_dropShadow_629_2"/><feBlend in="SourceGraphic" in2="effect1_dropShadow_629_2" result="shape"/></filter></defs></svg>